<?xml version="1.0" encoding="UTF-8"?>
<svg width="32px" height="29px" viewBox="0 0 32 29" version="1.1" xmlns="http://www.w3.org/2000/svg" xmlns:xlink="http://www.w3.org/1999/xlink">
    <!-- Generator: Sketch 52.2 (67145) - http://www.bohemiancoding.com/sketch -->
    <title>condition-monitoring</title>
    <desc>Created with Sketch.</desc>
    <g id="Design" stroke="none" stroke-width="1" fill="none" fill-rule="evenodd">
        <g id="ARSData_Homepage_v1@2x" transform="translate(-506.000000, -2265.000000)">
            <g id="?-Fourth-screen" transform="translate(122.000000, 2068.000000)">
                <g id="Group-6" transform="translate(384.000000, 197.000000)">
                    <g id="condition-monitoring">
                        <path d="M1.04747015,5.93189269 L11.0467324,0.515893681 C11.6409333,0.194050815 12.3574749,0.194030777 12.9516938,0.515840411 L22.9524315,5.93191519 C23.5978937,6.28147659 24,6.95653215 24,7.69057214 L24,18.3080483 C24,19.0420185 23.5979695,19.7170215 22.9526027,20.0666125 L12.951865,25.4839469 C12.357556,25.8058802 11.6408522,25.8058601 11.0465612,25.4838936 L1.04729889,20.066635 C0.401986912,19.717027 -5.76253308e-16,19.0420541 -6.66133815e-16,18.3081241 L4.4408921e-16,7.69049636 C3.5420015e-16,6.95649649 0.402062715,6.28147108 1.04747015,5.93189269 Z" id="Path" fill="#3374FF"></path>
                        <g id="Rectangle" transform="translate(12.000000, 9.000000)" fill="#FFFFFF" fill-rule="nonzero">
                            <g id="search">
                                <path d="M15.5549072,14.7692331 L19.8372816,19.0516074 C20.0542395,19.2685654 20.0542395,19.6203236 19.8372816,19.8372816 C19.6203236,20.0542395 19.2685654,20.0542395 19.0516074,19.8372816 L14.7692331,15.5549072 C13.2021791,16.9383231 11.1435666,17.7777778 8.8888889,17.7777778 C3.97969112,17.7777778 0,13.7980867 0,8.8888889 C0,3.97969112 3.97969112,0 8.8888889,0 C13.7980867,0 17.7777778,3.97969112 17.7777778,8.8888889 C17.7777778,11.1435666 16.9383231,13.2021791 15.5549072,14.7692331 Z M8.8888889,16.6666667 C13.1844369,16.6666667 16.6666667,13.1844369 16.6666667,8.8888889 C16.6666667,4.59334084 13.1844369,1.11111111 8.8888889,1.11111111 C4.59334084,1.11111111 1.11111111,4.59334084 1.11111111,8.8888889 C1.11111111,13.1844369 4.59334084,16.6666667 8.8888889,16.6666667 Z" id="Shape"></path>
                            </g>
                        </g>
                    </g>
                </g>
            </g>
        </g>
    </g>
</svg>