<?xml version="1.0" encoding="UTF-8"?>
<svg width="32px" height="29px" viewBox="0 0 32 29" version="1.1" xmlns="http://www.w3.org/2000/svg" xmlns:xlink="http://www.w3.org/1999/xlink">
    <!-- Generator: Sketch 52.2 (67145) - http://www.bohemiancoding.com/sketch -->
    <title>data-processing</title>
    <desc>Created with Sketch.</desc>
    <g id="Design" stroke="none" stroke-width="1" fill="none" fill-rule="evenodd">
        <g id="ARSData_Homepage_v1@2x" transform="translate(-866.000000, -2545.000000)">
            <g id="?-Fourth-screen" transform="translate(122.000000, 2068.000000)">
                <g id="Group-6-Copy-5" transform="translate(696.000000, 477.000000)">
                    <g id="data-processing" transform="translate(48.000000, 0.000000)">
                        <path d="M1.04747015,5.93189269 L11.0467324,0.515893681 C11.6409333,0.194050815 12.3574749,0.194030777 12.9516938,0.515840411 L22.9524315,5.93191519 C23.5978937,6.28147659 24,6.95653215 24,7.69057214 L24,18.3080483 C24,19.0420185 23.5979695,19.7170215 22.9526027,20.0666125 L12.951865,25.4839469 C12.357556,25.8058802 11.6408522,25.8058601 11.0465612,25.4838936 L1.04729889,20.066635 C0.401986912,19.717027 -5.76253308e-16,19.0420541 -6.66133815e-16,18.3081241 L4.4408921e-16,7.69049636 C3.5420015e-16,6.95649649 0.402062715,6.28147108 1.04747015,5.93189269 Z" id="Path" fill="#3374FF"></path>
                        <g id="layer-stack" transform="translate(12.000000, 9.000000)" fill="#FFFFFF" fill-rule="nonzero">
                            <path d="M10,11.6882071 L18.4264545,6.47058824 L10,1.25296937 L1.57354553,6.47058824 L10,11.6882071 Z M0.26712678,5.95004811 L9.7671268,0.0676951651 C9.912897,-0.0225650584 10.087103,-0.0225650584 10.2328732,0.0676951651 L19.7328732,5.95004811 C20.0890423,6.17058621 20.0890423,6.77059026 19.7328732,6.99112837 L10.2328732,12.8734813 C10.087103,12.9637415 9.912897,12.9637415 9.7671268,12.8734813 L0.26712678,6.99112837 C-0.08904226,6.77059026 -0.08904226,6.17058621 0.26712678,5.95004811 Z M10,15.2176188 L19.2671268,9.47945988 C19.5114902,9.32815129 19.8138468,9.43854518 19.9424591,9.72603153 C20.0710714,10.0135179 19.9772366,10.3692315 19.7328732,10.5205401 L10.2328732,16.4028931 C10.087103,16.4931533 9.912897,16.4931533 9.7671268,16.4028931 L0.26712678,10.5205401 C0.02276336,10.3692315 -0.07107144,10.0135179 0.05754089,9.72603153 C0.18615321,9.43854518 0.4885098,9.32815129 0.73287322,9.47945988 L10,15.2176188 Z M10,18.7470306 L19.2671268,13.0088716 C19.5114902,12.8575631 19.8138468,12.9679569 19.9424591,13.2554433 C20.0710714,13.5429296 19.9772366,13.8986433 19.7328732,14.0499519 L10.2328732,19.9323048 C10.087103,20.0225651 9.912897,20.0225651 9.7671268,19.9323048 L0.26712678,14.0499519 C0.02276336,13.8986433 -0.07107144,13.5429296 0.05754089,13.2554433 C0.18615321,12.9679569 0.4885098,12.8575631 0.73287322,13.0088716 L10,18.7470306 Z" id="Shape"></path>
                        </g>
                    </g>
                </g>
            </g>
        </g>
    </g>
</svg>