<?xml version="1.0" encoding="UTF-8"?>
<svg width="32px" height="29px" viewBox="0 0 32 29" version="1.1" xmlns="http://www.w3.org/2000/svg" xmlns:xlink="http://www.w3.org/1999/xlink">
    <!-- Generator: Sketch 52.2 (67145) - http://www.bohemiancoding.com/sketch -->
    <title>machine-learning</title>
    <desc>Created with Sketch.</desc>
    <g id="Design" stroke="none" stroke-width="1" fill="none" fill-rule="evenodd">
        <g id="ARSData_Homepage_v1@2x" transform="translate(-259.000000, -2545.000000)">
            <g id="?-Fourth-screen" transform="translate(122.000000, 2068.000000)">
                <g id="Group-6-Copy-2" transform="translate(73.000000, 477.000000)">
                    <g id="machine-learning" transform="translate(64.000000, 0.000000)">
                        <path d="M1.04747015,5.93189269 L11.0467324,0.515893681 C11.6409333,0.194050815 12.3574749,0.194030777 12.9516938,0.515840411 L22.9524315,5.93191519 C23.5978937,6.28147659 24,6.95653215 24,7.69057214 L24,18.3080483 C24,19.0420185 23.5979695,19.7170215 22.9526027,20.0666125 L12.951865,25.4839469 C12.357556,25.8058802 11.6408522,25.8058601 11.0465612,25.4838936 L1.04729889,20.066635 C0.401986912,19.717027 -5.76253308e-16,19.0420541 -6.66133815e-16,18.3081241 L4.4408921e-16,7.69049636 C3.5420015e-16,6.95649649 0.402062715,6.28147108 1.04747015,5.93189269 Z" id="Path" fill="#3374FF"></path>
                        <g id="Element/Icon/Search" transform="translate(12.000000, 9.000000)">
                            <g id="noun_Doodle-Pattern_1111904"></g>
                            <circle id="Oval" stroke="#FFFFFF" cx="6.66666667" cy="6.66666667" r="1.66666667"></circle>
                            <circle id="Oval-Copy-6" stroke="#FFFFFF" cx="6.66666667" cy="16.6666667" r="2.5"></circle>
                            <circle id="Oval-Copy-2" stroke="#FFFFFF" cx="17.5" cy="16.6666667" r="1.66666667"></circle>
                            <circle id="Oval-Copy" stroke="#FFFFFF" cx="15.8333333" cy="3.33333333" r="2.5"></circle>
                            <circle id="Oval-Copy-3" stroke="#FFFFFF" cx="13.3333333" cy="10.8333333" r="2.5"></circle>
                            <circle id="Oval-Copy-4" stroke="#FFFFFF" cx="1.25" cy="11.25" r="1.25"></circle>
                            <circle id="Oval-Copy-5" stroke="#FFFFFF" cx="2.91666667" cy="2.08333333" r="1.25"></circle>
                        </g>
                    </g>
                </g>
            </g>
        </g>
    </g>
</svg>