<?xml version="1.0" encoding="UTF-8"?>
<svg width="32px" height="26px" viewBox="0 0 32 26" version="1.1" xmlns="http://www.w3.org/2000/svg" xmlns:xlink="http://www.w3.org/1999/xlink">
    <!-- Generator: Sketch 52.2 (67145) - http://www.bohemiancoding.com/sketch -->
    <title>predictive-maintenance</title>
    <desc>Created with Sketch.</desc>
    <g id="Design" stroke="none" stroke-width="1" fill="none" fill-rule="evenodd">
        <g id="ARSData_Homepage_v1@2x" transform="translate(-258.000000, -2265.000000)">
            <g id="?-Fourth-screen" transform="translate(122.000000, 2068.000000)">
                <g id="Group-6-Copy-6" transform="translate(72.000000, 197.000000)">
                    <g id="predictive-maintenance" transform="translate(64.000000, 0.000000)">
                        <path d="M1.04747015,5.93189269 L11.0467324,0.515893681 C11.6409333,0.194050815 12.3574749,0.194030777 12.9516938,0.515840411 L22.9524315,5.93191519 C23.5978937,6.28147659 24,6.95653215 24,7.69057214 L24,18.3080483 C24,19.0420185 23.5979695,19.7170215 22.9526027,20.0666125 L12.951865,25.4839469 C12.357556,25.8058802 11.6408522,25.8058601 11.0465612,25.4838936 L1.04729889,20.066635 C0.401986912,19.717027 -5.76253308e-16,19.0420541 -6.66133815e-16,18.3081241 L4.4408921e-16,7.69049636 C3.5420015e-16,6.95649649 0.402062715,6.28147108 1.04747015,5.93189269 Z" id="Path" fill="#3374FF"></path>
                        <g id="line-chart" transform="translate(12.000000, 12.333333)" fill="#FFFFFF" fill-rule="nonzero">
                            <path d="M18.1032147,1.11111111 L15,1.11111111 C14.6931751,1.11111111 14.4444444,0.862380411 14.4444444,0.555555556 C14.4444444,0.2487307 14.6931751,0 15,0 L19.4444444,0 C19.7512693,0 20,0.2487307 20,0.555555556 L20,5 C20,5.30682489 19.7512693,5.55555556 19.4444444,5.55555556 C19.1376196,5.55555556 18.8888889,5.30682489 18.8888889,5 L18.8888889,1.89678531 L13.1706149,7.61505933 C12.9536569,7.83201722 12.6018987,7.83201722 12.3849407,7.61505933 L9.44444444,4.67456311 L5.3928371,8.72617044 C5.17587916,8.94312833 4.82412084,8.94312833 4.6071629,8.72617044 C4.39020496,8.50921244 4.39020496,8.15745422 4.6071629,7.94049622 L9.05160733,3.49605178 C9.26856533,3.27909384 9.62032356,3.27909384 9.83728156,3.49605178 L12.7777778,6.436548 L18.1032147,1.11111111 Z M19.4444444,12.2222222 C19.7512693,12.2222222 20,12.4709529 20,12.7777778 C20,13.0846027 19.7512693,13.3333333 19.4444444,13.3333333 L2.77777778,13.3333333 C1.24365348,13.3333333 0,12.0896799 0,10.5555556 L0,0.555555556 C0,0.2487307 0.2487307,0 0.555555556,0 C0.862380411,0 1.11111111,0.2487307 1.11111111,0.555555556 L1.11111111,10.5555556 C1.11111111,11.4760301 1.8573032,12.2222222 2.77777778,12.2222222 L19.4444444,12.2222222 Z" id="Shape"></path>
                        </g>
                    </g>
                </g>
            </g>
        </g>
    </g>
</svg>