<?xml version="1.0" encoding="UTF-8"?>
<svg width="32px" height="29px" viewBox="0 0 32 29" version="1.1" xmlns="http://www.w3.org/2000/svg" xmlns:xlink="http://www.w3.org/1999/xlink">
    <!-- Generator: Sketch 52.2 (67145) - http://www.bohemiancoding.com/sketch -->
    <title>visualisations</title>
    <desc>Created with Sketch.</desc>
    <g id="Design" stroke="none" stroke-width="1" fill="none" fill-rule="evenodd">
        <g id="ARSData_Homepage_v1@2x" transform="translate(-1194.000000, -2545.000000)">
            <g id="?-Fourth-screen" transform="translate(122.000000, 2068.000000)">
                <g id="Group-6-Copy-4" transform="translate(1008.000000, 477.000000)">
                    <g id="visualisations" transform="translate(64.000000, 0.000000)">
                        <path d="M1.04747015,5.93189269 L11.0467324,0.515893681 C11.6409333,0.194050815 12.3574749,0.194030777 12.9516938,0.515840411 L22.9524315,5.93191519 C23.5978937,6.28147659 24,6.95653215 24,7.69057214 L24,18.3080483 C24,19.0420185 23.5979695,19.7170215 22.9526027,20.0666125 L12.951865,25.4839469 C12.357556,25.8058802 11.6408522,25.8058601 11.0465612,25.4838936 L1.04729889,20.066635 C0.401986912,19.717027 -5.76253308e-16,19.0420541 -6.66133815e-16,18.3081241 L4.4408921e-16,7.69049636 C3.5420015e-16,6.95649649 0.402062715,6.28147108 1.04747015,5.93189269 Z" id="Path" fill="#3374FF"></path>
                        <g id="desktop-2" transform="translate(12.000000, 9.000000)" fill="#FFFFFF" fill-rule="nonzero">
                            <path d="M18.8888889,3.33333333 L18.8888889,2.77777778 C18.8888889,1.8573032 18.1426968,1.11111111 17.2222222,1.11111111 L2.77777778,1.11111111 C1.8573032,1.11111111 1.11111111,1.8573032 1.11111111,2.77777778 L1.11111111,3.33333333 L18.8888889,3.33333333 Z M18.8888889,4.44444444 L1.11111111,4.44444444 L1.11111111,17.2222222 C1.11111111,18.1426968 1.8573032,18.8888889 2.77777778,18.8888889 L17.2222222,18.8888889 C18.1426968,18.8888889 18.8888889,18.1426968 18.8888889,17.2222222 L18.8888889,4.44444444 Z M0,2.77777778 C0,1.24365348 1.24365348,0 2.77777778,0 L17.2222222,0 C18.7563466,0 20,1.24365348 20,2.77777778 L20,17.2222222 C20,18.7563466 18.7563466,20 17.2222222,20 L2.77777778,20 C1.24365348,20 0,18.7563466 0,17.2222222 L0,2.77777778 Z M5,6.66666667 L7.22222222,6.66666667 C8.14269678,6.66666667 8.88888889,7.41285876 8.88888889,8.33333333 L8.88888889,9.44444444 C8.88888889,10.364919 8.14269678,11.1111111 7.22222222,11.1111111 L5,11.1111111 C4.07952542,11.1111111 3.33333333,10.364919 3.33333333,9.44444444 L3.33333333,8.33333333 C3.33333333,7.41285876 4.07952542,6.66666667 5,6.66666667 Z M5,7.77777778 C4.69317514,7.77777778 4.44444444,8.02650844 4.44444444,8.33333333 L4.44444444,9.44444444 C4.44444444,9.75126933 4.69317514,10 5,10 L7.22222222,10 C7.52904708,10 7.77777778,9.75126933 7.77777778,9.44444444 L7.77777778,8.33333333 C7.77777778,8.02650844 7.52904708,7.77777778 7.22222222,7.77777778 L5,7.77777778 Z M3.88888889,14.4444444 C3.58206403,14.4444444 3.33333333,14.1957138 3.33333333,13.8888889 C3.33333333,13.582064 3.58206403,13.3333333 3.88888889,13.3333333 L8.33333333,13.3333333 C8.64015822,13.3333333 8.88888889,13.582064 8.88888889,13.8888889 C8.88888889,14.1957138 8.64015822,14.4444444 8.33333333,14.4444444 L3.88888889,14.4444444 Z M3.88888889,16.6666667 C3.58206403,16.6666667 3.33333333,16.417936 3.33333333,16.1111111 C3.33333333,15.8042862 3.58206403,15.5555556 3.88888889,15.5555556 L7.22222222,15.5555556 C7.52904708,15.5555556 7.77777778,15.8042862 7.77777778,16.1111111 C7.77777778,16.417936 7.52904708,16.6666667 7.22222222,16.6666667 L3.88888889,16.6666667 Z M12.7777778,6.66666667 L15,6.66666667 C15.9204746,6.66666667 16.6666667,7.41285876 16.6666667,8.33333333 L16.6666667,9.44444444 C16.6666667,10.364919 15.9204746,11.1111111 15,11.1111111 L12.7777778,11.1111111 C11.8573032,11.1111111 11.1111111,10.364919 11.1111111,9.44444444 L11.1111111,8.33333333 C11.1111111,7.41285876 11.8573032,6.66666667 12.7777778,6.66666667 Z M12.7777778,7.77777778 C12.4709529,7.77777778 12.2222222,8.02650844 12.2222222,8.33333333 L12.2222222,9.44444444 C12.2222222,9.75126933 12.4709529,10 12.7777778,10 L15,10 C15.3068249,10 15.5555556,9.75126933 15.5555556,9.44444444 L15.5555556,8.33333333 C15.5555556,8.02650844 15.3068249,7.77777778 15,7.77777778 L12.7777778,7.77777778 Z M11.6666667,14.4444444 C11.3598418,14.4444444 11.1111111,14.1957138 11.1111111,13.8888889 C11.1111111,13.582064 11.3598418,13.3333333 11.6666667,13.3333333 L16.1111111,13.3333333 C16.417936,13.3333333 16.6666667,13.582064 16.6666667,13.8888889 C16.6666667,14.1957138 16.417936,14.4444444 16.1111111,14.4444444 L11.6666667,14.4444444 Z M11.6666667,16.6666667 C11.3598418,16.6666667 11.1111111,16.417936 11.1111111,16.1111111 C11.1111111,15.8042862 11.3598418,15.5555556 11.6666667,15.5555556 L15,15.5555556 C15.3068249,15.5555556 15.5555556,15.8042862 15.5555556,16.1111111 C15.5555556,16.417936 15.3068249,16.6666667 15,16.6666667 L11.6666667,16.6666667 Z" id="Shape"></path>
                        </g>
                    </g>
                </g>
            </g>
        </g>
    </g>
</svg>