<?xml version="1.0" encoding="UTF-8"?>
<svg width="24px" height="24px" viewBox="0 0 24 24" version="1.1" xmlns="http://www.w3.org/2000/svg" xmlns:xlink="http://www.w3.org/1999/xlink">
    <!-- Generator: Sketch 52.2 (67145) - http://www.bohemiancoding.com/sketch -->
    <title>Element/Icon/Broadcast</title>
    <desc>Created with Sketch.</desc>
    <g id="Element/Icon/Broadcast" stroke="none" stroke-width="1" fill="none" fill-rule="evenodd">
        <g id="broadcast" transform="translate(1.000000, 4.000000)" fill="#0052FF" fill-rule="nonzero">
            <path d="M11,12 C9.01177496,12 7.4,10.388225 7.4,8.4 C7.4,6.41177496 9.01177496,4.8 11,4.8 C12.988225,4.8 14.6,6.41177496 14.6,8.4 C14.6,10.388225 12.988225,12 11,12 Z M11,10.8 C12.3254834,10.8 13.4,9.7254834 13.4,8.4 C13.4,7.0745166 12.3254834,6 11,6 C9.6745166,6 8.6,7.0745166 8.6,8.4 C8.6,9.7254834 9.6745166,10.8 11,10.8 Z M7.20256604,13.3550948 C7.44828037,13.5774259 7.46723623,13.9568518 7.24490515,14.202566 C7.02257406,14.4482803 6.64314829,14.4672362 6.39743396,14.2449052 C6.20288352,14.068869 6.01724356,13.883229 5.84120739,13.6886785 C2.92035087,10.4606266 3.16938199,5.47595138 6.39743396,2.55509485 C6.64314829,2.33276377 7.02257406,2.35171963 7.24490515,2.59743396 C7.46723623,2.84314829 7.44828037,3.22257406 7.20256604,3.44490515 C4.46594271,5.9210995 4.25482332,10.1469232 6.73101768,12.8835464 C6.88025466,13.0484792 7.03763335,13.2058579 7.20256604,13.3550948 Z M4.01160754,0.14266938 C4.26418428,-0.07183386 4.64282739,-0.040969188 4.85733062,0.211607544 C5.07183386,0.464184276 5.04096919,0.842827392 4.78839246,1.05733062 C0.733148132,4.50128611 0.237600632,10.5805888 3.68155612,14.635833 C4.01986635,15.0341921 4.39003347,15.4043592 4.78839246,15.7426693 C5.04096919,15.9571726 5.07183386,16.3358158 4.85733062,16.5883925 C4.64282739,16.8409692 4.26418428,16.8718338 4.01160754,16.6573307 C3.56362579,16.2768778 3.14734771,15.8605997 2.76689487,15.412618 C-1.10606708,10.8522202 -0.548790232,4.01563133 4.01160754,0.14266938 Z M14.7990666,3.44637697 C14.5525394,3.22494757 14.5321936,2.84559379 14.753623,2.5990666 C14.9750524,2.3525394 15.3544062,2.33219362 15.6009334,2.55362303 C18.8297983,5.45377214 19.096275,10.4223197 16.1961259,13.6511845 C16.0085038,13.8600725 15.8098214,14.0587549 15.6009334,14.246377 C15.3544062,14.4678064 14.9750524,14.4474606 14.753623,14.2009334 C14.5321936,13.9544062 14.5525394,13.5750524 14.7990666,13.353623 C14.976057,13.1946512 15.1444002,13.026308 15.303372,12.8493176 C17.7606622,10.1135072 17.5348771,5.90366728 14.7990666,3.44637697 Z M17.2113638,1.05712349 C16.9589014,0.84248562 16.9282387,0.4638261 17.1428766,0.211363764 C17.3575144,-0.04109856 17.736174,-0.071761344 17.9886362,0.142876512 C22.5489196,4.01992816 23.1027884,10.8597396 19.2257367,15.420023 C18.8473814,15.8650537 18.433667,16.2787682 17.9886362,16.6571234 C17.736174,16.8717613 17.3575144,16.8410986 17.1428766,16.5886362 C16.9282387,16.336174 16.9589014,15.9575144 17.2113638,15.7428766 C17.6071197,15.4064136 17.9750268,15.0385066 18.3114897,14.6427505 C21.7592656,10.5873918 21.2667225,4.5048994 17.2113638,1.05712349 Z" id="Shape"></path>
        </g>
    </g>
</svg>