<?xml version="1.0" encoding="UTF-8"?>
<svg width="24px" height="24px" viewBox="0 0 24 24" version="1.1" xmlns="http://www.w3.org/2000/svg" xmlns:xlink="http://www.w3.org/1999/xlink">
    <!-- Generator: Sketch 52.2 (67145) - http://www.bohemiancoding.com/sketch -->
    <title>Element/Icon/Collapse-alt</title>
    <desc>Created with Sketch.</desc>
    <g id="Element/Icon/Collapse-alt" stroke="none" stroke-width="1" fill="none" fill-rule="evenodd">
        <g id="collapse-alt" fill="#FFFFFF" fill-rule="nonzero">
            <path d="M7.05719096,15.1578947 L0.666666667,15.1578947 C0.298476841,15.1578947 8.33333254e-10,14.8751272 8.33333254e-10,14.5263158 C8.33333254e-10,14.1775043 0.298476841,13.8947368 0.666666667,13.8947368 L8.66666667,13.8947368 C9.03485649,13.8947368 9.33333333,14.1775043 9.33333333,14.5263158 L9.33333333,22.1052632 C9.33333333,22.4540746 9.03485649,22.7368421 8.66666667,22.7368421 C8.29847684,22.7368421 8,22.4540746 8,22.1052632 L8,16.0510823 L1.13807119,22.5518569 C0.877721654,22.7985038 0.455611681,22.7985038 0.195262147,22.5518569 C-0.0650873858,22.3052099 -0.0650873858,21.9053164 0.195262147,21.6586694 L7.05719096,15.1578947 Z M8,6.68575986 L8,0.631578948 C8,0.282767533 8.29847684,6.57894651e-10 8.66666667,6.57894651e-10 C9.03485649,6.57894651e-10 9.33333333,0.282767533 9.33333333,0.631578948 L9.33333333,8.21052632 C9.33333333,8.55933773 9.03485649,8.84210526 8.66666667,8.84210526 L0.666666667,8.84210526 C0.298476841,8.84210526 8.33333254e-10,8.55933773 8.33333254e-10,8.21052632 C8.33333254e-10,7.8617149 0.298476841,7.57894737 0.666666667,7.57894737 L7.05719096,7.57894737 L0.195262147,1.0781727 C-0.0650873858,0.831525777 -0.0650873858,0.431632119 0.195262147,0.184985192 C0.455611681,-0.0616617341 0.877721654,-0.0616617341 1.13807119,0.184985192 L8,6.68575986 Z M16.9428091,7.57894737 L23.3333333,7.57894737 C23.7015232,7.57894737 24,7.8617149 24,8.21052632 C24,8.55933773 23.7015232,8.84210526 23.3333333,8.84210526 L15.3333333,8.84210526 C14.9651435,8.84210526 14.6666667,8.55933773 14.6666667,8.21052632 L14.6666667,0.631578948 C14.6666667,0.282767533 14.9651435,6.57894651e-10 15.3333333,6.57894651e-10 C15.7015232,6.57894651e-10 16,0.282767533 16,0.631578948 L16,6.68575986 L22.8619288,0.184985192 C23.1222784,-0.0616617341 23.5443883,-0.0616617341 23.8047379,0.184985192 C24.0650873,0.431632119 24.0650873,0.831525777 23.8047379,1.0781727 L16.9428091,7.57894737 Z M16.9428091,15.1578947 L23.8047379,21.6586694 C24.0650873,21.9053164 24.0650873,22.3052099 23.8047379,22.5518569 C23.5443883,22.7985038 23.1222784,22.7985038 22.8619288,22.5518569 L16,16.0510823 L16,22.1315334 C16,22.4803449 15.7015232,22.7631124 15.3333333,22.7631124 C14.9651435,22.7631124 14.6666667,22.4803449 14.6666667,22.1315334 L14.6666667,14.5263158 C14.6666667,14.1775043 14.9651435,13.8947368 15.3333333,13.8947368 L23.3333333,13.8947368 C23.7015232,13.8947368 24,14.1775043 24,14.5263158 C24,14.8751272 23.7015232,15.1578947 23.3333333,15.1578947 L16.9428091,15.1578947 Z" id="Shape"></path>
        </g>
    </g>
</svg>