<?xml version="1.0" encoding="UTF-8"?>
<svg width="24px" height="24px" viewBox="0 0 24 24" version="1.1" xmlns="http://www.w3.org/2000/svg" xmlns:xlink="http://www.w3.org/1999/xlink">
    <!-- Generator: Sketch 52.2 (67145) - http://www.bohemiancoding.com/sketch -->
    <title>Element/Icon/Cube</title>
    <desc>Created with Sketch.</desc>
    <g id="Element/Icon/Cube" stroke="none" stroke-width="1" fill="none" fill-rule="evenodd">
        <g id="shape-cube" fill="#FFFFFF" fill-rule="nonzero">
            <path d="M6,7.2 L1.2,7.2 L1.2,21.9514718 L6,17.1514718 L6,7.2 Z M7.2,6 L17.1514718,6 L21.9514718,1.2 L7.2,1.2 L7.2,6 Z M18,6.84852814 L18,16.8 L22.8,16.8 L22.8,2.04852814 L18,6.84852814 Z M16.8,18 L6.84852814,18 L2.04852814,22.8 L16.8,22.8 L16.8,18 Z M23.8242641,17.8242641 L17.8242641,23.8242641 C17.7156854,23.9328427 17.5656854,24 17.4,24 L0.6,24 C0.268629156,24 0,23.7313709 0,23.4 L0,6.6 C0,6.43431457 0.067157292,6.28431457 0.175735932,6.17573593 L6.17573593,0.175735932 C6.28431457,0.067157292 6.43431457,0 6.6,0 L23.4,0 C23.7313709,0 24,0.268629156 24,0.6 L24,17.4 C24,17.5656854 23.9328427,17.7156854 23.8242641,17.8242641 Z M21.9514718,18 L18,18 L18,21.9514718 L21.9514718,18 Z M6,2.04852814 L2.04852814,6 L6,6 L6,2.04852814 Z M7.2,7.2 L7.2,16.8 L16.8,16.8 L16.8,7.2 L7.2,7.2 Z" id="Shape"></path>
        </g>
    </g>
</svg>