<?xml version="1.0" encoding="UTF-8"?>
<svg width="24px" height="24px" viewBox="0 0 24 24" version="1.1" xmlns="http://www.w3.org/2000/svg" xmlns:xlink="http://www.w3.org/1999/xlink">
    <!-- Generator: Sketch 52.2 (67145) - http://www.bohemiancoding.com/sketch -->
    <title>Element/Icon/Dashboard</title>
    <desc>Created with Sketch.</desc>
    <g id="Element/Icon/Dashboard" stroke="none" stroke-width="1" fill="none" fill-rule="evenodd">
        <g id="desktop-2" fill="#0052FF" fill-rule="nonzero">
            <path d="M22.6666667,4 L22.6666667,3.33333333 C22.6666667,2.22876384 21.7712361,1.33333333 20.6666667,1.33333333 L3.33333333,1.33333333 C2.22876384,1.33333333 1.33333333,2.22876384 1.33333333,3.33333333 L1.33333333,4 L22.6666667,4 Z M22.6666667,5.33333333 L1.33333333,5.33333333 L1.33333333,20.6666667 C1.33333333,21.7712361 2.22876384,22.6666667 3.33333333,22.6666667 L20.6666667,22.6666667 C21.7712361,22.6666667 22.6666667,21.7712361 22.6666667,20.6666667 L22.6666667,5.33333333 Z M0,3.33333333 C0,1.49238417 1.49238417,0 3.33333333,0 L20.6666667,0 C22.5076159,0 24,1.49238417 24,3.33333333 L24,20.6666667 C24,22.5076159 22.5076159,24 20.6666667,24 L3.33333333,24 C1.49238417,24 0,22.5076159 0,20.6666667 L0,3.33333333 Z M6,8 L8.66666667,8 C9.77123613,8 10.6666667,8.89543051 10.6666667,10 L10.6666667,11.3333333 C10.6666667,12.4379028 9.77123613,13.3333333 8.66666667,13.3333333 L6,13.3333333 C4.89543051,13.3333333 4,12.4379028 4,11.3333333 L4,10 C4,8.89543051 4.89543051,8 6,8 Z M6,9.33333333 C5.63181017,9.33333333 5.33333333,9.63181013 5.33333333,10 L5.33333333,11.3333333 C5.33333333,11.7015232 5.63181017,12 6,12 L8.66666667,12 C9.03485649,12 9.33333333,11.7015232 9.33333333,11.3333333 L9.33333333,10 C9.33333333,9.63181013 9.03485649,9.33333333 8.66666667,9.33333333 L6,9.33333333 Z M4.66666667,17.3333333 C4.29847684,17.3333333 4,17.0348565 4,16.6666667 C4,16.2984768 4.29847684,16 4.66666667,16 L10,16 C10.3681899,16 10.6666667,16.2984768 10.6666667,16.6666667 C10.6666667,17.0348565 10.3681899,17.3333333 10,17.3333333 L4.66666667,17.3333333 Z M4.66666667,20 C4.29847684,20 4,19.7015232 4,19.3333333 C4,18.9651435 4.29847684,18.6666667 4.66666667,18.6666667 L8.66666667,18.6666667 C9.03485649,18.6666667 9.33333333,18.9651435 9.33333333,19.3333333 C9.33333333,19.7015232 9.03485649,20 8.66666667,20 L4.66666667,20 Z M15.3333333,8 L18,8 C19.1045695,8 20,8.89543051 20,10 L20,11.3333333 C20,12.4379028 19.1045695,13.3333333 18,13.3333333 L15.3333333,13.3333333 C14.2287639,13.3333333 13.3333333,12.4379028 13.3333333,11.3333333 L13.3333333,10 C13.3333333,8.89543051 14.2287639,8 15.3333333,8 Z M15.3333333,9.33333333 C14.9651435,9.33333333 14.6666667,9.63181013 14.6666667,10 L14.6666667,11.3333333 C14.6666667,11.7015232 14.9651435,12 15.3333333,12 L18,12 C18.3681899,12 18.6666667,11.7015232 18.6666667,11.3333333 L18.6666667,10 C18.6666667,9.63181013 18.3681899,9.33333333 18,9.33333333 L15.3333333,9.33333333 Z M14,17.3333333 C13.6318101,17.3333333 13.3333333,17.0348565 13.3333333,16.6666667 C13.3333333,16.2984768 13.6318101,16 14,16 L19.3333333,16 C19.7015232,16 20,16.2984768 20,16.6666667 C20,17.0348565 19.7015232,17.3333333 19.3333333,17.3333333 L14,17.3333333 Z M14,20 C13.6318101,20 13.3333333,19.7015232 13.3333333,19.3333333 C13.3333333,18.9651435 13.6318101,18.6666667 14,18.6666667 L18,18.6666667 C18.3681899,18.6666667 18.6666667,18.9651435 18.6666667,19.3333333 C18.6666667,19.7015232 18.3681899,20 18,20 L14,20 Z" id="Shape"></path>
        </g>
    </g>
</svg>