<?xml version="1.0" encoding="UTF-8"?>
<svg width="24px" height="24px" viewBox="0 0 24 24" version="1.1" xmlns="http://www.w3.org/2000/svg" xmlns:xlink="http://www.w3.org/1999/xlink">
    <!-- Generator: Sketch 52.2 (67145) - http://www.bohemiancoding.com/sketch -->
    <title>Element/Icon/Database</title>
    <desc>Created with Sketch.</desc>
    <g id="Element/Icon/Database" stroke="none" stroke-width="1" fill="none" fill-rule="evenodd">
        <g id="database" fill="#FFFFFF" fill-rule="nonzero">
            <path d="M1.2,5.85459837 L1.2,9.33333347 C1.2,9.791494 2.22436,10.49964 4.09167868,11.0456396 C6.16206232,11.6510149 8.98388182,12 12,12 C15.0161182,12 17.8379377,11.6510149 19.9083214,11.0456396 C21.77564,10.49964 22.8,9.791494 22.8,9.33333333 L22.8,5.85459837 C20.8636356,7.20338987 16.7797889,8 12,8 C7.22021114,8 3.13636436,7.20338987 1.2,5.85459837 Z M0,4 C0,1.55568791 5.32045262,0 12,0 C18.6795474,0 24,1.55568791 24,4 L24,20 C24,22.4443121 18.6795474,24 12,24 C5.32045262,24 0,22.4443121 0,20 L0,4 Z M22.8,11.1879317 C20.8636356,12.5367232 16.7797889,13.3333333 12,13.3333333 C7.22021114,13.3333333 3.13636436,12.5367232 1.2,11.1879317 L1.2,14.6666668 C1.2,15.1248273 2.22436,15.8329733 4.09167868,16.3789729 C6.16206232,16.9843483 8.98388182,17.3333333 12,17.3333333 C15.0161182,17.3333333 17.8379377,16.9843483 19.9083214,16.3789729 C21.77564,15.8329733 22.8,15.1248273 22.8,14.6666667 L22.8,11.1879317 Z M22.8,16.5212651 C20.8636356,17.8700565 16.7797889,18.6666667 12,18.6666667 C7.22021114,18.6666667 3.13636436,17.8700565 1.2,16.5212651 L1.2,20 C1.2,20.4581607 2.22436,21.1663067 4.09167868,21.7123063 C6.16206232,22.3176816 8.98388182,22.6666667 12,22.6666667 C15.0161182,22.6666667 17.8379377,22.3176816 19.9083214,21.7123063 C21.77564,21.1663067 22.8,20.4581607 22.8,20 L22.8,16.5212651 Z M12,6.66666667 C15.0161182,6.66666667 17.8379377,6.31768157 19.9083214,5.71230624 C21.77564,5.16630663 22.8,4.45816071 22.8,4 C22.8,3.54183929 21.77564,2.83369337 19.9083214,2.28769376 C17.8379377,1.68231843 15.0161182,1.33333333 12,1.33333333 C8.98388182,1.33333333 6.16206232,1.68231843 4.09167868,2.28769376 C2.22436,2.83369337 1.2,3.54183929 1.2,4 C1.2,4.45816071 2.22436,5.16630663 4.09167868,5.71230624 C6.16206232,6.31768157 8.98388182,6.66666667 12,6.66666667 Z" id="Shape"></path>
        </g>
    </g>
</svg>