<?xml version="1.0" encoding="UTF-8"?>
<svg width="24px" height="16px" viewBox="0 0 24 16" version="1.1" xmlns="http://www.w3.org/2000/svg" xmlns:xlink="http://www.w3.org/1999/xlink">
    <!-- Generator: Sketch 52.2 (67145) - http://www.bohemiancoding.com/sketch -->
    <title>Shape</title>
    <desc>Created with Sketch.</desc>
    <g id="Symbols" stroke="none" stroke-width="1" fill="none" fill-rule="evenodd">
        <g id="Element/Icon/Eye" transform="translate(0.000000, -4.000000)" fill="#FFFFFF" fill-rule="nonzero">
            <g id="eye" transform="translate(0.000000, 4.000000)">
                <path d="M0.040583223,7.79365982 C2.60170703,1.51070525 10.0323214,-1.60766679 16.6373249,0.828580885 C19.9985146,2.0683517 22.6560983,4.59635612 23.9594168,7.79365982 C24.0135277,7.92640495 24.0135277,8.07359506 23.9594168,8.20634019 C21.398293,14.4892947 13.9676786,17.6076668 7.36267512,15.1714191 C4.00148544,13.9316483 1.34390166,11.4036439 0.040583223,8.20634019 C-0.013527741,8.07359506 -0.013527741,7.92640495 0.040583223,7.79365982 Z M7.79650855,14.107138 C13.710826,16.2886269 20.3554342,13.5567983 22.7539837,8.00005423 C21.5439438,5.19953103 19.1775815,2.98985155 16.2034914,1.892862 C10.289174,-0.288626916 3.64456584,2.44320168 1.24601631,7.99994579 C2.45605619,10.800469 4.82241855,13.0101485 7.79650855,14.107138 Z M12,12.56596 C9.3490332,12.56596 7.2,10.5217101 7.2,8.00000001 C7.2,5.47828993 9.3490332,3.43404001 12,3.43404001 C14.6509668,3.43404001 16.8,5.47828993 16.8,8.00000001 C16.8,10.5217101 14.6509668,12.56596 12,12.56596 Z M12,11.42447 C13.988225,11.42447 15.6,9.8912825 15.6,8.00000001 C15.6,6.10871751 13.988225,4.57553001 12,4.57553001 C10.011775,4.57553001 8.4,6.10871751 8.4,8.00000001 C8.4,9.8912825 10.011775,11.42447 12,11.42447 Z" id="Shape"></path>
            </g>
        </g>
    </g>
</svg>