<?xml version="1.0" encoding="UTF-8"?>
<svg width="24px" height="24px" viewBox="0 0 24 24" version="1.1" xmlns="http://www.w3.org/2000/svg" xmlns:xlink="http://www.w3.org/1999/xlink">
    <!-- Generator: Sketch 52.2 (67145) - http://www.bohemiancoding.com/sketch -->
    <title>Element/Icon/Grid</title>
    <desc>Created with Sketch.</desc>
    <g id="Element/Icon/Grid" stroke="none" stroke-width="1" fill="none" fill-rule="evenodd">
        <g id="grid" fill="#FFFFFF" fill-rule="nonzero">
            <path d="M0,3.33333333 C0,1.49238417 1.49238417,0 3.33333333,0 L7.33333333,0 C9.17428249,0 10.6666667,1.49238417 10.6666667,3.33333333 L10.6666667,7.33333333 C10.6666667,9.17428249 9.17428249,10.6666667 7.33333333,10.6666667 L3.33333333,10.6666667 C1.49238417,10.6666667 0,9.17428249 0,7.33333333 L0,3.33333333 Z M1.33333333,3.33333333 L1.33333333,7.33333333 C1.33333333,8.43790283 2.22876384,9.33333333 3.33333333,9.33333333 L7.33333333,9.33333333 C8.43790283,9.33333333 9.33333333,8.43790283 9.33333333,7.33333333 L9.33333333,3.33333333 C9.33333333,2.22876384 8.43790283,1.33333333 7.33333333,1.33333333 L3.33333333,1.33333333 C2.22876384,1.33333333 1.33333333,2.22876384 1.33333333,3.33333333 Z M13.3333333,3.33333333 C13.3333333,1.49238417 14.8257175,0 16.6666667,0 L20.6666667,0 C22.5076159,0 24,1.49238417 24,3.33333333 L24,7.33333333 C24,9.17428249 22.5076159,10.6666667 20.6666667,10.6666667 L16.6666667,10.6666667 C14.8257175,10.6666667 13.3333333,9.17428249 13.3333333,7.33333333 L13.3333333,3.33333333 Z M14.6666667,3.33333333 L14.6666667,7.33333333 C14.6666667,8.43790283 15.5620972,9.33333333 16.6666667,9.33333333 L20.6666667,9.33333333 C21.7712361,9.33333333 22.6666667,8.43790283 22.6666667,7.33333333 L22.6666667,3.33333333 C22.6666667,2.22876384 21.7712361,1.33333333 20.6666667,1.33333333 L16.6666667,1.33333333 C15.5620972,1.33333333 14.6666667,2.22876384 14.6666667,3.33333333 Z M0,16.6666667 C0,14.8257175 1.49238417,13.3333333 3.33333333,13.3333333 L7.33333333,13.3333333 C9.17428249,13.3333333 10.6666667,14.8257175 10.6666667,16.6666667 L10.6666667,20.6666667 C10.6666667,22.5076159 9.17428249,24 7.33333333,24 L3.33333333,24 C1.49238417,24 0,22.5076159 0,20.6666667 L0,16.6666667 Z M1.33333333,16.6666667 L1.33333333,20.6666667 C1.33333333,21.7712361 2.22876384,22.6666667 3.33333333,22.6666667 L7.33333333,22.6666667 C8.43790283,22.6666667 9.33333333,21.7712361 9.33333333,20.6666667 L9.33333333,16.6666667 C9.33333333,15.5620972 8.43790283,14.6666667 7.33333333,14.6666667 L3.33333333,14.6666667 C2.22876384,14.6666667 1.33333333,15.5620972 1.33333333,16.6666667 Z M13.3333333,16.6666667 C13.3333333,14.8257175 14.8257175,13.3333333 16.6666667,13.3333333 L20.6666667,13.3333333 C22.5076159,13.3333333 24,14.8257175 24,16.6666667 L24,20.6666667 C24,22.5076159 22.5076159,24 20.6666667,24 L16.6666667,24 C14.8257175,24 13.3333333,22.5076159 13.3333333,20.6666667 L13.3333333,16.6666667 Z M14.6666667,16.6666667 L14.6666667,20.6666667 C14.6666667,21.7712361 15.5620972,22.6666667 16.6666667,22.6666667 L20.6666667,22.6666667 C21.7712361,22.6666667 22.6666667,21.7712361 22.6666667,20.6666667 L22.6666667,16.6666667 C22.6666667,15.5620972 21.7712361,14.6666667 20.6666667,14.6666667 L16.6666667,14.6666667 C15.5620972,14.6666667 14.6666667,15.5620972 14.6666667,16.6666667 Z" id="Shape"></path>
        </g>
    </g>
</svg>