<?xml version="1.0" encoding="UTF-8"?>
<svg width="24px" height="24px" viewBox="0 0 24 24" version="1.1" xmlns="http://www.w3.org/2000/svg" xmlns:xlink="http://www.w3.org/1999/xlink">
    <!-- Generator: Sketch 52.2 (67145) - http://www.bohemiancoding.com/sketch -->
    <title>Element/Icon/Layer-stack</title>
    <desc>Created with Sketch.</desc>
    <g id="Element/Icon/Layer-stack" stroke="none" stroke-width="1" fill="none" fill-rule="evenodd">
        <g id="layer-stack" fill="#0052FF" fill-rule="nonzero">
            <path d="M12,14.0258485 L22.1117454,7.76470588 L12,1.50356324 L1.88825464,7.76470588 L12,14.0258485 Z M0.320552136,7.14005773 L11.7205522,0.0812341987 C11.8954764,-0.0270780696 12.1045236,-0.0270780696 12.2794478,0.0812341987 L23.6794478,7.14005773 C24.1068508,7.40470346 24.1068508,8.12470831 23.6794478,8.38935404 L12.2794478,15.4481776 C12.1045236,15.5564898 11.8954764,15.5564898 11.7205522,15.4481776 L0.320552136,8.38935404 C-0.106850712,8.12470831 -0.106850712,7.40470346 0.320552136,7.14005773 Z M12,18.2611426 L23.1205522,11.3753519 C23.4137882,11.1937816 23.7766162,11.3262542 23.9309509,11.6712378 C24.0852857,12.0162215 23.9726839,12.4430778 23.6794478,12.6246481 L12.2794478,19.6834717 C12.1045236,19.791784 11.8954764,19.791784 11.7205522,19.6834717 L0.320552136,12.6246481 C0.027316032,12.4430778 -0.085285728,12.0162215 0.069049068,11.6712378 C0.223383852,11.3262542 0.58621176,11.1937816 0.879447864,11.3753519 L12,18.2611426 Z M12,22.4964367 L23.1205522,15.610646 C23.4137882,15.4290757 23.7766162,15.5615483 23.9309509,15.906532 C24.0852857,16.2515156 23.9726839,16.678372 23.6794478,16.8599423 L12.2794478,23.9187658 C12.1045236,24.0270781 11.8954764,24.0270781 11.7205522,23.9187658 L0.320552136,16.8599423 C0.027316032,16.678372 -0.085285728,16.2515156 0.069049068,15.906532 C0.223383852,15.5615483 0.58621176,15.4290757 0.879447864,15.610646 L12,22.4964367 Z" id="Shape"></path>
        </g>
    </g>
</svg>