<?xml version="1.0" encoding="UTF-8"?>
<svg width="24px" height="24px" viewBox="0 0 24 24" version="1.1" xmlns="http://www.w3.org/2000/svg" xmlns:xlink="http://www.w3.org/1999/xlink">
    <!-- Generator: Sketch 52.2 (67145) - http://www.bohemiancoding.com/sketch -->
    <title>Element/Icon/Line-chart</title>
    <desc>Created with Sketch.</desc>
    <g id="Element/Icon/Line-chart" stroke="none" stroke-width="1" fill="none" fill-rule="evenodd">
        <g id="line-chart" transform="translate(0.000000, 4.000000)" fill="#0052FF" fill-rule="nonzero">
            <path d="M21.7238576,1.33333333 L18,1.33333333 C17.6318101,1.33333333 17.3333333,1.03485649 17.3333333,0.666666667 C17.3333333,0.29847684 17.6318101,0 18,0 L23.3333333,0 C23.7015232,0 24,0.29847684 24,0.666666667 L24,6 C24,6.36818987 23.7015232,6.66666667 23.3333333,6.66666667 C22.9651435,6.66666667 22.6666667,6.36818987 22.6666667,6 L22.6666667,2.27614237 L15.8047379,9.1380712 C15.5443883,9.39842067 15.1222784,9.39842067 14.8619288,9.1380712 L11.3333333,5.60947573 L6.47140452,10.4714045 C6.21105499,10.731754 5.78894501,10.731754 5.52859548,10.4714045 C5.26824595,10.2110549 5.26824595,9.78894507 5.52859548,9.52859547 L10.8619288,4.19526213 C11.1222784,3.93491261 11.5443883,3.93491261 11.8047379,4.19526213 L15.3333333,7.7238576 L21.7238576,1.33333333 Z M23.3333333,14.6666667 C23.7015232,14.6666667 24,14.9651435 24,15.3333333 C24,15.7015232 23.7015232,16 23.3333333,16 L3.33333333,16 C1.49238417,16 0,14.5076159 0,12.6666667 L0,0.666666667 C0,0.29847684 0.29847684,0 0.666666667,0 C1.03485649,0 1.33333333,0.29847684 1.33333333,0.666666667 L1.33333333,12.6666667 C1.33333333,13.7712361 2.22876384,14.6666667 3.33333333,14.6666667 L23.3333333,14.6666667 Z" id="Shape"></path>
        </g>
    </g>
</svg>