<?xml version="1.0" encoding="UTF-8"?>
<svg width="24px" height="24px" viewBox="0 0 24 24" version="1.1" xmlns="http://www.w3.org/2000/svg" xmlns:xlink="http://www.w3.org/1999/xlink">
    <!-- Generator: Sketch 52.2 (67145) - http://www.bohemiancoding.com/sketch -->
    <title>Element/Icon/Location</title>
    <desc>Created with Sketch.</desc>
    <g id="Element/Icon/Location" stroke="none" stroke-width="1" fill="none" fill-rule="evenodd">
        <g id="my-location" fill="#0052FF" fill-rule="nonzero">
            <path d="M21.8995491,12.5217391 C21.6371973,17.5812541 17.5812541,21.6371973 12.5217391,21.8995491 L12.5217391,23.4782609 C12.5217391,23.7664095 12.2881486,24 12,24 C11.7118514,24 11.4782609,23.7664095 11.4782609,23.4782609 L11.4782609,21.8995491 C6.41874597,21.6371973 2.36280275,17.5812541 2.10045085,12.5217391 L0.52173913,12.5217391 C0.23359057,12.5217391 0,12.2881486 0,12 C0,11.7118514 0.23359057,11.4782609 0.52173913,11.4782609 L2.10045085,11.4782609 C2.36280275,6.41874597 6.41874597,2.36280275 11.4782609,2.10045085 L11.4782609,0.52173913 C11.4782609,0.23359057 11.7118514,0 12,0 C12.2881486,0 12.5217391,0.23359057 12.5217391,0.52173913 L12.5217391,2.10045085 C17.5812541,2.36280275 21.6371973,6.41874597 21.8995491,11.4782609 L23.4782609,11.4782609 C23.7664095,11.4782609 24,11.7118514 24,12 C24,12.2881486 23.7664095,12.5217391 23.4782609,12.5217391 L21.8995491,12.5217391 Z M12,20.8695652 C16.8985256,20.8695652 20.8695652,16.8985256 20.8695652,12 C20.8695652,7.1014744 16.8985256,3.13043478 12,3.13043478 C7.1014744,3.13043478 3.13043478,7.1014744 3.13043478,12 C3.13043478,16.8985256 7.1014744,20.8695652 12,20.8695652 Z M12,16.6956522 C9.40666289,16.6956522 7.30434783,14.5933371 7.30434783,12 C7.30434783,9.40666289 9.40666289,7.30434783 12,7.30434783 C14.5933371,7.30434783 16.6956522,9.40666289 16.6956522,12 C16.6956522,14.5933371 14.5933371,16.6956522 12,16.6956522 Z M12,15.6521739 C14.0170399,15.6521739 15.6521739,14.0170399 15.6521739,12 C15.6521739,9.98296007 14.0170399,8.34782609 12,8.34782609 C9.98296007,8.34782609 8.34782609,9.98296007 8.34782609,12 C8.34782609,14.0170399 9.98296007,15.6521739 12,15.6521739 Z" id="Shape"></path>
        </g>
    </g>
</svg>