<?xml version="1.0" encoding="UTF-8"?>
<svg width="24px" height="24px" viewBox="0 0 24 24" version="1.1" xmlns="http://www.w3.org/2000/svg" xmlns:xlink="http://www.w3.org/1999/xlink">
    <!-- Generator: Sketch 52.2 (67145) - http://www.bohemiancoding.com/sketch -->
    <title>Element/Icon/Mail</title>
    <desc>Created with Sketch.</desc>
    <g id="Element/Icon/Mail" stroke="none" stroke-width="1" fill="none" fill-rule="evenodd">
        <g id="mail" transform="translate(0.000000, 4.000000)" fill="#0052FF" fill-rule="nonzero">
            <path d="M2.21609815,15.4323306 C2.45306256,15.5471506 2.71901242,15.6115345 2.99999997,15.6115345 L21.000003,15.6115345 C21.2809914,15.6115345 21.546942,15.5471503 21.783907,15.4323295 L14.6935527,8.7590549 L12.3814274,10.663158 C12.159874,10.8456138 11.8401323,10.8456138 11.6185788,10.663158 L9.30645356,8.7590549 L2.21609815,15.4323306 Z M1.37171425,14.5797866 C1.37727037,14.5741315 1.38296047,14.5685612 1.38878443,14.5630798 L8.37264416,7.99003539 L1.41857889,2.26315812 C1.40341504,2.25067024 1.38902152,2.2375938 1.37540418,2.22398917 C1.26296441,2.45896058 1.19999999,2.72212721 1.19999999,2.99999997 L1.19999999,13.8115345 C1.19999999,14.0863528 1.26158779,14.3467866 1.37171425,14.5797866 Z M22.6282899,14.5797843 C22.7384157,14.3467849 22.800003,14.086352 22.800003,13.8115345 L22.800003,2.99999997 C22.800003,2.72212808 22.737039,2.45896224 22.6245999,2.22399138 C22.6109832,2.2375952 22.5965904,2.25067091 22.5814273,2.26315812 L15.6273621,7.99003539 L22.6112218,14.5630798 C22.617045,14.5685605 22.6227345,14.57413 22.6282899,14.5797843 Z M21.7733167,1.37411634 C21.5390293,1.26248373 21.2768131,1.19999999 21.000003,1.19999999 L2.99999997,1.19999999 C2.7231907,1.19999999 2.4609752,1.26248337 2.22668827,1.37411535 L12.0000031,9.42272762 L21.7733167,1.37411634 Z M2.99999997,0 L21.000003,0 C22.6568573,0 24.000003,1.34314574 24.000003,2.99999997 L24.000003,13.8115345 C24.000003,15.4683887 22.6568573,16.8115345 21.000003,16.8115345 L2.99999997,16.8115345 C1.34314574,16.8115345 0,15.4683887 0,13.8115345 L0,2.99999997 C0,1.34314574 1.34314574,0 2.99999997,0 Z" id="Shape"></path>
        </g>
    </g>
</svg>