<?xml version="1.0" encoding="UTF-8"?>
<svg width="24px" height="24px" viewBox="0 0 24 24" version="1.1" xmlns="http://www.w3.org/2000/svg" xmlns:xlink="http://www.w3.org/1999/xlink">
    <!-- Generator: Sketch 52.2 (67145) - http://www.bohemiancoding.com/sketch -->
    <title>Element/Icon/Pin</title>
    <desc>Created with Sketch.</desc>
    <g id="Element/Icon/Pin" stroke="none" stroke-width="1" fill="none" fill-rule="evenodd">
        <g id="pin" transform="translate(5.000000, 0.000000)" fill="#0052FF" fill-rule="nonzero">
            <path d="M0,7.33333333 C0,3.28324517 3.28324517,0 7.33333333,0 C11.3834215,0 14.6666667,3.28324517 14.6666667,7.33333333 C14.6666667,11.1586951 11.7376667,14.2999521 8,14.6367713 L8,23.3333333 C8,23.7015232 7.7015232,24 7.33333333,24 C6.96514347,24 6.66666667,23.7015232 6.66666667,23.3333333 L6.66666667,14.6367713 C2.92899999,14.2999521 0,11.1586951 0,7.33333333 Z M7.33333333,13.3333333 C10.6470419,13.3333333 13.3333333,10.6470419 13.3333333,7.33333333 C13.3333333,4.01962484 10.6470419,1.33333333 7.33333333,1.33333333 C4.0196248,1.33333333 1.33333333,4.01962484 1.33333333,7.33333333 C1.33333333,10.6470419 4.0196248,13.3333333 7.33333333,13.3333333 Z" id="Shape"></path>
        </g>
    </g>
</svg>