<?xml version="1.0" encoding="UTF-8"?>
<svg width="18px" height="19px" viewBox="0 0 18 19" version="1.1" xmlns="http://www.w3.org/2000/svg" xmlns:xlink="http://www.w3.org/1999/xlink">
    <!-- Generator: Sketch 55.1 (78136) - https://sketchapp.com -->
    <title>arrow-up</title>
    <desc>Created with Sketch.</desc>
    <g id="Symbols" stroke="none" stroke-width="1" fill="none" fill-rule="evenodd">
        <g id="Element/Icon/Arrow-up" transform="translate(-3.000000, -2.000000)" fill="#0052FF" fill-rule="nonzero">
            <g id="arrow-up" transform="translate(3.000000, 2.000000)">
                <path d="M9.99999999,3.41421356 L9.99999999,18 C9.99999999,18.5522848 9.5522848,19 8.99999999,19 C8.4477152,19 7.99999999,18.5522848 7.99999999,18 L7.99999999,3.41421356 L1.70710678,9.7071068 C1.31658248,10.097631 0.68341752,10.097631 0.29289322,9.7071068 C-0.09763108,9.3165824 -0.09763108,8.6834176 0.29289322,8.2928932 L8.2928932,0.29289322 C8.6834176,-0.09763108 9.3165824,-0.09763108 9.7071068,0.29289322 L17.7071068,8.2928932 C18.097631,8.6834176 18.097631,9.3165824 17.7071068,9.7071068 C17.3165824,10.097631 16.6834176,10.097631 16.2928932,9.7071068 L9.99999999,3.41421356 Z" id="Path"></path>
            </g>
        </g>
    </g>
</svg>