<?xml version="1.0" encoding="UTF-8"?>
<svg width="24px" height="24px" viewBox="0 0 24 24" version="1.1" xmlns="http://www.w3.org/2000/svg" xmlns:xlink="http://www.w3.org/1999/xlink">
    <!-- Generator: Sketch 52.2 (67145) - http://www.bohemiancoding.com/sketch -->
    <title>Element/Icon/Responsive</title>
    <desc>Created with Sketch.</desc>
    <g id="Element/Icon/Responsive" stroke="none" stroke-width="1" fill="none" fill-rule="evenodd">
        <g id="responsive" fill="#0052FF" fill-rule="nonzero">
            <path d="M18,4.8 L18,3 C18,2.00588746 17.1941125,1.2 16.2,1.2 L3,1.2 C2.00588746,1.2 1.2,2.00588746 1.2,3 L1.2,4.8 L18,4.8 Z M13.7997803,6 L1.2,6 L1.2,17.4 C1.2,18.3941125 2.00588746,19.2 3,19.2 L13.2,19.2 L13.2,7.8 C13.2,7.12463645 13.4231669,6.50139632 13.7997803,6 Z M16.2,6 C15.2058875,6 14.4,6.80588746 14.4,7.8 L14.4,21 C14.4,21.9941125 15.2058875,22.8 16.2,22.8 L21,22.8 C21.9941125,22.8 22.8,21.9941125 22.8,21 L22.8,7.8 C22.8,6.80588746 21.9941125,6 21,6 L16.2,6 Z M19.2,4.8 L21,4.8 C22.6568543,4.8 24,6.14314576 24,7.8 L24,21 C24,22.6568543 22.6568543,24 21,24 L16.2,24 C14.5431457,24 13.2,22.6568543 13.2,21 L13.2,20.4 L3,20.4 C1.34314576,20.4 0,19.0568543 0,17.4 L0,3 C0,1.34314576 1.34314576,0 3,0 L16.2,0 C17.8568543,0 19.2,1.34314576 19.2,3 L19.2,4.8 Z M2.4,2.4 L3.6,2.4 L3.6,3.6 L2.4,3.6 L2.4,2.4 Z M4.8,2.4 L6,2.4 L6,3.6 L4.8,3.6 L4.8,2.4 Z M7.2,2.4 L8.4,2.4 L8.4,3.6 L7.2,3.6 L7.2,2.4 Z M17.4,21.6 C17.0686291,21.6 16.8,21.3313709 16.8,21 C16.8,20.6686291 17.0686291,20.4 17.4,20.4 L19.8,20.4 C20.1313709,20.4 20.4,20.6686291 20.4,21 C20.4,21.3313709 20.1313709,21.6 19.8,21.6 L17.4,21.6 Z" id="Shape"></path>
        </g>
    </g>
</svg>