<?xml version="1.0" encoding="UTF-8"?>
<svg width="20px" height="20px" viewBox="0 0 20 20" version="1.1" xmlns="http://www.w3.org/2000/svg" xmlns:xlink="http://www.w3.org/1999/xlink">
    <!-- Generator: Sketch 52.2 (67145) - http://www.bohemiancoding.com/sketch -->
    <title>Element/Icon/Search white</title>
    <desc>Created with Sketch.</desc>
    <g id="Element/Icon/Search-white" stroke="none" stroke-width="1" fill="none" fill-rule="evenodd">
        <g id="Rectangle">
            <g id="Element/Icon/Search" fill="#0052FF">
                <g id="search">
                    <path d="M15.5549072,14.7692331 L19.8372816,19.0516074 C20.0542395,19.2685654 20.0542395,19.6203236 19.8372816,19.8372816 C19.6203236,20.0542395 19.2685654,20.0542395 19.0516074,19.8372816 L14.7692331,15.5549072 C13.2021791,16.9383231 11.1435666,17.7777778 8.8888889,17.7777778 C3.97969112,17.7777778 0,13.7980867 0,8.8888889 C0,3.97969112 3.97969112,0 8.8888889,0 C13.7980867,0 17.7777778,3.97969112 17.7777778,8.8888889 C17.7777778,11.1435666 16.9383231,13.2021791 15.5549072,14.7692331 Z M8.8888889,16.6666667 C13.1844369,16.6666667 16.6666667,13.1844369 16.6666667,8.8888889 C16.6666667,4.59334084 13.1844369,1.11111111 8.8888889,1.11111111 C4.59334084,1.11111111 1.11111111,4.59334084 1.11111111,8.8888889 C1.11111111,13.1844369 4.59334084,16.6666667 8.8888889,16.6666667 Z" id="Shape" fill-rule="nonzero"></path>
                </g>
            </g>
            <rect fill="#FFFFFF" x="0" y="0" width="20" height="20"></rect>
        </g>
    </g>
</svg>