<?xml version="1.0" encoding="UTF-8"?>
<svg width="24px" height="24px" viewBox="0 0 24 24" version="1.1" xmlns="http://www.w3.org/2000/svg" xmlns:xlink="http://www.w3.org/1999/xlink">
    <!-- Generator: Sketch 52.2 (67145) - http://www.bohemiancoding.com/sketch -->
    <title>Element/Icon/Search</title>
    <desc>Created with Sketch.</desc>
    <g id="Element/Icon/Search" stroke="none" stroke-width="1" fill="none" fill-rule="evenodd">
        <g id="search" fill="#0052FF" fill-rule="nonzero">
            <path d="M18.6658887,17.7230798 L23.8047379,22.8619288 C24.0650874,23.1222784 24.0650874,23.5443883 23.8047379,23.8047379 C23.5443883,24.0650874 23.1222784,24.0650874 22.8619288,23.8047379 L17.7230798,18.6658887 C15.842615,20.3259878 13.3722799,21.3333334 10.6666667,21.3333334 C4.77562934,21.3333334 0,16.557704 0,10.6666667 C0,4.77562934 4.77562934,0 10.6666667,0 C16.557704,0 21.3333334,4.77562934 21.3333334,10.6666667 C21.3333334,13.3722799 20.3259878,15.842615 18.6658887,17.7230798 Z M10.6666667,20 C15.8213243,20 20,15.8213243 20,10.6666667 C20,5.51200901 15.8213243,1.33333334 10.6666667,1.33333334 C5.51200901,1.33333334 1.33333334,5.51200901 1.33333334,10.6666667 C1.33333334,15.8213243 5.51200901,20 10.6666667,20 Z" id="Shape"></path>
        </g>
    </g>
</svg>