<?xml version="1.0" encoding="UTF-8"?>
<svg width="24px" height="24px" viewBox="0 0 24 24" version="1.1" xmlns="http://www.w3.org/2000/svg" xmlns:xlink="http://www.w3.org/1999/xlink">
    <!-- Generator: Sketch 52.2 (67145) - http://www.bohemiancoding.com/sketch -->
    <title>Element/Icon/Server-stack</title>
    <desc>Created with Sketch.</desc>
    <g id="Element/Icon/Server-stack" stroke="none" stroke-width="1" fill="none" fill-rule="evenodd">
        <g id="server-stack" fill="#FFFFFF" fill-rule="nonzero">
            <path d="M20.4302059,7.5 C21.531827,7.5 22.4170124,6.49264068 22.4170124,5.25 L22.4170124,3.75 C22.4170124,2.50735932 21.531827,1.5 20.4398957,1.5 L3.29519451,1.5 C2.20326311,1.5 1.3180778,2.50735932 1.3180778,3.75 L1.3180778,5.25 C1.3180778,6.49264068 2.20326311,7.5 3.29519451,7.5 L20.4302061,7.5 L20.4302059,7.5 Z M0,18.75 C0,16.6789322 1.47530884,15 3.29519451,15 L20.4398957,15 C22.2597812,15 23.7350902,16.6789322 23.7350902,18.75 L23.7350902,20.25 C23.7350902,22.3210679 22.2597812,24 20.4398957,24 L3.29519451,24 C1.47530884,24 0,22.3210679 0,20.25 L0,18.75 Z M1.31775655,8.25 C0.517571654,7.5658284 0,6.47669922 0,5.25 L0,3.75 C0,1.6789322 1.47530884,0 3.29519451,0 L20.4398957,0 C22.2597812,0 23.7350902,1.6789322 23.7350902,3.75 L23.7350902,5.25 C23.7350902,6.47669922 23.2175185,7.5658284 22.4173336,8.25 C23.2175185,8.9341716 23.7350902,10.0233008 23.7350902,11.25 L23.7350902,12.75 C23.7350902,14.8210679 22.2597812,16.5 20.4398957,16.5 C20.0662288,16.5 19.771167,16.1642136 19.771167,15.75 C19.771167,15.3357864 20.0662288,15 20.4302059,15 C21.531827,15 22.4170124,13.9926407 22.4170124,12.75 L22.4170124,11.25 C22.4170124,10.0073593 21.531827,9 20.4398957,9 L3.29519451,9 C2.20326311,9 1.3180778,10.0073593 1.3180778,11.25 L1.3180778,12.75 C1.3180778,13.9926407 2.20326311,15 3.29519451,15 C3.65917164,15 3.95423341,15.3357864 3.95423341,15.75 C3.95423341,16.1642136 3.65917164,16.5 3.29519451,16.5 C1.47530884,16.5 0,14.8210679 0,12.75 L0,11.25 C0,10.0233008 0.517571654,8.9341716 1.31775655,8.25 Z M1.3180778,18.75 L1.3180778,20.25 C1.3180778,21.4926406 2.20326311,22.5 3.29519451,22.5 L20.4398957,22.5 C21.531827,22.5 22.4170124,21.4926406 22.4170124,20.25 L22.4170124,18.75 C22.4170124,17.5073593 21.531827,16.5 20.4398957,16.5 L3.29519451,16.5 C2.20326311,16.5 1.3180778,17.5073593 1.3180778,18.75 Z M3.29519451,6 C2.93121738,6 2.63615561,5.66421355 2.63615561,5.25 C2.63615561,4.83578645 2.93121738,4.5 3.29519451,4.5 L5.93135011,4.5 C6.29532724,4.5 6.59038902,4.83578645 6.59038902,5.25 C6.59038902,5.66421355 6.29532724,6 5.93135011,6 L3.29519451,6 Z M3.29519451,13.5 C2.93121738,13.5 2.63615561,13.1642136 2.63615561,12.75 C2.63615561,12.3357864 2.93121738,12 3.29519451,12 L5.93135011,12 C6.29532724,12 6.59038902,12.3357864 6.59038902,12.75 C6.59038902,13.1642136 6.29532724,13.5 5.93135011,13.5 L3.29519451,13.5 Z M3.29519451,21 C2.93121738,21 2.63615561,20.6642136 2.63615561,20.25 C2.63615561,19.8357864 2.93121738,19.5 3.29519451,19.5 L5.93135011,19.5 C6.29532724,19.5 6.59038902,19.8357864 6.59038902,20.25 C6.59038902,20.6642136 6.29532724,21 5.93135011,21 L3.29519451,21 Z" id="Shape"></path>
        </g>
    </g>
</svg>