<?xml version="1.0" encoding="UTF-8"?>
<svg width="24px" height="24px" viewBox="0 0 24 24" version="1.1" xmlns="http://www.w3.org/2000/svg" xmlns:xlink="http://www.w3.org/1999/xlink">
    <!-- Generator: Sketch 52.2 (67145) - http://www.bohemiancoding.com/sketch -->
    <title>Element/Icon/Сircle</title>
    <desc>Created with Sketch.</desc>
    <g id="Element/Icon/Сircle" stroke="none" stroke-width="1" fill="none" fill-rule="evenodd">
        <g id="shape-circle" fill="#FFFFFF" fill-rule="nonzero">
            <path d="M20.6180918,18 C21.8349235,16.2562224 22.5,14.1794919 22.5,12 C22.5,9.82056765 21.8349711,7.74385863 20.6180895,6 L19.5,6 C18.6715729,6 18,5.32842712 18,4.5 L18,3.38193002 C16.2553438,2.16456564 14.1788492,1.5 12,1.5 C9.8258457,1.5 7.75272804,2.16141686 6.00725113,3.37690017 L6,3.38188794 L6,4.5 C6,5.32842712 5.32842712,6 4.5,6 L3.38194389,6 C2.16386995,7.7458761 1.5,9.82203615 1.5,12 C1.5,14.1786696 2.1644238,16.2550972 3.3819349,18 L4.5,18 C5.32842712,18 6,18.6715729 6,19.5 L6,20.6180815 C7.7441574,21.8351454 9.8207865,22.5 12,22.5 C14.1793963,22.5 16.2560923,21.8349997 18,20.6180881 L18,19.5 C18,18.6715729 18.6715729,18 19.5,18 L20.6180918,18 Z M22.1009538,18.4812156 C22.3486236,18.7487325 22.5,19.1066883 22.5,19.5 L22.5,21 C22.5,21.8284271 21.8284271,22.5 21,22.5 L19.5,22.5 C19.1066868,22.5 18.7487298,22.3486224 18.4812125,22.1009509 C16.5684596,23.3310384 14.3342371,24 12,24 C9.66595785,24 7.4317818,23.3311767 5.51879337,22.1009455 C5.25127544,22.3486203 4.89331603,22.5 4.5,22.5 L3,22.5 C2.17157287,22.5 1.5,21.8284271 1.5,21 L1.5,19.5 C1.5,19.106676 1.65138585,18.7487102 1.89906942,18.4811906 C0.668414595,16.5674991 0,14.333463 0,12 C0,9.6672867 0.667889145,7.43343718 1.89908612,5.51882754 C1.65139266,5.2513059 1.5,4.89333278 1.5,4.5 L1.5,3 C1.5,2.17157287 2.17157287,1.5 3,1.5 L4.5,1.5 C4.89334067,1.5 5.25132026,1.65139872 5.51884362,1.899101 C7.43449974,0.667301505 9.66813225,0 12,0 C14.3336541,0 16.5677367,0.66854919 18.4811957,1.89906468 C18.7487148,1.65138391 19.1066785,1.5 19.5,1.5 L21,1.5 C21.8284271,1.5 22.5,2.17157287 22.5,3 L22.5,4.5 C22.5,4.8933126 22.3486228,5.2512692 22.100952,5.51878638 C23.3310111,7.43149296 24,9.66572445 24,12 C24,14.334339 23.3309661,16.5685856 22.1009538,18.4812156 Z M3,3 L3,4.5 L4.5,4.5 L4.5,3 L3,3 Z M19.5,3 L19.5,4.5 L21,4.5 L21,3 L19.5,3 Z M3,19.5 L3,21 L4.5,21 L4.5,19.5 L3,19.5 Z M19.5,19.5 L19.5,21 L21,21 L21,19.5 L19.5,19.5 Z" id="Shape"></path>
        </g>
    </g>
</svg>