<?xml version="1.0" encoding="UTF-8"?>
<svg width="107px" height="27px" viewBox="0 0 107 27" version="1.1" xmlns="http://www.w3.org/2000/svg" xmlns:xlink="http://www.w3.org/1999/xlink">
    <!-- Generator: Sketch 52.2 (67145) - http://www.bohemiancoding.com/sketch -->
    <title>Logo black</title>
    <desc>Created with Sketch.</desc>
    <g id="Logo" stroke="none" stroke-width="1" fill="none" fill-rule="evenodd">
        <g id="Logo-Final" transform="translate(-447.000000, -49.000000)">
            <g id="Logo-black" transform="translate(447.000000, 49.000000)">
                <g id="Text" transform="translate(22.000000, 10.000000)" fill="#0052FF">
                    <path d="M5.62,3.78 C6.553338,3.78 7.35333,3.9999978 8.02,4.44 C8.68667,4.8800022 9.1599986,5.4733296 9.44,6.22 L9.44,3.92 L12.24,3.92 L12.24,15 L9.44,15 L9.44,12.68 C9.1599986,13.4266704 8.68667,14.0233311 8.02,14.47 C7.35333,14.9166689 6.553338,15.14 5.62,15.14 C4.686662,15.14 3.8466704,14.9133356 3.1,14.46 C2.3533296,14.0066644 1.7700021,13.3500043 1.35,12.49 C0.9299979,11.6299957 0.72,10.6200058 0.72,9.46 C0.72,8.2999942 0.9299979,7.2900043 1.35,6.43 C1.7700021,5.5699957 2.3533296,4.9133356 3.1,4.46 C3.8466704,4.0066644 4.686662,3.78 5.62,3.78 Z M6.5,6.24 C5.6199956,6.24 4.913336,6.5266638 4.38,7.1 C3.846664,7.6733362 3.58,8.459995 3.58,9.46 C3.58,10.460005 3.846664,11.2433305 4.38,11.81 C4.913336,12.3766695 5.6199956,12.66 6.5,12.66 C7.3533376,12.66 8.0566639,12.3700029 8.61,11.79 C9.1633361,11.2099971 9.44,10.4333382 9.44,9.46 C9.44,8.4733284 9.1633361,7.6900029 8.61,7.11 C8.0566639,6.5299971 7.3533376,6.24 6.5,6.24 Z M17.62,6.04 C18.0333354,5.3333298 18.5799966,4.7766687 19.26,4.37 C19.9400034,3.9633313 20.6999958,3.76 21.54,3.76 L21.54,6.78 L20.72,6.78 C18.653323,6.78 17.62,7.7399904 17.62,9.66 L17.62,15 L14.8,15 L14.8,3.92 L17.62,3.92 L17.62,6.04 Z M26.92,3.78 C28.2666734,3.78 29.3466626,4.1199966 30.16,4.8 C30.9733374,5.4800034 31.479999,6.386661 31.68,7.52 L29.04,7.52 C28.9333328,6.986664 28.6933352,6.5600016 28.32,6.24 C27.9466648,5.9199984 27.460003,5.76 26.86,5.76 C26.3799976,5.76 26.006668,5.8733322 25.74,6.1 C25.473332,6.3266678 25.34,6.6333314 25.34,7.02 C25.34,7.3266682 25.4466656,7.5733324 25.66,7.76 C25.8733344,7.9466676 26.1399984,8.0933328 26.46,8.2 C26.7800016,8.3066672 27.239997,8.4333326 27.84,8.58 C28.6800042,8.7666676 29.3633307,8.9633323 29.89,9.17 C30.4166693,9.3766677 30.8699981,9.7033311 31.25,10.15 C31.6300019,10.5966689 31.82,11.1999962 31.82,11.96 C31.82,12.9066714 31.4500037,13.6733304 30.71,14.26 C29.9699963,14.8466696 28.9733396,15.14 27.72,15.14 C26.2799928,15.14 25.126671,14.8166699 24.26,14.17 C23.393329,13.5233301 22.8666676,12.600006 22.68,11.4 L25.38,11.4 C25.446667,11.9466694 25.6866646,12.3766651 26.1,12.69 C26.5133354,13.0033349 27.05333,13.16 27.72,13.16 C28.2000024,13.16 28.5666654,13.0433345 28.82,12.81 C29.0733346,12.5766655 29.2,12.2733352 29.2,11.9 C29.2,11.5799984 29.0900011,11.320001 28.87,11.12 C28.6499989,10.919999 28.3766683,10.7666672 28.05,10.66 C27.7233317,10.5533328 27.260003,10.4266674 26.66,10.28 C25.8333292,10.0933324 25.1633359,9.9033343 24.65,9.71 C24.1366641,9.5166657 23.6966685,9.2066688 23.33,8.78 C22.9633315,8.3533312 22.78,7.7666704 22.78,7.02 C22.78,6.0599952 23.146663,5.280003 23.88,4.68 C24.613337,4.079997 25.6266602,3.78 26.92,3.78 Z M42.62,3.78 C43.553338,3.78 44.3499967,3.9999978 45.01,4.44 C45.6700033,4.8800022 46.1466652,5.4733296 46.44,6.22 L46.44,0.2 L49.24,0.2 L49.24,15 L46.44,15 L46.44,12.68 C46.1466652,13.4266704 45.6700033,14.0233311 45.01,14.47 C44.3499967,14.9166689 43.553338,15.14 42.62,15.14 C41.686662,15.14 40.8466704,14.9133356 40.1,14.46 C39.3533296,14.0066644 38.7700021,13.3500043 38.35,12.49 C37.9299979,11.6299957 37.72,10.6200058 37.72,9.46 C37.72,8.2999942 37.9299979,7.2900043 38.35,6.43 C38.7700021,5.5699957 39.3533296,4.9133356 40.1,4.46 C40.8466704,4.0066644 41.686662,3.78 42.62,3.78 Z M43.5,6.24 C42.6199956,6.24 41.913336,6.5266638 41.38,7.1 C40.846664,7.6733362 40.58,8.459995 40.58,9.46 C40.58,10.460005 40.846664,11.2433305 41.38,11.81 C41.913336,12.3766695 42.6199956,12.66 43.5,12.66 C44.3533376,12.66 45.0566639,12.3700029 45.61,11.79 C46.1633361,11.2099971 46.44,10.4333382 46.44,9.46 C46.44,8.4733284 46.1633361,7.6900029 45.61,7.11 C45.0566639,6.5299971 44.3533376,6.24 43.5,6.24 Z M56.14,3.78 C57.073338,3.78 57.87333,3.9999978 58.54,4.44 C59.20667,4.8800022 59.6799986,5.4733296 59.96,6.22 L59.96,3.92 L62.76,3.92 L62.76,15 L59.96,15 L59.96,12.68 C59.6799986,13.4266704 59.20667,14.0233311 58.54,14.47 C57.87333,14.9166689 57.073338,15.14 56.14,15.14 C55.206662,15.14 54.3666704,14.9133356 53.62,14.46 C52.8733296,14.0066644 52.2900021,13.3500043 51.87,12.49 C51.4499979,11.6299957 51.24,10.6200058 51.24,9.46 C51.24,8.2999942 51.4499979,7.2900043 51.87,6.43 C52.2900021,5.5699957 52.8733296,4.9133356 53.62,4.46 C54.3666704,4.0066644 55.206662,3.78 56.14,3.78 Z M57.02,6.24 C56.1399956,6.24 55.433336,6.5266638 54.9,7.1 C54.366664,7.6733362 54.1,8.459995 54.1,9.46 C54.1,10.460005 54.366664,11.2433305 54.9,11.81 C55.433336,12.3766695 56.1399956,12.66 57.02,12.66 C57.8733376,12.66 58.5766639,12.3700029 59.13,11.79 C59.6833361,11.2099971 59.96,10.4333382 59.96,9.46 C59.96,8.4733284 59.6833361,7.6900029 59.13,7.11 C58.5766639,6.5299971 57.8733376,6.24 57.02,6.24 Z M71.24,12.58 L71.24,15 L69.76,15 C68.5199938,15 67.5700033,14.700003 66.91,14.1 C66.2499967,13.499997 65.92,12.500007 65.92,11.1 L65.92,6.3 L64.38,6.3 L64.38,3.92 L65.92,3.92 L65.92,1.18 L68.74,1.18 L68.74,3.92 L71.22,3.92 L71.22,6.3 L68.74,6.3 L68.74,11.14 C68.74,11.673336 68.8466656,12.0466656 69.06,12.26 C69.2733344,12.4733344 69.6333308,12.58 70.14,12.58 L71.24,12.58 Z M77.6,3.78 C78.533338,3.78 79.33333,3.9999978 80,4.44 C80.66667,4.8800022 81.1399986,5.4733296 81.42,6.22 L81.42,3.92 L84.22,3.92 L84.22,15 L81.42,15 L81.42,12.68 C81.1399986,13.4266704 80.66667,14.0233311 80,14.47 C79.33333,14.9166689 78.533338,15.14 77.6,15.14 C76.666662,15.14 75.8266704,14.9133356 75.08,14.46 C74.3333296,14.0066644 73.7500021,13.3500043 73.33,12.49 C72.9099979,11.6299957 72.7,10.6200058 72.7,9.46 C72.7,8.2999942 72.9099979,7.2900043 73.33,6.43 C73.7500021,5.5699957 74.3333296,4.9133356 75.08,4.46 C75.8266704,4.0066644 76.666662,3.78 77.6,3.78 Z M78.48,6.24 C77.5999956,6.24 76.893336,6.5266638 76.36,7.1 C75.826664,7.6733362 75.56,8.459995 75.56,9.46 C75.56,10.460005 75.826664,11.2433305 76.36,11.81 C76.893336,12.3766695 77.5999956,12.66 78.48,12.66 C79.3333376,12.66 80.0366639,12.3700029 80.59,11.79 C81.1433361,11.2099971 81.42,10.4333382 81.42,9.46 C81.42,8.4733284 81.1433361,7.6900029 80.59,7.11 C80.0366639,6.5299971 79.3333376,6.24 78.48,6.24 Z" id="ars-data"></path>
                </g>
                <g id="Hexagon">
                    <path d="M11.1599293,3.36819115 L15.1198807,1.09365172 C15.4283176,0.916489996 15.8076456,0.916500936 16.1160722,1.09368045 L20.0754278,3.36818137 C20.3858875,3.54652876 20.5773071,3.87724857 20.5773071,4.23528904 L20.5773071,8.77485422 C20.5773071,9.13293058 20.3858494,9.46367783 20.0753407,9.64201191 L16.1159851,11.915984 C15.8076029,12.0930968 15.4283603,12.0931078 15.1199678,11.9160127 L11.1600163,9.64200213 C10.8494795,9.46367569 10.658,9.13291269 10.658,8.77481572 L10.658,4.23532755 C10.658,3.87726646 10.8494415,3.54653089 11.1599293,3.36819115 Z M13.8488031,5.03283704 C13.5163839,5.20446435 13.3075645,5.54728636 13.3075645,5.92139652 L13.3075645,7.08836374 C13.3075645,7.46250798 13.5164216,7.80535526 13.8488873,7.9769667 L15.1590999,8.65326953 C15.4468655,8.80180774 15.7887453,8.80179843 16.0765027,8.65324456 L17.3864682,7.97697905 C17.7189071,7.80535849 17.9277426,7.46252572 17.9277426,7.08840106 L17.9277426,5.9213592 C17.9277426,5.54726862 17.7189448,5.20446113 17.3865524,5.0328247 L16.076587,4.35640191 C15.7887842,4.20779006 15.4468266,4.20778075 15.1590157,4.35637693 L13.8488031,5.03283704 Z" id="Combined-Shape" fill="#D4D4D4"></path>
                    <path d="M1.37093266,13.5214125 L6.85799917,10.370032 C7.47476368,10.0158064 8.23324888,10.0157845 8.85003382,10.3699745 L14.3379673,13.5214321 C14.959041,13.878085 15.342,14.539611 15.342,15.2558049 L15.342,21.5413292 C15.342,22.2574513 14.9591171,22.9189225 14.3381415,23.275602 L8.850208,26.4277924 C8.23333426,26.7821158 7.47467831,26.7820939 6.85782501,26.4277349 L1.37075849,23.2756215 C0.74983921,22.9189267 0.367,22.2574871 0.367,21.5414062 L0.367,15.2557279 C0.367,14.5395752 0.749915317,13.8780807 1.37093266,13.5214125 Z" id="Path" fill="#0052FF"></path>
                </g>
            </g>
        </g>
    </g>
</svg>