<?xml version="1.0" encoding="UTF-8"?>
<svg width="134px" height="37px" viewBox="0 0 134 37" version="1.1" xmlns="http://www.w3.org/2000/svg" xmlns:xlink="http://www.w3.org/1999/xlink">
    <!-- Generator: Sketch 52.2 (67145) - http://www.bohemiancoding.com/sketch -->
    <title>Logo-black</title>
    <desc>Created with Sketch.</desc>
    <g id="Design" stroke="none" stroke-width="1" fill="none" fill-rule="evenodd">
        <g id="ARSData_Homepage_v1@2x" transform="translate(-323.000000, -4110.000000)">
            <g id="Footer" transform="translate(124.000000, 4104.000000)">
                <g id="Logo-black" transform="translate(199.000000, 0.000000)">
                    <g id="Hexagon" transform="translate(0.000000, 6.000000)">
                        <path d="M9.66185853,3.72439803 L15.149792,0.572207611 C15.7666657,0.217884169 16.5253217,0.217906051 17.142175,0.572265075 L22.6292415,3.72437849 C23.2501608,4.08107327 23.633,4.74251289 23.633,5.45859383 L23.633,11.7442721 C23.633,12.4604248 23.2500847,13.1219193 22.6290673,13.4785875 L17.1420008,16.629968 C16.5252363,16.9841936 15.7667511,16.9842155 15.1499662,16.6300255 L9.66203269,13.4785679 C9.04095903,13.121915 8.658,12.460389 8.658,11.7441951 L8.658,5.45867084 C8.658,4.74254867 9.04088292,4.08107753 9.66185853,3.72439803 Z" id="Path" fill="#D4D4D4"></path>
                        <path d="M13.1992386,6.52126898 L15.6869408,5.23687341 C15.9747517,5.08827723 16.3167092,5.08828653 16.6045121,5.23689838 L19.0918098,6.52125663 C19.4242022,6.69289306 19.633,7.03570055 19.633,7.40979113 L19.633,9.79256256 C19.633,10.1666872 19.4241645,10.50952 19.0917256,10.6811405 L16.6044278,11.9652002 C16.3166704,12.113754 15.9747906,12.1137634 15.687025,11.9652251 L13.1993228,10.6811282 C12.8668571,10.5095168 12.658,10.1666695 12.658,9.79252524 L12.658,7.40982845 C12.658,7.0357183 12.8668194,6.69289629 13.1992386,6.52126898 Z" id="Path" fill="#FFFFFF"></path>
                        <path d="M1.37093266,18.5214125 L6.85799917,15.370032 C7.47476368,15.0158064 8.23324888,15.0157845 8.85003382,15.3699745 L14.3379673,18.5214321 C14.959041,18.878085 15.342,19.539611 15.342,20.2558049 L15.342,26.5413292 C15.342,27.2574513 14.9591171,27.9189225 14.3381415,28.275602 L8.850208,31.4277924 C8.23333426,31.7821158 7.47467831,31.7820939 6.85782501,31.4277349 L1.37075849,28.2756215 C0.74983921,27.9189267 0.367,27.2574871 0.367,26.5414062 L0.367,20.2557279 C0.367,19.5395752 0.749915317,18.8780807 1.37093266,18.5214125 Z" id="Path" fill="#0052FF"></path>
                    </g>
                    <path d="M38.62,9.78 C39.553338,9.78 40.35333,9.9999978 41.02,10.44 C41.68667,10.8800022 42.1599986,11.4733296 42.44,12.22 L42.44,9.92 L45.24,9.92 L45.24,21 L42.44,21 L42.44,18.68 C42.1599986,19.4266704 41.68667,20.0233311 41.02,20.47 C40.35333,20.9166689 39.553338,21.14 38.62,21.14 C37.686662,21.14 36.8466704,20.9133356 36.1,20.46 C35.3533296,20.0066644 34.7700021,19.3500043 34.35,18.49 C33.9299979,17.6299957 33.72,16.6200058 33.72,15.46 C33.72,14.2999942 33.9299979,13.2900043 34.35,12.43 C34.7700021,11.5699957 35.3533296,10.9133356 36.1,10.46 C36.8466704,10.0066644 37.686662,9.78 38.62,9.78 Z M39.5,12.24 C38.6199956,12.24 37.913336,12.5266638 37.38,13.1 C36.846664,13.6733362 36.58,14.459995 36.58,15.46 C36.58,16.460005 36.846664,17.2433305 37.38,17.81 C37.913336,18.3766695 38.6199956,18.66 39.5,18.66 C40.3533376,18.66 41.0566639,18.3700029 41.61,17.79 C42.1633361,17.2099971 42.44,16.4333382 42.44,15.46 C42.44,14.4733284 42.1633361,13.6900029 41.61,13.11 C41.0566639,12.5299971 40.3533376,12.24 39.5,12.24 Z M50.62,12.04 C51.0333354,11.3333298 51.5799966,10.7766687 52.26,10.37 C52.9400034,9.9633313 53.6999958,9.76 54.54,9.76 L54.54,12.78 L53.72,12.78 C51.653323,12.78 50.62,13.7399904 50.62,15.66 L50.62,21 L47.8,21 L47.8,9.92 L50.62,9.92 L50.62,12.04 Z M59.92,9.78 C61.2666734,9.78 62.3466626,10.1199966 63.16,10.8 C63.9733374,11.4800034 64.479999,12.386661 64.68,13.52 L62.04,13.52 C61.9333328,12.986664 61.6933352,12.5600016 61.32,12.24 C60.9466648,11.9199984 60.460003,11.76 59.86,11.76 C59.3799976,11.76 59.006668,11.8733322 58.74,12.1 C58.473332,12.3266678 58.34,12.6333314 58.34,13.02 C58.34,13.3266682 58.4466656,13.5733324 58.66,13.76 C58.8733344,13.9466676 59.1399984,14.0933328 59.46,14.2 C59.7800016,14.3066672 60.239997,14.4333326 60.84,14.58 C61.6800042,14.7666676 62.3633307,14.9633323 62.89,15.17 C63.4166693,15.3766677 63.8699981,15.7033311 64.25,16.15 C64.6300019,16.5966689 64.82,17.1999962 64.82,17.96 C64.82,18.9066714 64.4500037,19.6733304 63.71,20.26 C62.9699963,20.8466696 61.9733396,21.14 60.72,21.14 C59.2799928,21.14 58.126671,20.8166699 57.26,20.17 C56.393329,19.5233301 55.8666676,18.600006 55.68,17.4 L58.38,17.4 C58.446667,17.9466694 58.6866646,18.3766651 59.1,18.69 C59.5133354,19.0033349 60.05333,19.16 60.72,19.16 C61.2000024,19.16 61.5666654,19.0433345 61.82,18.81 C62.0733346,18.5766655 62.2,18.2733352 62.2,17.9 C62.2,17.5799984 62.0900011,17.320001 61.87,17.12 C61.6499989,16.919999 61.3766683,16.7666672 61.05,16.66 C60.7233317,16.5533328 60.260003,16.4266674 59.66,16.28 C58.8333292,16.0933324 58.1633359,15.9033343 57.65,15.71 C57.1366641,15.5166657 56.6966685,15.2066688 56.33,14.78 C55.9633315,14.3533312 55.78,13.7666704 55.78,13.02 C55.78,12.0599952 56.146663,11.280003 56.88,10.68 C57.613337,10.079997 58.6266602,9.78 59.92,9.78 Z M75.62,9.78 C76.553338,9.78 77.3499967,9.9999978 78.01,10.44 C78.6700033,10.8800022 79.1466652,11.4733296 79.44,12.22 L79.44,6.2 L82.24,6.2 L82.24,21 L79.44,21 L79.44,18.68 C79.1466652,19.4266704 78.6700033,20.0233311 78.01,20.47 C77.3499967,20.9166689 76.553338,21.14 75.62,21.14 C74.686662,21.14 73.8466704,20.9133356 73.1,20.46 C72.3533296,20.0066644 71.7700021,19.3500043 71.35,18.49 C70.9299979,17.6299957 70.72,16.6200058 70.72,15.46 C70.72,14.2999942 70.9299979,13.2900043 71.35,12.43 C71.7700021,11.5699957 72.3533296,10.9133356 73.1,10.46 C73.8466704,10.0066644 74.686662,9.78 75.62,9.78 Z M76.5,12.24 C75.6199956,12.24 74.913336,12.5266638 74.38,13.1 C73.846664,13.6733362 73.58,14.459995 73.58,15.46 C73.58,16.460005 73.846664,17.2433305 74.38,17.81 C74.913336,18.3766695 75.6199956,18.66 76.5,18.66 C77.3533376,18.66 78.0566639,18.3700029 78.61,17.79 C79.1633361,17.2099971 79.44,16.4333382 79.44,15.46 C79.44,14.4733284 79.1633361,13.6900029 78.61,13.11 C78.0566639,12.5299971 77.3533376,12.24 76.5,12.24 Z M89.14,9.78 C90.073338,9.78 90.87333,9.9999978 91.54,10.44 C92.20667,10.8800022 92.6799986,11.4733296 92.96,12.22 L92.96,9.92 L95.76,9.92 L95.76,21 L92.96,21 L92.96,18.68 C92.6799986,19.4266704 92.20667,20.0233311 91.54,20.47 C90.87333,20.9166689 90.073338,21.14 89.14,21.14 C88.206662,21.14 87.3666704,20.9133356 86.62,20.46 C85.8733296,20.0066644 85.2900021,19.3500043 84.87,18.49 C84.4499979,17.6299957 84.24,16.6200058 84.24,15.46 C84.24,14.2999942 84.4499979,13.2900043 84.87,12.43 C85.2900021,11.5699957 85.8733296,10.9133356 86.62,10.46 C87.3666704,10.0066644 88.206662,9.78 89.14,9.78 Z M90.02,12.24 C89.1399956,12.24 88.433336,12.5266638 87.9,13.1 C87.366664,13.6733362 87.1,14.459995 87.1,15.46 C87.1,16.460005 87.366664,17.2433305 87.9,17.81 C88.433336,18.3766695 89.1399956,18.66 90.02,18.66 C90.8733376,18.66 91.5766639,18.3700029 92.13,17.79 C92.6833361,17.2099971 92.96,16.4333382 92.96,15.46 C92.96,14.4733284 92.6833361,13.6900029 92.13,13.11 C91.5766639,12.5299971 90.8733376,12.24 90.02,12.24 Z M104.24,18.58 L104.24,21 L102.76,21 C101.519994,21 100.570003,20.700003 99.91,20.1 C99.2499967,19.499997 98.92,18.500007 98.92,17.1 L98.92,12.3 L97.38,12.3 L97.38,9.92 L98.92,9.92 L98.92,7.18 L101.74,7.18 L101.74,9.92 L104.22,9.92 L104.22,12.3 L101.74,12.3 L101.74,17.14 C101.74,17.673336 101.846666,18.0466656 102.06,18.26 C102.273334,18.4733344 102.633331,18.58 103.14,18.58 L104.24,18.58 Z M110.6,9.78 C111.533338,9.78 112.33333,9.9999978 113,10.44 C113.66667,10.8800022 114.139999,11.4733296 114.42,12.22 L114.42,9.92 L117.22,9.92 L117.22,21 L114.42,21 L114.42,18.68 C114.139999,19.4266704 113.66667,20.0233311 113,20.47 C112.33333,20.9166689 111.533338,21.14 110.6,21.14 C109.666662,21.14 108.82667,20.9133356 108.08,20.46 C107.33333,20.0066644 106.750002,19.3500043 106.33,18.49 C105.909998,17.6299957 105.7,16.6200058 105.7,15.46 C105.7,14.2999942 105.909998,13.2900043 106.33,12.43 C106.750002,11.5699957 107.33333,10.9133356 108.08,10.46 C108.82667,10.0066644 109.666662,9.78 110.6,9.78 Z M111.48,12.24 C110.599996,12.24 109.893336,12.5266638 109.36,13.1 C108.826664,13.6733362 108.56,14.459995 108.56,15.46 C108.56,16.460005 108.826664,17.2433305 109.36,17.81 C109.893336,18.3766695 110.599996,18.66 111.48,18.66 C112.333338,18.66 113.036664,18.3700029 113.59,17.79 C114.143336,17.2099971 114.42,16.4333382 114.42,15.46 C114.42,14.4733284 114.143336,13.6900029 113.59,13.11 C113.036664,12.5299971 112.333338,12.24 111.48,12.24 Z" id="ars-data" fill="#0052FF"></path>
                    <path d="M39.228,36.804 C39.228,37.204002 39.132001,37.5759983 38.94,37.92 C38.747999,38.2640017 38.456002,38.5439989 38.064,38.76 C37.671998,38.9760011 37.1880029,39.084 36.612,39.084 C36.0519972,39.084 35.5540022,38.982001 35.118,38.778 C34.6819978,38.573999 34.3340013,38.2940018 34.074,37.938 C33.8139987,37.5819982 33.6640002,37.1760023 33.624,36.72 L34.788,36.72 C34.8120001,36.9600012 34.8939993,37.1939989 35.034,37.422 C35.1740007,37.6500011 35.3739987,37.8379993 35.634,37.986 C35.8940013,38.1340007 36.2079982,38.208 36.576,38.208 C37.0560024,38.208 37.4239987,38.0800013 37.68,37.824 C37.9360013,37.5679987 38.064,37.240002 38.064,36.84 C38.064,36.4959983 37.9740009,36.2160011 37.794,36 C37.6139991,35.7839989 37.3920013,35.6140006 37.128,35.49 C36.8639987,35.3659994 36.5040023,35.2320007 36.048,35.088 C35.5119973,34.9119991 35.0820016,34.7460008 34.758,34.59 C34.4339984,34.4339992 34.1580011,34.2000016 33.93,33.888 C33.7019989,33.5759984 33.588,33.1640026 33.588,32.652 C33.588,32.2119978 33.6939989,31.8240017 33.906,31.488 C34.1180011,31.1519983 34.421998,30.8920009 34.818,30.708 C35.214002,30.5239991 35.6799973,30.432 36.216,30.432 C37.0480042,30.432 37.7079976,30.633998 38.196,31.038 C38.6840024,31.442002 38.9679996,31.9559969 39.048,32.58 L37.872,32.58 C37.8079997,32.2439983 37.6360014,31.9480013 37.356,31.692 C37.0759986,31.4359987 36.6960024,31.308 36.216,31.308 C35.7759978,31.308 35.4240013,31.4219989 35.16,31.65 C34.8959987,31.8780011 34.764,32.1999979 34.764,32.616 C34.764,32.9440016 34.8499991,33.209999 35.022,33.414 C35.1940009,33.618001 35.4079987,33.7779994 35.664,33.894 C35.9200013,34.0100006 36.2719978,34.1399993 36.72,34.284 C37.2640027,34.4600009 37.7019983,34.6279992 38.034,34.788 C38.3660017,34.9480008 38.6479988,35.1899984 38.88,35.514 C39.1120012,35.8380016 39.228,36.2679973 39.228,36.804 Z M43.608,32.328 C44.4480042,32.328 45.1439972,32.5519978 45.696,33 C46.2480028,33.4480022 46.5879994,34.0479962 46.716,34.8 L45.564,34.8 C45.4839996,34.3279976 45.2660018,33.9580013 44.91,33.69 C44.5539982,33.4219987 44.1120026,33.288 43.584,33.288 C43.1999981,33.288 42.8500016,33.3759991 42.534,33.552 C42.2179984,33.7280009 41.964001,33.9979982 41.772,34.362 C41.579999,34.7260018 41.484,35.1759973 41.484,35.712 C41.484,36.2480027 41.579999,36.6979982 41.772,37.062 C41.964001,37.4260018 42.2179984,37.6959991 42.534,37.872 C42.8500016,38.0480009 43.1999981,38.136 43.584,38.136 C44.1120026,38.136 44.5539982,38.0000014 44.91,37.728 C45.2660018,37.4559986 45.4839996,37.0840024 45.564,36.612 L46.716,36.612 C46.5879994,37.3720038 46.2480028,37.9739978 45.696,38.418 C45.1439972,38.8620022 44.4480042,39.084 43.608,39.084 C42.9759968,39.084 42.4160024,38.9480014 41.928,38.676 C41.4399976,38.4039986 41.0580014,38.0140025 40.782,37.506 C40.5059986,36.9979975 40.368,36.4000034 40.368,35.712 C40.368,35.0239966 40.5059986,34.4240026 40.782,33.912 C41.0580014,33.3999974 41.4399976,33.0080014 41.928,32.736 C42.4160024,32.4639986 42.9759968,32.328 43.608,32.328 Z M47.952,30.48 C47.952,30.279999 48.0199993,30.1180006 48.156,29.994 C48.2920007,29.8699994 48.4719989,29.808 48.696,29.808 C48.9200011,29.808 49.0999993,29.8699994 49.236,29.994 C49.3720007,30.1180006 49.44,30.279999 49.44,30.48 C49.44,30.680001 49.3720007,30.8419994 49.236,30.966 C49.0999993,31.0900006 48.9200011,31.152 48.696,31.152 C48.4719989,31.152 48.2920007,31.0900006 48.156,30.966 C48.0199993,30.8419994 47.952,30.680001 47.952,30.48 Z M49.236,32.412 L49.236,39 L48.144,39 L48.144,32.412 L49.236,32.412 Z M57.048,35.34 C57.048,35.5720012 57.0320002,35.7719992 57,35.94 L51.732,35.94 C51.7560001,36.6920038 51.969998,37.2559981 52.374,37.632 C52.778002,38.0080019 53.2719971,38.196 53.856,38.196 C54.3840026,38.196 54.8259982,38.0620013 55.182,37.794 C55.5380018,37.5259987 55.7559996,37.1680022 55.836,36.72 L57,36.72 C56.9199996,37.1760023 56.7420014,37.5839982 56.466,37.944 C56.1899986,38.3040018 55.8320022,38.583999 55.392,38.784 C54.9519978,38.984001 54.4560028,39.084 53.904,39.084 C53.2719968,39.084 52.7120024,38.9480014 52.224,38.676 C51.7359976,38.4039986 51.3540014,38.0140025 51.078,37.506 C50.8019986,36.9979975 50.664,36.4000034 50.664,35.712 C50.664,35.0239966 50.8019986,34.4240026 51.078,33.912 C51.3540014,33.3999974 51.7359976,33.0080014 52.224,32.736 C52.7120024,32.4639986 53.2719968,32.328 53.904,32.328 C54.5440032,32.328 55.1019976,32.4639986 55.578,32.736 C56.0540024,33.0080014 56.4179987,33.3719977 56.67,33.828 C56.9220013,34.2840023 57.048,34.7879972 57.048,35.34 Z M55.944,35.412 C55.9680001,34.9239976 55.8880009,34.5160016 55.704,34.188 C55.5199991,33.8599984 55.2680016,33.6160008 54.948,33.456 C54.6279984,33.2959992 54.2800019,33.216 53.904,33.216 C53.303997,33.216 52.800002,33.4019981 52.392,33.774 C51.983998,34.1460019 51.7640002,34.6919964 51.732,35.412 L55.944,35.412 Z M61.944,32.304 C62.7120038,32.304 63.3319976,32.5499975 63.804,33.042 C64.2760024,33.5340025 64.512,34.2439954 64.512,35.172 L64.512,39 L63.42,39 L63.42,35.268 C63.42,34.6119967 63.2520017,34.1080018 62.916,33.756 C62.5799983,33.4039982 62.1240029,33.228 61.548,33.228 C60.947997,33.228 60.4680018,33.4219981 60.108,33.81 C59.7479982,34.1980019 59.568,34.7639963 59.568,35.508 L59.568,39 L58.476,39 L58.476,32.412 L59.568,32.412 L59.568,33.972 C59.7360008,33.4359973 60.0339979,33.0240014 60.462,32.736 C60.8900021,32.4479986 61.3839972,32.304 61.944,32.304 Z M69.108,32.328 C69.9480042,32.328 70.6439972,32.5519978 71.196,33 C71.7480028,33.4480022 72.0879994,34.0479962 72.216,34.8 L71.064,34.8 C70.9839996,34.3279976 70.7660018,33.9580013 70.41,33.69 C70.0539982,33.4219987 69.6120026,33.288 69.084,33.288 C68.6999981,33.288 68.3500016,33.3759991 68.034,33.552 C67.7179984,33.7280009 67.464001,33.9979982 67.272,34.362 C67.079999,34.7260018 66.984,35.1759973 66.984,35.712 C66.984,36.2480027 67.079999,36.6979982 67.272,37.062 C67.464001,37.4260018 67.7179984,37.6959991 68.034,37.872 C68.3500016,38.0480009 68.6999981,38.136 69.084,38.136 C69.6120026,38.136 70.0539982,38.0000014 70.41,37.728 C70.7660018,37.4559986 70.9839996,37.0840024 71.064,36.612 L72.216,36.612 C72.0879994,37.3720038 71.7480028,37.9739978 71.196,38.418 C70.6439972,38.8620022 69.9480042,39.084 69.108,39.084 C68.4759968,39.084 67.9160024,38.9480014 67.428,38.676 C66.9399976,38.4039986 66.5580014,38.0140025 66.282,37.506 C66.0059986,36.9979975 65.868,36.4000034 65.868,35.712 C65.868,35.0239966 66.0059986,34.4240026 66.282,33.912 C66.5580014,33.3999974 66.9399976,33.0080014 67.428,32.736 C67.9160024,32.4639986 68.4759968,32.328 69.108,32.328 Z M79.704,35.34 C79.704,35.5720012 79.6880002,35.7719992 79.656,35.94 L74.388,35.94 C74.4120001,36.6920038 74.625998,37.2559981 75.03,37.632 C75.434002,38.0080019 75.9279971,38.196 76.512,38.196 C77.0400026,38.196 77.4819982,38.0620013 77.838,37.794 C78.1940018,37.5259987 78.4119996,37.1680022 78.492,36.72 L79.656,36.72 C79.5759996,37.1760023 79.3980014,37.5839982 79.122,37.944 C78.8459986,38.3040018 78.4880022,38.583999 78.048,38.784 C77.6079978,38.984001 77.1120028,39.084 76.56,39.084 C75.9279968,39.084 75.3680024,38.9480014 74.88,38.676 C74.3919976,38.4039986 74.0100014,38.0140025 73.734,37.506 C73.4579986,36.9979975 73.32,36.4000034 73.32,35.712 C73.32,35.0239966 73.4579986,34.4240026 73.734,33.912 C74.0100014,33.3999974 74.3919976,33.0080014 74.88,32.736 C75.3680024,32.4639986 75.9279968,32.328 76.56,32.328 C77.2000032,32.328 77.7579976,32.4639986 78.234,32.736 C78.7100024,33.0080014 79.0739987,33.3719977 79.326,33.828 C79.5780013,34.2840023 79.704,34.7879972 79.704,35.34 Z M78.6,35.412 C78.6240001,34.9239976 78.5440009,34.5160016 78.36,34.188 C78.1759991,33.8599984 77.9240016,33.6160008 77.604,33.456 C77.2839984,33.2959992 76.9360019,33.216 76.56,33.216 C75.959997,33.216 75.456002,33.4019981 75.048,33.774 C74.639998,34.1460019 74.4200002,34.6919964 74.388,35.412 L78.6,35.412 Z M90.204,39 L88.356,36.96 C88.356,37.0880006 88.3320002,37.247999 88.284,37.44 C88.1959996,37.9280024 87.9600019,38.3239985 87.576,38.628 C87.1919981,38.9320015 86.7280027,39.084 86.184,39.084 C85.6879975,39.084 85.2480019,38.9780011 84.864,38.766 C84.4799981,38.5539989 84.1800011,38.2580019 83.964,37.878 C83.7479989,37.4979981 83.64,37.0600025 83.64,36.564 C83.64,36.0679975 83.737999,35.6380018 83.934,35.274 C84.130001,34.9099982 84.3919984,34.6340009 84.72,34.446 C85.0480016,34.2579991 85.411998,34.164 85.812,34.164 C85.8760003,34.164 85.9639994,34.1719999 86.076,34.188 L85.896,33.96 C85.6719989,33.6879986 85.5020006,33.4300012 85.386,33.186 C85.2699994,32.9419988 85.212,32.6560016 85.212,32.328 C85.212,31.9999984 85.2939992,31.6940014 85.458,31.41 C85.6220008,31.1259986 85.8679984,30.8960009 86.196,30.72 C86.5240016,30.5439991 86.9159977,30.456 87.372,30.456 C88.0600034,30.456 88.5859982,30.6279983 88.95,30.972 C89.3140018,31.3160017 89.5279997,31.7479974 89.592,32.268 C89.6400002,32.4440009 89.664,32.6239991 89.664,32.808 C89.664,32.8880004 89.66,32.9479998 89.652,32.988 L88.62,32.988 C88.628,32.9319997 88.63,32.8660004 88.626,32.79 C88.622,32.7139996 88.62,32.6600002 88.62,32.628 C88.612,32.227998 88.5000011,31.9180011 88.284,31.698 C88.0679989,31.4779989 87.7680019,31.368 87.384,31.368 C87.0319982,31.368 86.754001,31.471999 86.55,31.68 C86.345999,31.888001 86.244,32.1399985 86.244,32.436 C86.244,32.6840012 86.2899995,32.8959991 86.382,33.072 C86.4740005,33.2480009 86.623999,33.4559988 86.832,33.696 L91.32,39 L90.204,39 Z M86.184,38.148 C86.6240022,38.148 86.9859986,38.0080014 87.27,37.728 C87.5540014,37.4479986 87.696,37.0880022 87.696,36.648 C87.696,36.3439985 87.6160008,36.0680012 87.456,35.82 C87.2959992,35.5719988 87.0880013,35.3760007 86.832,35.232 C86.5759987,35.0879993 86.3080014,35.016 86.028,35.016 C85.6119979,35.016 85.2700013,35.1479987 85.002,35.412 C84.7339987,35.6760013 84.6,36.0519976 84.6,36.54 C84.6,37.0360025 84.7519985,37.4279986 85.056,37.716 C85.3600015,38.0040014 85.7359978,38.148 86.184,38.148 Z M96.336,31.428 L96.336,34.32 L99.552,34.32 L99.552,35.16 L96.336,35.16 L96.336,38.112 L99.912,38.112 L99.912,39 L95.244,39 L95.244,30.54 L99.912,30.54 L99.912,31.428 L96.336,31.428 Z M104.784,32.304 C105.552004,32.304 106.171998,32.5499975 106.644,33.042 C107.116002,33.5340025 107.352,34.2439954 107.352,35.172 L107.352,39 L106.26,39 L106.26,35.268 C106.26,34.6119967 106.092002,34.1080018 105.756,33.756 C105.419998,33.4039982 104.964003,33.228 104.388,33.228 C103.787997,33.228 103.308002,33.4219981 102.948,33.81 C102.587998,34.1980019 102.408,34.7639963 102.408,35.508 L102.408,39 L101.316,39 L101.316,32.412 L102.408,32.412 L102.408,33.972 C102.576001,33.4359973 102.873998,33.0240014 103.302,32.736 C103.730002,32.4479986 104.223997,32.304 104.784,32.304 Z M111.732,32.328 C112.372003,32.328 112.913998,32.4879984 113.358,32.808 C113.802002,33.1280016 114.111999,33.5559973 114.288,34.092 L114.288,32.412 L115.38,32.412 L115.38,39.108 C115.38,39.716003 115.252001,40.2559976 114.996,40.728 C114.739999,41.2000024 114.380002,41.5679987 113.916,41.832 C113.451998,42.0960013 112.912003,42.228 112.296,42.228 C111.407996,42.228 110.684003,42.0140021 110.124,41.586 C109.563997,41.1579979 109.208001,40.5800036 109.056,39.852 L110.136,39.852 C110.264001,40.2920022 110.505998,40.6379987 110.862,40.89 C111.218002,41.1420013 111.675997,41.268 112.236,41.268 C112.828003,41.268 113.317998,41.0780019 113.706,40.698 C114.094002,40.3179981 114.288,39.7880034 114.288,39.108 L114.288,37.32 C114.111999,37.8560027 113.802002,38.2839984 113.358,38.604 C112.913998,38.9240016 112.372003,39.084 111.732,39.084 C111.147997,39.084 110.628002,38.9480014 110.172,38.676 C109.715998,38.4039986 109.358001,38.0140025 109.098,37.506 C108.837999,36.9979975 108.708,36.4000034 108.708,35.712 C108.708,35.0239966 108.837999,34.4240026 109.098,33.912 C109.358001,33.3999974 109.715998,33.0080014 110.172,32.736 C110.628002,32.4639986 111.147997,32.328 111.732,32.328 Z M112.044,33.3 C111.371997,33.3 110.834002,33.5139979 110.43,33.942 C110.025998,34.3700021 109.824,34.9599962 109.824,35.712 C109.824,36.4640038 110.025998,37.0539979 110.43,37.482 C110.834002,37.9100021 111.371997,38.124 112.044,38.124 C112.476002,38.124 112.861998,38.024001 113.202,37.824 C113.542002,37.623999 113.807999,37.3420018 114,36.978 C114.192001,36.6139982 114.288,36.1920024 114.288,35.712 C114.288,35.2319976 114.192001,34.8080018 114,34.44 C113.807999,34.0719982 113.542002,33.790001 113.202,33.594 C112.861998,33.397999 112.476002,33.3 112.044,33.3 Z M116.928,30.48 C116.928,30.279999 116.995999,30.1180006 117.132,29.994 C117.268001,29.8699994 117.447999,29.808 117.672,29.808 C117.896001,29.808 118.075999,29.8699994 118.212,29.994 C118.348001,30.1180006 118.416,30.279999 118.416,30.48 C118.416,30.680001 118.348001,30.8419994 118.212,30.966 C118.075999,31.0900006 117.896001,31.152 117.672,31.152 C117.447999,31.152 117.268001,31.0900006 117.132,30.966 C116.995999,30.8419994 116.928,30.680001 116.928,30.48 Z M118.212,32.412 L118.212,39 L117.12,39 L117.12,32.412 L118.212,32.412 Z M123.432,32.304 C124.200004,32.304 124.819998,32.5499975 125.292,33.042 C125.764002,33.5340025 126,34.2439954 126,35.172 L126,39 L124.908,39 L124.908,35.268 C124.908,34.6119967 124.740002,34.1080018 124.404,33.756 C124.067998,33.4039982 123.612003,33.228 123.036,33.228 C122.435997,33.228 121.956002,33.4219981 121.596,33.81 C121.235998,34.1980019 121.056,34.7639963 121.056,35.508 L121.056,39 L119.964,39 L119.964,32.412 L121.056,32.412 L121.056,33.972 C121.224001,33.4359973 121.521998,33.0240014 121.95,32.736 C122.378002,32.4479986 122.871997,32.304 123.432,32.304 Z M133.74,35.34 C133.74,35.5720012 133.724,35.7719992 133.692,35.94 L128.424,35.94 C128.448,36.6920038 128.661998,37.2559981 129.066,37.632 C129.470002,38.0080019 129.963997,38.196 130.548,38.196 C131.076003,38.196 131.517998,38.0620013 131.874,37.794 C132.230002,37.5259987 132.448,37.1680022 132.528,36.72 L133.692,36.72 C133.612,37.1760023 133.434001,37.5839982 133.158,37.944 C132.881999,38.3040018 132.524002,38.583999 132.084,38.784 C131.643998,38.984001 131.148003,39.084 130.596,39.084 C129.963997,39.084 129.404002,38.9480014 128.916,38.676 C128.427998,38.4039986 128.046001,38.0140025 127.77,37.506 C127.493999,36.9979975 127.356,36.4000034 127.356,35.712 C127.356,35.0239966 127.493999,34.4240026 127.77,33.912 C128.046001,33.3999974 128.427998,33.0080014 128.916,32.736 C129.404002,32.4639986 129.963997,32.328 130.596,32.328 C131.236003,32.328 131.793998,32.4639986 132.27,32.736 C132.746002,33.0080014 133.109999,33.3719977 133.362,33.828 C133.614001,34.2840023 133.74,34.7879972 133.74,35.34 Z M132.636,35.412 C132.66,34.9239976 132.580001,34.5160016 132.396,34.188 C132.211999,33.8599984 131.960002,33.6160008 131.64,33.456 C131.319998,33.2959992 130.972002,33.216 130.596,33.216 C129.995997,33.216 129.492002,33.4019981 129.084,33.774 C128.675998,34.1460019 128.456,34.6919964 128.424,35.412 L132.636,35.412 Z" id="Science-&amp;-Engine" fill="#0052FF"></path>
                </g>
            </g>
        </g>
    </g>
</svg>