<?xml version="1.0" encoding="UTF-8"?>
<svg width="32px" height="29px" viewBox="0 0 32 29" version="1.1" xmlns="http://www.w3.org/2000/svg" xmlns:xlink="http://www.w3.org/1999/xlink">
    <!-- Generator: Sketch 52.2 (67145) - http://www.bohemiancoding.com/sketch -->
    <title>Embedded-development</title>
    <desc>Created with Sketch.</desc>
    <g id="Design" stroke="none" stroke-width="1" fill="none" fill-rule="evenodd">
        <g id="ARSData_Homepage_v1@2x" transform="translate(-506.000000, -2545.000000)">
            <g id="?-Fourth-screen" transform="translate(122.000000, 2068.000000)">
                <g id="Group-6-Copy-3" transform="translate(384.000000, 477.000000)">
                    <g id="Embedded-development">
                        <path d="M1.04747015,5.93189269 L11.0467324,0.515893681 C11.6409333,0.194050815 12.3574749,0.194030777 12.9516938,0.515840411 L22.9524315,5.93191519 C23.5978937,6.28147659 24,6.95653215 24,7.69057214 L24,18.3080483 C24,19.0420185 23.5979695,19.7170215 22.9526027,20.0666125 L12.951865,25.4839469 C12.357556,25.8058802 11.6408522,25.8058601 11.0465612,25.4838936 L1.04729889,20.066635 C0.401986912,19.717027 -5.76253308e-16,19.0420541 -6.66133815e-16,18.3081241 L4.4408921e-16,7.69049636 C3.5420015e-16,6.95649649 0.402062715,6.28147108 1.04747015,5.93189269 Z" id="Path" fill="#B1C1E4"></path>
                        <g id="Element/Icon/Processor" transform="translate(12.000000, 9.000000)" fill="#0052FF">
                            <g id="noun_processor-Chip_314906">
                                <path d="M15.375,15.7916667 L4.625,15.7916667 C4.375,15.7916667 4.20833333,15.625 4.20833333,15.375 L4.20833333,4.625 C4.20833333,4.375 4.375,4.20833333 4.625,4.20833333 L15.375,4.20833333 C15.625,4.20833333 15.7916667,4.375 15.7916667,4.625 L15.7916667,15.375 C15.7916667,15.5833333 15.5833333,15.7916667 15.375,15.7916667 Z M5.04166667,14.9583333 L14.9583333,14.9583333 L14.9583333,5.04166667 L5.04166667,5.04166667 L5.04166667,14.9583333 Z" id="Shape" fill-rule="nonzero"></path>
                                <path d="M6.33333333,5.04166667 C6.00833333,5.04166667 5.79166667,4.875 5.79166667,4.625 L5.79166667,0.625 C5.79166667,0.375 6.00833333,0.208333333 6.33333333,0.208333333 C6.65833333,0.208333333 6.875,0.375 6.875,0.625 L6.875,4.625 C6.875,4.875 6.60416667,5.04166667 6.33333333,5.04166667 Z" id="Path"></path>
                                <path d="M10.125,5.04166667 C9.8,5.04166667 9.58333333,4.875 9.58333333,4.625 L9.58333333,0.625 C9.58333333,0.375 9.8,0.208333333 10.125,0.208333333 C10.45,0.208333333 10.6666667,0.375 10.6666667,0.625 L10.6666667,4.625 C10.6666667,4.875 10.45,5.04166667 10.125,5.04166667 Z" id="Path"></path>
                                <path d="M13.9166667,5.04166667 C13.5916667,5.04166667 13.375,4.875 13.375,4.625 L13.375,0.625 C13.375,0.375 13.5916667,0.208333333 13.9166667,0.208333333 C14.2416667,0.208333333 14.4583333,0.375 14.4583333,0.625 L14.4583333,4.625 C14.4583333,4.875 14.2416667,5.04166667 13.9166667,5.04166667 Z" id="Path"></path>
                                <path d="M6.33333333,19.7916667 C6.00833333,19.7916667 5.79166667,19.625 5.79166667,19.375 L5.79166667,15.375 C5.79166667,15.125 6.00833333,14.9583333 6.33333333,14.9583333 C6.65833333,14.9583333 6.875,15.125 6.875,15.375 L6.875,19.375 C6.875,19.625 6.60416667,19.7916667 6.33333333,19.7916667 Z" id="Path"></path>
                                <path d="M10.125,19.7916667 C9.8,19.7916667 9.58333333,19.625 9.58333333,19.375 L9.58333333,15.375 C9.58333333,15.125 9.8,14.9583333 10.125,14.9583333 C10.45,14.9583333 10.6666667,15.125 10.6666667,15.375 L10.6666667,19.375 C10.6666667,19.625 10.45,19.7916667 10.125,19.7916667 Z" id="Path"></path>
                                <path d="M13.9166667,19.7916667 C13.5916667,19.7916667 13.375,19.625 13.375,19.375 L13.375,15.375 C13.375,15.125 13.5916667,14.9583333 13.9166667,14.9583333 C14.2416667,14.9583333 14.4583333,15.125 14.4583333,15.375 L14.4583333,19.375 C14.4583333,19.625 14.2416667,19.7916667 13.9166667,19.7916667 Z" id="Path"></path>
                                <path d="M19.375,6.875 L15.375,6.875 C15.125,6.875 14.9583333,6.65833333 14.9583333,6.33333333 C14.9583333,6.00833333 15.125,5.79166667 15.375,5.79166667 L19.375,5.79166667 C19.625,5.79166667 19.7916667,6.00833333 19.7916667,6.33333333 C19.7916667,6.65833333 19.625,6.875 19.375,6.875 Z" id="Path"></path>
                                <path d="M19.375,10.6666667 L15.375,10.6666667 C15.125,10.6666667 14.9583333,10.45 14.9583333,10.125 C14.9583333,9.8 15.125,9.58333333 15.375,9.58333333 L19.375,9.58333333 C19.625,9.58333333 19.7916667,9.8 19.7916667,10.125 C19.7916667,10.45 19.625,10.6666667 19.375,10.6666667 Z" id="Path"></path>
                                <path d="M19.375,14.4583333 L15.375,14.4583333 C15.125,14.4583333 14.9583333,14.2416667 14.9583333,13.9166667 C14.9583333,13.5916667 15.125,13.375 15.375,13.375 L19.375,13.375 C19.625,13.375 19.7916667,13.5916667 19.7916667,13.9166667 C19.7916667,14.2416667 19.625,14.4583333 19.375,14.4583333 Z" id="Path"></path>
                                <path d="M4.625,6.875 L0.625,6.875 C0.375,6.875 0.208333333,6.65833333 0.208333333,6.33333333 C0.208333333,6.00833333 0.375,5.79166667 0.625,5.79166667 L4.625,5.79166667 C4.875,5.79166667 5.04166667,6.00833333 5.04166667,6.33333333 C5.04166667,6.65833333 4.875,6.875 4.625,6.875 Z" id="Path"></path>
                                <path d="M4.625,10.6666667 L0.625,10.6666667 C0.375,10.6666667 0.208333333,10.45 0.208333333,10.125 C0.208333333,9.8 0.375,9.58333333 0.625,9.58333333 L4.625,9.58333333 C4.875,9.58333333 5.04166667,9.8 5.04166667,10.125 C5.04166667,10.45 4.875,10.6666667 4.625,10.6666667 Z" id="Path"></path>
                                <path d="M4.625,14.4583333 L0.625,14.4583333 C0.375,14.4583333 0.208333333,14.2416667 0.208333333,13.9166667 C0.208333333,13.5916667 0.375,13.375 0.625,13.375 L4.625,13.375 C4.875,13.375 5.04166667,13.5916667 5.04166667,13.9166667 C5.04166667,14.2416667 4.875,14.4583333 4.625,14.4583333 Z" id="Path"></path>
                            </g>
                        </g>
                    </g>
                </g>
            </g>
        </g>
    </g>
</svg>