<?xml version="1.0" encoding="UTF-8"?>
<svg width="32px" height="29px" viewBox="0 0 32 29" version="1.1" xmlns="http://www.w3.org/2000/svg" xmlns:xlink="http://www.w3.org/1999/xlink">
    <!-- Generator: Sketch 52.2 (67145) - http://www.bohemiancoding.com/sketch -->
    <title>Sensor-data-processing</title>
    <desc>Created with Sketch.</desc>
    <g id="Design" stroke="none" stroke-width="1" fill="none" fill-rule="evenodd">
        <g id="ARSData_Homepage_v1@2x" transform="translate(-818.000000, -2265.000000)">
            <g id="?-Fourth-screen" transform="translate(122.000000, 2068.000000)">
                <g id="Group-6-Copy" transform="translate(696.000000, 197.000000)">
                    <g id="Sensor-data-processing">
                        <path d="M1.04747015,5.93189269 L11.0467324,0.515893681 C11.6409333,0.194050815 12.3574749,0.194030777 12.9516938,0.515840411 L22.9524315,5.93191519 C23.5978937,6.28147659 24,6.95653215 24,7.69057214 L24,18.3080483 C24,19.0420185 23.5979695,19.7170215 22.9526027,20.0666125 L12.951865,25.4839469 C12.357556,25.8058802 11.6408522,25.8058601 11.0465612,25.4838936 L1.04729889,20.066635 C0.401986912,19.717027 -5.76253308e-16,19.0420541 -6.66133815e-16,18.3081241 L4.4408921e-16,7.69049636 C3.5420015e-16,6.95649649 0.402062715,6.28147108 1.04747015,5.93189269 Z" id="Path" fill="#B1C1E4"></path>
                        <g id="Element/Icon/Board" transform="translate(12.000000, 9.000000)" fill="#0052FF">
                            <g id="kanban-board">
                                <path d="M7.27272727,1 L7.27272727,19 L12.7272727,19 L12.7272727,1 L7.27272727,1 Z M6.36363636,1 L2.27272727,1 C1.51961171,1 0.909090909,1.67157288 0.909090909,2.5 L0.909090909,17.5 C0.909090909,18.3284271 1.51961171,19 2.27272727,19 L6.36363636,19 L6.36363636,1 Z M13.6363636,1 L13.6363636,19 L17.7272727,19 C18.4803883,19 19.0909091,18.3284271 19.0909091,17.5 L19.0909091,2.5 C19.0909091,1.67157288 18.4803883,1 17.7272727,1 L13.6363636,1 Z M0,2.5 C0,1.11928813 1.01753466,0 2.27272727,0 L17.7272727,0 C18.9824654,0 20,1.11928813 20,2.5 L20,17.5 C20,18.8807119 18.9824654,20 17.7272727,20 L2.27272727,20 C1.01753466,20 0,18.8807119 0,17.5 L0,2.5 Z M2.72727273,4 L4.54545455,4 C5.04753159,4 5.45454545,4.44771525 5.45454545,5 L5.45454545,6 C5.45454545,6.55228475 5.04753159,7 4.54545455,7 L2.72727273,7 C2.22519568,7 1.81818182,6.55228475 1.81818182,6 L1.81818182,5 C1.81818182,4.44771525 2.22519568,4 2.72727273,4 Z M2.72727273,8 L4.54545455,8 C5.04753159,8 5.45454545,8.4477153 5.45454545,9 L5.45454545,10 C5.45454545,10.5522847 5.04753159,11 4.54545455,11 L2.72727273,11 C2.22519568,11 1.81818182,10.5522847 1.81818182,10 L1.81818182,9 C1.81818182,8.4477153 2.22519568,8 2.72727273,8 Z M9.09090909,4 L10.9090909,4 C11.4111679,4 11.8181818,4.44771525 11.8181818,5 L11.8181818,6 C11.8181818,6.55228475 11.4111679,7 10.9090909,7 L9.09090909,7 C8.58883209,7 8.18181818,6.55228475 8.18181818,6 L8.18181818,5 C8.18181818,4.44771525 8.58883209,4 9.09090909,4 Z M15.4545455,4 L17.2727273,4 C17.7748043,4 18.1818182,4.44771525 18.1818182,5 L18.1818182,6 C18.1818182,6.55228475 17.7748043,7 17.2727273,7 L15.4545455,7 C14.9524685,7 14.5454545,6.55228475 14.5454545,6 L14.5454545,5 C14.5454545,4.44771525 14.9524685,4 15.4545455,4 Z M15.4545455,8 L17.2727273,8 C17.7748043,8 18.1818182,8.4477153 18.1818182,9 L18.1818182,10 C18.1818182,10.5522847 17.7748043,11 17.2727273,11 L15.4545455,11 C14.9524685,11 14.5454545,10.5522847 14.5454545,10 L14.5454545,9 C14.5454545,8.4477153 14.9524685,8 15.4545455,8 Z M15.4545455,12 L17.2727273,12 C17.7748043,12 18.1818182,12.4477153 18.1818182,13 L18.1818182,14 C18.1818182,14.5522847 17.7748043,15 17.2727273,15 L15.4545455,15 C14.9524685,15 14.5454545,14.5522847 14.5454545,14 L14.5454545,13 C14.5454545,12.4477153 14.9524685,12 15.4545455,12 Z M2.72727273,5 L2.72727273,6 L4.54545455,6 L4.54545455,5 L2.72727273,5 Z M2.72727273,9 L2.72727273,10 L4.54545455,10 L4.54545455,9 L2.72727273,9 Z M9.09090909,5 L9.09090909,6 L10.9090909,6 L10.9090909,5 L9.09090909,5 Z M15.4545455,5 L15.4545455,6 L17.2727273,6 L17.2727273,5 L15.4545455,5 Z M15.4545455,9 L15.4545455,10 L17.2727273,10 L17.2727273,9 L15.4545455,9 Z M15.4545455,13 L15.4545455,14 L17.2727273,14 L17.2727273,13 L15.4545455,13 Z M2.27272727,3 C2.02168875,3 1.81818182,2.77614237 1.81818182,2.5 C1.81818182,2.22385763 2.02168875,2 2.27272727,2 L5,2 C5.25103852,2 5.45454545,2.22385763 5.45454545,2.5 C5.45454545,2.77614237 5.25103852,3 5,3 L2.27272727,3 Z M8.63636364,3 C8.38532509,3 8.18181818,2.77614237 8.18181818,2.5 C8.18181818,2.22385763 8.38532509,2 8.63636364,2 L11.3636364,2 C11.6146749,2 11.8181818,2.22385763 11.8181818,2.5 C11.8181818,2.77614237 11.6146749,3 11.3636364,3 L8.63636364,3 Z M15,3 C14.7489615,3 14.5454545,2.77614237 14.5454545,2.5 C14.5454545,2.22385763 14.7489615,2 15,2 L17.7272727,2 C17.9783113,2 18.1818182,2.22385763 18.1818182,2.5 C18.1818182,2.77614237 17.9783113,3 17.7272727,3 L15,3 Z" id="Shape" fill-rule="nonzero"></path>
                            </g>
                        </g>
                    </g>
                </g>
            </g>
        </g>
    </g>
</svg>