<?xml version="1.0" encoding="UTF-8"?>
<svg width="33px" height="30px" viewBox="0 0 33 30" version="1.1" xmlns="http://www.w3.org/2000/svg" xmlns:xlink="http://www.w3.org/1999/xlink">
    <!-- Generator: Sketch 52.2 (67145) - http://www.bohemiancoding.com/sketch -->
    <title>Smart-HVAC</title>
    <desc>Created with Sketch.</desc>
    <g id="Design" stroke="none" stroke-width="1" fill="none" fill-rule="evenodd">
        <g id="ARSData_Homepage_v1@2x" transform="translate(-1131.000000, -2265.000000)">
            <g id="?-Fourth-screen" transform="translate(122.000000, 2068.000000)">
                <g id="Group-6-Copy" transform="translate(1009.000000, 197.000000)">
                    <g id="Smart-HVAC">
                        <path d="M1.04747015,5.93189269 L11.0467324,0.515893681 C11.6409333,0.194050815 12.3574749,0.194030777 12.9516938,0.515840411 L22.9524315,5.93191519 C23.5978937,6.28147659 24,6.95653215 24,7.69057214 L24,18.3080483 C24,19.0420185 23.5979695,19.7170215 22.9526027,20.0666125 L12.951865,25.4839469 C12.357556,25.8058802 11.6408522,25.8058601 11.0465612,25.4838936 L1.04729889,20.066635 C0.401986912,19.717027 -5.76253308e-16,19.0420541 -6.66133815e-16,18.3081241 L4.4408921e-16,7.69049636 C3.5420015e-16,6.95649649 0.402062715,6.28147108 1.04747015,5.93189269 Z" id="Path" fill="#B1C1E4"></path>
                        <g id="Element/Icon/Fan" transform="translate(12.000000, 9.000000)" stroke="#0052FF" stroke-linecap="round" stroke-linejoin="round">
                            <g id="noun_Fan_951487" transform="translate(0.000000, 0.833333)">
                                <ellipse id="Oval" cx="10.11975" cy="10.7666228" rx="1.99725" ry="2.01476974"></ellipse>
                                <path d="M14.4385,1.72474781 C12.1855,-0.548267544 8.532,-0.548267544 6.279,1.72474781 C4.6635,3.35467105 4.66275,5.99740132 6.279,7.62707237 L8.39675,9.76365132 C8.74225,9.16091009 9.3805,8.7508443 10.12,8.7508443 C10.45275,8.7508443 10.76175,8.84112939 11.0385,8.98689693 C10.96575,8.74680921 10.9185,8.49991228 10.9185,8.25049342 C10.9185,7.60336623 11.16225,6.95699561 11.652,6.46345395 C12.0085,6.10357456 12.50075,5.88114035 13.0445,5.88114035 L13.04525,5.88114035 C13.54925,5.88114035 14.0535,5.68745614 14.438,5.29907895 C15.417,4.31199561 15.417,2.71157895 14.4385,1.72474781 Z" id="Path"></path>
                                <path d="M8.39,11.7736294 C8.2235,11.4825987 8.14575,11.1673575 8.133,10.8536294 C7.96275,11.0372259 7.77475,11.2021601 7.56125,11.326239 C7.0055,11.650307 6.32825,11.7607675 5.65975,11.5799452 C5.17325,11.4480482 4.73625,11.1292763 4.464,10.6538925 L4.4635,10.6528838 C4.2115,10.2133114 3.793,9.86932018 3.26775,9.72683114 C1.9305,9.3651864 0.557,10.1653947 0.198,11.5138706 C-0.62625,14.6183662 1.20025,17.810625 4.278,18.6428618 C6.485,19.2387939 8.75425,17.9175548 9.34575,15.6916996 L10.121,12.7730702 C9.43075,12.7720614 8.75975,12.4189912 8.39,11.7736294 Z" id="Path"></path>
                                <path d="M19.80175,11.9317544 C19.21075,9.70589912 16.94225,8.38365132 14.73525,8.98059211 L11.84175,9.76239035 C12.18625,10.3653838 12.219,11.1280154 11.849,11.7736294 C11.68275,12.0646601 11.45075,12.2898684 11.188,12.4583333 C11.43,12.5148246 11.666,12.5972917 11.8795,12.7216228 C12.436,13.044682 12.86875,13.5816009 13.048,14.2559649 C13.178,14.7467325 13.123,15.2889474 12.85125,15.7643311 L12.85075,15.7643311 C12.59875,16.2049123 12.513,16.7425877 12.654,17.2719408 C13.0115,18.6211732 14.3855,19.4211294 15.722,19.059989 C18.80025,18.2282566 20.627,15.0367544 19.80175,11.9317544 Z" id="Path"></path>
                            </g>
                        </g>
                    </g>
                </g>
            </g>
        </g>
    </g>
</svg>