<?xml version="1.0" encoding="UTF-8"?>
<svg width="24px" height="24px" viewBox="0 0 24 24" version="1.1" xmlns="http://www.w3.org/2000/svg" xmlns:xlink="http://www.w3.org/1999/xlink">
    <!-- Generator: Sketch 52.2 (67145) - http://www.bohemiancoding.com/sketch -->
    <title>Element/Icon/Board</title>
    <desc>Created with Sketch.</desc>
    <g id="Element/Icon/Board" stroke="none" stroke-width="1" fill="none" fill-rule="evenodd">
        <g id="kanban-board" fill="#0052FF" fill-rule="nonzero">
            <path d="M8.72727273,1.2 L8.72727273,22.8 L15.2727273,22.8 L15.2727273,1.2 L8.72727273,1.2 Z M7.63636364,1.2 L2.72727273,1.2 C1.82353405,1.2 1.09090909,2.00588746 1.09090909,3 L1.09090909,21 C1.09090909,21.9941125 1.82353405,22.8 2.72727273,22.8 L7.63636364,22.8 L7.63636364,1.2 Z M16.3636364,1.2 L16.3636364,22.8 L21.2727273,22.8 C22.1764659,22.8 22.9090909,21.9941125 22.9090909,21 L22.9090909,3 C22.9090909,2.00588746 22.1764659,1.2 21.2727273,1.2 L16.3636364,1.2 Z M0,3 C0,1.34314576 1.2210416,0 2.72727273,0 L21.2727273,0 C22.7789584,0 24,1.34314576 24,3 L24,21 C24,22.6568543 22.7789584,24 21.2727273,24 L2.72727273,24 C1.2210416,24 0,22.6568543 0,21 L0,3 Z M3.27272727,4.8 L5.45454545,4.8 C6.05703791,4.8 6.54545455,5.3372583 6.54545455,6 L6.54545455,7.2 C6.54545455,7.8627417 6.05703791,8.4 5.45454545,8.4 L3.27272727,8.4 C2.67023482,8.4 2.18181818,7.8627417 2.18181818,7.2 L2.18181818,6 C2.18181818,5.3372583 2.67023482,4.8 3.27272727,4.8 Z M3.27272727,9.6 L5.45454545,9.6 C6.05703791,9.6 6.54545455,10.1372584 6.54545455,10.8 L6.54545455,12 C6.54545455,12.6627416 6.05703791,13.2 5.45454545,13.2 L3.27272727,13.2 C2.67023482,13.2 2.18181818,12.6627416 2.18181818,12 L2.18181818,10.8 C2.18181818,10.1372584 2.67023482,9.6 3.27272727,9.6 Z M10.9090909,4.8 L13.0909091,4.8 C13.6934015,4.8 14.1818182,5.3372583 14.1818182,6 L14.1818182,7.2 C14.1818182,7.8627417 13.6934015,8.4 13.0909091,8.4 L10.9090909,8.4 C10.3065985,8.4 9.81818182,7.8627417 9.81818182,7.2 L9.81818182,6 C9.81818182,5.3372583 10.3065985,4.8 10.9090909,4.8 Z M18.5454545,4.8 L20.7272727,4.8 C21.3297651,4.8 21.8181818,5.3372583 21.8181818,6 L21.8181818,7.2 C21.8181818,7.8627417 21.3297651,8.4 20.7272727,8.4 L18.5454545,8.4 C17.9429621,8.4 17.4545455,7.8627417 17.4545455,7.2 L17.4545455,6 C17.4545455,5.3372583 17.9429621,4.8 18.5454545,4.8 Z M18.5454545,9.6 L20.7272727,9.6 C21.3297651,9.6 21.8181818,10.1372584 21.8181818,10.8 L21.8181818,12 C21.8181818,12.6627416 21.3297651,13.2 20.7272727,13.2 L18.5454545,13.2 C17.9429621,13.2 17.4545455,12.6627416 17.4545455,12 L17.4545455,10.8 C17.4545455,10.1372584 17.9429621,9.6 18.5454545,9.6 Z M18.5454545,14.4 L20.7272727,14.4 C21.3297651,14.4 21.8181818,14.9372584 21.8181818,15.6 L21.8181818,16.8 C21.8181818,17.4627416 21.3297651,18 20.7272727,18 L18.5454545,18 C17.9429621,18 17.4545455,17.4627416 17.4545455,16.8 L17.4545455,15.6 C17.4545455,14.9372584 17.9429621,14.4 18.5454545,14.4 Z M3.27272727,6 L3.27272727,7.2 L5.45454545,7.2 L5.45454545,6 L3.27272727,6 Z M3.27272727,10.8 L3.27272727,12 L5.45454545,12 L5.45454545,10.8 L3.27272727,10.8 Z M10.9090909,6 L10.9090909,7.2 L13.0909091,7.2 L13.0909091,6 L10.9090909,6 Z M18.5454545,6 L18.5454545,7.2 L20.7272727,7.2 L20.7272727,6 L18.5454545,6 Z M18.5454545,10.8 L18.5454545,12 L20.7272727,12 L20.7272727,10.8 L18.5454545,10.8 Z M18.5454545,15.6 L18.5454545,16.8 L20.7272727,16.8 L20.7272727,15.6 L18.5454545,15.6 Z M2.72727273,3.6 C2.42602651,3.6 2.18181818,3.33137084 2.18181818,3 C2.18181818,2.66862916 2.42602651,2.4 2.72727273,2.4 L6,2.4 C6.30124622,2.4 6.54545455,2.66862916 6.54545455,3 C6.54545455,3.33137084 6.30124622,3.6 6,3.6 L2.72727273,3.6 Z M10.3636364,3.6 C10.0623901,3.6 9.81818182,3.33137084 9.81818182,3 C9.81818182,2.66862916 10.0623901,2.4 10.3636364,2.4 L13.6363636,2.4 C13.9376099,2.4 14.1818182,2.66862916 14.1818182,3 C14.1818182,3.33137084 13.9376099,3.6 13.6363636,3.6 L10.3636364,3.6 Z M18,3.6 C17.6987537,3.6 17.4545455,3.33137084 17.4545455,3 C17.4545455,2.66862916 17.6987537,2.4 18,2.4 L21.2727273,2.4 C21.5739735,2.4 21.8181818,2.66862916 21.8181818,3 C21.8181818,3.33137084 21.5739735,3.6 21.2727273,3.6 L18,3.6 Z" id="Shape"></path>
        </g>
    </g>
</svg>