<?xml version="1.0" encoding="UTF-8"?>
<svg width="24px" height="24px" viewBox="0 0 24 24" version="1.1" xmlns="http://www.w3.org/2000/svg" xmlns:xlink="http://www.w3.org/1999/xlink">
    <!-- Generator: Sketch 52.2 (67145) - http://www.bohemiancoding.com/sketch -->
    <title>Element/Icon/Eye</title>
    <desc>Created with Sketch.</desc>
    <g id="Element/Icon/Eye" stroke="none" stroke-width="1" fill="none" fill-rule="evenodd">
        <g id="eye" transform="translate(0.000000, 2.000000)" fill="#FFFFFF" fill-rule="nonzero">
            <path d="M0.040583223,9.74207478 C2.60170703,1.88838157 10.0323214,-2.00958349 16.6373249,1.03572611 C19.9985146,2.58543962 22.6560983,5.74544515 23.9594168,9.74207478 C24.0135277,9.90800619 24.0135277,10.0919938 23.9594168,10.2579252 C21.398293,18.1116184 13.9676786,22.0095835 7.36267512,18.9642739 C4.00148544,17.4145604 1.34390166,14.2545548 0.040583223,10.2579252 C-0.013527741,10.0919938 -0.013527741,9.90800619 0.040583223,9.74207478 Z M7.79650855,17.6339225 C13.710826,20.3607836 20.3554342,16.9459979 22.7539837,10.0000678 C21.5439438,6.49941379 19.1775815,3.73731444 16.2034914,2.36607749 C10.289174,-0.360783644 3.64456584,3.05400211 1.24601631,9.99993223 C2.45605619,13.5005863 4.82241855,16.2626856 7.79650855,17.6339225 Z M12,15.70745 C9.3490332,15.70745 7.2,13.1521376 7.2,10 C7.2,6.84786242 9.3490332,4.29255002 12,4.29255002 C14.6509668,4.29255002 16.8,6.84786242 16.8,10 C16.8,13.1521376 14.6509668,15.70745 12,15.70745 Z M12,14.2805875 C13.988225,14.2805875 15.6,12.3641031 15.6,10 C15.6,7.63589689 13.988225,5.71941251 12,5.71941251 C10.011775,5.71941251 8.4,7.63589689 8.4,10 C8.4,12.3641031 10.011775,14.2805875 12,14.2805875 Z" id="Shape"></path>
        </g>
    </g>
</svg>