<?xml version="1.0" encoding="UTF-8"?>
<svg width="24px" height="24px" viewBox="0 0 24 24" version="1.1" xmlns="http://www.w3.org/2000/svg" xmlns:xlink="http://www.w3.org/1999/xlink">
    <!-- Generator: Sketch 52.2 (67145) - http://www.bohemiancoding.com/sketch -->
    <title>Element/Icon/Fan</title>
    <desc>Created with Sketch.</desc>
    <g id="Element/Icon/Fan" stroke="none" stroke-width="1" fill="none" fill-rule="evenodd" stroke-linecap="round" stroke-linejoin="round">
        <g id="noun_Fan_951487" transform="translate(0.000000, 1.000000)" stroke="#0052FF">
            <ellipse id="Oval" cx="12.1437" cy="12.9199474" rx="2.3967" ry="2.41772368"></ellipse>
            <path d="M17.3262,2.06969737 C14.6226,-0.657921053 10.2384,-0.657921053 7.5348,2.06969737 C5.5962,4.02560526 5.5953,7.19688158 7.5348,9.15248684 L10.0761,11.7163816 C10.4907,10.9930921 11.2566,10.5010132 12.144,10.5010132 C12.5433,10.5010132 12.9141,10.6093553 13.2462,10.7842763 C13.1589,10.4961711 13.1022,10.1998947 13.1022,9.90059211 C13.1022,9.12403947 13.3947,8.34839474 13.9824,7.75614474 C14.4102,7.32428947 15.0009,7.05736842 15.6534,7.05736842 L15.6543,7.05736842 C16.2591,7.05736842 16.8642,6.82494737 17.3256,6.35889474 C18.5004,5.17439474 18.5004,3.25389474 17.3262,2.06969737 Z" id="Path"></path>
            <path d="M10.068,14.1283553 C9.8682,13.7791184 9.7749,13.4008289 9.7596,13.0243553 C9.5553,13.2446711 9.3297,13.4425921 9.0735,13.5914868 C8.4066,13.9803684 7.5939,14.1129211 6.7917,13.8959342 C6.2079,13.7376579 5.6835,13.3551316 5.3568,12.7846711 L5.3562,12.7834605 C5.0538,12.2559737 4.5516,11.8431842 3.9213,11.6721974 C2.3166,11.2382237 0.6684,12.1984737 0.2376,13.8166447 C-0.7515,17.5420395 1.4403,21.37275 5.1336,22.3714342 C7.782,23.0865526 10.5051,21.5010658 11.2149,18.8300395 L12.1452,15.3276842 C11.3169,15.3264737 10.5117,14.9027895 10.068,14.1283553 Z" id="Path"></path>
            <path d="M23.7621,14.3181053 C23.0529,11.6470789 20.3307,10.0603816 17.6823,10.7767105 L14.2101,11.7148684 C14.6235,12.4384605 14.6628,13.3536184 14.2188,14.1283553 C14.0193,14.4775921 13.7409,14.7478421 13.4256,14.95 C13.716,15.0177895 13.9992,15.11675 14.2554,15.2659474 C14.9232,15.6536184 15.4425,16.2979211 15.6576,17.1071579 C15.8136,17.6960789 15.7476,18.3467368 15.4215,18.9171974 L15.4209,18.9171974 C15.1185,19.4458947 15.0156,20.0911053 15.1848,20.7263289 C15.6138,22.3454079 17.2626,23.3053553 18.8664,22.8719868 C22.5603,21.8739079 24.7524,18.0441053 23.7621,14.3181053 Z" id="Path"></path>
        </g>
    </g>
</svg>