<?xml version="1.0" encoding="UTF-8"?>
<svg width="24px" height="24px" viewBox="0 0 24 24" version="1.1" xmlns="http://www.w3.org/2000/svg" xmlns:xlink="http://www.w3.org/1999/xlink">
    <!-- Generator: Sketch 52.2 (67145) - http://www.bohemiancoding.com/sketch -->
    <title>Element/Icon/Gitpull</title>
    <desc>Created with Sketch.</desc>
    <g id="Element/Icon/Gitpull" stroke="none" stroke-width="1" fill="none" fill-rule="evenodd">
        <g id="git-pull" fill="#0052FF" fill-rule="nonzero">
            <path d="M13.5247665,3.6 L14.5263158,3.6 C17.6656186,3.6 20.2105263,6.01766236 20.2105263,9 L20.2105263,9.64253328 C22.3530279,9.93367116 24,11.6841168 24,13.8 C24,16.1195959 22.0206273,18 19.5789474,18 C17.1372675,18 15.1578947,16.1195959 15.1578947,13.8 C15.1578947,11.6841168 16.8048668,9.93367116 18.9473684,9.64253328 L18.9473684,9 C18.9473684,6.68040406 16.9679957,4.8 14.5263158,4.8 L13.5247665,4.8 L14.9729096,6.17573593 C15.2195564,6.41005051 15.2195564,6.78994949 14.9729096,7.02426407 C14.7262626,7.25857865 14.326369,7.25857865 14.079722,7.02426407 L11.5534062,4.62426407 C11.3067594,4.38994949 11.3067594,4.01005051 11.5534062,3.77573593 L14.079722,1.37573593 C14.326369,1.14142135 14.7262626,1.14142135 14.9729096,1.37573593 C15.2195564,1.61005051 15.2195564,1.98994949 14.9729096,2.22426407 L13.5247665,3.6 Z M3.78947368,15.6425333 L3.78947368,8.35746668 C1.64697212,8.06632889 0,6.31588314 0,4.2 C0,1.88040406 1.97937269,0 4.42105263,0 C6.86273257,0 8.84210526,1.88040406 8.84210526,4.2 C8.84210526,6.31588314 7.19513314,8.06632889 5.05263158,8.35746668 L5.05263158,15.6425333 C7.19513314,15.9336712 8.84210526,17.6841168 8.84210526,19.8 C8.84210526,22.1195959 6.86273257,24 4.42105263,24 C1.97937269,24 0,22.1195959 0,19.8 C0,17.6841168 1.64697212,15.9336712 3.78947368,15.6425333 Z M1.26315789,19.8 C1.26315789,21.4568543 2.67699553,22.8 4.42105263,22.8 C6.16510973,22.8 7.57894737,21.4568543 7.57894737,19.8 C7.57894737,18.1431457 6.16510973,16.8 4.42105263,16.8 C2.67699553,16.8 1.26315789,18.1431457 1.26315789,19.8 Z M1.26315789,4.2 C1.26315789,5.85685424 2.67699553,7.2 4.42105263,7.2 C6.16510973,7.2 7.57894737,5.85685424 7.57894737,4.2 C7.57894737,2.54314576 6.16510973,1.2 4.42105263,1.2 C2.67699553,1.2 1.26315789,2.54314576 1.26315789,4.2 Z M19.5789474,16.8 C21.3230045,16.8 22.7368421,15.4568543 22.7368421,13.8 C22.7368421,12.1431457 21.3230045,10.8 19.5789474,10.8 C17.8348902,10.8 16.4210526,12.1431457 16.4210526,13.8 C16.4210526,15.4568543 17.8348902,16.8 19.5789474,16.8 Z" id="Shape"></path>
        </g>
    </g>
</svg>