<?xml version="1.0" encoding="UTF-8"?>
<svg width="24px" height="24px" viewBox="0 0 24 24" version="1.1" xmlns="http://www.w3.org/2000/svg" xmlns:xlink="http://www.w3.org/1999/xlink">
    <!-- Generator: Sketch 52.2 (67145) - http://www.bohemiancoding.com/sketch -->
    <title>Element/Icon/Lan</title>
    <desc>Created with Sketch.</desc>
    <g id="Element/Icon/Lan" stroke="none" stroke-width="1" fill="none" fill-rule="evenodd">
        <g id="lan" fill="#0052FF" fill-rule="nonzero">
            <path d="M7.57894737,1.8 L7.57894737,6.6 C7.57894737,6.93137084 7.8617149,7.2 8.21052632,7.2 L15.7894737,7.2 C16.1382851,7.2 16.4210526,6.93137084 16.4210526,6.6 L16.4210526,1.8 C16.4210526,1.46862916 16.1382851,1.2 15.7894737,1.2 L8.21052632,1.2 C7.8617149,1.2 7.57894737,1.46862916 7.57894737,1.8 Z M12.6315789,12 L17.0669783,12 C18.1134125,12 18.9617151,12.8058875 18.9617151,13.8 L18.9617151,14.4 L22.1052632,14.4 C23.1516974,14.4 24,15.2058875 24,16.2 L24,21 C24,21.9941125 23.1516974,22.8 22.1052632,22.8 L20.8421053,22.8 C21.1909167,22.8 21.4736842,23.0686291 21.4736842,23.4 C21.4736842,23.7313709 21.1909167,24 20.8421053,24 L15.7894737,24 C15.4406622,24 15.1578947,23.7313709 15.1578947,23.4 C15.1578947,23.0686291 15.4406622,22.8 15.7894737,22.8 L14.5263158,22.8 C13.4798816,22.8 12.6315789,21.9941125 12.6315789,21 L12.6315789,16.2 C12.6315789,15.2058875 13.4798816,14.4 14.5263158,14.4 L17.6985572,14.4 L17.6985572,13.8 C17.6985572,13.4686291 17.4157896,13.2 17.0669783,13.2 L6.94736842,13.2 C6.59855701,13.2 6.31578947,13.4686291 6.31578947,13.8 L6.31578947,14.4 L9.47368421,14.4 C10.5201184,14.4 11.3684211,15.2058875 11.3684211,16.2 L11.3684211,21 C11.3684211,21.9941125 10.5201184,22.8 9.47368421,22.8 L8.21052632,22.8 C8.55933773,22.8 8.84210526,23.0686291 8.84210526,23.4 C8.84210526,23.7313709 8.55933773,24 8.21052632,24 L3.15789474,24 C2.80908332,24 2.52631579,23.7313709 2.52631579,23.4 C2.52631579,23.0686291 2.80908332,22.8 3.15789474,22.8 L1.89473684,22.8 C0.848302585,22.8 0,21.9941125 0,21 L0,16.2 C0,15.2058875 0.848302585,14.4 1.89473684,14.4 L5.05263158,14.4 L5.05263158,13.8 C5.05263158,12.8058875 5.90093416,12 6.94736842,12 L11.3684211,12 L11.3684211,9.6 L9.47368421,9.6 C9.12487276,9.6 8.84210526,9.33137084 8.84210526,9 C8.84210526,8.66862916 9.12487276,8.4 9.47368421,8.4 L8.21052632,8.4 C7.16409206,8.4 6.31578947,7.59411254 6.31578947,6.6 L6.31578947,1.8 C6.31578947,0.805887456 7.16409206,0 8.21052632,0 L15.7894737,0 C16.8359079,0 17.6842105,0.805887456 17.6842105,1.8 L17.6842105,6.6 C17.6842105,7.59411254 16.8359079,8.4 15.7894737,8.4 L14.5263158,8.4 C14.8751272,8.4 15.1578947,8.66862916 15.1578947,9 C15.1578947,9.33137084 14.8751272,9.6 14.5263158,9.6 L12.6315789,9.6 L12.6315789,12 Z M18.3198875,15.6 L14.5263158,15.6 C14.1775043,15.6 13.8947368,15.8686291 13.8947368,16.2 L13.8947368,21 C13.8947368,21.3313709 14.1775043,21.6 14.5263158,21.6 L22.1052632,21.6 C22.4540746,21.6 22.7368421,21.3313709 22.7368421,21 L22.7368421,16.2 C22.7368421,15.8686291 22.4540746,15.6 22.1052632,15.6 L18.3403848,15.6 C18.336975,15.6000515 18.3335588,15.6000774 18.3301362,15.6000774 C18.3267135,15.6000774 18.3232972,15.6000515 18.3198875,15.6 Z M1.26315789,16.2 L1.26315789,21 C1.26315789,21.3313709 1.54592543,21.6 1.89473684,21.6 L9.47368421,21.6 C9.82249566,21.6 10.1052632,21.3313709 10.1052632,21 L10.1052632,16.2 C10.1052632,15.8686291 9.82249566,15.6 9.47368421,15.6 L1.89473684,15.6 C1.54592543,15.6 1.26315789,15.8686291 1.26315789,16.2 Z" id="Shape"></path>
        </g>
    </g>
</svg>