<?xml version="1.0" encoding="UTF-8"?>
<svg width="24px" height="24px" viewBox="0 0 24 24" version="1.1" xmlns="http://www.w3.org/2000/svg" xmlns:xlink="http://www.w3.org/1999/xlink">
    <!-- Generator: Sketch 52.2 (67145) - http://www.bohemiancoding.com/sketch -->
    <title>Element/Icon/Processor</title>
    <desc>Created with Sketch.</desc>
    <g id="Element/Icon/Processor" stroke="none" stroke-width="1" fill="none" fill-rule="evenodd">
        <g id="noun_processor-Chip_314906" fill="#0052FF">
            <path d="M18.45,18.95 L5.55,18.95 C5.25,18.95 5.05,18.75 5.05,18.45 L5.05,5.55 C5.05,5.25 5.25,5.05 5.55,5.05 L18.45,5.05 C18.75,5.05 18.95,5.25 18.95,5.55 L18.95,18.45 C18.95,18.7 18.7,18.95 18.45,18.95 Z M6.05,17.95 L17.95,17.95 L17.95,6.05 L6.05,6.05 L6.05,17.95 Z" id="Shape" fill-rule="nonzero"></path>
            <path d="M7.6,6.05 C7.21,6.05 6.95,5.85 6.95,5.55 L6.95,0.75 C6.95,0.45 7.21,0.25 7.6,0.25 C7.99,0.25 8.25,0.45 8.25,0.75 L8.25,5.55 C8.25,5.85 7.925,6.05 7.6,6.05 Z" id="Path"></path>
            <path d="M12.15,6.05 C11.76,6.05 11.5,5.85 11.5,5.55 L11.5,0.75 C11.5,0.45 11.76,0.25 12.15,0.25 C12.54,0.25 12.8,0.45 12.8,0.75 L12.8,5.55 C12.8,5.85 12.54,6.05 12.15,6.05 Z" id="Path"></path>
            <path d="M16.7,6.05 C16.31,6.05 16.05,5.85 16.05,5.55 L16.05,0.75 C16.05,0.45 16.31,0.25 16.7,0.25 C17.09,0.25 17.35,0.45 17.35,0.75 L17.35,5.55 C17.35,5.85 17.09,6.05 16.7,6.05 Z" id="Path"></path>
            <path d="M7.6,23.75 C7.21,23.75 6.95,23.55 6.95,23.25 L6.95,18.45 C6.95,18.15 7.21,17.95 7.6,17.95 C7.99,17.95 8.25,18.15 8.25,18.45 L8.25,23.25 C8.25,23.55 7.925,23.75 7.6,23.75 Z" id="Path"></path>
            <path d="M12.15,23.75 C11.76,23.75 11.5,23.55 11.5,23.25 L11.5,18.45 C11.5,18.15 11.76,17.95 12.15,17.95 C12.54,17.95 12.8,18.15 12.8,18.45 L12.8,23.25 C12.8,23.55 12.54,23.75 12.15,23.75 Z" id="Path"></path>
            <path d="M16.7,23.75 C16.31,23.75 16.05,23.55 16.05,23.25 L16.05,18.45 C16.05,18.15 16.31,17.95 16.7,17.95 C17.09,17.95 17.35,18.15 17.35,18.45 L17.35,23.25 C17.35,23.55 17.09,23.75 16.7,23.75 Z" id="Path"></path>
            <path d="M23.25,8.25 L18.45,8.25 C18.15,8.25 17.95,7.99 17.95,7.6 C17.95,7.21 18.15,6.95 18.45,6.95 L23.25,6.95 C23.55,6.95 23.75,7.21 23.75,7.6 C23.75,7.99 23.55,8.25 23.25,8.25 Z" id="Path"></path>
            <path d="M23.25,12.8 L18.45,12.8 C18.15,12.8 17.95,12.54 17.95,12.15 C17.95,11.76 18.15,11.5 18.45,11.5 L23.25,11.5 C23.55,11.5 23.75,11.76 23.75,12.15 C23.75,12.54 23.55,12.8 23.25,12.8 Z" id="Path"></path>
            <path d="M23.25,17.35 L18.45,17.35 C18.15,17.35 17.95,17.09 17.95,16.7 C17.95,16.31 18.15,16.05 18.45,16.05 L23.25,16.05 C23.55,16.05 23.75,16.31 23.75,16.7 C23.75,17.09 23.55,17.35 23.25,17.35 Z" id="Path"></path>
            <path d="M5.55,8.25 L0.75,8.25 C0.45,8.25 0.25,7.99 0.25,7.6 C0.25,7.21 0.45,6.95 0.75,6.95 L5.55,6.95 C5.85,6.95 6.05,7.21 6.05,7.6 C6.05,7.99 5.85,8.25 5.55,8.25 Z" id="Path"></path>
            <path d="M5.55,12.8 L0.75,12.8 C0.45,12.8 0.25,12.54 0.25,12.15 C0.25,11.76 0.45,11.5 0.75,11.5 L5.55,11.5 C5.85,11.5 6.05,11.76 6.05,12.15 C6.05,12.54 5.85,12.8 5.55,12.8 Z" id="Path"></path>
            <path d="M5.55,17.35 L0.75,17.35 C0.45,17.35 0.25,17.09 0.25,16.7 C0.25,16.31 0.45,16.05 0.75,16.05 L5.55,16.05 C5.85,16.05 6.05,16.31 6.05,16.7 C6.05,17.09 5.85,17.35 5.55,17.35 Z" id="Path"></path>
        </g>
    </g>
</svg>