<?xml version="1.0" encoding="UTF-8"?>
<svg width="358px" height="459px" viewBox="0 0 358 459" version="1.1" xmlns="http://www.w3.org/2000/svg" xmlns:xlink="http://www.w3.org/1999/xlink">
    <!-- Generator: Sketch 52.2 (67145) - http://www.bohemiancoding.com/sketch -->
    <title>Graphic element</title>
    <desc>Created with Sketch.</desc>
    <defs>
        <linearGradient x1="255.703565%" y1="-146.557367%" x2="0%" y2="100%" id="linearGradient-1">
            <stop stop-color="#3A3A3A" offset="0%"></stop>
            <stop stop-color="#121212" offset="100%"></stop>
        </linearGradient>
        <linearGradient x1="-88.182208%" y1="252.928673%" x2="67.3342115%" y2="-59.4530912%" id="linearGradient-2">
            <stop stop-color="#0052FF" offset="0%"></stop>
            <stop stop-color="#111111" offset="100%"></stop>
        </linearGradient>
        <linearGradient x1="-132.420639%" y1="-349.837747%" x2="3.72215855%" y2="100%" id="linearGradient-3">
            <stop stop-color="#3A3A3A" offset="0%"></stop>
            <stop stop-color="#171717" offset="100%"></stop>
        </linearGradient>
        <linearGradient x1="-51.8551331%" y1="100%" x2="87.3911853%" y2="176.566282%" id="linearGradient-4">
            <stop stop-color="#0052FF" stop-opacity="0.976336051" offset="0%"></stop>
            <stop stop-color="#111111" offset="100%"></stop>
            <stop stop-color="#111111" offset="100%"></stop>
        </linearGradient>
        <linearGradient x1="-177.760124%" y1="-393.556174%" x2="108.396186%" y2="113.873314%" id="linearGradient-5">
            <stop stop-color="#3A3A3A" offset="0%"></stop>
            <stop stop-color="#171717" offset="100%"></stop>
        </linearGradient>
        <linearGradient x1="598.539874%" y1="-134.706018%" x2="-272.538837%" y2="116.481553%" id="linearGradient-6">
            <stop stop-color="#3A3A3A" offset="0%"></stop>
            <stop stop-color="#171717" offset="100%"></stop>
        </linearGradient>
    </defs>
    <g id="Design" stroke="none" stroke-width="1" fill="none" fill-rule="evenodd">
        <g id="ARSData_404@2x" transform="translate(-1008.000000, -160.000000)">
            <g id="Screen" transform="translate(119.000000, 38.000000)">
                <g id="Graphic-element" transform="translate(889.000000, 122.000000)">
                    <g id="3" transform="translate(70.000000, 177.000000)">
                        <rect id="Rectangle-Copy-18" fill="url(#linearGradient-1)" x="0" y="0" width="100" height="68" rx="3"></rect>
                        <path d="M192,157 L118.5,157 L118.5,214.5 L117.5,214.5 L117.5,156.5 L118,156.5 L118,156 L192,156 L192,107 L50,107 L49,107 L49,69 L50,69 L50,106 L193,106 L193,107 L193,156 L363,156 L363,157 L193,157 L193,214 L192,214 L192,157 Z" id="Combined-Shape" fill="url(#linearGradient-2)"></path>
                        <rect id="Rectangle-Copy-21" fill="#DEDEDE" opacity="0.03" x="163" y="214" width="60" height="68" rx="3"></rect>
                        <rect id="Rectangle-Copy-10" fill="url(#linearGradient-3)" x="103" y="214" width="30" height="68" rx="3"></rect>
                    </g>
                    <g id="2" transform="translate(205.500000, 54.500000) scale(-1, 1) translate(-205.500000, -54.500000) ">
                        <path d="M102,39 L102,0 L103,0 L103,39 L361,39 L361,40 L0,40 L0,39 L20,39 L20,0 L21,0 L21,39 L61,39 L61,0 L62,0 L62,39 L102,39 Z" id="Combined-Shape" fill="url(#linearGradient-4)" transform="translate(180.500000, 20.000000) scale(-1, -1) translate(-180.500000, -20.000000) "></path>
                        <rect id="Rectangle" fill="url(#linearGradient-5)" x="241" y="41" width="170" height="68" rx="3"></rect>
                        <rect id="Rectangle-Copy-9" fill="url(#linearGradient-6)" transform="translate(300.000000, 75.000000) scale(-1, 1) translate(-300.000000, -75.000000) " x="285" y="41" width="30" height="68" rx="3"></rect>
                    </g>
                </g>
            </g>
        </g>
    </g>
</svg>