<?xml version="1.0" encoding="UTF-8"?>
<svg width="499px" height="316px" viewBox="0 0 499 316" version="1.1" xmlns="http://www.w3.org/2000/svg" xmlns:xlink="http://www.w3.org/1999/xlink">
    <!-- Generator: Sketch 52.2 (67145) - http://www.bohemiancoding.com/sketch -->
    <title>Condition Monitoring</title>
    <desc>Created with Sketch.</desc>
    <g id="Desktop-Design" stroke="none" stroke-width="1" fill="none" fill-rule="evenodd">
        <g id="ARSData_Solutions_v2@2x" transform="translate(-744.000000, -912.000000)">
            <g id="Condition-Monitoring" transform="translate(0.000000, 684.000000)">
                <g transform="translate(744.000000, 228.000000)" id="Group-5">
                    <g>
                        <path d="M58.804,8.718 L54.464,8.718 L53.638,11 L52.266,11 L55.92,1.312 L57.362,1.312 L61.002,11 L59.63,11 L58.804,8.718 Z M58.44,7.724 L56.634,2.74 L54.828,7.724 L58.44,7.724 Z M71.74,3.188 C72.6360045,3.188 73.3569973,3.47499713 73.903,4.049 C74.4490027,4.62300287 74.722,5.45132792 74.722,6.534 L74.722,11 L73.448,11 L73.448,6.646 C73.448,5.88999622 73.2636685,5.31133534 72.895,4.91 C72.5263315,4.50866466 72.0200032,4.308 71.376,4.308 C70.7039966,4.308 70.165002,4.52966445 69.759,4.973 C69.352998,5.41633555 69.15,6.06732904 69.15,6.926 L69.15,11 L67.876,11 L67.876,6.646 C67.876,5.88999622 67.6893352,5.31133534 67.316,4.91 C66.9426648,4.50866466 66.4386698,4.308 65.804,4.308 C65.1226633,4.308 64.579002,4.52966445 64.173,4.973 C63.766998,5.41633555 63.564,6.06732904 63.564,6.926 L63.564,11 L62.29,11 L62.29,3.314 L63.564,3.314 L63.564,5.064 C63.7506676,4.4573303 64.0843309,3.99300161 64.565,3.671 C65.0456691,3.34899839 65.5986635,3.188 66.224,3.188 C66.8773366,3.188 67.4443309,3.35366501 67.925,3.685 C68.4056691,4.01633499 68.7486656,4.50399678 68.954,5.148 C69.1686677,4.52266354 69.5279975,4.03966837 70.032,3.699 C70.5360025,3.35833163 71.1053302,3.188 71.74,3.188 Z M80.938,3.216 C81.6193367,3.216 82.2259973,3.37466508 82.758,3.692 C83.2900027,4.00933492 83.7076651,4.46666368 84.011,5.064 C84.3143348,5.66133632 84.466,6.36132932 84.466,7.164 C84.466,7.96667068 84.3143348,8.66433037 84.011,9.257 C83.7076651,9.84966963 83.2900027,10.3046651 82.758,10.622 C82.2259973,10.9393349 81.6193367,11.098 80.938,11.098 C80.1913296,11.098 79.5590026,10.9090019 79.041,10.531 C78.5229974,10.1529981 78.166001,9.65600308 77.97,9.04 L77.97,14.64 L76.696,14.64 L76.696,3.314 L77.97,3.314 L77.97,5.274 C78.166001,4.65799692 78.5229974,4.16100189 79.041,3.783 C79.5590026,3.40499811 80.1913296,3.216 80.938,3.216 Z M80.574,4.35 C80.0793309,4.35 79.6313353,4.46433219 79.23,4.693 C78.8286647,4.92166781 78.5160011,5.25066452 78.292,5.68 C78.0679989,6.10933548 77.956,6.6039972 77.956,7.164 C77.956,7.7240028 78.0679989,8.21633121 78.292,8.641 C78.5160011,9.06566879 78.8286647,9.3946655 79.23,9.628 C79.6313353,9.8613345 80.0793309,9.978 80.574,9.978 C81.3673373,9.978 81.9996643,9.72833583 82.471,9.229 C82.9423357,8.72966417 83.178,8.04133772 83.178,7.164 C83.178,6.28666228 82.9423357,5.59833583 82.471,5.099 C81.9996643,4.59966417 81.3673373,4.35 80.574,4.35 Z M87.406,0.64 L87.406,11 L86.132,11 L86.132,0.64 L87.406,0.64 Z M89.226,1.06 C89.226,0.8266655 89.3053325,0.63766739 89.464,0.493 C89.6226675,0.34833261 89.8326654,0.276 90.094,0.276 C90.3553346,0.276 90.5653325,0.34833261 90.724,0.493 C90.8826675,0.63766739 90.962,0.8266655 90.962,1.06 C90.962,1.2933345 90.8826675,1.48233261 90.724,1.627 C90.5653325,1.77166739 90.3553346,1.844 90.094,1.844 C89.8326654,1.844 89.6226675,1.77166739 89.464,1.627 C89.3053325,1.48233261 89.226,1.2933345 89.226,1.06 Z M90.724,3.314 L90.724,11 L89.45,11 L89.45,3.314 L90.724,3.314 Z M96.436,9.88 L96.436,11 L95.484,11 C94.6999961,11 94.1143353,10.8133352 93.727,10.44 C93.3396647,10.0666648 93.146,9.44133772 93.146,8.564 L93.146,4.42 L91.998,4.42 L91.998,3.314 L93.146,3.314 L93.146,1.396 L94.434,1.396 L94.434,3.314 L96.422,3.314 L96.422,4.42 L94.434,4.42 L94.434,8.592 C94.434,9.08666914 94.5249991,9.42499909 94.707,9.607 C94.8890009,9.78900091 95.2039978,9.88 95.652,9.88 L96.436,9.88 Z M104.822,3.314 L104.822,11 L103.548,11 L103.548,9.194 C103.351999,9.81933646 103.004336,10.297665 102.505,10.629 C102.005664,10.960335 101.42467,11.126 100.762,11.126 C99.8753289,11.126 99.1566694,10.8390029 98.606,10.265 C98.0553306,9.69099713 97.78,8.8673387 97.78,7.794 L97.78,3.314 L99.054,3.314 L99.054,7.668 C99.054,8.43333716 99.249998,9.02366459 99.642,9.439 C100.034002,9.85433541 100.565997,10.062 101.238,10.062 C101.938003,10.062 102.497998,9.83566893 102.918,9.383 C103.338002,8.93033107 103.548,8.27000434 103.548,7.402 L103.548,3.314 L104.822,3.314 Z M110.016,3.216 C110.76267,3.216 111.394997,3.4026648 111.913,3.776 C112.431003,4.1493352 112.792666,4.64866354 112.998,5.274 L112.998,0.64 L114.272,0.64 L114.272,11 L112.998,11 L112.998,9.04 C112.792666,9.66533646 112.431003,10.1646648 111.913,10.538 C111.394997,10.9113352 110.76267,11.098 110.016,11.098 C109.334663,11.098 108.728003,10.9393349 108.196,10.622 C107.663997,10.3046651 107.246335,9.84966963 106.943,9.257 C106.639665,8.66433037 106.488,7.96667068 106.488,7.164 C106.488,6.36132932 106.639665,5.66133632 106.943,5.064 C107.246335,4.46666368 107.663997,4.00933492 108.196,3.692 C108.728003,3.37466508 109.334663,3.216 110.016,3.216 Z M110.38,4.35 C109.595996,4.35 108.968336,4.59966417 108.497,5.099 C108.025664,5.59833583 107.79,6.28666228 107.79,7.164 C107.79,8.04133772 108.025664,8.72966417 108.497,9.229 C108.968336,9.72833583 109.595996,9.978 110.38,9.978 C110.884003,9.978 111.334331,9.8613345 111.731,9.628 C112.127669,9.3946655 112.437999,9.06566879 112.662,8.641 C112.886001,8.21633121 112.998,7.7240028 112.998,7.164 C112.998,6.6039972 112.886001,6.10933548 112.662,5.68 C112.437999,5.25066452 112.127669,4.92166781 111.731,4.693 C111.334331,4.46433219 110.884003,4.35 110.38,4.35 Z M123.372,6.73 C123.372,7.00066802 123.353334,7.23399902 123.316,7.43 L117.17,7.43 C117.198,8.30733772 117.447664,8.96533114 117.919,9.404 C118.390336,9.84266886 118.966663,10.062 119.648,10.062 C120.264003,10.062 120.779665,9.90566823 121.195,9.593 C121.610335,9.28033177 121.864666,8.86266928 121.958,8.34 L123.316,8.34 C123.222666,8.87200266 123.015002,9.3479979 122.693,9.768 C122.370998,10.1880021 121.953336,10.5146655 121.44,10.748 C120.926664,10.9813345 120.348003,11.098 119.704,11.098 C118.966663,11.098 118.313336,10.9393349 117.744,10.622 C117.174664,10.3046651 116.729002,9.84966963 116.407,9.257 C116.084998,8.66433037 115.924,7.96667068 115.924,7.164 C115.924,6.36132932 116.084998,5.66133632 116.407,5.064 C116.729002,4.46666368 117.174664,4.00933492 117.744,3.692 C118.313336,3.37466508 118.966663,3.216 119.704,3.216 C120.45067,3.216 121.101664,3.37466508 121.657,3.692 C122.212336,4.00933492 122.636999,4.43399734 122.931,4.966 C123.225001,5.49800266 123.372,6.08599678 123.372,6.73 Z M122.084,6.814 C122.112,6.24466382 122.018668,5.76866858 121.804,5.386 C121.589332,5.00333142 121.295335,4.7186676 120.922,4.532 C120.548665,4.3453324 120.142669,4.252 119.704,4.252 C119.003996,4.252 118.416002,4.46899783 117.94,4.903 C117.463998,5.33700217 117.207334,5.9739958 117.17,6.814 L122.084,6.814 Z" id="Amplitude" fill="#8B8B8B"></path>
                        <path d="M235.608,302.13 L235.608,303.166 L231.296,303.166 L231.296,306.582 L234.95,306.582 L234.95,307.576 L231.296,307.576 L231.296,312 L230.022,312 L230.022,302.13 L235.608,302.13 Z M238.394,305.868 C238.646001,305.335997 239.014664,304.923001 239.5,304.629 C239.985336,304.334999 240.563997,304.188 241.236,304.188 L241.236,305.574 L240.844,305.574 C240.12533,305.574 239.537336,305.758331 239.08,306.127 C238.622664,306.495669 238.394,307.104662 238.394,307.954 L238.394,312 L237.12,312 L237.12,304.314 L238.394,304.314 L238.394,305.868 Z M249.566,307.73 C249.566,308.000668 249.547334,308.233999 249.51,308.43 L243.364,308.43 C243.392,309.307338 243.641664,309.965331 244.113,310.404 C244.584336,310.842669 245.160663,311.062 245.842,311.062 C246.458003,311.062 246.973665,310.905668 247.389,310.593 C247.804335,310.280332 248.058666,309.862669 248.152,309.34 L249.51,309.34 C249.416666,309.872003 249.209002,310.347998 248.887,310.768 C248.564998,311.188002 248.147336,311.514665 247.634,311.748 C247.120664,311.981335 246.542003,312.098 245.898,312.098 C245.160663,312.098 244.507336,311.939335 243.938,311.622 C243.368664,311.304665 242.923002,310.84967 242.601,310.257 C242.278998,309.66433 242.118,308.966671 242.118,308.164 C242.118,307.361329 242.278998,306.661336 242.601,306.064 C242.923002,305.466664 243.368664,305.009335 243.938,304.692 C244.507336,304.374665 245.160663,304.216 245.898,304.216 C246.64467,304.216 247.295664,304.374665 247.851,304.692 C248.406336,305.009335 248.830999,305.433997 249.125,305.966 C249.419001,306.498003 249.566,307.085997 249.566,307.73 Z M248.278,307.814 C248.306,307.244664 248.212668,306.768669 247.998,306.386 C247.783332,306.003331 247.489335,305.718668 247.116,305.532 C246.742665,305.345332 246.336669,305.252 245.898,305.252 C245.197996,305.252 244.610002,305.468998 244.134,305.903 C243.657998,306.337002 243.401334,306.973996 243.364,307.814 L248.278,307.814 Z M254.466,304.244 C255.175337,304.244 255.779664,304.414332 256.279,304.755 C256.778336,305.095668 257.139999,305.55533 257.364,306.134 L257.364,304.314 L258.638,304.314 L258.638,315.64 L257.364,315.64 L257.364,310.124 C257.130666,310.73067 256.764336,311.211332 256.265,311.566 C255.765664,311.920668 255.166003,312.098 254.466,312.098 C253.784663,312.098 253.168669,311.937002 252.618,311.615 C252.067331,311.292998 251.635668,310.83567 251.323,310.243 C251.010332,309.65033 250.854,308.962004 250.854,308.178 C250.854,307.393996 251.010332,306.70567 251.323,306.113 C251.635668,305.52033 252.067331,305.060668 252.618,304.734 C253.168669,304.407332 253.784663,304.244 254.466,304.244 Z M254.746,305.35 C253.980663,305.35 253.357669,305.599664 252.877,306.099 C252.396331,306.598336 252.156,307.291329 252.156,308.178 C252.156,309.064671 252.393998,309.752998 252.87,310.243 C253.346002,310.733002 253.971329,310.978 254.746,310.978 C255.231336,310.978 255.672331,310.863668 256.069,310.635 C256.465669,310.406332 256.780665,310.079669 257.014,309.655 C257.247335,309.230331 257.364,308.733336 257.364,308.164 C257.364,307.594664 257.247335,307.097669 257.014,306.673 C256.780665,306.248331 256.465669,305.921668 256.069,305.693 C255.672331,305.464332 255.231336,305.35 254.746,305.35 Z M267.5,304.314 L267.5,312 L266.226,312 L266.226,310.194 C266.029999,310.819336 265.682336,311.297665 265.183,311.629 C264.683664,311.960335 264.10267,312.126 263.44,312.126 C262.553329,312.126 261.834669,311.839003 261.284,311.265 C260.733331,310.690997 260.458,309.867339 260.458,308.794 L260.458,304.314 L261.732,304.314 L261.732,308.668 C261.732,309.433337 261.927998,310.023665 262.32,310.439 C262.712002,310.854335 263.243997,311.062 263.916,311.062 C264.616004,311.062 265.175998,310.835669 265.596,310.383 C266.016002,309.930331 266.226,309.270004 266.226,308.402 L266.226,304.314 L267.5,304.314 Z M276.614,307.73 C276.614,308.000668 276.595334,308.233999 276.558,308.43 L270.412,308.43 C270.44,309.307338 270.689664,309.965331 271.161,310.404 C271.632336,310.842669 272.208663,311.062 272.89,311.062 C273.506003,311.062 274.021665,310.905668 274.437,310.593 C274.852335,310.280332 275.106666,309.862669 275.2,309.34 L276.558,309.34 C276.464666,309.872003 276.257002,310.347998 275.935,310.768 C275.612998,311.188002 275.195336,311.514665 274.682,311.748 C274.168664,311.981335 273.590003,312.098 272.946,312.098 C272.208663,312.098 271.555336,311.939335 270.986,311.622 C270.416664,311.304665 269.971002,310.84967 269.649,310.257 C269.326998,309.66433 269.166,308.966671 269.166,308.164 C269.166,307.361329 269.326998,306.661336 269.649,306.064 C269.971002,305.466664 270.416664,305.009335 270.986,304.692 C271.555336,304.374665 272.208663,304.216 272.946,304.216 C273.69267,304.216 274.343664,304.374665 274.899,304.692 C275.454336,305.009335 275.878999,305.433997 276.173,305.966 C276.467001,306.498003 276.614,307.085997 276.614,307.73 Z M275.326,307.814 C275.354,307.244664 275.260668,306.768669 275.046,306.386 C274.831332,306.003331 274.537335,305.718668 274.164,305.532 C273.790665,305.345332 273.384669,305.252 272.946,305.252 C272.245996,305.252 271.658002,305.468998 271.182,305.903 C270.705998,306.337002 270.449334,306.973996 270.412,307.814 L275.326,307.814 Z M282.326,304.188 C283.222004,304.188 283.945331,304.474997 284.496,305.049 C285.046669,305.623003 285.322,306.451328 285.322,307.534 L285.322,312 L284.048,312 L284.048,307.646 C284.048,306.880663 283.852002,306.292669 283.46,305.882 C283.067998,305.471331 282.536003,305.266 281.864,305.266 C281.163996,305.266 280.604002,305.492331 280.184,305.945 C279.763998,306.397669 279.554,307.057996 279.554,307.926 L279.554,312 L278.28,312 L278.28,304.314 L279.554,304.314 L279.554,306.134 C279.750001,305.508664 280.097664,305.028002 280.597,304.692 C281.096336,304.355998 281.672663,304.188 282.326,304.188 Z M290.684,304.216 C291.664005,304.216 292.475997,304.477331 293.12,305 C293.764003,305.522669 294.160666,306.222662 294.31,307.1 L292.966,307.1 C292.872666,306.549331 292.618335,306.117668 292.203,305.805 C291.787665,305.492332 291.272003,305.336 290.656,305.336 C290.207998,305.336 289.799669,305.438666 289.431,305.644 C289.062331,305.849334 288.766001,306.164331 288.542,306.589 C288.317999,307.013669 288.206,307.538664 288.206,308.164 C288.206,308.789336 288.317999,309.314331 288.542,309.739 C288.766001,310.163669 289.062331,310.478666 289.431,310.684 C289.799669,310.889334 290.207998,310.992 290.656,310.992 C291.272003,310.992 291.787665,310.833335 292.203,310.516 C292.618335,310.198665 292.872666,309.764669 292.966,309.214 L294.31,309.214 C294.160666,310.100671 293.764003,310.802997 293.12,311.321 C292.475997,311.839003 291.664005,312.098 290.684,312.098 C289.946663,312.098 289.293336,311.939335 288.724,311.622 C288.154664,311.304665 287.709002,310.84967 287.387,310.257 C287.064998,309.66433 286.904,308.966671 286.904,308.164 C286.904,307.361329 287.064998,306.661336 287.387,306.064 C287.709002,305.466664 288.154664,305.009335 288.724,304.692 C289.293336,304.374665 289.946663,304.216 290.684,304.216 Z M296.508,304.314 L299,310.362 L301.31,304.314 L302.724,304.314 L298.16,315.64 L296.718,315.64 L298.314,311.874 L295.08,304.314 L296.508,304.314 Z" id="Frequency" fill="#8B8B8B"></path>
                        <path d="M31.0603622,263.986072 C31.0603622,262.416891 31.321696,261.193598 31.8443716,260.316156 C32.3670472,259.438714 33.2723824,259 34.5604043,259 C35.8484263,259 36.7560948,259.441036 37.2834371,260.32312 C37.8107795,261.205204 38.0744467,262.426176 38.0744467,263.986072 C38.0744467,265.564539 37.8107795,266.794796 37.2834371,267.67688 C36.7560948,268.558964 35.8484263,269 34.5604043,269 C33.2723824,269 32.3670472,268.558964 31.8443716,267.67688 C31.321696,266.794796 31.0603622,265.564539 31.0603622,263.986072 Z M36.8144315,263.986072 C36.8144315,263.187554 36.756098,262.519037 36.6394294,261.980501 C36.5227607,261.441966 36.3010936,261.012536 35.9744214,260.692201 C35.6477491,260.371865 35.1764148,260.211699 34.5604043,260.211699 C33.9537273,260.211699 33.4870597,260.371865 33.1603875,260.692201 C32.8337152,261.012536 32.6120481,261.441966 32.4953795,261.980501 C32.3787108,262.519037 32.3203774,263.187554 32.3203774,263.986072 C32.3203774,264.793876 32.3787108,265.469357 32.4953795,266.012535 C32.6120481,266.555713 32.8337152,266.989785 33.1603875,267.314763 C33.4870597,267.639742 33.9537273,267.802228 34.5604043,267.802228 C35.1764148,267.802228 35.6477491,267.639742 35.9744214,267.314763 C36.3010936,266.989785 36.5227607,266.555713 36.6394294,266.012535 C36.756098,265.469357 36.8144315,264.793876 36.8144315,263.986072 Z" id="0" fill="#8B8B8B"></path>
                        <path d="M176,268.058 C177.586675,266.993995 178.855995,265.937005 179.808,264.887 C180.760005,263.836995 181.236,262.859338 181.236,261.954 C181.236,261.393997 181.093668,260.943668 180.809,260.603 C180.524332,260.262332 180.06467,260.092 179.43,260.092 C178.776663,260.092 178.282002,260.299665 177.946,260.715 C177.609998,261.130335 177.423334,261.701996 177.386,262.43 L176.126,262.43 C176.191334,261.328661 176.531997,260.48167 177.148,259.889 C177.764003,259.29633 178.557328,259 179.528,259 C180.452005,259 181.184664,259.247331 181.726,259.742 C182.267336,260.236669 182.538,260.936662 182.538,261.842 C182.538,262.58867 182.297669,263.346996 181.817,264.117 C181.336331,264.887004 180.734337,265.600997 180.011,266.259 C179.287663,266.917003 178.543337,267.474664 177.778,267.932 L182.79,267.932 L182.79,268.982 L176,268.982 L176,268.058 Z" id="2" fill="#8B8B8B"></path>
                        <polygon id="1" fill="#8B8B8B" points="103 260.19 103 259 105.828 259 105.828 268.87 104.484 268.87 104.484 260.19"></polygon>
                        <path d="M254.528,259 C255.16267,259 255.708664,259.111999 256.166,259.336 C256.623336,259.560001 256.968665,259.867998 257.202,260.26 C257.435335,260.652002 257.552,261.095331 257.552,261.59 C257.552,262.206003 257.372335,262.723998 257.013,263.144 C256.653665,263.564002 256.12867,263.816 255.438,263.9 L255.438,263.984 C256.15667,264.170668 256.718998,264.459998 257.125,264.852 C257.531002,265.244002 257.734,265.78533 257.734,266.476 C257.734,267.288004 257.463336,267.950664 256.922,268.464 C256.380664,268.977336 255.601338,269.234 254.584,269.234 C253.566662,269.234 252.743003,268.970336 252.113,268.443 C251.482997,267.915664 251.112001,267.143338 251,266.126 L252.26,266.126 C252.344,266.742003 252.579665,267.231998 252.967,267.596 C253.354335,267.960002 253.87933,268.142 254.542,268.142 C255.167336,268.142 255.647998,267.981002 255.984,267.659 C256.320002,267.336998 256.488,266.919336 256.488,266.406 C256.488,265.789997 256.247669,265.321002 255.767,264.999 C255.286331,264.676998 254.602671,264.516 253.716,264.516 L253.38,264.516 L253.38,263.452 L253.716,263.452 C255.433342,263.452 256.292,262.878006 256.292,261.73 C256.292,261.225997 256.133335,260.824668 255.816,260.526 C255.498665,260.227332 255.060003,260.078 254.5,260.078 C253.939997,260.078 253.468669,260.238998 253.086,260.561 C252.703331,260.883002 252.479334,261.356664 252.414,261.982 L251.168,261.982 C251.233334,261.048662 251.557664,260.318336 252.141,259.791 C252.724336,259.263664 253.519995,259 254.528,259 Z" id="3" fill="#8B8B8B"></path>
                        <path d="M326,266.672 L326,265.608 L331.068,259 L332.44,259 L332.44,265.566 L333.896,265.566 L333.896,266.672 L332.44,266.672 L332.44,268.94 L331.152,268.94 L331.152,266.672 L326,266.672 Z M331.236,260.554 L327.344,265.566 L331.236,265.566 L331.236,260.554 Z" id="4" fill="#8B8B8B"></path>
                        <path d="M413.356,260.134 L408.288,260.134 L408.288,263.438 C408.521335,263.120665 408.857331,262.868668 409.296,262.682 C409.734669,262.495332 410.215331,262.402 410.738,262.402 C411.438004,262.402 412.018998,262.548999 412.481,262.843 C412.943002,263.137001 413.283666,263.524331 413.503,264.005 C413.722334,264.485669 413.832,265.019997 413.832,265.608 C413.832,266.625338 413.547336,267.455997 412.978,268.1 C412.408664,268.744003 411.573339,269.066 410.472,269.066 C409.482662,269.066 408.675336,268.797669 408.05,268.261 C407.424664,267.724331 407.074667,267.003338 407,266.098 L408.26,266.098 C408.362667,266.67667 408.602998,267.126998 408.981,267.449 C409.359002,267.771002 409.83733,267.932 410.416,267.932 C411.13467,267.932 411.675998,267.717335 412.04,267.288 C412.404002,266.858665 412.586,266.294003 412.586,265.594 C412.586,264.912663 412.399335,264.380669 412.026,263.998 C411.652665,263.615331 411.125337,263.424 410.444,263.424 C409.958664,263.424 409.534002,263.528999 409.17,263.739 C408.805998,263.949001 408.530668,264.231332 408.344,264.586 L407.112,264.586 L407.112,259 L413.356,259 L413.356,260.134 Z" id="5" fill="#8B8B8B"></path>
                        <path d="M491.474,261.884 C491.399333,261.295997 491.201002,260.841002 490.879,260.519 C490.556998,260.196998 490.111336,260.036 489.542,260.036 C488.748663,260.036 488.149002,260.343997 487.743,260.96 C487.336998,261.576003 487.134,262.551327 487.134,263.886 L487.148,264.404 C487.288001,263.843997 487.609997,263.398335 488.114,263.067 C488.618003,262.735665 489.210663,262.57 489.892,262.57 C490.872005,262.57 491.639664,262.863997 492.195,263.452 C492.750336,264.040003 493.028,264.861328 493.028,265.916 C493.028,266.532003 492.906668,267.089664 492.664,267.589 C492.421332,268.088336 492.050336,268.484999 491.551,268.779 C491.051664,269.073001 490.433337,269.22 489.696,269.22 C488.28666,269.22 487.318336,268.776671 486.791,267.89 C486.263664,267.003329 486,265.799341 486,264.278 C486,262.523325 486.282331,261.205004 486.847,260.323 C487.411669,259.440996 488.333327,259 489.612,259 C490.554671,259 491.280331,259.265997 491.789,259.798 C492.297669,260.330003 492.598666,261.025329 492.692,261.884 L491.474,261.884 Z M487.288,265.706 C487.288,266.387337 487.486331,266.958998 487.883,267.421 C488.279669,267.883002 488.874663,268.114 489.668,268.114 C490.321337,268.114 490.843998,267.920335 491.236,267.533 C491.628002,267.145665 491.824,266.602004 491.824,265.902 C491.824,265.145996 491.628002,264.569669 491.236,264.173 C490.843998,263.776331 490.30267,263.578 489.612,263.578 C489.219998,263.578 488.846668,263.657333 488.492,263.816 C488.137332,263.974667 487.848001,264.214998 487.624,264.537 C487.399999,264.859002 487.288,265.248664 487.288,265.706 Z" id="6" fill="#8B8B8B"></path>
                        <rect id="Rectangle" fill="#DEDEDE" x="34" y="244" width="464.933602" height="1"></rect>
                        <rect id="Rectangle-Copy-4" fill="#DEDEDE" x="30" y="198" width="5.01006036" height="1"></rect>
                        <rect id="Rectangle-Copy-5" fill="#DEDEDE" x="30" y="101" width="5.01006036" height="1"></rect>
                        <rect id="Rectangle-Copy-5" fill="#DEDEDE" x="30" y="149" width="5.01006036" height="1"></rect>
                        <rect id="Rectangle-Copy-6" fill="#DEDEDE" x="30" y="54" width="5.01006036" height="1"></rect>
                        <rect id="Rectangle-Copy-6" fill="#DEDEDE" x="30.0583501" y="6" width="5.01006036" height="1"></rect>
                        <rect id="Rectangle" fill="#DEDEDE" x="34.0663984" y="7" width="1.00201207" height="237"></rect>
                        <rect id="Rectangle-Copy" fill="#DEDEDE" x="104" y="245" width="1.00201207" height="5"></rect>
                        <rect id="Rectangle-Copy-2" fill="#DEDEDE" x="178" y="245" width="1.00201207" height="5"></rect>
                        <rect id="Rectangle-Copy-2" fill="#DEDEDE" x="254" y="245" width="1.00201207" height="5"></rect>
                        <rect id="Rectangle-Copy-2" fill="#DEDEDE" x="330" y="245" width="1.00201207" height="5"></rect>
                        <rect id="Rectangle-Copy-2" fill="#DEDEDE" x="410" y="245" width="1.00201207" height="5"></rect>
                        <rect id="Rectangle-Copy-2" fill="#DEDEDE" x="489" y="245" width="1.00201207" height="5"></rect>
                        <polyline id="Path-3" stroke="#0052FF" points="36.0704225 175.478807 37.3586603 175.478807 37.3586603 179.927099 37.3586603 186.98048 39.6109017 186.98048 39.6109017 191.002369 41.0598261 191.002369 41.0598261 194.147836 42.4057705 194.147836 42.4057705 204.01558 43.6887736 204.01558 43.6887736 211.296875 45.6169242 211.296875 45.6169242 207.089926 47.6095513 207.089926 47.6095513 198.613039 47.6095513 194.147836 48.8296132 194.147836 48.8296132 197.897036 50.4065978 197.897036 50.4065978 202.493481 51.6047838 202.493481 51.6047838 188.640059 52.6862983 188.640059 52.6862983 183.212637 53.8725868 183.212637 53.8725868 192.15148 55.0062964 192.15148 55.0062964 194.860425 56.3230729 194.860425 56.3230729 191.002369 57.2833103 191.002369 57.2833103 188.105719 58.5386807 188.105719 58.5386807 183.212637 59.89729 183.212637 59.89729 176.986561 61.5537188 176.986561 61.5537188 172.469555 65.1283198 172.469555 65.1283198 176.986561 66.4439449 176.986561 66.4439449 186.405924 67.5903195 186.405924 67.5903195 191.002369 68.6614716 191.002369 68.6614716 179.927099 70.4422477 179.927099 70.4422477 175.478807 71.7233319 175.478807 71.7233319 173.925325 71.7233319 172.469555 74.6773477 172.469555 74.6773477 173.925325 76.1683639 173.925325 76.1683639 175.478807 77.1930777 175.478807 77.1930777 185.084049 78.6998292 185.084049 78.6998292 202.493481 79.5959741 202.493481 79.5959741 212.699618 81.0674171 212.699618 81.0674171 200.26786 81.0674171 163.482452 81.0674171 141.574329 81.0674171 108.858988 82.3431282 108.858988 82.3431282 134.704347 84.1872293 134.704347 84.1872293 155.692107 84.1872293 194.147836 85.4042209 194.147836 85.4042209 200.26786 87.0418441 200.26786 87.0418441 202.493481 90.7062514 202.493481 90.7062514 206.405424 92.4405891 206.405424 92.4405891 217.243544 93.5190333 217.243544 93.5190333 222.861452 94.3468639 222.861452 94.3468639 207.089926 96.0439742 207.089926 96.0439742 200.26786 97.3622858 200.26786 97.3622858 196.747925 98.5566339 196.747925 98.5566339 194.147836 99.3741022 194.147836 99.3741022 196.747925 100.966055 196.747925 100.966055 200.26786 102.283599 200.26786 102.283599 207.6083 103.673679 207.6083 103.673679 214.438465 104.677668 214.438465 104.677668 220.001716 105.379232 220.001716 105.379232 222.028372 106.882913 222.028372 106.882913 214.438465 108.043104 214.438465 108.043104 211.813675 109.405168 211.813675 109.405168 220.001716 111.028591 220.001716 111.028591 217.243544 112.690776 217.243544 112.690776 209.388148 113.976082 209.388148 113.976082 204.01558 115.298999 204.01558 115.298999 201.782774 120.24641 201.782774 120.24641 198.613039 121.451888 198.613039 121.451888 194.860425 122.605554 194.860425 122.605554 199.373759 124.905596 199.373759 124.905596 202.493481 127.237107 202.493481 127.237107 170.039738 128.967607 170.039738 128.967607 165.576217 130.062938 165.576217 130.062938 132.556476 131.16748 132.556476 131.16748 178.553277 133.287908 178.553277 133.287908 212.699618 136.507121 212.699618 136.507121 210.53726 138.351223 210.53726 138.351223 204.01558 140.818595 204.01558 140.818595 210.53726 142.157248 210.53726 142.157248 212.699618 143.758795 212.699618 143.758795 214.438465 144.969646 214.438465 144.969646 220.001716 144.969646 222.861452 146.63231 222.861452 146.63231 220.001716 147.862793 220.001716 147.862793 214.438465 149.441835 214.438465 149.441835 211.813675 150.775086 211.813675 150.775086 207.089926 151.829305 207.089926 151.829305 198.613039 153.193966 198.613039 153.193966 194.860425 155.68939 194.860425 155.68939 199.842607 157.748732 199.842607 157.748732 207.089926 159.797706 207.089926 159.797706 195.598814 161.588995 195.598814 161.588995 186.98048 163.301606 186.98048 163.301606 183.212637 165.491468 183.212637 165.491468 186.98048 166.950664 186.98048 166.950664 192.15148 168.733414 192.15148 168.733414 197.897036 168.733414 202.493481 172.490425 202.493481 172.490425 198.613039 174.62448 198.613039 174.62448 168.53563 176.63564 168.53563 176.63564 125.50303 177.722795 125.50303 177.722795 102 177.722795 126.070672 179.331722 126.070672 179.331722 172.469555 180.636613 172.469555 180.636613 194.860425 182.290368 194.860425 182.290368 190.008272 184.488768 190.008272 184.488768 185.77124 186.001026 185.77124 186.001026 176.986561 186.001026 172.469555 187.111967 172.469555 187.111967 180.496746 188.741326 180.496746 188.741326 186.98048 189.794936 186.98048 191.029688 186.98048 191.029688 183.212637 192.638005 183.212637 192.638005 172.469555 194.772366 172.469555 194.772366 165.44658 196.513642 165.44658 196.513642 175.055338 200.615554 175.055338 200.615554 173.925325 202.306209 173.925325 202.306209 172.469555 206.022661 172.469555 206.022661 175.478807 207.580052 175.478807 207.580052 177.461822 209.153605 177.461822 209.153605 172.469555 211.375182 172.469555 211.375182 186.98048 212.676108 186.98048 212.676108 191.002369 214.322849 191.002369 214.322849 179.927099 215.959833 179.927099 215.959833 175.478807 218.421712 175.478807 218.421712 170.039738 219.229225 170.039738 219.229225 165.44658 220.727455 165.44658 220.727455 179.495584 222.137249 179.495584 222.137249 184.001623 223.502825 184.001623 223.502825 140.903363 224.980318 140.903363 224.980318 127.036182 226.52795 127.036182 226.52795 162.363364 228.071008 162.363364 228.071008 172.469555 229.176155 172.469555 229.176155 175.478807 230.437132 175.478807 230.437132 179.0548 231.873457 179.0548 231.873457 181.614586 233.439996 181.614586 233.439996 182.68381 234.731164 182.68381 234.731164 186.98048 236.509645 186.98048 236.509645 192.15148 237.928892 192.15148 237.928892 185.77124 239.510984 185.77124 239.510984 182.68381 241.124181 182.68381 241.124181 194.860425 242.974326 194.860425 242.974326 179.927099 244.310931 179.927099 244.310931 183.212637 245.605148 183.212637 245.605148 188.640059 247.445535 188.640059 247.445535 193.611353 247.445535 199.373759 249.89979 199.373759 249.89979 194.860425 251.58526 194.860425 251.58526 191.494296 252.921866 191.494296 252.921866 186.98048 254.900396 186.98048 254.900396 194.147836 256.617886 194.147836 256.617886 196.747925 258.211871 196.747925 258.211871 199.842607 258.211871 201.782774 262.952353 201.782774 262.952353 204.01558 264.506084 204.01558 264.506084 209.388148 266.077808 209.388148 266.077808 211.296875 268.177708 211.296875 268.177708 186.98048 270.853969 186.98048 270.853969 173.000714 271.947103 173.000714 271.947103 137.408635 273.001821 137.408635 273.001821 169.486203 274.553446 169.486203 274.553446 172.469555 276.173116 172.469555 276.173116 204.01558 277.574787 204.01558 277.574787 211.813675 283.535561 211.813675 283.535561 207.089926 285.979349 207.089926 285.979349 198.613039 287.163439 198.613039 287.163439 194.860425 288.655838 194.860425 288.655838 197.897036 290.410341 197.897036 290.410341 200.26786 291.998088 200.26786 291.998088 204.01558 294.156669 204.01558 294.156669 214.438465 295.802382 214.438465 295.802382 220.001716 295.802382 222.861452 297.228415 222.861452 297.228415 214.438465 299.21352 214.438465 299.21352 217.243544 300.446754 217.243544 300.446754 222.028372 303.240854 222.028372 303.240854 211.296875 304.493831 211.296875 304.493831 235.817706 306.172727 235.817706 306.172727 238.495482 307.828521 238.495482 307.828521 227.281838 308.919783 227.281838 308.919783 222.861452 310.266008 222.861452 310.266008 220.498027 311.428676 220.001716 311.428676 214.438465 314.417674 214.438465 314.417674 220.498027 314.417674 222.861452 317.071901 222.861452 317.071901 195.598814 318.443329 195.598814 318.443329 143.791769 319.501827 143.791769 319.501827 116.437173 320.185651 116.437173 320.185651 143.791769 320.185651 149.634366 321.519275 149.634366 321.519275 211.813675 322.852059 211.813675 322.852059 243.422182 323.895856 243.422182 323.895856 227.281838 324.868246 227.281838 324.868246 222.028372 327.560277 222.028372 327.560277 233.519484 328.860718 233.519484 328.860718 243.422182 329.604187 243.422182 329.604187 238.495482 331.162952 238.495482 331.162952 227.281838 331.162952 221.452921 332.00261 221.452921 332.00261 227.281838 333.18208 227.281838 333.18208 238.495482 334.515284 238.495482 334.515284 243.422182 335.309998 243.422182 335.309998 238.495482 335.309998 227.281838 336.882624 227.281838 336.882624 221.452921 337.69834 221.452921 337.69834 243.422182 338.753898 243.422182 338.753898 233.519484 340.874255 233.519484 340.874255 221.452921 341.707193 221.452921 341.707193 238.495482 344.25893 238.495482 344.25893 243.422182 346.677095 243.422182 346.677095 233.519484 348.179575 233.519484 348.179575 222.028372 350.898908 222.028372 350.898908 217.243544 353.078911 217.243544 353.078911 207.6083 353.078911 188.640059 354.836354 188.640059 354.836354 162.363364 355.749099 162.363364 355.749099 148.471218 356.415701 148.471218 356.415701 162.363364 358.190366 162.363364 358.190366 188.105719 359.475266 188.105719 359.475266 212.699618 360.297282 212.699618 360.297282 221.452921 362.820037 221.452921 362.820037 232.944928 363.908358 232.944928 363.908358 243.422182 363.908358 232.370372 365.216299 232.370372 365.216299 218.581038 366.535959 218.581038 366.535959 170.039738 368.703843 170.039738 368.703843 143.791769 369.348844 143.791769 369.348844 170.039738 371.72614 170.039738 371.389326 218.581038 372.637806 218.581038 372.637806 227.281838 374.146505 227.281838 374.146505 238.495482 375.447596 238.495482 375.447596 243.422182 376.441274 243.422182 376.441274 227.281838 377.72457 227.281838 377.72457 211.296875 378.960671 211.296875 378.960671 222.861452 385.802167 222.861452 385.802167 220.001716 387.591458 220.001716 387.591458 214.438465 389.733552 214.438465 389.733552 211.296875 392.900013 211.296875 392.900013 220.001716 394.564481 220.001716 394.564481 232.944928 394.564481 243.422182 395.887752 243.422182 395.887752 227.281838 398.189742 227.281838 398.189742 221.452921 400.740861 221.452921 400.740861 220.001716 402.16729 220.001716 402.16729 214.438465 403.238595 214.438465 403.238595 211.296875 406.622979 211.296875 406.622979 201.782774 408.402986 201.782774 408.402986 210.006246 409.852626 210.006246 409.852626 212.699618 411.83895 212.699618 411.83895 204.01558 413.199615 204.01558 413.199615 190.008272 414.604639 190.008272 414.604639 166.882037 415.562727 166.882037 415.562727 154.895856 416.350345 154.895856 416.350345 199.842607 417.975613 199.842607 417.975613 243.422182 418.530607 243.422182 418.530607 227.281838 420.389788 227.281838 420.389788 222.028372 435.507978 222.028372 435.507978 227.281838 437.327958 227.281838 437.327958 238.495482 438.700487 238.495482 438.700487 243.422182 440.176175 243.422182 440.176175 227.281838 441.651089 227.281838 441.651089 222.028372 450.888965 222.028372 450.888965 227.281838 452.473485 227.281838 452.473485 238.495482 453.909457 238.495482 453.909457 244"></polyline>
                        <polyline id="Path-4" stroke="#E63A0F" points="454.911469 244 454.911469 239.285526 456.597209 239.285526 456.597209 228.591289 458.630279 228.591289 458.630279 199.164844 459.763771 199.164844 458.630279 42.7654385 460.727144 42.7654385 460.727144 20 461.522328 20 461.522328 42.7654385 461.522328 45.2869255 462.962554 45.2869255 462.962554 200.264275 464.378936 200.264275 464.378936 233.247221 465.618754 233.247221 465.618754 243.142105 467.675667 243.142105 467.675667 228.591289 468.725388 228.591289 468.725388 148.375928 471.212113 148.375928 471.212113 228.591289 472.843079 228.591289 472.843079 239.285526 473.627954 239.285526 474.729871 239.285526 475.720952 239.285526 475.720952 177.775901 476.871199 177.775901 476.871199 172.53695 478.993196 172.53695 478.993196 228.591289 480.486906 228.591289 480.486906 239.285526 481.965795 239.285526 481.965795 244"></polyline>
                        <g id="Y" fill="#8B8B8B">
                            <path d="M4.798,198.002 C4.798,196.424659 5.05933072,195.195004 5.582,194.313 C6.10466928,193.430996 7.00999356,192.99 8.298,192.99 C9.58600644,192.99 10.493664,193.433329 11.021,194.32 C11.548336,195.206671 11.812,196.433992 11.812,198.002 C11.812,199.588675 11.548336,200.825329 11.021,201.712 C10.493664,202.598671 9.58600644,203.042 8.298,203.042 C7.00999356,203.042 6.10466928,202.598671 5.582,201.712 C5.05933072,200.825329 4.798,199.588675 4.798,198.002 Z M10.552,198.002 C10.552,197.199329 10.4936673,196.527336 10.377,195.986 C10.2603328,195.444664 10.0386683,195.013002 9.712,194.691 C9.3853317,194.368998 8.91400308,194.208 8.298,194.208 C7.6913303,194.208 7.2246683,194.368998 6.898,194.691 C6.5713317,195.013002 6.34966725,195.444664 6.233,195.986 C6.11633275,196.527336 6.058,197.199329 6.058,198.002 C6.058,198.814004 6.11633275,199.492997 6.233,200.039 C6.34966725,200.585003 6.5713317,201.021332 6.898,201.348 C7.2246683,201.674668 7.6913303,201.838 8.298,201.838 C8.91400308,201.838 9.3853317,201.674668 9.712,201.348 C10.0386683,201.021332 10.2603328,200.585003 10.377,200.039 C10.4936673,199.492997 10.552,198.814004 10.552,198.002 Z M14.556,201.502 L14.556,203 L13.016,203 L13.016,201.502 L14.556,201.502 Z M15.172,194.32 L15.172,193.13 L18,193.13 L18,203 L16.656,203 L16.656,194.32 L15.172,194.32 Z" id="0.1"></path>
                            <path d="M1.798,150.002 C1.798,148.424659 2.05933072,147.195004 2.582,146.313 C3.10466928,145.430996 4.00999356,144.99 5.298,144.99 C6.58600644,144.99 7.49366403,145.433329 8.021,146.32 C8.54833597,147.206671 8.812,148.433992 8.812,150.002 C8.812,151.588675 8.54833597,152.825329 8.021,153.712 C7.49366403,154.598671 6.58600644,155.042 5.298,155.042 C4.00999356,155.042 3.10466928,154.598671 2.582,153.712 C2.05933072,152.825329 1.798,151.588675 1.798,150.002 Z M7.552,150.002 C7.552,149.199329 7.49366725,148.527336 7.377,147.986 C7.26033275,147.444664 7.0386683,147.013002 6.712,146.691 C6.3853317,146.368998 5.91400308,146.208 5.298,146.208 C4.6913303,146.208 4.2246683,146.368998 3.898,146.691 C3.5713317,147.013002 3.34966725,147.444664 3.233,147.986 C3.11633275,148.527336 3.058,149.199329 3.058,150.002 C3.058,150.814004 3.11633275,151.492997 3.233,152.039 C3.34966725,152.585003 3.5713317,153.021332 3.898,153.348 C4.2246683,153.674668 4.6913303,153.838 5.298,153.838 C5.91400308,153.838 6.3853317,153.674668 6.712,153.348 C7.0386683,153.021332 7.26033275,152.585003 7.377,152.039 C7.49366725,151.492997 7.552,150.814004 7.552,150.002 Z M11.556,153.502 L11.556,155 L10.016,155 L10.016,153.502 L11.556,153.502 Z M12.578,154.02 C14.1646746,152.955995 15.4339952,151.899005 16.386,150.849 C17.3380048,149.798995 17.814,148.821338 17.814,147.916 C17.814,147.355997 17.6716681,146.905668 17.387,146.565 C17.1023319,146.224332 16.6426698,146.054 16.008,146.054 C15.3546634,146.054 14.8600017,146.261665 14.524,146.677 C14.1879983,147.092335 14.0013335,147.663996 13.964,148.392 L12.704,148.392 C12.7693337,147.290661 13.1099969,146.44367 13.726,145.851 C14.3420031,145.25833 15.1353285,144.962 16.106,144.962 C17.0300046,144.962 17.762664,145.209331 18.304,145.704 C18.845336,146.198669 19.116,146.898662 19.116,147.804 C19.116,148.55067 18.8756691,149.308996 18.395,150.079 C17.9143309,150.849004 17.312337,151.562997 16.589,152.221 C15.8656631,152.879003 15.1213372,153.436664 14.356,153.894 L19.368,153.894 L19.368,154.944 L12.578,154.944 L12.578,154.02 Z" id="0.2"></path>
                            <path d="M0.798,102.002 C0.798,100.424659 1.05933072,99.1950044 1.582,98.313 C2.10466928,97.4309956 3.00999356,96.99 4.298,96.99 C5.58600644,96.99 6.49366403,97.4333289 7.021,98.32 C7.54833597,99.2066711 7.812,100.433992 7.812,102.002 C7.812,103.588675 7.54833597,104.825329 7.021,105.712 C6.49366403,106.598671 5.58600644,107.042 4.298,107.042 C3.00999356,107.042 2.10466928,106.598671 1.582,105.712 C1.05933072,104.825329 0.798,103.588675 0.798,102.002 Z M6.552,102.002 C6.552,101.199329 6.49366725,100.527336 6.377,99.986 C6.26033275,99.444664 6.0386683,99.0130016 5.712,98.691 C5.3853317,98.3689984 4.91400308,98.208 4.298,98.208 C3.6913303,98.208 3.2246683,98.3689984 2.898,98.691 C2.5713317,99.0130016 2.34966725,99.444664 2.233,99.986 C2.11633275,100.527336 2.058,101.199329 2.058,102.002 C2.058,102.814004 2.11633275,103.492997 2.233,104.039 C2.34966725,104.585003 2.5713317,105.021332 2.898,105.348 C3.2246683,105.674668 3.6913303,105.838 4.298,105.838 C4.91400308,105.838 5.3853317,105.674668 5.712,105.348 C6.0386683,105.021332 6.26033275,104.585003 6.377,104.039 C6.49366725,103.492997 6.552,102.814004 6.552,102.002 Z M10.556,105.502 L10.556,107 L9.016,107 L9.016,105.502 L10.556,105.502 Z M15.176,96.864 C15.8106698,96.864 16.3566644,96.9759989 16.814,97.2 C17.2713356,97.4240011 17.6166655,97.731998 17.85,98.124 C18.0833345,98.516002 18.2,98.9593309 18.2,99.454 C18.2,100.070003 18.0203351,100.587998 17.661,101.008 C17.3016649,101.428002 16.7766701,101.68 16.086,101.764 L16.086,101.848 C16.8046703,102.034668 17.366998,102.323998 17.773,102.716 C18.179002,103.108002 18.382,103.64933 18.382,104.34 C18.382,105.152004 18.111336,105.814664 17.57,106.328 C17.028664,106.841336 16.2493384,107.098 15.232,107.098 C14.2146616,107.098 13.3910032,106.834336 12.761,106.307 C12.1309969,105.779664 11.7600006,105.007338 11.648,103.99 L12.908,103.99 C12.9920004,104.606003 13.2276647,105.095998 13.615,105.46 C14.0023353,105.824002 14.52733,106.006 15.19,106.006 C15.8153365,106.006 16.2959983,105.845002 16.632,105.523 C16.9680017,105.200998 17.136,104.783336 17.136,104.27 C17.136,103.653997 16.8956691,103.185002 16.415,102.863 C15.9343309,102.540998 15.2506711,102.38 14.364,102.38 L14.028,102.38 L14.028,101.316 L14.364,101.316 C16.0813419,101.316 16.94,100.742006 16.94,99.594 C16.94,99.0899975 16.7813349,98.6886682 16.464,98.39 C16.1466651,98.0913318 15.7080028,97.942 15.148,97.942 C14.5879972,97.942 14.1166686,98.1029984 13.734,98.425 C13.3513314,98.7470016 13.1273337,99.2206635 13.062,99.846 L11.816,99.846 C11.8813337,98.912662 12.2056638,98.182336 12.789,97.655 C13.3723363,97.127664 14.167995,96.864 15.176,96.864 Z" id="0.3"></path>
                            <path d="M0.798,54.002 C0.798,52.4246588 1.05933072,51.1950044 1.582,50.313 C2.10466928,49.4309956 3.00999356,48.99 4.298,48.99 C5.58600644,48.99 6.49366403,49.4333289 7.021,50.32 C7.54833597,51.2066711 7.812,52.4339922 7.812,54.002 C7.812,55.5886746 7.54833597,56.8253289 7.021,57.712 C6.49366403,58.5986711 5.58600644,59.042 4.298,59.042 C3.00999356,59.042 2.10466928,58.5986711 1.582,57.712 C1.05933072,56.8253289 0.798,55.5886746 0.798,54.002 Z M6.552,54.002 C6.552,53.1993293 6.49366725,52.527336 6.377,51.986 C6.26033275,51.444664 6.0386683,51.0130016 5.712,50.691 C5.3853317,50.3689984 4.91400308,50.208 4.298,50.208 C3.6913303,50.208 3.2246683,50.3689984 2.898,50.691 C2.5713317,51.0130016 2.34966725,51.444664 2.233,51.986 C2.11633275,52.527336 2.058,53.1993293 2.058,54.002 C2.058,54.8140041 2.11633275,55.4929973 2.233,56.039 C2.34966725,56.5850027 2.5713317,57.0213317 2.898,57.348 C3.2246683,57.6746683 3.6913303,57.838 4.298,57.838 C4.91400308,57.838 5.3853317,57.6746683 5.712,57.348 C6.0386683,57.0213317 6.26033275,56.5850027 6.377,56.039 C6.49366725,55.4929973 6.552,54.8140041 6.552,54.002 Z M10.556,57.502 L10.556,59 L9.016,59 L9.016,57.502 L10.556,57.502 Z M11.424,56.732 L11.424,55.668 L16.492,49.06 L17.864,49.06 L17.864,55.626 L19.32,55.626 L19.32,56.732 L17.864,56.732 L17.864,59 L16.576,59 L16.576,56.732 L11.424,56.732 Z M16.66,50.614 L12.768,55.626 L16.66,55.626 L16.66,50.614 Z" id="0.4"></path>
                            <path d="M0.798,6.002 C0.798,4.42465878 1.05933072,3.19500441 1.582,2.313 C2.10466928,1.43099559 3.00999356,0.99 4.298,0.99 C5.58600644,0.99 6.49366403,1.4333289 7.021,2.32 C7.54833597,3.2066711 7.812,4.43399216 7.812,6.002 C7.812,7.5886746 7.54833597,8.8253289 7.021,9.712 C6.49366403,10.5986711 5.58600644,11.042 4.298,11.042 C3.00999356,11.042 2.10466928,10.5986711 1.582,9.712 C1.05933072,8.8253289 0.798,7.5886746 0.798,6.002 Z M6.552,6.002 C6.552,5.19932932 6.49366725,4.52733604 6.377,3.986 C6.26033275,3.44466396 6.0386683,3.01300161 5.712,2.691 C5.3853317,2.36899839 4.91400308,2.208 4.298,2.208 C3.6913303,2.208 3.2246683,2.36899839 2.898,2.691 C2.5713317,3.01300161 2.34966725,3.44466396 2.233,3.986 C2.11633275,4.52733604 2.058,5.19932932 2.058,6.002 C2.058,6.81400406 2.11633275,7.49299727 2.233,8.039 C2.34966725,8.58500273 2.5713317,9.0213317 2.898,9.348 C3.2246683,9.6746683 3.6913303,9.838 4.298,9.838 C4.91400308,9.838 5.3853317,9.6746683 5.712,9.348 C6.0386683,9.0213317 6.26033275,8.58500273 6.377,8.039 C6.49366725,7.49299727 6.552,6.81400406 6.552,6.002 Z M10.556,9.502 L10.556,11 L9.016,11 L9.016,9.502 L10.556,9.502 Z M18.438,2.138 L13.37,2.138 L13.37,5.442 C13.6033345,5.12466508 13.9393311,4.8726676 14.378,4.686 C14.8166689,4.4993324 15.2973307,4.406 15.82,4.406 C16.5200035,4.406 17.1009977,4.55299853 17.563,4.847 C18.0250023,5.14100147 18.3656656,5.52833093 18.585,6.009 C18.8043344,6.48966907 18.914,7.02399706 18.914,7.612 C18.914,8.62933842 18.6293362,9.45999678 18.06,10.104 C17.4906638,10.7480032 16.6553388,11.07 15.554,11.07 C14.5646617,11.07 13.7573365,10.8016693 13.132,10.265 C12.5066635,9.72833065 12.156667,9.00733786 12.082,8.102 L13.342,8.102 C13.4446672,8.68066956 13.6849981,9.13099839 14.063,9.453 C14.4410019,9.77500161 14.9193304,9.936 15.498,9.936 C16.2166703,9.936 16.7579982,9.72133548 17.122,9.292 C17.4860018,8.86266452 17.668,8.2980035 17.668,7.598 C17.668,6.91666326 17.4813352,6.38466858 17.108,6.002 C16.7346648,5.61933142 16.2073367,5.428 15.526,5.428 C15.0406642,5.428 14.6160018,5.53299895 14.252,5.743 C13.8879982,5.95300105 13.6126676,6.23533156 13.426,6.59 L12.194,6.59 L12.194,1.004 L18.438,1.004 L18.438,2.138 Z" id="0.5"></path>
                            <path d="M11.798,244.002 C11.798,242.424659 12.0593307,241.195004 12.582,240.313 C13.1046693,239.430996 14.0099936,238.99 15.298,238.99 C16.5860064,238.99 17.493664,239.433329 18.021,240.32 C18.548336,241.206671 18.812,242.433992 18.812,244.002 C18.812,245.588675 18.548336,246.825329 18.021,247.712 C17.493664,248.598671 16.5860064,249.042 15.298,249.042 C14.0099936,249.042 13.1046693,248.598671 12.582,247.712 C12.0593307,246.825329 11.798,245.588675 11.798,244.002 Z M17.552,244.002 C17.552,243.199329 17.4936673,242.527336 17.377,241.986 C17.2603328,241.444664 17.0386683,241.013002 16.712,240.691 C16.3853317,240.368998 15.9140031,240.208 15.298,240.208 C14.6913303,240.208 14.2246683,240.368998 13.898,240.691 C13.5713317,241.013002 13.3496673,241.444664 13.233,241.986 C13.1163328,242.527336 13.058,243.199329 13.058,244.002 C13.058,244.814004 13.1163328,245.492997 13.233,246.039 C13.3496673,246.585003 13.5713317,247.021332 13.898,247.348 C14.2246683,247.674668 14.6913303,247.838 15.298,247.838 C15.9140031,247.838 16.3853317,247.674668 16.712,247.348 C17.0386683,247.021332 17.2603328,246.585003 17.377,246.039 C17.4936673,245.492997 17.552,244.814004 17.552,244.002 Z" id="0"></path>
                        </g>
                    </g>
                </g>
            </g>
        </g>
    </g>
</svg>