<?xml version="1.0" encoding="UTF-8"?>
<svg width="498px" height="313px" viewBox="0 0 498 313" version="1.1" xmlns="http://www.w3.org/2000/svg" xmlns:xlink="http://www.w3.org/1999/xlink">
    <!-- Generator: Sketch 52.2 (67145) - http://www.bohemiancoding.com/sketch -->
    <title>Condition Monitoring</title>
    <desc>Created with Sketch.</desc>
    <g id="Design" stroke="none" stroke-width="1" fill="none" fill-rule="evenodd">
        <g id="ARSData_Solutions_v2@2x" transform="translate(-745.000000, -913.000000)">
            <g id="Condition-Monitoring" transform="translate(0.000000, 684.000000)">
                <g transform="translate(745.000000, 229.000000)" id="Group-5">
                    <g>
                        <path d="M54.4865293,0.46854083 L57.4532918,8.55421687 L60.4614509,0.46854083 L61.8275415,0.46854083 L58.2536277,9.90629183 L56.6667548,9.90629183 L53.1066398,0.46854083 L54.4865293,0.46854083 Z M66.2017913,2.46318608 C66.937736,2.46318608 67.5609799,2.64167604 68.0715415,2.99866131 C68.5821032,3.35564659 68.9385711,3.83310723 69.1409559,4.43105756 L69.1409559,0 L70.3966554,0 L70.3966554,9.90629183 L69.1409559,9.90629183 L69.1409559,8.03212851 C68.9385711,8.63007885 68.5821032,9.10753949 68.0715415,9.46452477 C67.5609799,9.82151004 66.937736,10 66.2017913,10 C65.5302417,10 64.9322955,9.84828353 64.4079349,9.54484605 C63.8835743,9.24140857 63.4719113,8.80633929 63.1729338,8.23962517 C62.8739562,7.67291104 62.7244697,7.00580482 62.7244697,6.23828648 C62.7244697,5.47076814 62.8739562,4.80143079 63.1729338,4.23025435 C63.4719113,3.65907791 63.8835743,3.22177751 64.4079349,2.91834003 C64.9322955,2.61490254 65.5302417,2.46318608 66.2017913,2.46318608 Z M66.5605625,3.54752343 C65.7878205,3.54752343 65.1691763,3.78625375 64.7046111,4.26372155 C64.240046,4.74118936 64.0077669,5.39937108 64.0077669,6.23828648 C64.0077669,7.07720187 64.240046,7.7353836 64.7046111,8.21285141 C65.1691763,8.69031921 65.7878205,8.92904953 66.5605625,8.92904953 C67.0573252,8.92904953 67.5011853,8.81749331 67.8921559,8.59437751 C68.2831265,8.37126171 68.588999,8.05667316 68.8097824,7.65060241 C69.0305658,7.24453166 69.1409559,6.77376439 69.1409559,6.23828648 C69.1409559,5.70280857 69.0305658,5.22981017 68.8097824,4.81927711 C68.588999,4.40874404 68.2831265,4.09415549 67.8921559,3.87550201 C67.5011853,3.65684853 67.0573252,3.54752343 66.5605625,3.54752343 Z M77.144315,5.02008032 C77.7422702,5.14502517 78.2275264,5.42168461 78.6000985,5.85006693 C78.9726705,6.27844926 79.1589537,6.7826834 79.1589537,7.36278447 C79.1589537,8.13030281 78.889878,8.74609317 78.3517184,9.21017403 C77.8135588,9.67425489 77.033929,9.90629183 76.0128056,9.90629183 L72.3974951,9.90629183 L72.3974951,0.46854083 L75.9576101,0.46854083 C76.9327369,0.46854083 77.6732702,0.678266533 78.1792322,1.09772423 C78.6851942,1.51718193 78.9381714,2.09281205 78.9381714,2.82463186 C78.9381714,3.43150683 78.7702865,3.92235422 78.4345117,4.29718876 C78.0987369,4.67202329 77.6686757,4.91298474 77.144315,5.02008032 Z M73.6531946,4.60508701 L75.7506266,4.60508701 C76.3669804,4.60508701 76.8384379,4.4667573 77.1650134,4.19009371 C77.4915889,3.91343012 77.6548742,3.52521446 77.6548742,3.02543507 C77.6548742,2.54350495 77.4938887,2.16421379 77.1719128,1.8875502 C76.849937,1.61088661 76.3577813,1.47255689 75.6954311,1.47255689 L73.6531946,1.47255689 L73.6531946,4.60508701 Z M75.7782244,8.88888889 C76.4405747,8.88888889 76.9534285,8.74163467 77.3168012,8.44712182 C77.680174,8.15260897 77.8618576,7.73761981 77.8618576,7.2021419 C77.8618576,6.67558862 77.6755744,6.26283059 77.3030023,5.96385542 C76.9304303,5.66488025 76.4129769,5.51539491 75.7506266,5.51539491 L73.6531946,5.51539491 L73.6531946,8.88888889 L75.7782244,8.88888889 Z" id="VdB" fill="#8B8B8B"></path>
                        <path d="M218.438632,306.156909 C218.438632,304.573763 218.697287,303.339583 219.214607,302.454333 C219.731926,301.569082 220.627983,301.126464 221.902805,301.126464 C223.177627,301.126464 224.075994,301.571424 224.597932,302.461358 C225.11987,303.351293 225.380835,304.58313 225.380835,306.156909 C225.380835,307.749422 225.11987,308.990628 224.597932,309.880562 C224.075994,310.770496 223.177627,311.215457 221.902805,311.215457 C220.627983,311.215457 219.731926,310.770496 219.214607,309.880562 C218.697287,308.990628 218.438632,307.749422 218.438632,306.156909 Z M224.133732,306.156909 C224.133732,305.351284 224.075997,304.676818 223.960524,304.133489 C223.845051,303.590161 223.625655,303.15691 223.302331,302.833724 C222.979006,302.510537 222.512502,302.348946 221.902805,302.348946 C221.302345,302.348946 220.84046,302.510537 220.517136,302.833724 C220.193811,303.15691 219.974416,303.590161 219.858943,304.133489 C219.74347,304.676818 219.685734,305.351284 219.685734,306.156909 C219.685734,306.971901 219.74347,307.653393 219.858943,308.201405 C219.974416,308.749417 220.193811,309.187352 220.517136,309.515222 C220.84046,309.843093 221.302345,310.007026 221.902805,310.007026 C222.512502,310.007026 222.979006,309.843093 223.302331,309.515222 C223.625655,309.187352 223.845051,308.749417 223.960524,308.201405 C224.075997,307.653393 224.133732,306.971901 224.133732,306.156909 Z M234.914239,305.482436 L234.914239,306.564403 L229.371562,306.564403 L229.371562,305.482436 L234.914239,305.482436 Z M243.948803,301 C244.576976,301 245.117381,301.112411 245.570036,301.337237 C246.02269,301.562062 246.364485,301.871192 246.595431,302.264637 C246.826377,302.658082 246.941848,303.103042 246.941848,303.599532 C246.941848,304.217802 246.764022,304.737703 246.408365,305.159251 C246.052709,305.580798 245.533088,305.833723 244.849488,305.918033 L244.849488,306.002342 C245.560801,306.189696 246.117373,306.480092 246.519219,306.873536 C246.921065,307.266981 247.121985,307.810301 247.121985,308.503513 C247.121985,309.318505 246.854092,309.983604 246.318297,310.498829 C245.782502,311.014054 245.011154,311.271663 244.004229,311.271663 C242.997305,311.271663 242.182077,311.007028 241.558523,310.477752 C240.934969,309.948475 240.56777,309.173307 240.456916,308.152225 L241.704018,308.152225 C241.787159,308.770495 242.020411,309.262293 242.403781,309.627635 C242.787152,309.992976 243.306773,310.175644 243.962659,310.175644 C244.581595,310.175644 245.057336,310.014053 245.389899,309.690867 C245.722461,309.36768 245.88874,308.94848 245.88874,308.433255 C245.88874,307.814985 245.650869,307.344264 245.17512,307.021077 C244.699371,306.697891 244.022709,306.5363 243.145114,306.5363 L242.812554,306.5363 L242.812554,305.468384 L243.145114,305.468384 C244.844877,305.468384 245.694746,304.892277 245.694746,303.740047 C245.694746,303.23419 245.537705,302.831383 245.223618,302.531616 C244.909532,302.231849 244.47536,302.081967 243.921089,302.081967 C243.366819,302.081967 242.900315,302.243558 242.521563,302.566745 C242.142812,302.889931 241.921107,303.365336 241.856442,303.992974 L240.623196,303.992974 C240.687861,303.056201 241.008871,302.323188 241.586237,301.793911 C242.163602,301.264634 242.951116,301 243.948803,301 Z M248.757075,306.156909 C248.757075,304.573763 249.015731,303.339583 249.53305,302.454333 C250.050369,301.569082 250.946426,301.126464 252.221248,301.126464 C253.49607,301.126464 254.394437,301.571424 254.916375,302.461358 C255.438313,303.351293 255.699278,304.58313 255.699278,306.156909 C255.699278,307.749422 255.438313,308.990628 254.916375,309.880562 C254.394437,310.770496 253.49607,311.215457 252.221248,311.215457 C250.946426,311.215457 250.050369,310.770496 249.53305,309.880562 C249.015731,308.990628 248.757075,307.749422 248.757075,306.156909 Z M254.452175,306.156909 C254.452175,305.351284 254.39444,304.676818 254.278967,304.133489 C254.163494,303.590161 253.944098,303.15691 253.620774,302.833724 C253.297449,302.510537 252.830945,302.348946 252.221248,302.348946 C251.620788,302.348946 251.158903,302.510537 250.835579,302.833724 C250.512254,303.15691 250.292859,303.590161 250.177386,304.133489 C250.061913,304.676818 250.004177,305.351284 250.004177,306.156909 C250.004177,306.971901 250.061913,307.653393 250.177386,308.201405 C250.292859,308.749417 250.512254,309.187352 250.835579,309.515222 C251.158903,309.843093 251.620788,310.007026 252.221248,310.007026 C252.830945,310.007026 253.297449,309.843093 253.620774,309.515222 C253.944098,309.187352 254.163494,308.749417 254.278967,308.201405 C254.39444,307.653393 254.452175,306.971901 254.452175,306.156909 Z M258.221196,310.23185 C258.350526,310.64403 258.415189,311.028101 258.415189,311.384075 C258.415189,311.871197 258.295099,312.262294 258.054915,312.557377 C257.814732,312.85246 257.454461,313 256.974093,313 L256.974093,312.451991 C257.20504,312.451991 257.373628,312.388759 257.479863,312.262295 C257.586098,312.135831 257.639215,311.93677 257.639215,311.665105 L257.639215,311.538642 L256.932523,311.538642 L256.932523,310.23185 L258.221196,310.23185 Z M259.690005,306.156909 C259.690005,304.573763 259.948661,303.339583 260.46598,302.454333 C260.983299,301.569082 261.879356,301.126464 263.154178,301.126464 C264.429,301.126464 265.327367,301.571424 265.849305,302.461358 C266.371243,303.351293 266.632208,304.58313 266.632208,306.156909 C266.632208,307.749422 266.371243,308.990628 265.849305,309.880562 C265.327367,310.770496 264.429,311.215457 263.154178,311.215457 C261.879356,311.215457 260.983299,310.770496 260.46598,309.880562 C259.948661,308.990628 259.690005,307.749422 259.690005,306.156909 Z M265.385106,306.156909 C265.385106,305.351284 265.32737,304.676818 265.211897,304.133489 C265.096424,303.590161 264.877029,303.15691 264.553704,302.833724 C264.23038,302.510537 263.763876,302.348946 263.154178,302.348946 C262.553719,302.348946 262.091834,302.510537 261.768509,302.833724 C261.445185,303.15691 261.225789,303.590161 261.110316,304.133489 C260.994843,304.676818 260.937108,305.351284 260.937108,306.156909 C260.937108,306.971901 260.994843,307.653393 261.110316,308.201405 C261.225789,308.749417 261.445185,309.187352 261.768509,309.515222 C262.091834,309.843093 262.553719,310.007026 263.154178,310.007026 C263.763876,310.007026 264.23038,309.843093 264.553704,309.515222 C264.877029,309.187352 265.096424,308.749417 265.211897,308.201405 C265.32737,307.653393 265.385106,306.971901 265.385106,306.156909 Z M268.198014,306.156909 C268.198014,304.573763 268.45667,303.339583 268.973989,302.454333 C269.491308,301.569082 270.387365,301.126464 271.662187,301.126464 C272.93701,301.126464 273.835376,301.571424 274.357314,302.461358 C274.879252,303.351293 275.140217,304.58313 275.140217,306.156909 C275.140217,307.749422 274.879252,308.990628 274.357314,309.880562 C273.835376,310.770496 272.93701,311.215457 271.662187,311.215457 C270.387365,311.215457 269.491308,310.770496 268.973989,309.880562 C268.45667,308.990628 268.198014,307.749422 268.198014,306.156909 Z M273.893115,306.156909 C273.893115,305.351284 273.835379,304.676818 273.719906,304.133489 C273.604433,303.590161 273.385038,303.15691 273.061713,302.833724 C272.738389,302.510537 272.271885,302.348946 271.662187,302.348946 C271.061728,302.348946 270.599843,302.510537 270.276518,302.833724 C269.953194,303.15691 269.733798,303.590161 269.618325,304.133489 C269.502852,304.676818 269.445117,305.351284 269.445117,306.156909 C269.445117,306.971901 269.502852,307.653393 269.618325,308.201405 C269.733798,308.749417 269.953194,309.187352 270.276518,309.515222 C270.599843,309.843093 271.061728,310.007026 271.662187,310.007026 C272.271885,310.007026 272.738389,309.843093 273.061713,309.515222 C273.385038,309.187352 273.604433,308.749417 273.719906,308.201405 C273.835379,307.653393 273.893115,306.971901 273.893115,306.156909 Z M276.706024,306.156909 C276.706024,304.573763 276.964679,303.339583 277.481998,302.454333 C277.999317,301.569082 278.895375,301.126464 280.170197,301.126464 C281.445019,301.126464 282.343385,301.571424 282.865323,302.461358 C283.387261,303.351293 283.648226,304.58313 283.648226,306.156909 C283.648226,307.749422 283.387261,308.990628 282.865323,309.880562 C282.343385,310.770496 281.445019,311.215457 280.170197,311.215457 C278.895375,311.215457 277.999317,310.770496 277.481998,309.880562 C276.964679,308.990628 276.706024,307.749422 276.706024,306.156909 Z M282.401124,306.156909 C282.401124,305.351284 282.343388,304.676818 282.227915,304.133489 C282.112442,303.590161 281.893047,303.15691 281.569723,302.833724 C281.246398,302.510537 280.779894,302.348946 280.170197,302.348946 C279.569737,302.348946 279.107852,302.510537 278.784527,302.833724 C278.461203,303.15691 278.241808,303.590161 278.126334,304.133489 C278.010861,304.676818 277.953126,305.351284 277.953126,306.156909 C277.953126,306.971901 278.010861,307.653393 278.126334,308.201405 C278.241808,308.749417 278.461203,309.187352 278.784527,309.515222 C279.107852,309.843093 279.569737,310.007026 280.170197,310.007026 C280.779894,310.007026 281.246398,309.843093 281.569723,309.515222 C281.893047,309.187352 282.112442,308.749417 282.227915,308.201405 C282.343388,307.653393 282.401124,306.971901 282.401124,306.156909 Z M294.040746,311.173302 L291.491114,307.126464 L290.119302,307.126464 L290.119302,311.173302 L288.858343,311.173302 L288.858343,301.266979 L292.073095,301.266979 C293.181636,301.266979 294.01303,301.536297 294.5673,302.074941 C295.121571,302.613586 295.398702,303.327864 295.398702,304.217799 C295.398702,305.023423 295.176997,305.672129 294.73358,306.163934 C294.290164,306.65574 293.648144,306.962529 292.8075,307.084309 L295.467985,311.173302 L294.040746,311.173302 Z M290.119302,306.199063 L291.962242,306.199063 C293.394107,306.199063 294.110029,305.562067 294.110029,304.288056 C294.110029,303.014045 293.394107,302.377049 291.962242,302.377049 L290.119302,302.377049 L290.119302,306.199063 Z M298.197754,307.18267 L298.197754,311.173302 L296.936794,311.173302 L296.936794,301.266979 L300.040694,301.266979 C301.158472,301.266979 301.994484,301.531613 302.548755,302.06089 C303.103025,302.590167 303.380156,303.313813 303.380156,304.23185 C303.380156,305.159255 303.093788,305.882901 302.521042,306.40281 C301.948295,306.922719 301.121521,307.18267 300.040694,307.18267 L298.197754,307.18267 Z M299.92984,306.114754 C300.696581,306.114754 301.248534,305.950821 301.585715,305.622951 C301.922896,305.29508 302.091484,304.831385 302.091484,304.23185 C302.091484,303.61358 301.922896,303.142859 301.585715,302.819672 C301.248534,302.496486 300.696581,302.334895 299.92984,302.334895 L298.197754,302.334895 L298.197754,306.114754 L299.92984,306.114754 Z M314.631791,301.435597 L314.631791,311.173302 L313.370832,311.173302 L313.370832,303.40281 L310.308503,311.173302 L309.186111,311.173302 L306.109925,303.430913 L306.109925,311.173302 L304.848966,311.173302 L304.848966,301.435597 L306.359345,301.435597 L309.768092,309.613583 L313.121411,301.435597 L314.631791,301.435597 Z" id="0---30,000-RPM" fill="#8B8B8B"></path>
                        <path d="M30.0603622,262.986072 C30.0603622,261.416891 30.321696,260.193598 30.8443716,259.316156 C31.3670472,258.438714 32.2723824,258 33.5604043,258 C34.8484263,258 35.7560948,258.441036 36.2834371,259.32312 C36.8107795,260.205204 37.0744467,261.426176 37.0744467,262.986072 C37.0744467,264.564539 36.8107795,265.794796 36.2834371,266.67688 C35.7560948,267.558964 34.8484263,268 33.5604043,268 C32.2723824,268 31.3670472,267.558964 30.8443716,266.67688 C30.321696,265.794796 30.0603622,264.564539 30.0603622,262.986072 Z M35.8144315,262.986072 C35.8144315,262.187554 35.756098,261.519037 35.6394294,260.980501 C35.5227607,260.441966 35.3010936,260.012536 34.9744214,259.692201 C34.6477491,259.371865 34.1764148,259.211699 33.5604043,259.211699 C32.9537273,259.211699 32.4870597,259.371865 32.1603875,259.692201 C31.8337152,260.012536 31.6120481,260.441966 31.4953795,260.980501 C31.3787108,261.519037 31.3203774,262.187554 31.3203774,262.986072 C31.3203774,263.793876 31.3787108,264.469357 31.4953795,265.012535 C31.6120481,265.555713 31.8337152,265.989785 32.1603875,266.314763 C32.4870597,266.639742 32.9537273,266.802228 33.5604043,266.802228 C34.1764148,266.802228 34.6477491,266.639742 34.9744214,266.314763 C35.3010936,265.989785 35.5227607,265.555713 35.6394294,265.012535 C35.756098,264.469357 35.8144315,263.793876 35.8144315,262.986072 Z" id="0" fill="#8B8B8B"></path>
                        <path d="M10.2807337,241.821918 C10.2088401,241.246572 10.0178756,240.801371 9.70783445,240.486301 C9.39779329,240.171231 8.96868479,240.013699 8.42049607,240.013699 C7.65662655,240.013699 7.07923971,240.315065 6.68831825,240.917808 C6.29739679,241.520551 6.10193899,242.474879 6.10193899,243.780822 L6.11541897,244.287671 C6.25021948,243.739723 6.56025599,243.303655 7.0455378,242.979452 C7.53081962,242.65525 8.10146653,242.493151 8.75749565,242.493151 C9.70109918,242.493151 10.4402442,242.780819 10.9749529,243.356164 C11.5096615,243.93151 11.7770118,244.735155 11.7770118,245.767123 C11.7770118,246.369866 11.6601865,246.915523 11.4265323,247.40411 C11.1928781,247.892697 10.8356621,248.28082 10.3548736,248.568493 C9.87408517,248.856166 9.27872521,249 8.56877588,249 C7.21178414,249 6.27942797,248.566214 5.7716794,247.69863 C5.26393084,246.831046 5.01006036,245.652975 5.01006036,244.164384 C5.01006036,242.44748 5.28190397,241.157539 5.82559934,240.294521 C6.3692947,239.431503 7.25671805,239 8.48789599,239 C9.39555272,239 10.0942582,239.260271 10.5840333,239.780822 C11.0738085,240.301372 11.3636253,240.981731 11.4534923,241.821918 L10.2807337,241.821918 Z M6.2502188,245.561644 C6.2502188,246.228314 6.44118332,246.787669 6.82311808,247.239726 C7.20505284,247.691783 7.77794639,247.917808 8.54181592,247.917808 C9.17088494,247.917808 9.67413261,247.728312 10.051574,247.349315 C10.4290154,246.970318 10.6177333,246.43836 10.6177333,245.753425 C10.6177333,245.013695 10.4290154,244.449774 10.051574,244.061644 C9.67413261,243.673514 9.15291181,243.479452 8.48789599,243.479452 C8.11045457,243.479452 7.75099195,243.557077 7.40949734,243.712329 C7.06800273,243.867581 6.7894192,244.102738 6.57373839,244.417808 C6.35805759,244.732878 6.2502188,245.114153 6.2502188,245.561644 Z M13.2867699,244.013699 C13.2867699,242.470312 13.5383938,241.267128 14.041649,240.40411 C14.5449042,239.541092 15.4166011,239.109589 16.6567657,239.109589 C17.8969303,239.109589 18.7708738,239.543375 19.2786224,240.410959 C19.786371,241.278543 20.0402414,242.479444 20.0402414,244.013699 C20.0402414,245.566218 19.786371,246.776251 19.2786224,247.643836 C18.7708738,248.51142 17.8969303,248.945205 16.6567657,248.945205 C15.4166011,248.945205 14.5449042,248.51142 14.041649,247.643836 C13.5383938,246.776251 13.2867699,245.566218 13.2867699,244.013699 Z M18.827043,244.013699 C18.827043,243.228307 18.7708769,242.570779 18.6585432,242.041096 C18.5462094,241.511413 18.3327785,241.089043 18.018244,240.773973 C17.7037095,240.458903 17.2498879,240.30137 16.6567657,240.30137 C16.0726302,240.30137 15.6233019,240.458903 15.3087674,240.773973 C14.9942329,241.089043 14.780802,241.511413 14.6684682,242.041096 C14.5561345,242.570779 14.4999684,243.228307 14.4999684,244.013699 C14.4999684,244.808223 14.5561345,245.4726 14.6684682,246.006849 C14.780802,246.541099 14.9942329,246.968035 15.3087674,247.287671 C15.6233019,247.607308 16.0726302,247.767123 16.6567657,247.767123 C17.2498879,247.767123 17.7037095,247.607308 18.018244,247.287671 C18.3327785,246.968035 18.5462094,246.541099 18.6585432,246.006849 C18.7708769,245.4726 18.827043,244.808223 18.827043,244.013699 Z" id="60" fill="#8B8B8B"></path>
                        <path d="M4.26342836,181.516734 C4.26342836,181.052653 4.39584633,180.628739 4.66068624,180.24498 C4.92552615,179.861221 5.31805085,179.557788 5.83827211,179.334672 C6.35849337,179.111556 6.9780203,179 7.69687149,179 C8.41572269,179 9.03288501,179.111556 9.54837699,179.334672 C10.063869,179.557788 10.4540291,179.861221 10.718869,180.24498 C10.9837089,180.628739 11.1161268,181.052653 11.1161268,181.516734 C11.1161268,182.043287 10.964792,182.498436 10.6621178,182.882195 C10.3594437,183.265955 9.90070997,183.538152 9.28590303,183.698795 C9.94800281,183.868363 10.4634871,184.162872 10.8323712,184.582329 C11.2012554,185.001787 11.3856947,185.519408 11.3856947,186.135207 C11.3856947,187.027671 11.0499206,187.728244 10.3783622,188.236948 C9.70680386,188.745652 8.81298256,189 7.69687149,189 C6.58076043,189 5.68693913,188.745652 5.01538078,188.236948 C4.34382243,187.728244 4.00804829,187.027671 4.00804829,186.135207 C4.00804829,185.519408 4.190123,185.001787 4.55427788,184.582329 C4.91843276,184.162872 5.4315524,183.868363 6.09365218,183.698795 C5.47884524,183.538152 5.02011155,183.265955 4.71743737,182.882195 C4.41476318,182.498436 4.26342836,182.043287 4.26342836,181.516734 Z M5.5403287,181.690763 C5.5403287,182.226241 5.73422644,182.638999 6.12202774,182.92905 C6.50982904,183.2191 7.03477171,183.364123 7.69687149,183.364123 C8.35897128,183.364123 8.88154934,183.2191 9.26462136,182.92905 C9.64769337,182.638999 9.83922651,182.226241 9.83922651,181.690763 C9.83922651,181.155285 9.64532877,180.742527 9.25752747,180.452477 C8.86972616,180.162426 8.34951271,180.017403 7.69687149,180.017403 C7.04423028,180.017403 6.52165222,180.162426 6.12912163,180.452477 C5.73659105,180.742527 5.5403287,181.155285 5.5403287,181.690763 Z M5.27076085,186.068273 C5.27076085,186.675148 5.48830466,187.145915 5.9233988,187.480589 C6.35849294,187.815263 6.9496446,187.982597 7.69687149,187.982597 C8.43463982,187.982597 9.02106226,187.813032 9.45615641,187.473896 C9.89125055,187.13476 10.1087944,186.666223 10.1087944,186.068273 C10.1087944,185.461398 9.88179212,185.001786 9.42778084,184.689424 C8.97376956,184.377062 8.39680555,184.220884 7.69687149,184.220884 C6.98747887,184.220884 6.40578564,184.377062 5.95177436,184.689424 C5.49776308,185.001786 5.27076085,185.461398 5.27076085,186.068273 Z M12.9321629,183.953146 C12.9321629,182.444883 13.1969988,181.269081 13.7266787,180.425703 C14.2563585,179.582325 15.1738258,179.160643 16.4791083,179.160643 C17.7843907,179.160643 18.7042227,179.584556 19.2386318,180.432396 C19.7730409,181.280236 20.0402414,182.453808 20.0402414,183.953146 C20.0402414,185.470333 19.7730409,186.652829 19.2386318,187.500669 C18.7042227,188.348509 17.7843907,188.772423 16.4791083,188.772423 C15.1738258,188.772423 14.2563585,188.348509 13.7266787,187.500669 C13.1969988,186.652829 12.9321629,185.470333 12.9321629,183.953146 Z M18.7633411,183.953146 C18.7633411,183.185628 18.7042259,182.543064 18.5859938,182.025435 C18.4677617,181.507806 18.2431241,181.095048 17.9120742,180.787149 C17.5810243,180.479249 17.1033738,180.325301 16.4791083,180.325301 C15.8643013,180.325301 15.39138,180.479249 15.0603301,180.787149 C14.7292802,181.095048 14.5046426,181.507806 14.3864105,182.025435 C14.2681784,182.543064 14.2090632,183.185628 14.2090632,183.953146 C14.2090632,184.729589 14.2681784,185.378846 14.3864105,185.900937 C14.5046426,186.423028 14.7292802,186.840248 15.0603301,187.15261 C15.39138,187.464973 15.8643013,187.621151 16.4791083,187.621151 C17.1033738,187.621151 17.5810243,187.464973 17.9120742,187.15261 C18.2431241,186.840248 18.4677617,186.423028 18.5859938,185.900937 C18.7042259,185.378846 18.7633411,184.729589 18.7633411,183.953146 Z" id="80" fill="#8B8B8B"></path>
                        <path d="M0,120.32312 L0,119.139276 L2.7995358,119.139276 L2.7995358,128.958217 L1.46906334,128.958217 L1.46906334,120.32312 L0,120.32312 Z M4.58735817,123.986072 C4.58735817,122.416891 4.84605857,121.193598 5.36346711,120.316156 C5.88087565,119.438714 6.77708772,119 8.05213021,119 C9.32717269,119 10.2256946,119.441036 10.7477229,120.32312 C11.2697511,121.205204 11.5307613,122.426176 11.5307613,123.986072 C11.5307613,125.564539 11.2697511,126.794796 10.7477229,127.67688 C10.2256946,128.558964 9.32717269,129 8.05213021,129 C6.77708772,129 5.88087565,128.558964 5.36346711,127.67688 C4.84605857,126.794796 4.58735817,125.564539 4.58735817,123.986072 Z M10.2834434,123.986072 C10.2834434,123.187554 10.2256978,122.519037 10.1102048,121.980501 C9.99471182,121.441966 9.77527845,121.012536 9.45189811,120.692201 C9.12851777,120.371865 8.66193314,120.211699 8.05213021,120.211699 C7.45156672,120.211699 6.98960173,120.371865 6.66622139,120.692201 C6.34284105,121.012536 6.12340769,121.441966 6.00791471,121.980501 C5.89242173,122.519037 5.83467611,123.187554 5.83467611,123.986072 C5.83467611,124.793876 5.89242173,125.469357 6.00791471,126.012535 C6.12340769,126.555713 6.34284105,126.989785 6.66622139,127.314763 C6.98960173,127.639742 7.45156672,127.802228 8.05213021,127.802228 C8.66193314,127.802228 9.12851777,127.639742 9.45189811,127.314763 C9.77527845,126.989785 9.99471182,126.555713 10.1102048,126.012535 C10.2256978,125.469357 10.2834434,124.793876 10.2834434,123.986072 Z M13.0968383,123.986072 C13.0968383,122.416891 13.3555387,121.193598 13.8729472,120.316156 C14.3903558,119.438714 15.2865678,119 16.5616103,119 C17.8366528,119 18.7351747,119.441036 19.257203,120.32312 C19.7792312,121.205204 20.0402414,122.426176 20.0402414,123.986072 C20.0402414,125.564539 19.7792312,126.794796 19.257203,127.67688 C18.7351747,128.558964 17.8366528,129 16.5616103,129 C15.2865678,129 14.3903558,128.558964 13.8729472,127.67688 C13.3555387,126.794796 13.0968383,125.564539 13.0968383,123.986072 Z M18.7929235,123.986072 C18.7929235,123.187554 18.7351779,122.519037 18.6196849,121.980501 C18.5041919,121.441966 18.2847586,121.012536 17.9613782,120.692201 C17.6379979,120.371865 17.1714133,120.211699 16.5616103,120.211699 C15.9610468,120.211699 15.4990819,120.371865 15.1757015,120.692201 C14.8523212,121.012536 14.6328878,121.441966 14.5173948,121.980501 C14.4019018,122.519037 14.3441562,123.187554 14.3441562,123.986072 C14.3441562,124.793876 14.4019018,125.469357 14.5173948,126.012535 C14.6328878,126.555713 14.8523212,126.989785 15.1757015,127.314763 C15.4990819,127.639742 15.9610468,127.802228 16.5616103,127.802228 C17.1714133,127.802228 17.6379979,127.639742 17.9613782,127.314763 C18.2847586,126.989785 18.5041919,126.555713 18.6196849,126.012535 C18.7351779,125.469357 18.7929235,124.793876 18.7929235,123.986072 Z" id="100" fill="#8B8B8B"></path>
                        <path d="M1.00201207,60.3472222 L1.00201207,59.1666667 L3.7509201,59.1666667 L3.7509201,68.9583333 L2.44450837,68.9583333 L2.44450837,60.3472222 L1.00201207,60.3472222 Z M5.30228404,67.9861111 C6.84458339,66.9305503 8.07840435,65.8819497 9.00378396,64.8402778 C9.92916357,63.7986059 10.3918464,62.8287082 10.3918464,61.9305556 C10.3918464,61.3749972 10.2534952,60.9282424 9.97678854,60.5902778 C9.70008189,60.2523131 9.2532754,60.0833333 8.63635566,60.0833333 C8.00129122,60.0833333 7.52046394,60.2893498 7.19385937,60.7013889 C6.8672548,61.113428 6.68581054,61.6805519 6.64952114,62.4027778 L5.42476014,62.4027778 C5.48826658,61.3101797 5.81940236,60.4699103 6.4181774,59.8819444 C7.01695244,59.2939785 7.78809054,59 8.73161485,59 C9.62977741,59 10.3419461,59.2453679 10.8681424,59.7361111 C11.3943386,60.2268543 11.6574328,60.9212918 11.6574328,61.8194444 C11.6574328,62.5601889 11.4238233,63.3124962 10.9565973,64.0763889 C10.4893714,64.8402816 9.90421362,65.5486078 9.20110657,66.2013889 C8.49799951,66.8541699 7.77449053,67.4074051 7.0305579,67.8611111 L11.902385,67.8611111 L11.902385,68.9027778 L5.30228404,68.9027778 L5.30228404,67.9861111 Z M13.2224052,64 C13.2224052,62.4351774 13.4764272,61.2152822 13.9844787,60.3402778 C14.4925303,59.4652734 15.3725349,59.0277778 16.6245191,59.0277778 C17.8765033,59.0277778 18.758776,59.4675882 19.2713637,60.3472222 C19.7839514,61.2268562 20.0402414,62.4444367 20.0402414,64 C20.0402414,65.5740819 19.7839514,66.8009215 19.2713637,67.6805556 C18.758776,68.5601896 17.8765033,69 16.6245191,69 C15.3725349,69 14.4925303,68.5601896 13.9844787,67.6805556 C13.4764272,66.8009215 13.2224052,65.5740819 13.2224052,64 Z M18.8154804,64 C18.8154804,63.2036997 18.7587791,62.5370397 18.6453748,62 C18.5319704,61.4629603 18.3165053,61.0347238 17.9989731,60.7152778 C17.6814409,60.3958317 17.2232941,60.2361111 16.6245191,60.2361111 C16.0348164,60.2361111 15.5812058,60.3958317 15.2636735,60.7152778 C14.9461413,61.0347238 14.7306763,61.4629603 14.6172719,62 C14.5038675,62.5370397 14.4471662,63.2036997 14.4471662,64 C14.4471662,64.8055596 14.5038675,65.479164 14.6172719,66.0208333 C14.7306763,66.5625027 14.9461413,66.9953688 15.2636735,67.3194444 C15.5812058,67.6435201 16.0348164,67.8055556 16.6245191,67.8055556 C17.2232941,67.8055556 17.6814409,67.6435201 17.9989731,67.3194444 C18.3165053,66.9953688 18.5319704,66.5625027 18.6453748,66.0208333 C18.7587791,65.479164 18.8154804,64.8055596 18.8154804,64 Z" id="120" fill="#8B8B8B"></path>
                        <path d="M0,1.32311978 L0,0.139275766 L2.78796747,0.139275766 L2.78796747,9.95821727 L1.46299283,9.95821727 L1.46299283,1.32311978 L0,1.32311978 Z M4.20955485,7.70194986 L4.20955485,6.64345404 L9.20581339,0.069637883 L10.5583917,0.069637883 L10.5583917,6.60167131 L11.9937809,6.60167131 L11.9937809,7.70194986 L10.5583917,7.70194986 L10.5583917,9.95821727 L9.28862431,9.95821727 L9.28862431,7.70194986 L4.20955485,7.70194986 Z M9.37143522,1.61559889 L5.53452949,6.60167131 L9.37143522,6.60167131 L9.37143522,1.61559889 Z M13.12553,4.98607242 C13.12553,3.41689095 13.3831614,2.1935977 13.8984319,1.31615599 C14.4137024,0.438714276 15.3062111,-4.12339099e-15 16.5759848,0 C17.8457585,-4.12339099e-15 18.7405675,0.441035515 19.2604387,1.32311978 C19.7803098,2.20520404 20.0402414,3.42617604 20.0402414,4.98607242 C20.0402414,6.564539 19.7803098,7.79479596 19.2604387,8.67688022 C18.7405675,9.55896448 17.8457585,10 16.5759848,10 C15.3062111,10 14.4137024,9.55896448 13.8984319,8.67688022 C13.3831614,7.79479596 13.12553,6.564539 13.12553,4.98607242 Z M18.7980777,4.98607242 C18.7980777,4.18755404 18.7405707,3.51903705 18.625555,2.98050139 C18.5105392,2.44196574 18.2920126,2.01253642 17.9699686,1.69220056 C17.6479245,1.37186469 17.1832679,1.21169916 16.5759848,1.21169916 C15.977903,1.21169916 15.517847,1.37186469 15.1958029,1.69220056 C14.8737589,2.01253642 14.6552322,2.44196574 14.5402165,2.98050139 C14.4252008,3.51903705 14.3676938,4.18755404 14.3676938,4.98607242 C14.3676938,5.79387591 14.4252008,6.46935662 14.5402165,7.01253482 C14.6552322,7.55571302 14.8737589,7.98978482 15.1958029,8.31476323 C15.517847,8.63974164 15.977903,8.80222841 16.5759848,8.80222841 C17.1832679,8.80222841 17.6479245,8.63974164 17.9699686,8.31476323 C18.2920126,7.98978482 18.5105392,7.55571302 18.625555,7.01253482 C18.7405707,6.46935662 18.7980777,5.79387591 18.7980777,4.98607242 Z" id="140" fill="#8B8B8B"></path>
                        <path d="M107.728618,259.126565 L102.525547,259.126565 L102.525547,262.408901 C102.7651,262.093647 103.110052,261.843302 103.560412,261.657858 C104.010772,261.472414 104.504244,261.379694 105.040843,261.379694 C105.759503,261.379694 106.355982,261.525729 106.830297,261.817803 C107.304613,262.109876 107.654355,262.494666 107.879535,262.972184 C108.104715,263.449701 108.217304,263.980526 108.217304,264.564673 C108.217304,265.575341 107.925053,266.400553 107.340543,267.040334 C106.756033,267.680114 105.898445,268 104.767754,268 C103.752048,268 102.923206,267.733429 102.281204,267.200278 C101.639201,266.667128 101.279876,265.950862 101.203219,265.05146 L102.4968,265.05146 C102.602204,265.626336 102.84894,266.073712 103.237016,266.393602 C103.625093,266.713493 104.116169,266.873435 104.710262,266.873435 C105.448086,266.873435 106.003841,266.660178 106.377544,266.233658 C106.751247,265.807137 106.938096,265.246179 106.938096,264.550765 C106.938096,263.873896 106.746456,263.345389 106.363171,262.965229 C105.979886,262.58507 105.438503,262.394993 104.739008,262.394993 C104.240737,262.394993 103.804757,262.499304 103.431054,262.707928 C103.05735,262.916552 102.774682,263.197031 102.583039,263.549374 L101.318204,263.549374 L101.318204,258 L107.728618,258 L107.728618,259.126565 Z" id="5" fill="#8B8B8B"></path>
                        <path d="M172.346076,259.32312 L172.346076,258.139276 L175.022123,258.139276 L175.022123,267.958217 L173.750339,267.958217 L173.750339,259.32312 L172.346076,259.32312 Z M176.731084,262.986072 C176.731084,261.416891 176.978373,260.193598 177.472958,259.316156 C177.967543,258.438714 178.824223,258 180.043023,258 C181.261822,258 182.12071,258.441036 182.619711,259.32312 C183.118712,260.205204 183.368209,261.426176 183.368209,262.986072 C183.368209,264.564539 183.118712,265.794796 182.619711,266.67688 C182.12071,267.558964 181.261822,268 180.043023,268 C178.824223,268 177.967543,267.558964 177.472958,266.67688 C176.978373,265.794796 176.731084,264.564539 176.731084,262.986072 Z M182.175911,262.986072 C182.175911,262.187554 182.120713,261.519037 182.010314,260.980501 C181.899916,260.441966 181.690162,260.012536 181.381046,259.692201 C181.07193,259.371865 180.625927,259.211699 180.043023,259.211699 C179.46895,259.211699 179.027363,259.371865 178.718247,259.692201 C178.409131,260.012536 178.199377,260.441966 178.088979,260.980501 C177.97858,261.519037 177.923382,262.187554 177.923382,262.986072 C177.923382,263.793876 177.97858,264.469357 178.088979,265.012535 C178.199377,265.555713 178.409131,265.989785 178.718247,266.314763 C179.027363,266.639742 179.46895,266.802228 180.043023,266.802228 C180.625927,266.802228 181.07193,266.639742 181.381046,266.314763 C181.690162,265.989785 181.899916,265.555713 182.010314,265.012535 C182.120713,264.469357 182.175911,263.793876 182.175911,262.986072 Z" id="10" fill="#8B8B8B"></path>
                        <path d="M246.49497,259.307371 L246.49497,258.125174 L249.38649,258.125174 L249.38649,267.930459 L248.012302,267.930459 L248.012302,259.307371 L246.49497,259.307371 Z M258.032423,259.126565 L252.850589,259.126565 L252.850589,262.408901 C253.089165,262.093647 253.432708,261.843302 253.88123,261.657858 C254.329752,261.472414 254.82121,261.379694 255.355619,261.379694 C256.071346,261.379694 256.66539,261.525729 257.137769,261.817803 C257.610149,262.109876 257.958464,262.494666 258.182725,262.972184 C258.406986,263.449701 258.519115,263.980526 258.519115,264.564673 C258.519115,265.575341 258.228057,266.400553 257.645933,267.040334 C257.063809,267.680114 256.209721,268 255.083645,268 C254.072085,268 253.246626,267.733429 252.607243,267.200278 C251.967861,266.667128 251.610003,265.950862 251.533659,265.05146 L252.82196,265.05146 C252.926934,265.626336 253.172663,266.073712 253.559155,266.393602 C253.945647,266.713493 254.43472,266.873435 255.026387,266.873435 C255.761199,266.873435 256.314686,266.660178 256.686864,266.233658 C257.059042,265.807137 257.245128,265.246179 257.245128,264.550765 C257.245128,263.873896 257.05427,263.345389 256.67255,262.965229 C256.290829,262.58507 255.751656,262.394993 255.055016,262.394993 C254.558779,262.394993 254.124578,262.499304 253.7524,262.707928 C253.380222,262.916552 253.098707,263.197031 252.907847,263.549374 L251.648175,263.549374 L251.648175,258 L258.032423,258 L258.032423,259.126565 Z" id="15" fill="#8B8B8B"></path>
                        <path d="M321.645875,266.986111 C323.218755,265.93055 324.47704,264.88195 325.420768,263.840278 C326.364496,262.798606 326.836353,261.828708 326.836353,260.930556 C326.836353,260.374997 326.695259,259.928242 326.413066,259.590278 C326.130872,259.252313 325.675207,259.083333 325.046055,259.083333 C324.398398,259.083333 323.908037,259.28935 323.574957,259.701389 C323.241876,260.113428 323.056834,260.680552 323.019825,261.402778 L321.77078,261.402778 C321.835545,260.31018 322.173247,259.46991 322.783895,258.881944 C323.394542,258.293979 324.18097,258 325.143203,258 C326.059174,258 326.785464,258.245368 327.322093,258.736111 C327.858723,259.226854 328.127034,259.921292 328.127034,260.819444 C328.127034,261.560189 327.888792,262.312496 327.412302,263.076389 C326.935812,263.840282 326.339052,264.548608 325.622003,265.201389 C324.904955,265.85417 324.167101,266.407405 323.408417,266.861111 L328.376843,266.861111 L328.376843,267.902778 L321.645875,267.902778 L321.645875,266.986111 Z M329.723036,263 C329.723036,261.435177 329.982095,260.215282 330.50022,259.340278 C331.018345,258.465273 331.915799,258.027778 333.192607,258.027778 C334.469416,258.027778 335.369182,258.467588 335.891933,259.347222 C336.414685,260.226856 336.676056,261.444437 336.676056,263 C336.676056,264.574082 336.414685,265.800922 335.891933,266.680556 C335.369182,267.56019 334.469416,268 333.192607,268 C331.915799,268 331.018345,267.56019 330.50022,266.680556 C329.982095,265.800922 329.723036,264.574082 329.723036,263 Z M335.427011,263 C335.427011,262.2037 335.369185,261.53704 335.253532,261 C335.137879,260.46296 334.918142,260.034724 334.594314,259.715278 C334.270486,259.395832 333.803255,259.236111 333.192607,259.236111 C332.591212,259.236111 332.128607,259.395832 331.804779,259.715278 C331.480951,260.034724 331.261213,260.46296 331.14556,261 C331.029907,261.53704 330.972082,262.2037 330.972082,263 C330.972082,263.80556 331.029907,264.479164 331.14556,265.020833 C331.261213,265.562503 331.480951,265.995369 331.804779,266.319444 C332.128607,266.64352 332.591212,266.805556 333.192607,266.805556 C333.803255,266.805556 334.270486,266.64352 334.594314,266.319444 C334.918142,265.995369 335.137879,265.562503 335.253532,265.020833 C335.369185,264.479164 335.427011,263.80556 335.427011,263 Z" id="20" fill="#8B8B8B"></path>
                        <path d="M400.804829,266.961219 C402.366175,265.908582 403.615234,264.862886 404.552042,263.8241 C405.48885,262.785313 405.957247,261.818102 405.957247,260.922438 C405.957247,260.368418 405.817187,259.922901 405.537063,259.585873 C405.256939,259.248844 404.804614,259.080332 404.180076,259.080332 C403.537168,259.080332 403.050403,259.285778 402.719765,259.696676 C402.389127,260.107574 402.205442,260.673127 402.168704,261.393352 L400.928818,261.393352 C400.993108,260.30378 401.328334,259.465839 401.934503,258.879501 C402.540673,258.293164 403.321335,258 404.276511,258 C405.185766,258 405.90673,258.244688 406.439425,258.734072 C406.97212,259.223456 407.238463,259.91597 407.238463,260.811634 C407.238463,261.550327 407.001968,262.30055 406.528972,263.062327 C406.055976,263.824104 405.463592,264.530468 404.751801,265.18144 C404.040011,265.832413 403.307567,266.384116 402.554447,266.836565 L407.48644,266.836565 L407.48644,267.875346 L400.804829,267.875346 L400.804829,266.961219 Z M415.366608,259.163435 L410.379509,259.163435 L410.379509,262.432133 C410.609119,262.118189 410.939752,261.868884 411.371418,261.684211 C411.803085,261.499537 412.276074,261.407202 412.7904,261.407202 C413.479229,261.407202 414.050949,261.55263 414.505576,261.84349 C414.960203,262.13435 415.295429,262.517541 415.511262,262.993075 C415.727095,263.468608 415.83501,263.997227 415.83501,264.578947 C415.83501,265.585416 415.55489,266.407199 414.994642,267.044321 C414.434395,267.681444 413.612404,268 412.528646,268 C411.5551,268 410.760662,267.734536 410.145308,267.203601 C409.529954,266.672666 409.185544,265.959377 409.112069,265.063712 L410.351956,265.063712 C410.452984,265.636199 410.689479,266.081716 411.061447,266.400277 C411.433414,266.718838 411.904107,266.878116 412.47354,266.878116 C413.180738,266.878116 413.713425,266.665745 414.071616,266.240997 C414.429807,265.816249 414.6089,265.257621 414.6089,264.565097 C414.6089,263.89104 414.425215,263.36473 414.057839,262.98615 C413.690464,262.60757 413.171553,262.418283 412.501093,262.418283 C412.023504,262.418283 411.605621,262.52216 411.24743,262.729917 C410.889238,262.937674 410.618303,263.216988 410.434615,263.567867 L409.222281,263.567867 L409.222281,258.041551 L415.366608,258.041551 L415.366608,259.163435 Z" id="25" fill="#8B8B8B"></path>
                        <path d="M483.407061,258 C484.026489,258 484.559372,258.109438 485.005725,258.328317 C485.452078,258.547197 485.789115,258.848151 486.016847,259.23119 C486.244578,259.614229 486.358442,260.047421 486.358442,260.53078 C486.358442,261.132698 486.183091,261.638849 485.832385,262.049248 C485.481679,262.459646 484.969292,262.705882 484.295208,262.787962 L484.295208,262.870041 C484.99662,263.05244 485.545443,263.335155 485.941696,263.718194 C486.337948,264.101233 486.536071,264.630184 486.536071,265.305062 C486.536071,266.098499 486.271907,266.746008 485.743571,267.247606 C485.215234,267.749205 484.454624,268 483.461716,268 C482.468808,268 481.664929,267.742365 481.050055,267.227086 C480.435181,266.711808 480.073094,265.957141 479.963783,264.963064 L481.193525,264.963064 C481.275508,265.564982 481.505513,266.043774 481.883547,266.399453 C482.26158,266.755132 482.773968,266.932969 483.420724,266.932969 C484.031044,266.932969 484.500163,266.775651 484.828096,266.461012 C485.156029,266.146373 485.319993,265.738261 485.319993,265.236662 C485.319993,264.634744 485.085433,264.176472 484.616307,263.861833 C484.147181,263.547194 483.479938,263.389877 482.61456,263.389877 L482.286629,263.389877 L482.286629,262.350205 L482.61456,262.350205 C484.290661,262.350205 485.128699,261.789335 485.128699,260.667579 C485.128699,260.1751 484.973845,259.782947 484.66413,259.491108 C484.354416,259.199269 483.926288,259.053352 483.379733,259.053352 C482.833178,259.053352 482.373168,259.210669 481.999689,259.525308 C481.62621,259.839947 481.407591,260.302779 481.343827,260.913817 L480.127748,260.913817 C480.191513,260.001819 480.508055,259.288192 481.077382,258.772914 C481.64671,258.257635 482.423262,258 483.407061,258 Z M488.148399,263.02052 C488.148399,261.479244 488.403455,260.277706 488.913572,259.415869 C489.42369,258.554031 490.307274,258.123119 491.56435,258.123119 C492.821426,258.123119 493.707287,258.556311 494.221959,259.422709 C494.736631,260.289106 494.993964,261.488364 494.993964,263.02052 C494.993964,264.570915 494.736631,265.779293 494.221959,266.645691 C493.707287,267.512088 492.821426,267.94528 491.56435,267.94528 C490.307274,267.94528 489.42369,267.512088 488.913572,266.645691 C488.403455,265.779293 488.148399,264.570915 488.148399,263.02052 Z M493.764222,263.02052 C493.764222,262.236202 493.70729,261.579574 493.593424,261.050616 C493.479559,260.521657 493.263217,260.099865 492.944394,259.785226 C492.62557,259.470587 492.16556,259.313269 491.56435,259.313269 C490.972249,259.313269 490.516793,259.470587 490.19797,259.785226 C489.879146,260.099865 489.662805,260.521657 489.548939,261.050616 C489.435074,261.579574 489.378142,262.236202 489.378142,263.02052 C489.378142,263.813957 489.435074,264.477426 489.548939,265.010944 C489.662805,265.544462 489.879146,265.970815 490.19797,266.290014 C490.516793,266.609213 490.972249,266.76881 491.56435,266.76881 C492.16556,266.76881 492.62557,266.609213 492.944394,266.290014 C493.263217,265.970815 493.479559,265.544462 493.593424,265.010944 C493.70729,264.477426 493.764222,263.813957 493.764222,263.02052 Z" id="30" fill="#8B8B8B"></path>
                        <rect id="Rectangle" fill="#DEDEDE" x="33.0663984" y="243" width="464.933602" height="1"></rect>
                        <rect id="Rectangle-Copy-4" fill="#DEDEDE" x="29.0583501" y="183" width="5.01006036" height="1"></rect>
                        <rect id="Rectangle-Copy-5" fill="#DEDEDE" x="29.0583501" y="123" width="5.01006036" height="1"></rect>
                        <rect id="Rectangle-Copy-6" fill="#DEDEDE" x="29.0583501" y="63" width="5.01006036" height="1"></rect>
                        <rect id="Rectangle-Copy-6" fill="#DEDEDE" x="29.0583501" y="5" width="5.01006036" height="1"></rect>
                        <rect id="Rectangle" fill="#DEDEDE" x="33.0663984" y="6" width="1.00201207" height="237"></rect>
                        <rect id="Rectangle-Copy" fill="#DEDEDE" x="103.207243" y="244" width="1.00201207" height="5"></rect>
                        <rect id="Rectangle-Copy-2" fill="#DEDEDE" x="177.356137" y="244" width="1.00201207" height="5"></rect>
                        <rect id="Rectangle-Copy-2" fill="#DEDEDE" x="252.507042" y="244" width="1.00201207" height="5"></rect>
                        <rect id="Rectangle-Copy-2" fill="#DEDEDE" x="328.65996" y="244" width="1.00201207" height="5"></rect>
                        <rect id="Rectangle-Copy-2" fill="#DEDEDE" x="408.820926" y="244" width="1.00201207" height="5"></rect>
                        <rect id="Rectangle-Copy-2" fill="#DEDEDE" x="487.979879" y="244" width="1.00201207" height="5"></rect>
                        <polyline id="Path-3" stroke="#0052FF" points="35.0704225 174.478807 36.3586603 174.478807 36.3586603 178.927099 36.3586603 185.98048 38.6109017 185.98048 38.6109017 190.002369 40.0598261 190.002369 40.0598261 193.147836 41.4057705 193.147836 41.4057705 203.01558 42.6887736 203.01558 42.6887736 210.296875 44.6169242 210.296875 44.6169242 206.089926 46.6095513 206.089926 46.6095513 197.613039 46.6095513 193.147836 47.8296132 193.147836 47.8296132 196.897036 49.4065978 196.897036 49.4065978 201.493481 50.6047838 201.493481 50.6047838 187.640059 51.6862983 187.640059 51.6862983 182.212637 52.8725868 182.212637 52.8725868 191.15148 54.0062964 191.15148 54.0062964 193.860425 55.3230729 193.860425 55.3230729 190.002369 56.2833103 190.002369 56.2833103 187.105719 57.5386807 187.105719 57.5386807 182.212637 58.89729 182.212637 58.89729 175.986561 60.5537188 175.986561 60.5537188 171.469555 64.1283198 171.469555 64.1283198 175.986561 65.4439449 175.986561 65.4439449 185.405924 66.5903195 185.405924 66.5903195 190.002369 67.6614716 190.002369 67.6614716 178.927099 69.4422477 178.927099 69.4422477 174.478807 70.7233319 174.478807 70.7233319 172.925325 70.7233319 171.469555 73.6773477 171.469555 73.6773477 172.925325 75.1683639 172.925325 75.1683639 174.478807 76.1930777 174.478807 76.1930777 184.084049 77.6998292 184.084049 77.6998292 201.493481 78.5959741 201.493481 78.5959741 211.699618 80.0674171 211.699618 80.0674171 199.26786 80.0674171 162.482452 80.0674171 140.574329 80.0674171 107.858988 81.3431282 107.858988 81.3431282 133.704347 83.1872293 133.704347 83.1872293 154.692107 83.1872293 193.147836 84.4042209 193.147836 84.4042209 199.26786 86.0418441 199.26786 86.0418441 201.493481 89.7062514 201.493481 89.7062514 205.405424 91.4405891 205.405424 91.4405891 216.243544 92.5190333 216.243544 92.5190333 221.861452 93.3468639 221.861452 93.3468639 206.089926 95.0439742 206.089926 95.0439742 199.26786 96.3622858 199.26786 96.3622858 195.747925 97.5566339 195.747925 97.5566339 193.147836 98.3741022 193.147836 98.3741022 195.747925 99.9660546 195.747925 99.9660546 199.26786 101.283599 199.26786 101.283599 206.6083 102.673679 206.6083 102.673679 213.438465 103.677668 213.438465 103.677668 219.001716 104.379232 219.001716 104.379232 221.028372 105.882913 221.028372 105.882913 213.438465 107.043104 213.438465 107.043104 210.813675 108.405168 210.813675 108.405168 219.001716 110.028591 219.001716 110.028591 216.243544 111.690776 216.243544 111.690776 208.388148 112.976082 208.388148 112.976082 203.01558 114.298999 203.01558 114.298999 200.782774 119.24641 200.782774 119.24641 197.613039 120.451888 197.613039 120.451888 193.860425 121.605554 193.860425 121.605554 198.373759 123.905596 198.373759 123.905596 201.493481 126.237107 201.493481 126.237107 169.039738 127.967607 169.039738 127.967607 164.576217 129.062938 164.576217 129.062938 131.556476 130.16748 131.556476 130.16748 177.553277 132.287908 177.553277 132.287908 211.699618 135.507121 211.699618 135.507121 209.53726 137.351223 209.53726 137.351223 203.01558 139.818595 203.01558 139.818595 209.53726 141.157248 209.53726 141.157248 211.699618 142.758795 211.699618 142.758795 213.438465 143.969646 213.438465 143.969646 219.001716 143.969646 221.861452 145.63231 221.861452 145.63231 219.001716 146.862793 219.001716 146.862793 213.438465 148.441835 213.438465 148.441835 210.813675 149.775086 210.813675 149.775086 206.089926 150.829305 206.089926 150.829305 197.613039 152.193966 197.613039 152.193966 193.860425 154.68939 193.860425 154.68939 198.842607 156.748732 198.842607 156.748732 206.089926 158.797706 206.089926 158.797706 194.598814 160.588995 194.598814 160.588995 185.98048 162.301606 185.98048 162.301606 182.212637 164.491468 182.212637 164.491468 185.98048 165.950664 185.98048 165.950664 191.15148 167.733414 191.15148 167.733414 196.897036 167.733414 201.493481 171.490425 201.493481 171.490425 197.613039 173.62448 197.613039 173.62448 167.53563 175.63564 167.53563 175.63564 124.50303 176.722795 124.50303 176.722795 101 176.722795 125.070672 178.331722 125.070672 178.331722 171.469555 179.636613 171.469555 179.636613 193.860425 181.290368 193.860425 181.290368 189.008272 183.488768 189.008272 183.488768 184.77124 185.001026 184.77124 185.001026 175.986561 185.001026 171.469555 186.111967 171.469555 186.111967 179.496746 187.741326 179.496746 187.741326 185.98048 188.794936 185.98048 190.029688 185.98048 190.029688 182.212637 191.638005 182.212637 191.638005 171.469555 193.772366 171.469555 193.772366 164.44658 195.513642 164.44658 195.513642 174.055338 199.615554 174.055338 199.615554 172.925325 201.306209 172.925325 201.306209 171.469555 205.022661 171.469555 205.022661 174.478807 206.580052 174.478807 206.580052 176.461822 208.153605 176.461822 208.153605 171.469555 210.375182 171.469555 210.375182 185.98048 211.676108 185.98048 211.676108 190.002369 213.322849 190.002369 213.322849 178.927099 214.959833 178.927099 214.959833 174.478807 217.421712 174.478807 217.421712 169.039738 218.229225 169.039738 218.229225 164.44658 219.727455 164.44658 219.727455 178.495584 221.137249 178.495584 221.137249 183.001623 222.502825 183.001623 222.502825 139.903363 223.980318 139.903363 223.980318 126.036182 225.52795 126.036182 225.52795 161.363364 227.071008 161.363364 227.071008 171.469555 228.176155 171.469555 228.176155 174.478807 229.437132 174.478807 229.437132 178.0548 230.873457 178.0548 230.873457 180.614586 232.439996 180.614586 232.439996 181.68381 233.731164 181.68381 233.731164 185.98048 235.509645 185.98048 235.509645 191.15148 236.928892 191.15148 236.928892 184.77124 238.510984 184.77124 238.510984 181.68381 240.124181 181.68381 240.124181 193.860425 241.974326 193.860425 241.974326 178.927099 243.310931 178.927099 243.310931 182.212637 244.605148 182.212637 244.605148 187.640059 246.445535 187.640059 246.445535 192.611353 246.445535 198.373759 248.89979 198.373759 248.89979 193.860425 250.58526 193.860425 250.58526 190.494296 251.921866 190.494296 251.921866 185.98048 253.900396 185.98048 253.900396 193.147836 255.617886 193.147836 255.617886 195.747925 257.211871 195.747925 257.211871 198.842607 257.211871 200.782774 261.952353 200.782774 261.952353 203.01558 263.506084 203.01558 263.506084 208.388148 265.077808 208.388148 265.077808 210.296875 267.177708 210.296875 267.177708 185.98048 269.853969 185.98048 269.853969 172.000714 270.947103 172.000714 270.947103 136.408635 272.001821 136.408635 272.001821 168.486203 273.553446 168.486203 273.553446 171.469555 275.173116 171.469555 275.173116 203.01558 276.574787 203.01558 276.574787 210.813675 282.535561 210.813675 282.535561 206.089926 284.979349 206.089926 284.979349 197.613039 286.163439 197.613039 286.163439 193.860425 287.655838 193.860425 287.655838 196.897036 289.410341 196.897036 289.410341 199.26786 290.998088 199.26786 290.998088 203.01558 293.156669 203.01558 293.156669 213.438465 294.802382 213.438465 294.802382 219.001716 294.802382 221.861452 296.228415 221.861452 296.228415 213.438465 298.21352 213.438465 298.21352 216.243544 299.446754 216.243544 299.446754 221.028372 302.240854 221.028372 302.240854 210.296875 303.493831 210.296875 303.493831 234.817706 305.172727 234.817706 305.172727 237.495482 306.828521 237.495482 306.828521 226.281838 307.919783 226.281838 307.919783 221.861452 309.266008 221.861452 309.266008 219.498027 310.428676 219.001716 310.428676 213.438465 313.417674 213.438465 313.417674 219.498027 313.417674 221.861452 316.071901 221.861452 316.071901 194.598814 317.443329 194.598814 317.443329 142.791769 318.501827 142.791769 318.501827 115.437173 319.185651 115.437173 319.185651 142.791769 319.185651 148.634366 320.519275 148.634366 320.519275 210.813675 321.852059 210.813675 321.852059 242.422182 322.895856 242.422182 322.895856 226.281838 323.868246 226.281838 323.868246 221.028372 326.560277 221.028372 326.560277 232.519484 327.860718 232.519484 327.860718 242.422182 328.604187 242.422182 328.604187 237.495482 330.162952 237.495482 330.162952 226.281838 330.162952 220.452921 331.00261 220.452921 331.00261 226.281838 332.18208 226.281838 332.18208 237.495482 333.515284 237.495482 333.515284 242.422182 334.309998 242.422182 334.309998 237.495482 334.309998 226.281838 335.882624 226.281838 335.882624 220.452921 336.69834 220.452921 336.69834 242.422182 337.753898 242.422182 337.753898 232.519484 339.874255 232.519484 339.874255 220.452921 340.707193 220.452921 340.707193 237.495482 343.25893 237.495482 343.25893 242.422182 345.677095 242.422182 345.677095 232.519484 347.179575 232.519484 347.179575 221.028372 349.898908 221.028372 349.898908 216.243544 352.078911 216.243544 352.078911 206.6083 352.078911 187.640059 353.836354 187.640059 353.836354 161.363364 354.749099 161.363364 354.749099 147.471218 355.415701 147.471218 355.415701 161.363364 357.190366 161.363364 357.190366 187.105719 358.475266 187.105719 358.475266 211.699618 359.297282 211.699618 359.297282 220.452921 361.820037 220.452921 361.820037 231.944928 362.908358 231.944928 362.908358 242.422182 362.908358 231.370372 364.216299 231.370372 364.216299 217.581038 365.535959 217.581038 365.535959 169.039738 367.703843 169.039738 367.703843 142.791769 368.348844 142.791769 368.348844 169.039738 370.72614 169.039738 370.389326 217.581038 371.637806 217.581038 371.637806 226.281838 373.146505 226.281838 373.146505 237.495482 374.447596 237.495482 374.447596 242.422182 375.441274 242.422182 375.441274 226.281838 376.72457 226.281838 376.72457 210.296875 377.960671 210.296875 377.960671 221.861452 384.802167 221.861452 384.802167 219.001716 386.591458 219.001716 386.591458 213.438465 388.733552 213.438465 388.733552 210.296875 391.900013 210.296875 391.900013 219.001716 393.564481 219.001716 393.564481 231.944928 393.564481 242.422182 394.887752 242.422182 394.887752 226.281838 397.189742 226.281838 397.189742 220.452921 399.740861 220.452921 399.740861 219.001716 401.16729 219.001716 401.16729 213.438465 402.238595 213.438465 402.238595 210.296875 405.622979 210.296875 405.622979 200.782774 407.402986 200.782774 407.402986 209.006246 408.852626 209.006246 408.852626 211.699618 410.83895 211.699618 410.83895 203.01558 412.199615 203.01558 412.199615 189.008272 413.604639 189.008272 413.604639 165.882037 414.562727 165.882037 414.562727 153.895856 415.350345 153.895856 415.350345 198.842607 416.975613 198.842607 416.975613 242.422182 417.530607 242.422182 417.530607 226.281838 419.389788 226.281838 419.389788 221.028372 434.507978 221.028372 434.507978 226.281838 436.327958 226.281838 436.327958 237.495482 437.700487 237.495482 437.700487 242.422182 439.176175 242.422182 439.176175 226.281838 440.651089 226.281838 440.651089 221.028372 449.888965 221.028372 449.888965 226.281838 451.473485 226.281838 451.473485 237.495482 452.909457 237.495482 452.909457 243"></polyline>
                        <polyline id="Path-4" stroke="#E63A0F" points="453.911469 243 453.911469 238.285526 455.597209 238.285526 455.597209 227.591289 457.630279 227.591289 457.630279 198.164844 458.763771 198.164844 457.630279 41.7654385 459.727144 41.7654385 459.727144 19 460.522328 19 460.522328 41.7654385 460.522328 44.2869255 461.962554 44.2869255 461.962554 199.264275 463.378936 199.264275 463.378936 232.247221 464.618754 232.247221 464.618754 242.142105 466.675667 242.142105 466.675667 227.591289 467.725388 227.591289 467.725388 147.375928 470.212113 147.375928 470.212113 227.591289 471.843079 227.591289 471.843079 238.285526 472.627954 238.285526 473.729871 238.285526 474.720952 238.285526 474.720952 176.775901 475.871199 176.775901 475.871199 171.53695 477.993196 171.53695 477.993196 227.591289 479.486906 227.591289 479.486906 238.285526 480.965795 238.285526 480.965795 243"></polyline>
                    </g>
                </g>
            </g>
        </g>
    </g>
</svg>