<?xml version="1.0" encoding="UTF-8"?>
<svg width="484px" height="300px" viewBox="0 0 484 300" version="1.1" xmlns="http://www.w3.org/2000/svg" xmlns:xlink="http://www.w3.org/1999/xlink">
    <!-- Generator: Sketch 52.2 (67145) - http://www.bohemiancoding.com/sketch -->
    <title>Data Processing</title>
    <desc>Created with Sketch.</desc>
    <g id="Desktop-Design" stroke="none" stroke-width="1" fill="none" fill-rule="evenodd">
        <g id="ARSData_Solutions_v2@2x" transform="translate(-745.000000, -4347.000000)">
            <g id="Data-Processing" transform="translate(746.000000, 4348.000000)">
                <polygon id="Path" stroke="#0052FF" fill="#111111" points="34 0 200.666667 0 234 33 234 132 67.3333333 132 34 99"></polygon>
                <path d="M152.776,85.392 L147.816,85.392 L146.872,88 L145.304,88 L149.48,76.928 L151.128,76.928 L155.288,88 L153.72,88 L152.776,85.392 Z M152.36,84.256 L150.296,78.56 L148.232,84.256 L152.36,84.256 Z" id="A" fill="#909090"></path>
                <polygon id="Path" stroke="#0052FF" points="34 0 200.666667 0 234 33 67.3333333 33"></polygon>
                <polygon id="Path" points="34 0 67 33 67 132 34 99"></polygon>
                <path d="M67.3333333,132 L67.3333333,33 L34,0 M67.3333333,33 L234,33" id="Shape" stroke="#0052FF"></path>
                <g id="Group" transform="translate(140.000000, 71.000000)">
                    <g></g>
                </g>
                <polygon id="Path" stroke="#0052FF" fill="#111111" points="282 0 448.666667 0 482 33 482 132 315.333333 132 282 99"></polygon>
                <polygon id="Path" points="282 0 448.666667 0 482 33 315.333333 33"></polygon>
                <polygon id="Path" points="282 0 315 33 315 132 282 99"></polygon>
                <path d="M315.333333,132 L315.333333,33 L282,0 M315.333333,33 L482,33" id="Shape" stroke="#0052FF"></path>
                <g id="Group" transform="translate(389.000000, 71.000000)">
                    <g></g>
                </g>
                <polygon id="Path" stroke="#0052FF" fill="#111111" points="34 166 200.666667 166 234 199 234 298 67.3333333 298 34 265"></polygon>
                <polygon id="Path" points="34 166 200.666667 166 234 199 67.3333333 199"></polygon>
                <polygon id="Path" points="34 166 67 199 67 298 34 265"></polygon>
                <path d="M67.3333333,298 L67.3333333,199 L34,166 M67.3333333,199 L234,199" id="Shape" stroke="#0052FF"></path>
                <g id="Group" transform="translate(140.000000, 237.000000)">
                    <g></g>
                </g>
                <polygon id="Path" stroke="#0052FF" fill="#111111" points="282 166 448.666667 166 482 199 482 298 315.333333 298 282 265"></polygon>
                <path d="M151.16,241.608 C152.536007,241.608 153.671996,241.946663 154.568,242.624 C155.464004,243.301337 156.082665,244.226661 156.424,245.4 L154.888,245.4 C154.599999,244.65333 154.136003,244.058669 153.496,243.616 C152.855997,243.173331 152.072005,242.952 151.144,242.952 C150.407996,242.952 149.749336,243.130665 149.168,243.488 C148.586664,243.845335 148.128002,244.35733 147.792,245.024 C147.455998,245.69067 147.288,246.471996 147.288,247.368 C147.288,248.253338 147.455998,249.026663 147.792,249.688 C148.128002,250.349337 148.586664,250.858665 149.168,251.216 C149.749336,251.573335 150.407996,251.752 151.144,251.752 C152.072005,251.752 152.855997,251.530669 153.496,251.088 C154.136003,250.645331 154.599999,250.05067 154.888,249.304 L156.424,249.304 C156.082665,250.477339 155.464004,251.402663 154.568,252.08 C153.671996,252.757337 152.536007,253.096 151.16,253.096 C150.103995,253.096 149.170671,252.853336 148.36,252.368 C147.549329,251.882664 146.917336,251.205338 146.464,250.336 C146.010664,249.466662 145.784,248.477339 145.784,247.368 C145.784,246.247994 146.010664,245.250671 146.464,244.376 C146.917336,243.501329 147.549329,242.821336 148.36,242.336 C149.170671,241.850664 150.103995,241.608 151.16,241.608 Z" id="C" fill="#909090"></path>
                <polygon id="Path" points="282 166 448.666667 166 482 199 315.333333 199"></polygon>
                <polygon id="Path" points="282 166 315 199 315 298 282 265"></polygon>
                <path d="M315.333333,298 L315.333333,199 L282,166 M315.333333,199 L482,199" id="Shape" stroke="#0052FF"></path>
                <g id="Group" transform="translate(389.000000, 237.000000)">
                    <g></g>
                </g>
                <path d="M399.672,82.16 C400.365337,82.3093341 400.927998,82.6399974 401.36,83.152 C401.792002,83.6640026 402.008,84.2666632 402.008,84.96 C402.008,85.8773379 401.696003,86.6133306 401.072,87.168 C400.447997,87.7226694 399.544006,88 398.36,88 L394.168,88 L394.168,76.72 L398.296,76.72 C399.426672,76.72 400.28533,76.9706642 400.872,77.472 C401.45867,77.9733358 401.752,78.661329 401.752,79.536 C401.752,80.261337 401.557335,80.8479978 401.168,81.296 C400.778665,81.7440022 400.280003,82.0319994 399.672,82.16 Z M395.624,81.664 L398.056,81.664 C398.77067,81.664 399.317331,81.4986683 399.696,81.168 C400.074669,80.8373317 400.264,80.3733363 400.264,79.776 C400.264,79.1999971 400.077335,78.7466683 399.704,78.416 C399.330665,78.0853317 398.760004,77.92 397.992,77.92 L395.624,77.92 L395.624,81.664 Z M398.088,86.784 C398.856004,86.784 399.450665,86.6080018 399.872,86.256 C400.293335,85.9039982 400.504,85.4080032 400.504,84.768 C400.504,84.1386635 400.288002,83.6453351 399.856,83.288 C399.423998,82.9306649 398.824004,82.752 398.056,82.752 L395.624,82.752 L395.624,86.784 L398.088,86.784 Z" id="B" fill="#909090"></path>
                <path d="M403.672,248.352 C403.672,249.493339 403.442669,250.487996 402.984,251.336 C402.525331,252.184004 401.850671,252.839998 400.96,253.304 C400.069329,253.768002 399.000006,254 397.752,254 L394.168,254 L394.168,242.72 L397.752,242.72 C399.000006,242.72 400.069329,242.946664 400.96,243.4 C401.850671,243.853336 402.525331,244.503996 402.984,245.352 C403.442669,246.200004 403.672,247.199994 403.672,248.352 Z M397.64,252.688 C399.112007,252.688 400.237329,252.309337 401.016,251.552 C401.794671,250.794663 402.184,249.728007 402.184,248.352 C402.184,246.975993 401.797337,245.90667 401.024,245.144 C400.250663,244.38133 399.122674,244 397.64,244 L395.624,244 L395.624,252.688 L397.64,252.688 Z" id="D" fill="#909090"></path>
                <polyline id="Path" stroke="#DEDEDE" points="50 65 0 65 0 231 50 231"></polyline>
            </g>
        </g>
    </g>
</svg>