<?xml version="1.0" encoding="UTF-8"?>
<svg width="495px" height="312px" viewBox="0 0 495 312" version="1.1" xmlns="http://www.w3.org/2000/svg" xmlns:xlink="http://www.w3.org/1999/xlink">
    <!-- Generator: Sketch 52.2 (67145) - http://www.bohemiancoding.com/sketch -->
    <title>Embedded Development</title>
    <desc>Created with Sketch.</desc>
    <defs>
        <linearGradient x1="172.481923%" y1="-293.194832%" x2="3.72215855%" y2="100%" id="linearGradient-1">
            <stop stop-color="#3A3A3A" offset="0%"></stop>
            <stop stop-color="#393939" offset="0%"></stop>
            <stop stop-color="#171717" offset="100%"></stop>
        </linearGradient>
        <linearGradient x1="96.0937053%" y1="-72.9208992%" x2="50%" y2="100%" id="linearGradient-2">
            <stop stop-color="#202020" offset="0%"></stop>
            <stop stop-color="#1B1B1B" offset="100%"></stop>
        </linearGradient>
    </defs>
    <g id="Design" stroke="none" stroke-width="1" fill="none" fill-rule="evenodd">
        <g id="ARSData_Solutions_v2@2x" transform="translate(-749.000000, -3649.000000)">
            <g id="Embedded-Development" transform="translate(749.000000, 3649.000000)">
                <rect id="Rectangle" stroke="#0052FF" x="204.5" y="144.5" width="1" height="5"></rect>
                <rect id="Rectangle" stroke="#0052FF" x="212.5" y="144.5" width="1" height="5"></rect>
                <rect id="Rectangle" stroke="#0052FF" x="220.5" y="144.5" width="1" height="5"></rect>
                <rect id="Rectangle" stroke="#0052FF" x="228.5" y="144.5" width="1" height="5"></rect>
                <rect id="Rectangle" stroke="#0052FF" x="236.5" y="144.5" width="1" height="5"></rect>
                <rect id="Rectangle" stroke="#0052FF" x="244.5" y="144.5" width="1" height="5"></rect>
                <rect id="Rectangle" stroke="#0052FF" x="252.5" y="144.5" width="1" height="5"></rect>
                <rect id="Rectangle" stroke="#0052FF" x="260.5" y="144.5" width="1" height="5"></rect>
                <rect id="Rectangle" stroke="#0052FF" x="268.5" y="144.5" width="1" height="5"></rect>
                <rect id="Rectangle" stroke="#0052FF" x="276.5" y="144.5" width="1" height="5"></rect>
                <rect id="Rectangle" stroke="#0052FF" x="284.5" y="144.5" width="1" height="5"></rect>
                <rect id="Rectangle" stroke="#0052FF" x="292.5" y="144.5" width="1" height="5"></rect>
                <rect id="Rectangle" stroke="#0052FF" x="300.5" y="144.5" width="1" height="5"></rect>
                <rect id="Rectangle" stroke="#0052FF" x="300.5" y="144.5" width="1" height="5"></rect>
                <rect id="Rectangle" stroke="#0052FF" x="308.5" y="144.5" width="1" height="5"></rect>
                <rect id="Rectangle" stroke="#0052FF" x="316.5" y="144.5" width="1" height="5"></rect>
                <rect id="Rectangle" stroke="#0052FF" x="324.5" y="144.5" width="1" height="5"></rect>
                <g id="Group-2" transform="translate(204.000000, 113.000000)" stroke="#0052FF">
                    <rect id="Rectangle" x="0.5" y="0.5" width="1" height="2"></rect>
                    <rect id="Rectangle" x="8.5" y="0.5" width="1" height="2"></rect>
                    <rect id="Rectangle" x="16.5" y="0.5" width="1" height="2"></rect>
                    <rect id="Rectangle" x="24.5" y="0.5" width="1" height="2"></rect>
                    <rect id="Rectangle" x="32.5" y="0.5" width="1" height="2"></rect>
                    <rect id="Rectangle" x="40.5" y="0.5" width="1" height="2"></rect>
                    <rect id="Rectangle" x="48.5" y="0.5" width="1" height="2"></rect>
                    <rect id="Rectangle" x="56.5" y="0.5" width="1" height="2"></rect>
                    <rect id="Rectangle" x="64.5" y="0.5" width="1" height="2"></rect>
                    <rect id="Rectangle" x="72.5" y="0.5" width="1" height="2"></rect>
                    <rect id="Rectangle" x="80.5" y="0.5" width="1" height="2"></rect>
                    <rect id="Rectangle" x="88.5" y="0.5" width="1" height="2"></rect>
                    <rect id="Rectangle" x="96.5" y="0.5" width="1" height="2"></rect>
                    <rect id="Rectangle" x="96.5" y="0.5" width="1" height="2"></rect>
                    <rect id="Rectangle" x="104.5" y="0.5" width="1" height="2"></rect>
                    <rect id="Rectangle" x="112.5" y="0.5" width="1" height="2"></rect>
                    <rect id="Rectangle" x="120.5" y="0.5" width="1" height="2"></rect>
                    <rect id="Rectangle" x="128.5" y="0.5" width="1" height="2"></rect>
                </g>
                <g id="Group-2" transform="translate(204.000000, 94.000000)" stroke="#0052FF">
                    <rect id="Rectangle" x="0.5" y="0.5" width="1" height="2"></rect>
                    <rect id="Rectangle" x="8.5" y="0.5" width="1" height="2"></rect>
                    <rect id="Rectangle" x="16.5" y="0.5" width="1" height="2"></rect>
                    <rect id="Rectangle" x="24.5" y="0.5" width="1" height="2"></rect>
                    <rect id="Rectangle" x="32.5" y="0.5" width="1" height="2"></rect>
                    <rect id="Rectangle" x="40.5" y="0.5" width="1" height="2"></rect>
                    <rect id="Rectangle" x="48.5" y="0.5" width="1" height="2"></rect>
                    <rect id="Rectangle" x="56.5" y="0.5" width="1" height="2"></rect>
                    <rect id="Rectangle" x="64.5" y="0.5" width="1" height="2"></rect>
                    <rect id="Rectangle" x="72.5" y="0.5" width="1" height="2"></rect>
                    <rect id="Rectangle" x="80.5" y="0.5" width="1" height="2"></rect>
                    <rect id="Rectangle" x="88.5" y="0.5" width="1" height="2"></rect>
                    <rect id="Rectangle" x="96.5" y="0.5" width="1" height="2"></rect>
                    <rect id="Rectangle" x="96.5" y="0.5" width="1" height="2"></rect>
                    <rect id="Rectangle" x="104.5" y="0.5" width="1" height="2"></rect>
                    <rect id="Rectangle" x="112.5" y="0.5" width="1" height="2"></rect>
                    <rect id="Rectangle" x="120.5" y="0.5" width="1" height="2"></rect>
                    <rect id="Rectangle" x="128.5" y="0.5" width="1" height="2"></rect>
                </g>
                <g id="Group-2" transform="translate(204.000000, 75.000000)" stroke="#0052FF">
                    <rect id="Rectangle" x="0.5" y="0.5" width="1" height="2"></rect>
                    <rect id="Rectangle" x="8.5" y="0.5" width="1" height="2"></rect>
                    <rect id="Rectangle" x="16.5" y="0.5" width="1" height="2"></rect>
                    <rect id="Rectangle" x="24.5" y="0.5" width="1" height="2"></rect>
                    <rect id="Rectangle" x="32.5" y="0.5" width="1" height="2"></rect>
                    <rect id="Rectangle" x="40.5" y="0.5" width="1" height="2"></rect>
                    <rect id="Rectangle" x="48.5" y="0.5" width="1" height="2"></rect>
                    <rect id="Rectangle" x="56.5" y="0.5" width="1" height="2"></rect>
                    <rect id="Rectangle" x="64.5" y="0.5" width="1" height="2"></rect>
                    <rect id="Rectangle" x="72.5" y="0.5" width="1" height="2"></rect>
                    <rect id="Rectangle" x="80.5" y="0.5" width="1" height="2"></rect>
                    <rect id="Rectangle" x="88.5" y="0.5" width="1" height="2"></rect>
                    <rect id="Rectangle" x="96.5" y="0.5" width="1" height="2"></rect>
                    <rect id="Rectangle" x="96.5" y="0.5" width="1" height="2"></rect>
                    <rect id="Rectangle" x="104.5" y="0.5" width="1" height="2"></rect>
                    <rect id="Rectangle" x="112.5" y="0.5" width="1" height="2"></rect>
                    <rect id="Rectangle" x="120.5" y="0.5" width="1" height="2"></rect>
                    <rect id="Rectangle" x="128.5" y="0.5" width="1" height="2"></rect>
                </g>
                <g id="Group-2" transform="translate(204.000000, 56.000000)" stroke="#0052FF">
                    <rect id="Rectangle" x="0.5" y="0.5" width="1" height="2"></rect>
                    <rect id="Rectangle" x="8.5" y="0.5" width="1" height="2"></rect>
                    <rect id="Rectangle" x="16.5" y="0.5" width="1" height="2"></rect>
                    <rect id="Rectangle" x="24.5" y="0.5" width="1" height="2"></rect>
                    <rect id="Rectangle" x="32.5" y="0.5" width="1" height="2"></rect>
                    <rect id="Rectangle" x="40.5" y="0.5" width="1" height="2"></rect>
                    <rect id="Rectangle" x="48.5" y="0.5" width="1" height="2"></rect>
                    <rect id="Rectangle" x="56.5" y="0.5" width="1" height="2"></rect>
                    <rect id="Rectangle" x="64.5" y="0.5" width="1" height="2"></rect>
                    <rect id="Rectangle" x="72.5" y="0.5" width="1" height="2"></rect>
                    <rect id="Rectangle" x="80.5" y="0.5" width="1" height="2"></rect>
                    <rect id="Rectangle" x="88.5" y="0.5" width="1" height="2"></rect>
                    <rect id="Rectangle" x="96.5" y="0.5" width="1" height="2"></rect>
                    <rect id="Rectangle" x="96.5" y="0.5" width="1" height="2"></rect>
                    <rect id="Rectangle" x="104.5" y="0.5" width="1" height="2"></rect>
                    <rect id="Rectangle" x="112.5" y="0.5" width="1" height="2"></rect>
                    <rect id="Rectangle" x="120.5" y="0.5" width="1" height="2"></rect>
                    <rect id="Rectangle" x="128.5" y="0.5" width="1" height="2"></rect>
                </g>
                <g id="Group-2" transform="translate(365.000000, 56.000000)" stroke="#0052FF">
                    <rect id="Rectangle" x="0.5" y="0.5" width="1" height="2"></rect>
                    <rect id="Rectangle" x="8.5" y="0.5" width="1" height="2"></rect>
                    <rect id="Rectangle" x="8.5" y="0.5" width="1" height="2"></rect>
                    <rect id="Rectangle" x="16.5" y="0.5" width="1" height="2"></rect>
                    <rect id="Rectangle" x="24.5" y="0.5" width="1" height="2"></rect>
                    <rect id="Rectangle" x="32.5" y="0.5" width="1" height="2"></rect>
                </g>
                <g id="Group-2" transform="translate(365.000000, 75.000000)" stroke="#0052FF">
                    <rect id="Rectangle" x="0.5" y="0.5" width="1" height="2"></rect>
                    <rect id="Rectangle" x="8.5" y="0.5" width="1" height="2"></rect>
                    <rect id="Rectangle" x="8.5" y="0.5" width="1" height="2"></rect>
                    <rect id="Rectangle" x="16.5" y="0.5" width="1" height="2"></rect>
                    <rect id="Rectangle" x="24.5" y="0.5" width="1" height="2"></rect>
                    <rect id="Rectangle" x="32.5" y="0.5" width="1" height="2"></rect>
                </g>
                <g id="Group-2" transform="translate(365.000000, 94.000000)" stroke="#0052FF">
                    <rect id="Rectangle" x="0.5" y="0.5" width="1" height="2"></rect>
                    <rect id="Rectangle" x="8.5" y="0.5" width="1" height="2"></rect>
                    <rect id="Rectangle" x="8.5" y="0.5" width="1" height="2"></rect>
                    <rect id="Rectangle" x="16.5" y="0.5" width="1" height="2"></rect>
                    <rect id="Rectangle" x="24.5" y="0.5" width="1" height="2"></rect>
                    <rect id="Rectangle" x="32.5" y="0.5" width="1" height="2"></rect>
                </g>
                <g id="Group-2" transform="translate(365.000000, 113.000000)" stroke="#0052FF">
                    <rect id="Rectangle" x="0.5" y="0.5" width="1" height="2"></rect>
                    <rect id="Rectangle" x="8.5" y="0.5" width="1" height="2"></rect>
                    <rect id="Rectangle" x="8.5" y="0.5" width="1" height="2"></rect>
                    <rect id="Rectangle" x="16.5" y="0.5" width="1" height="2"></rect>
                    <rect id="Rectangle" x="24.5" y="0.5" width="1" height="2"></rect>
                    <rect id="Rectangle" x="32.5" y="0.5" width="1" height="2"></rect>
                </g>
                <rect id="Rectangle" stroke="#0052FF" x="332.5" y="144.5" width="1" height="5"></rect>
                <rect id="Rectangle" stroke="#0052FF" x="340.5" y="144.5" width="1" height="5"></rect>
                <rect id="Rectangle" stroke="#0052FF" x="363.5" y="144.5" width="1" height="5"></rect>
                <rect id="Rectangle" stroke="#0052FF" x="371.5" y="144.5" width="1" height="5"></rect>
                <rect id="Rectangle" stroke="#0052FF" x="379.5" y="144.5" width="1" height="5"></rect>
                <rect id="Rectangle" stroke="#0052FF" x="387.5" y="144.5" width="1" height="5"></rect>
                <rect id="Rectangle" stroke="#0052FF" x="395.5" y="144.5" width="1" height="5"></rect>
                <rect id="Rectangle" stroke="#0052FF" x="403.5" y="144.5" width="1" height="5"></rect>
                <rect id="Rectangle" stroke="#0052FF" x="411.5" y="144.5" width="1" height="5"></rect>
                <rect id="Rectangle" stroke="#0052FF" x="419.5" y="144.5" width="1" height="5"></rect>
                <rect id="Rectangle" stroke="#0052FF" x="427.5" y="144.5" width="1" height="5"></rect>
                <rect id="Rectangle" stroke="#0052FF" x="435.5" y="144.5" width="1" height="5"></rect>
                <rect id="Rectangle" stroke="#0052FF" x="204.5" y="178.5" width="1" height="5"></rect>
                <rect id="Rectangle" stroke="#0052FF" x="212.5" y="178.5" width="1" height="5"></rect>
                <rect id="Rectangle" stroke="#0052FF" x="220.5" y="178.5" width="1" height="5"></rect>
                <rect id="Rectangle" stroke="#0052FF" x="228.5" y="178.5" width="1" height="5"></rect>
                <rect id="Rectangle" stroke="#0052FF" x="236.5" y="178.5" width="1" height="5"></rect>
                <rect id="Rectangle" stroke="#0052FF" x="244.5" y="178.5" width="1" height="5"></rect>
                <rect id="Rectangle" stroke="#0052FF" x="252.5" y="178.5" width="1" height="5"></rect>
                <rect id="Rectangle" stroke="#0052FF" x="260.5" y="178.5" width="1" height="5"></rect>
                <rect id="Rectangle" stroke="#0052FF" x="268.5" y="178.5" width="1" height="5"></rect>
                <rect id="Rectangle" stroke="#0052FF" x="276.5" y="178.5" width="1" height="5"></rect>
                <rect id="Rectangle" stroke="#0052FF" x="284.5" y="178.5" width="1" height="5"></rect>
                <rect id="Rectangle" stroke="#0052FF" x="292.5" y="178.5" width="1" height="5"></rect>
                <rect id="Rectangle" stroke="#0052FF" x="300.5" y="178.5" width="1" height="5"></rect>
                <rect id="Rectangle" stroke="#0052FF" x="300.5" y="178.5" width="1" height="5"></rect>
                <rect id="Rectangle" stroke="#0052FF" x="308.5" y="178.5" width="1" height="5"></rect>
                <rect id="Rectangle" stroke="#0052FF" x="316.5" y="178.5" width="1" height="5"></rect>
                <rect id="Rectangle" stroke="#0052FF" x="324.5" y="178.5" width="1" height="5"></rect>
                <rect id="Rectangle" stroke="#0052FF" x="332.5" y="178.5" width="1" height="5"></rect>
                <rect id="Rectangle" stroke="#0052FF" x="340.5" y="178.5" width="1" height="5"></rect>
                <rect id="Rectangle" stroke="#0052FF" x="363.5" y="178.5" width="1" height="5"></rect>
                <rect id="Rectangle" stroke="#0052FF" x="371.5" y="178.5" width="1" height="5"></rect>
                <rect id="Rectangle" stroke="#0052FF" x="379.5" y="178.5" width="1" height="5"></rect>
                <rect id="Rectangle" stroke="#0052FF" x="387.5" y="178.5" width="1" height="5"></rect>
                <rect id="Rectangle" stroke="#0052FF" x="395.5" y="178.5" width="1" height="5"></rect>
                <rect id="Rectangle" stroke="#0052FF" x="403.5" y="178.5" width="1" height="5"></rect>
                <rect id="Rectangle" stroke="#0052FF" x="411.5" y="178.5" width="1" height="5"></rect>
                <rect id="Rectangle" stroke="#0052FF" x="419.5" y="178.5" width="1" height="5"></rect>
                <rect id="Rectangle" stroke="#0052FF" x="427.5" y="178.5" width="1" height="5"></rect>
                <rect id="Rectangle" stroke="#0052FF" x="435.5" y="178.5" width="1" height="5"></rect>
                <rect id="Rectangle" stroke="#0052FF" x="204.5" y="212.5" width="1" height="5"></rect>
                <rect id="Rectangle" stroke="#0052FF" x="212.5" y="212.5" width="1" height="5"></rect>
                <rect id="Rectangle" stroke="#0052FF" x="220.5" y="212.5" width="1" height="5"></rect>
                <rect id="Rectangle" stroke="#0052FF" x="228.5" y="212.5" width="1" height="5"></rect>
                <rect id="Rectangle" stroke="#0052FF" x="236.5" y="212.5" width="1" height="5"></rect>
                <rect id="Rectangle" stroke="#0052FF" x="244.5" y="212.5" width="1" height="5"></rect>
                <rect id="Rectangle" stroke="#0052FF" x="252.5" y="212.5" width="1" height="5"></rect>
                <rect id="Rectangle" stroke="#0052FF" x="260.5" y="212.5" width="1" height="5"></rect>
                <rect id="Rectangle" stroke="#0052FF" x="268.5" y="212.5" width="1" height="5"></rect>
                <rect id="Rectangle" stroke="#0052FF" x="276.5" y="212.5" width="1" height="5"></rect>
                <rect id="Rectangle" stroke="#0052FF" x="284.5" y="212.5" width="1" height="5"></rect>
                <rect id="Rectangle" stroke="#0052FF" x="292.5" y="212.5" width="1" height="5"></rect>
                <rect id="Rectangle" stroke="#0052FF" x="300.5" y="212.5" width="1" height="5"></rect>
                <rect id="Rectangle" stroke="#0052FF" x="300.5" y="212.5" width="1" height="5"></rect>
                <rect id="Rectangle" stroke="#0052FF" x="308.5" y="212.5" width="1" height="5"></rect>
                <rect id="Rectangle" stroke="#0052FF" x="316.5" y="212.5" width="1" height="5"></rect>
                <rect id="Rectangle" stroke="#0052FF" x="324.5" y="212.5" width="1" height="5"></rect>
                <rect id="Rectangle" stroke="#0052FF" x="332.5" y="212.5" width="1" height="5"></rect>
                <rect id="Rectangle" stroke="#0052FF" x="340.5" y="212.5" width="1" height="5"></rect>
                <rect id="Rectangle" stroke="#0052FF" x="363.5" y="212.5" width="1" height="5"></rect>
                <rect id="Rectangle" stroke="#0052FF" x="371.5" y="212.5" width="1" height="5"></rect>
                <rect id="Rectangle" stroke="#0052FF" x="379.5" y="212.5" width="1" height="5"></rect>
                <rect id="Rectangle" stroke="#0052FF" x="387.5" y="212.5" width="1" height="5"></rect>
                <rect id="Rectangle" stroke="#0052FF" x="395.5" y="212.5" width="1" height="5"></rect>
                <rect id="Rectangle" stroke="#0052FF" x="403.5" y="212.5" width="1" height="5"></rect>
                <rect id="Rectangle" stroke="#0052FF" x="411.5" y="212.5" width="1" height="5"></rect>
                <rect id="Rectangle" stroke="#0052FF" x="419.5" y="212.5" width="1" height="5"></rect>
                <rect id="Rectangle" stroke="#0052FF" x="427.5" y="212.5" width="1" height="5"></rect>
                <rect id="Rectangle" stroke="#0052FF" x="435.5" y="212.5" width="1" height="5"></rect>
                <rect id="Rectangle" stroke="#0052FF" x="204.5" y="246.5" width="1" height="5"></rect>
                <rect id="Rectangle" stroke="#0052FF" x="212.5" y="246.5" width="1" height="5"></rect>
                <rect id="Rectangle" stroke="#0052FF" x="220.5" y="246.5" width="1" height="5"></rect>
                <rect id="Rectangle" stroke="#0052FF" x="228.5" y="246.5" width="1" height="5"></rect>
                <rect id="Rectangle" stroke="#0052FF" x="236.5" y="246.5" width="1" height="5"></rect>
                <rect id="Rectangle" stroke="#0052FF" x="244.5" y="246.5" width="1" height="5"></rect>
                <rect id="Rectangle" stroke="#0052FF" x="252.5" y="246.5" width="1" height="5"></rect>
                <rect id="Rectangle" stroke="#0052FF" x="260.5" y="246.5" width="1" height="5"></rect>
                <rect id="Rectangle" stroke="#0052FF" x="268.5" y="246.5" width="1" height="5"></rect>
                <rect id="Rectangle" stroke="#0052FF" x="276.5" y="246.5" width="1" height="5"></rect>
                <rect id="Rectangle" stroke="#0052FF" x="284.5" y="246.5" width="1" height="5"></rect>
                <rect id="Rectangle" stroke="#0052FF" x="292.5" y="246.5" width="1" height="5"></rect>
                <rect id="Rectangle" stroke="#0052FF" x="300.5" y="246.5" width="1" height="5"></rect>
                <rect id="Rectangle" stroke="#0052FF" x="300.5" y="246.5" width="1" height="5"></rect>
                <rect id="Rectangle" stroke="#0052FF" x="308.5" y="246.5" width="1" height="5"></rect>
                <rect id="Rectangle" stroke="#0052FF" x="316.5" y="246.5" width="1" height="5"></rect>
                <rect id="Rectangle" stroke="#0052FF" x="324.5" y="246.5" width="1" height="5"></rect>
                <rect id="Rectangle" stroke="#0052FF" x="332.5" y="246.5" width="1" height="5"></rect>
                <rect id="Rectangle" stroke="#0052FF" x="340.5" y="246.5" width="1" height="5"></rect>
                <rect id="Rectangle" stroke="#0052FF" x="363.5" y="246.5" width="1" height="5"></rect>
                <rect id="Rectangle" stroke="#0052FF" x="371.5" y="246.5" width="1" height="5"></rect>
                <rect id="Rectangle" stroke="#0052FF" x="379.5" y="246.5" width="1" height="5"></rect>
                <rect id="Rectangle" stroke="#0052FF" x="387.5" y="246.5" width="1" height="5"></rect>
                <rect id="Rectangle" stroke="#0052FF" x="395.5" y="246.5" width="1" height="5"></rect>
                <rect id="Rectangle" stroke="#0052FF" x="403.5" y="246.5" width="1" height="5"></rect>
                <rect id="Rectangle" stroke="#0052FF" x="411.5" y="246.5" width="1" height="5"></rect>
                <rect id="Rectangle" stroke="#0052FF" x="419.5" y="246.5" width="1" height="5"></rect>
                <rect id="Rectangle" stroke="#0052FF" x="427.5" y="246.5" width="1" height="5"></rect>
                <rect id="Rectangle" stroke="#0052FF" x="435.5" y="246.5" width="1" height="5"></rect>
                <path d="M490,51 L492,51 C493.656854,51 495,52.3431458 495,54 L495,59 C495,60.6568542 493.656854,62 492,62 L490,62 L490,51 Z" id="Rectangle" fill="url(#linearGradient-1)"></path>
                <path d="M490,68 L492,68 C493.656854,68 495,69.3431458 495,71 L495,76 C495,77.6568542 493.656854,79 492,79 L490,79 L490,68 Z" id="Rectangle-Copy-63" fill="url(#linearGradient-1)"></path>
                <path d="M490,85 L492,85 C493.656854,85 495,86.3431458 495,88 L495,93 C495,94.6568542 493.656854,96 492,96 L490,96 L490,85 Z" id="Rectangle-Copy-64" fill="url(#linearGradient-1)"></path>
                <path d="M490,102 L492,102 C493.656854,102 495,103.343146 495,105 L495,110 C495,111.656854 493.656854,113 492,113 L490,113 L490,102 Z" id="Rectangle-Copy-65" fill="url(#linearGradient-1)"></path>
                <rect id="Rectangle" stroke="#0052FF" x="0.5" y="0.5" width="478" height="311"></rect>
                <rect id="Rectangle" stroke="#0052FF" x="8.5" y="8.5" width="462" height="295"></rect>
                <rect id="Rectangle" fill="url(#linearGradient-1)" x="417" y="42" width="71" height="82"></rect>
                <polygon id="Rectangle-Copy-40" fill="url(#linearGradient-1)" points="145 215 145 238 117 238 117 219.067616 122.034736 215"></polygon>
                <polygon id="Rectangle-Copy-44" fill="url(#linearGradient-1)" points="140 64 140 119 73 119 73 73.7269068 85.0474045 64"></polygon>
                <rect id="Rectangle" stroke="url(#linearGradient-2)" stroke-width="3" x="65.5" y="55.5" width="82" height="70"></rect>
                <rect id="Rectangle" stroke="url(#linearGradient-2)" stroke-width="4" x="58" y="49" width="97" height="83"></rect>
                <path d="M144.5,178.5 L122.211477,178.5 L117.5,182.306451 L117.5,200.5 L144.5,200.5 L144.5,178.5 Z" id="Rectangle-Copy-43" stroke="#0052FF"></path>
                <polygon id="Rectangle-Copy-41" fill="url(#linearGradient-1)" points="145 265 145 288 117 288 117 269.067616 122.034736 265"></polygon>
                <polygon id="Rectangle-Copy-42" fill="url(#linearGradient-1)" points="218 270 218 293 190 293 190 274.067616 195.034736 270"></polygon>
                <rect id="Rectangle-Copy-28" stroke="#0052FF" x="191.5" y="137.5" width="257" height="19"></rect>
                <rect id="Rectangle-Copy-32" stroke="#0052FF" x="191.5" y="52.5" width="154" height="10"></rect>
                <rect id="Rectangle-Copy-36" stroke="#0052FF" x="356.5" y="52.5" width="51" height="10"></rect>
                <rect id="Rectangle-Copy-33" stroke="#0052FF" x="191.5" y="71.5" width="154" height="10"></rect>
                <rect id="Rectangle-Copy-37" stroke="#0052FF" x="356.5" y="71.5" width="51" height="10"></rect>
                <rect id="Rectangle-Copy-34" stroke="#0052FF" x="191.5" y="90.5" width="154" height="10"></rect>
                <rect id="Rectangle-Copy-38" stroke="#0052FF" x="356.5" y="90.5" width="51" height="10"></rect>
                <rect id="Rectangle-Copy-35" stroke="#0052FF" x="191.5" y="109.5" width="154" height="10"></rect>
                <rect id="Rectangle-Copy-39" stroke="#0052FF" x="356.5" y="109.5" width="51" height="10"></rect>
                <rect id="Rectangle-Copy-29" stroke="#0052FF" x="191.5" y="171.5" width="257" height="19"></rect>
                <rect id="Rectangle-Copy-30" stroke="#0052FF" x="191.5" y="205.5" width="257" height="19"></rect>
                <rect id="Rectangle-Copy-31" stroke="#0052FF" x="191.5" y="239.5" width="257" height="19"></rect>
                <rect id="Rectangle" stroke="#0052FF" x="323.5" y="270.5" width="14" height="6"></rect>
                <rect id="Rectangle-Copy-46" stroke="#0052FF" x="414.5" y="287.5" width="14" height="6"></rect>
                <rect id="Rectangle-Copy-49" stroke="#0052FF" x="301.5" y="36.5" width="14" height="6"></rect>
                <rect id="Rectangle-Copy-52" stroke="#0052FF" x="84.5" y="25.5" width="14" height="6"></rect>
                <rect id="Rectangle-Copy-56" stroke="#0052FF" x="89.5" y="148.5" width="14" height="6"></rect>
                <rect id="Rectangle-Copy-60" stroke="#0052FF" transform="translate(169.500000, 212.500000) rotate(-270.000000) translate(-169.500000, -212.500000) " x="162.5" y="209.5" width="14" height="6"></rect>
                <rect id="Rectangle" fill="#0052FF" x="316" y="273" width="5" height="1"></rect>
                <rect id="Rectangle-Copy-47" fill="#0052FF" x="407" y="290" width="5" height="1"></rect>
                <rect id="Rectangle-Copy-50" fill="#0052FF" x="294" y="39" width="5" height="1"></rect>
                <rect id="Rectangle-Copy-53" fill="#0052FF" x="77" y="28" width="5" height="1"></rect>
                <rect id="Rectangle-Copy-57" fill="#0052FF" x="82" y="151" width="5" height="1"></rect>
                <rect id="Rectangle-Copy-61" fill="#0052FF" transform="translate(169.500000, 200.500000) rotate(-270.000000) translate(-169.500000, -200.500000) " x="167" y="200" width="5" height="1"></rect>
                <rect id="Rectangle-Copy-45" fill="#0052FF" x="340" y="273" width="5" height="1"></rect>
                <rect id="Rectangle-Copy-48" fill="#0052FF" x="431" y="290" width="5" height="1"></rect>
                <rect id="Rectangle-Copy-51" fill="#0052FF" x="318" y="39" width="5" height="1"></rect>
                <rect id="Rectangle-Copy-55" fill="#0052FF" x="101" y="28" width="5" height="1"></rect>
                <rect id="Rectangle-Copy-58" fill="#0052FF" x="106" y="151" width="5" height="1"></rect>
                <rect id="Rectangle-Copy-62" fill="#0052FF" transform="translate(169.500000, 224.500000) rotate(-270.000000) translate(-169.500000, -224.500000) " x="167" y="224" width="5" height="1"></rect>
                <polyline id="Path-5" stroke="#0052FF" points="35.8042587 96 35.8042587 38.3125641 44.2278413 27.3738878 59.3746223 27.3738878"></polyline>
                <polyline id="Path-6" stroke="#0052FF" points="29.9234185 165 43.3919343 165 55.5950696 153.777393 55.5950696 143"></polyline>
                <polyline id="Path-7" stroke="#0052FF" points="30.3418328 176 63.4850356 176 76.9461786 162 76.9461786 149.693706"></polyline>
                <polyline id="Path-8" stroke="#0052FF" points="29.8487675 187 67.8433641 187 85.4351959 165 111.699447 165"></polyline>
                <polyline id="Path-9" stroke="#0052FF" points="30.0220315 197.442701 102.371758 197.442701 115.631988 208.623763 142.28424 208.623763"></polyline>
                <polyline id="Path-10" stroke="#0052FF" points="30.3584219 212 93.4034994 212 106.6582 222.943853 106.6582 235"></polyline>
                <polyline id="Path-11" stroke="#0052FF" points="118.703739 151 156.091911 151 168.860919 162 168.860919 193.319385"></polyline>
                <polyline id="Path-12" stroke="#0052FF" points="135.549982 165 147.442532 165 155.995141 176 155.995141 233.155373"></polyline>
                <path d="M67.6479812,232.467846 L86.0065986,232.467846" id="Path-13" stroke="#0052FF"></path>
                <path d="M67.6046652,283 L85.8038428,283" id="Path-14" stroke="#0052FF"></path>
                <circle id="Oval" fill="url(#linearGradient-1)" cx="57" cy="279" r="6"></circle>
                <circle id="Oval-Copy-4" fill="url(#linearGradient-1)" cx="57" cy="230" r="6"></circle>
                <circle id="Oval-Copy-5" fill="url(#linearGradient-1)" cx="122" cy="166" r="6"></circle>
                <circle id="Oval-Copy-10" fill="url(#linearGradient-1)" cx="133" cy="30" r="6"></circle>
                <circle id="Oval-Copy-11" fill="url(#linearGradient-1)" cx="153" cy="30" r="6"></circle>
                <circle id="Oval-Copy-12" fill="url(#linearGradient-1)" cx="173" cy="30" r="6"></circle>
                <circle id="Oval-Copy-6" fill="url(#linearGradient-1)" cx="165" cy="241" r="6"></circle>
                <circle id="Oval-Copy-7" fill="url(#linearGradient-1)" cx="165" cy="257" r="6"></circle>
                <circle id="Oval-Copy-8" fill="url(#linearGradient-1)" cx="165" cy="273" r="6"></circle>
                <circle id="Oval-Copy-9" fill="url(#linearGradient-1)" cx="165" cy="289" r="6"></circle>
                <polyline id="Path-15" stroke="#0052FF" points="29.9833236 247.174094 102.504471 247.174094 115.255047 257.138621 141.678737 257.138621"></polyline>
                <polyline id="Path-16" stroke="#0052FF" points="29.5916362 261.396493 94.1113016 261.396493 106.640689 271.835653 106.640689 284"></polyline>
                <polyline id="Path-17" stroke="#0052FF" points="226.028499 275 298.58191 275 312.353909 288 338.335579 288"></polyline>
                <polyline id="Path-18" stroke="#0052FF" points="363.996876 268 428.550078 268 440.522511 278.467409 440.522511 290.704454"></polyline>
                <polyline id="Path-19" stroke="#0052FF" points="196.424606 23 260.135298 23 273.645984 35.2724241 273.645984 47.7263772"></polyline>
                <polyline id="Path-20" stroke="#0052FF" points="424.434505 24.3887938 358.973774 24.3887938 346.614871 35.4729079 346.614871 47.3701392"></polyline>
                <path d="M169,88 L169,117 L164,117 L164,88 L162,88 L162,63.5 C162,61.0147186 164.014719,59 166.5,59 C168.985281,59 171,61.0147186 171,63.5 L171,88 L169,88 Z" id="Combined-Shape" fill="url(#linearGradient-1)"></path>
            </g>
        </g>
    </g>
</svg>