<?xml version="1.0" encoding="UTF-8"?>
<svg width="489px" height="314px" viewBox="0 0 489 314" version="1.1" xmlns="http://www.w3.org/2000/svg" xmlns:xlink="http://www.w3.org/1999/xlink">
    <!-- Generator: Sketch 52.2 (67145) - http://www.bohemiancoding.com/sketch -->
    <title>Machine learning</title>
    <desc>Created with Sketch.</desc>
    <g id="Desktop-Design" stroke="none" stroke-width="1" fill="none" fill-rule="evenodd">
        <g id="ARSData_Solutions_v2@2x" transform="translate(-748.000000, -2964.000000)">
            <g id="Machine-learning" transform="translate(748.000000, 2964.000000)">
                <g id="Group-6">
                    <circle id="Oval" stroke="#E63A0F" cx="459.5" cy="89.5" r="6.5"></circle>
                    <circle id="Oval" stroke="#E63A0F" cx="400.5" cy="53.5" r="6.5"></circle>
                    <circle id="Oval" stroke="#E63A0F" cx="319.5" cy="89.5" r="6.5"></circle>
                    <circle id="Oval" stroke="#E63A0F" cx="169.5" cy="63.5" r="6.5"></circle>
                    <polygon id="Path" fill="#0052FF" points="453.5 239.551548 451.051548 242 450 240.948452 452.448452 238.5 450 236.051548 451.051548 235 453.5 237.448452 455.948452 235 457 236.051548 454.551548 238.5 457 240.948452 455.948452 242"></polygon>
                    <polygon id="Path" fill="#0052FF" points="455.5 237.551548 453.051548 240 452 238.948452 454.448452 236.5 452 234.051548 453.051548 233 455.5 235.448452 457.948452 233 459 234.051548 456.551548 236.5 459 238.948452 457.948452 240"></polygon>
                    <polygon id="Path" fill="#8B8B8B" points="459.5 90.5515477 457.051548 93 456 91.9484523 458.448452 89.5 456 87.0515477 457.051548 86 459.5 88.4484523 461.948452 86 463 87.0515477 460.551548 89.5 463 91.9484523 461.948452 93"></polygon>
                    <polygon id="Path" fill="#8B8B8B" points="400.5 54.5515477 398.051548 57 397 55.9484523 399.448452 53.5 397 51.0515477 398.051548 50 400.5 52.4484523 402.948452 50 404 51.0515477 401.551548 53.5 404 55.9484523 402.948452 57"></polygon>
                    <polygon id="Path" fill="#8B8B8B" points="319.5 90.5515477 317.051548 93 316 91.9484523 318.448452 89.5 316 87.0515477 317.051548 86 319.5 88.4484523 321.948452 86 323 87.0515477 320.551548 89.5 323 91.9484523 321.948452 93"></polygon>
                    <polygon id="Path" fill="#8B8B8B" points="169.5 64.5515477 167.051548 67 166 65.9484523 168.448452 63.5 166 61.0515477 167.051548 60 169.5 62.4484523 171.948452 60 173 61.0515477 170.551548 63.5 173 65.9484523 171.948452 67"></polygon>
                    <polygon id="Path" fill="#0052FF" points="447.5 240.551548 445.051548 243 444 241.948452 446.448452 239.5 444 237.051548 445.051548 236 447.5 238.448452 449.948452 236 451 237.051548 448.551548 239.5 451 241.948452 449.948452 243"></polygon>
                    <polygon id="Path" fill="#0052FF" points="455.5 219.551548 453.051548 222 452 220.948452 454.448452 218.5 452 216.051548 453.051548 215 455.5 217.448452 457.948452 215 459 216.051548 456.551548 218.5 459 220.948452 457.948452 222"></polygon>
                    <polygon id="Path" fill="#0052FF" points="447.5 228.551548 445.051548 231 444 229.948452 446.448452 227.5 444 225.051548 445.051548 224 447.5 226.448452 449.948452 224 451 225.051548 448.551548 227.5 451 229.948452 449.948452 231"></polygon>
                    <polygon id="Path" fill="#0052FF" points="291.5 140.551548 289.051548 143 288 141.948452 290.448452 139.5 288 137.051548 289.051548 136 291.5 138.448452 293.948452 136 295 137.051548 292.551548 139.5 295 141.948452 293.948452 143"></polygon>
                    <polygon id="Path" fill="#0052FF" points="300.5 132.551548 298.051548 135 297 133.948452 299.448452 131.5 297 129.051548 298.051548 128 300.5 130.448452 302.948452 128 304 129.051548 301.551548 131.5 304 133.948452 302.948452 135"></polygon>
                    <polygon id="Path" fill="#0052FF" points="325.5 144.551548 323.051548 147 322 145.948452 324.448452 143.5 322 141.051548 323.051548 140 325.5 142.448452 327.948452 140 329 141.051548 326.551548 143.5 329 145.948452 327.948452 147"></polygon>
                    <polygon id="Path" fill="#0052FF" points="329.5 136.551548 327.051548 139 326 137.948452 328.448452 135.5 326 133.051548 327.051548 132 329.5 134.448452 331.948452 132 333 133.051548 330.551548 135.5 333 137.948452 331.948452 139"></polygon>
                    <polygon id="Path" fill="#0052FF" points="332.5 147.551548 330.051548 150 329 148.948452 331.448452 146.5 329 144.051548 330.051548 143 332.5 145.448452 334.948452 143 336 144.051548 333.551548 146.5 336 148.948452 334.948452 150"></polygon>
                    <polygon id="Path" fill="#0052FF" points="341.5 152.551548 339.051548 155 338 153.948452 340.448452 151.5 338 149.051548 339.051548 148 341.5 150.448452 343.948452 148 345 149.051548 342.551548 151.5 345 153.948452 343.948452 155"></polygon>
                    <polygon id="Path" fill="#0052FF" points="368.5 143.551548 366.051548 146 365 144.948452 367.448452 142.5 365 140.051548 366.051548 139 368.5 141.448452 370.948452 139 372 140.051548 369.551548 142.5 372 144.948452 370.948452 146"></polygon>
                    <polygon id="Path" fill="#0052FF" points="376.5 134.551548 374.051548 137 373 135.948452 375.448452 133.5 373 131.051548 374.051548 130 376.5 132.448452 378.948452 130 380 131.051548 377.551548 133.5 380 135.948452 378.948452 137"></polygon>
                    <polygon id="Path" fill="#0052FF" points="431.5 205.551548 429.051548 208 428 206.948452 430.448452 204.5 428 202.051548 429.051548 201 431.5 203.448452 433.948452 201 435 202.051548 432.551548 204.5 435 206.948452 433.948452 208"></polygon>
                    <polygon id="Path" fill="#0052FF" points="440.5 201.551548 438.051548 204 437 202.948452 439.448452 200.5 437 198.051548 438.051548 197 440.5 199.448452 442.948452 197 444 198.051548 441.551548 200.5 444 202.948452 442.948452 204"></polygon>
                    <polygon id="Path" fill="#0052FF" points="449.5 210.551548 447.051548 213 446 211.948452 448.448452 209.5 446 207.051548 447.051548 206 449.5 208.448452 451.948452 206 453 207.051548 450.551548 209.5 453 211.948452 451.948452 213"></polygon>
                    <polygon id="Path" fill="#0052FF" points="397.5 156.551548 395.051548 159 394 157.948452 396.448452 155.5 394 153.051548 395.051548 152 397.5 154.448452 399.948452 152 401 153.051548 398.551548 155.5 401 157.948452 399.948452 159"></polygon>
                    <polygon id="Path" fill="#0052FF" points="394.5 165.551548 392.051548 168 391 166.948452 393.448452 164.5 391 162.051548 392.051548 161 394.5 163.448452 396.948452 161 398 162.051548 395.551548 164.5 398 166.948452 396.948452 168"></polygon>
                    <polygon id="Path" fill="#0052FF" points="405.5 183.551548 403.051548 186 402 184.948452 404.448452 182.5 402 180.051548 403.051548 179 405.5 181.448452 407.948452 179 409 180.051548 406.551548 182.5 409 184.948452 407.948452 186"></polygon>
                    <polygon id="Path" fill="#0052FF" points="412.5 186.551548 410.051548 189 409 187.948452 411.448452 185.5 409 183.051548 410.051548 182 412.5 184.448452 414.948452 182 416 183.051548 413.551548 185.5 416 187.948452 414.948452 189"></polygon>
                    <polygon id="Path" fill="#0052FF" points="265.5 131.551548 263.051548 134 262 132.948452 264.448452 130.5 262 128.051548 263.051548 127 265.5 129.448452 267.948452 127 269 128.051548 266.551548 130.5 269 132.948452 267.948452 134"></polygon>
                    <polygon id="Path" fill="#0052FF" points="291.5 122.551548 289.051548 125 288 123.948452 290.448452 121.5 288 119.051548 289.051548 118 291.5 120.448452 293.948452 118 295 119.051548 292.551548 121.5 295 123.948452 293.948452 125"></polygon>
                    <polygon id="Path" fill="#0052FF" points="412.5 168.551548 410.051548 171 409 169.948452 411.448452 167.5 409 165.051548 410.051548 164 412.5 166.448452 414.948452 164 416 165.051548 413.551548 167.5 416 169.948452 414.948452 171"></polygon>
                    <polygon id="Path" fill="#0052FF" transform="translate(88.500000, 191.500000) scale(-1, 1) translate(-88.500000, -191.500000) " points="88.5 192.551548 86.0515477 195 85 193.948452 87.4484523 191.5 85 189.051548 86.0515477 188 88.5 190.448452 90.9484523 188 92 189.051548 89.5515477 191.5 92 193.948452 90.9484523 195"></polygon>
                    <polygon id="Path" fill="#0052FF" transform="translate(97.500000, 196.500000) scale(-1, 1) translate(-97.500000, -196.500000) " points="97.5 197.551548 95.0515477 200 94 198.948452 96.4484523 196.5 94 194.051548 95.0515477 193 97.5 195.448452 99.9484523 193 101 194.051548 98.5515477 196.5 101 198.948452 99.9484523 200"></polygon>
                    <polygon id="Path" fill="#0052FF" transform="translate(55.500000, 224.500000) scale(-1, 1) translate(-55.500000, -224.500000) " points="55.5 225.551548 53.0515477 228 52 226.948452 54.4484523 224.5 52 222.051548 53.0515477 221 55.5 223.448452 57.9484523 221 59 222.051548 56.5515477 224.5 59 226.948452 57.9484523 228"></polygon>
                    <polygon id="Path" fill="#0052FF" transform="translate(162.500000, 150.500000) scale(-1, 1) translate(-162.500000, -150.500000) " points="162.5 151.551548 160.051548 154 159 152.948452 161.448452 150.5 159 148.051548 160.051548 147 162.5 149.448452 164.948452 147 166 148.051548 163.551548 150.5 166 152.948452 164.948452 154"></polygon>
                    <polygon id="Path" fill="#0052FF" transform="translate(153.500000, 142.500000) scale(-1, 1) translate(-153.500000, -142.500000) " points="153.5 143.551548 151.051548 146 150 144.948452 152.448452 142.5 150 140.051548 151.051548 139 153.5 141.448452 155.948452 139 157 140.051548 154.551548 142.5 157 144.948452 155.948452 146"></polygon>
                    <polygon id="Path" fill="#0052FF" transform="translate(144.500000, 158.500000) scale(-1, 1) translate(-144.500000, -158.500000) " points="144.5 159.551548 142.051548 162 141 160.948452 143.448452 158.5 141 156.051548 142.051548 155 144.5 157.448452 146.948452 155 148 156.051548 145.551548 158.5 148 160.948452 146.948452 162"></polygon>
                    <polygon id="Path" fill="#0052FF" transform="translate(137.500000, 165.500000) scale(-1, 1) translate(-137.500000, -165.500000) " points="137.5 166.551548 135.051548 169 134 167.948452 136.448452 165.5 134 163.051548 135.051548 162 137.5 164.448452 139.948452 162 141 163.051548 138.551548 165.5 141 167.948452 139.948452 169"></polygon>
                    <polygon id="Path" fill="#0052FF" transform="translate(141.500000, 152.500000) scale(-1, 1) translate(-141.500000, -152.500000) " points="141.5 153.551548 139.051548 156 138 154.948452 140.448452 152.5 138 150.051548 139.051548 149 141.5 151.448452 143.948452 149 145 150.051548 142.551548 152.5 145 154.948452 143.948452 156"></polygon>
                    <polygon id="Path" fill="#0052FF" transform="translate(155.500000, 137.500000) scale(-1, 1) translate(-155.500000, -137.500000) " points="155.5 138.551548 153.051548 141 152 139.948452 154.448452 137.5 152 135.051548 153.051548 134 155.5 136.448452 157.948452 134 159 135.051548 156.551548 137.5 159 139.948452 157.948452 141"></polygon>
                    <polygon id="Path" fill="#0052FF" transform="translate(126.500000, 124.500000) scale(-1, 1) translate(-126.500000, -124.500000) " points="126.5 125.551548 124.051548 128 123 126.948452 125.448452 124.5 123 122.051548 124.051548 121 126.5 123.448452 128.948452 121 130 122.051548 127.551548 124.5 130 126.948452 128.948452 128"></polygon>
                    <polygon id="Path" fill="#0052FF" transform="translate(99.500000, 151.500000) scale(-1, 1) translate(-99.500000, -151.500000) " points="99.5 152.551548 97.0515477 155 96 153.948452 98.4484523 151.5 96 149.051548 97.0515477 148 99.5 150.448452 101.948452 148 103 149.051548 100.551548 151.5 103 153.948452 101.948452 155"></polygon>
                    <polygon id="Path" fill="#0052FF" transform="translate(93.500000, 158.500000) scale(-1, 1) translate(-93.500000, -158.500000) " points="93.5 159.551548 91.0515477 162 90 160.948452 92.4484523 158.5 90 156.051548 91.0515477 155 93.5 157.448452 95.9484523 155 97 156.051548 94.5515477 158.5 97 160.948452 95.9484523 162"></polygon>
                    <polygon id="Path" fill="#0052FF" transform="translate(97.500000, 145.500000) scale(-1, 1) translate(-97.500000, -145.500000) " points="97.5 146.551548 95.0515477 149 94 147.948452 96.4484523 145.5 94 143.051548 95.0515477 142 97.5 144.448452 99.9484523 142 101 143.051548 98.5515477 145.5 101 147.948452 99.9484523 149"></polygon>
                    <polygon id="Path" fill="#0052FF" transform="translate(88.500000, 154.500000) scale(-1, 1) translate(-88.500000, -154.500000) " points="88.5 155.551548 86.0515477 158 85 156.948452 87.4484523 154.5 85 152.051548 86.0515477 151 88.5 153.448452 90.9484523 151 92 152.051548 89.5515477 154.5 92 156.948452 90.9484523 158"></polygon>
                    <polygon id="Path" fill="#0052FF" transform="translate(82.500000, 154.500000) scale(-1, 1) translate(-82.500000, -154.500000) " points="82.5 155.551548 80.0515477 158 79 156.948452 81.4484523 154.5 79 152.051548 80.0515477 151 82.5 153.448452 84.9484523 151 86 152.051548 83.5515477 154.5 86 156.948452 84.9484523 158"></polygon>
                    <polygon id="Path" fill="#0052FF" transform="translate(67.500000, 193.500000) scale(-1, 1) translate(-67.500000, -193.500000) " points="67.5 194.551548 65.0515477 197 64 195.948452 66.4484523 193.5 64 191.051548 65.0515477 190 67.5 192.448452 69.9484523 190 71 191.051548 68.5515477 193.5 71 195.948452 69.9484523 197"></polygon>
                    <polygon id="Path" fill="#0052FF" transform="translate(82.500000, 181.500000) scale(-1, 1) translate(-82.500000, -181.500000) " points="82.5 182.551548 80.0515477 185 79 183.948452 81.4484523 181.5 79 179.051548 80.0515477 178 82.5 180.448452 84.9484523 178 86 179.051548 83.5515477 181.5 86 183.948452 84.9484523 185"></polygon>
                    <polygon id="Path" fill="#0052FF" transform="translate(72.500000, 206.500000) scale(-1, 1) translate(-72.500000, -206.500000) " points="72.5 207.551548 70.0515477 210 69 208.948452 71.4484523 206.5 69 204.051548 70.0515477 203 72.5 205.448452 74.9484523 203 76 204.051548 73.5515477 206.5 76 208.948452 74.9484523 210"></polygon>
                    <polygon id="Path" fill="#0052FF" transform="translate(63.500000, 233.500000) scale(-1, 1) translate(-63.500000, -233.500000) " points="63.5 234.551548 61.0515477 237 60 235.948452 62.4484523 233.5 60 231.051548 61.0515477 230 63.5 232.448452 65.9484523 230 67 231.051548 64.5515477 233.5 67 235.948452 65.9484523 237"></polygon>
                    <polygon id="Path" fill="#0052FF" transform="translate(78.500000, 209.500000) scale(-1, 1) translate(-78.500000, -209.500000) " points="78.5 210.551548 76.0515477 213 75 211.948452 77.4484523 209.5 75 207.051548 76.0515477 206 78.5 208.448452 80.9484523 206 82 207.051548 79.5515477 209.5 82 211.948452 80.9484523 213"></polygon>
                    <polygon id="Path" fill="#0052FF" points="221.5 133.551548 219.051548 136 218 134.948452 220.448452 132.5 218 130.051548 219.051548 129 221.5 131.448452 223.948452 129 225 130.051548 222.551548 132.5 225 134.948452 223.948452 136"></polygon>
                    <polygon id="Path" fill="#0052FF" points="212.5 124.551548 210.051548 127 209 125.948452 211.448452 123.5 209 121.051548 210.051548 120 212.5 122.448452 214.948452 120 216 121.051548 213.551548 123.5 216 125.948452 214.948452 127"></polygon>
                    <polygon id="Path" fill="#0052FF" points="219.5 117.551548 217.051548 120 216 118.948452 218.448452 116.5 216 114.051548 217.051548 113 219.5 115.448452 221.948452 113 223 114.051548 220.551548 116.5 223 118.948452 221.948452 120"></polygon>
                    <polygon id="Path" fill="#0052FF" points="176.5 115.551548 174.051548 118 173 116.948452 175.448452 114.5 173 112.051548 174.051548 111 176.5 113.448452 178.948452 111 180 112.051548 177.551548 114.5 180 116.948452 178.948452 118"></polygon>
                    <polygon id="Path" fill="#0052FF" points="184.5 116.551548 182.051548 119 181 117.948452 183.448452 115.5 181 113.051548 182.051548 112 184.5 114.448452 186.948452 112 188 113.051548 185.551548 115.5 188 117.948452 186.948452 119"></polygon>
                    <polygon id="Path" fill="#0052FF" points="227.5 139.551548 225.051548 142 224 140.948452 226.448452 138.5 224 136.051548 225.051548 135 227.5 137.448452 229.948452 135 231 136.051548 228.551548 138.5 231 140.948452 229.948452 142"></polygon>
                    <polygon id="Path" fill="#0052FF" points="245.5 133.551548 243.051548 136 242 134.948452 244.448452 132.5 242 130.051548 243.051548 129 245.5 131.448452 247.948452 129 249 130.051548 246.551548 132.5 249 134.948452 247.948452 136"></polygon>
                    <path d="M55.932,0.896 L58.942,9.352 L61.994,0.896 L63.38,0.896 L59.754,10.766 L58.144,10.766 L54.532,0.896 L55.932,0.896 Z M64.444,0.826 C64.444,0.5926655 64.5233325,0.40366739 64.682,0.259 C64.8406675,0.11433261 65.0506654,0.042 65.312,0.042 C65.5733346,0.042 65.7833325,0.11433261 65.942,0.259 C66.1006675,0.40366739 66.18,0.5926655 66.18,0.826 C66.18,1.0593345 66.1006675,1.24833261 65.942,1.393 C65.7833325,1.53766739 65.5733346,1.61 65.312,1.61 C65.0506654,1.61 64.8406675,1.53766739 64.682,1.393 C64.5233325,1.24833261 64.444,1.0593345 64.444,0.826 Z M65.942,3.08 L65.942,10.766 L64.668,10.766 L64.668,3.08 L65.942,3.08 Z M72.228,2.982 C72.9093367,2.982 73.5159973,3.14066508 74.048,3.458 C74.5800027,3.77533492 74.9976651,4.23266368 75.301,4.83 C75.6043348,5.42733632 75.756,6.12732932 75.756,6.93 C75.756,7.73267068 75.6043348,8.43033037 75.301,9.023 C74.9976651,9.61566963 74.5800027,10.0706651 74.048,10.388 C73.5159973,10.7053349 72.9093367,10.864 72.228,10.864 C71.4813296,10.864 70.8490026,10.6750019 70.331,10.297 C69.8129974,9.91899811 69.456001,9.42200308 69.26,8.806 L69.26,10.766 L67.986,10.766 L67.986,0.406 L69.26,0.406 L69.26,5.04 C69.456001,4.42399692 69.8129974,3.92700189 70.331,3.549 C70.8490026,3.17099811 71.4813296,2.982 72.228,2.982 Z M71.864,4.116 C71.3693309,4.116 70.9213353,4.23033219 70.52,4.459 C70.1186647,4.68766781 69.8060011,5.01666452 69.582,5.446 C69.3579989,5.87533548 69.246,6.3699972 69.246,6.93 C69.246,7.4900028 69.3579989,7.98233121 69.582,8.407 C69.8060011,8.83166879 70.1186647,9.1606655 70.52,9.394 C70.9213353,9.6273345 71.3693309,9.744 71.864,9.744 C72.6573373,9.744 73.2896643,9.49433583 73.761,8.995 C74.2323357,8.49566417 74.468,7.80733772 74.468,6.93 C74.468,6.05266228 74.2323357,5.36433583 73.761,4.865 C73.2896643,4.36566417 72.6573373,4.116 71.864,4.116 Z M78.696,4.634 C78.9480013,4.10199734 79.3166642,3.68900147 79.802,3.395 C80.2873358,3.10099853 80.8659966,2.954 81.538,2.954 L81.538,4.34 L81.146,4.34 C80.4273297,4.34 79.8393356,4.52433149 79.382,4.893 C78.9246644,5.26166851 78.696,5.87066242 78.696,6.72 L78.696,10.766 L77.422,10.766 L77.422,3.08 L78.696,3.08 L78.696,4.634 Z M85.948,2.982 C86.6946704,2.982 87.3269974,3.1686648 87.845,3.542 C88.3630026,3.9153352 88.7246656,4.41466354 88.93,5.04 L88.93,3.08 L90.204,3.08 L90.204,10.766 L88.93,10.766 L88.93,8.806 C88.7246656,9.43133646 88.3630026,9.9306648 87.845,10.304 C87.3269974,10.6773352 86.6946704,10.864 85.948,10.864 C85.2666633,10.864 84.6600027,10.7053349 84.128,10.388 C83.5959973,10.0706651 83.1783348,9.61566963 82.875,9.023 C82.5716651,8.43033037 82.42,7.73267068 82.42,6.93 C82.42,6.12732932 82.5716651,5.42733632 82.875,4.83 C83.1783348,4.23266368 83.5959973,3.77533492 84.128,3.458 C84.6600027,3.14066508 85.2666633,2.982 85.948,2.982 Z M86.312,4.116 C85.5279961,4.116 84.9003357,4.36566417 84.429,4.865 C83.9576643,5.36433583 83.722,6.05266228 83.722,6.93 C83.722,7.80733772 83.9576643,8.49566417 84.429,8.995 C84.9003357,9.49433583 85.5279961,9.744 86.312,9.744 C86.8160025,9.744 87.2663313,9.6273345 87.663,9.394 C88.0596686,9.1606655 88.3699989,8.83166879 88.594,8.407 C88.8180011,7.98233121 88.93,7.4900028 88.93,6.93 C88.93,6.3699972 88.8180011,5.87533548 88.594,5.446 C88.3699989,5.01666452 88.0596686,4.68766781 87.663,4.459 C87.2663313,4.23033219 86.8160025,4.116 86.312,4.116 Z M95.902,9.646 L95.902,10.766 L94.95,10.766 C94.1659961,10.766 93.5803353,10.5793352 93.193,10.206 C92.8056647,9.8326648 92.612,9.20733772 92.612,8.33 L92.612,4.186 L91.464,4.186 L91.464,3.08 L92.612,3.08 L92.612,1.162 L93.9,1.162 L93.9,3.08 L95.888,3.08 L95.888,4.186 L93.9,4.186 L93.9,8.358 C93.9,8.85266914 93.9909991,9.19099909 94.173,9.373 C94.3550009,9.55500091 94.6699978,9.646 95.118,9.646 L95.902,9.646 Z M97.232,0.826 C97.232,0.5926655 97.3113325,0.40366739 97.47,0.259 C97.6286675,0.11433261 97.8386654,0.042 98.1,0.042 C98.3613346,0.042 98.5713325,0.11433261 98.73,0.259 C98.8886675,0.40366739 98.968,0.5926655 98.968,0.826 C98.968,1.0593345 98.8886675,1.24833261 98.73,1.393 C98.5713325,1.53766739 98.3613346,1.61 98.1,1.61 C97.8386654,1.61 97.6286675,1.53766739 97.47,1.393 C97.3113325,1.24833261 97.232,1.0593345 97.232,0.826 Z M98.73,3.08 L98.73,10.766 L97.456,10.766 L97.456,3.08 L98.73,3.08 Z M104.26,2.982 C104.997337,2.982 105.657664,3.14066508 106.241,3.458 C106.824336,3.77533492 107.281665,4.23266368 107.613,4.83 C107.944335,5.42733632 108.11,6.12732932 108.11,6.93 C108.11,7.73267068 107.944335,8.43033037 107.613,9.023 C107.281665,9.61566963 106.824336,10.0706651 106.241,10.388 C105.657664,10.7053349 104.997337,10.864 104.26,10.864 C103.522663,10.864 102.862336,10.7053349 102.279,10.388 C101.695664,10.0706651 101.236002,9.61566963 100.9,9.023 C100.563998,8.43033037 100.396,7.73267068 100.396,6.93 C100.396,6.12732932 100.563998,5.42733632 100.9,4.83 C101.236002,4.23266368 101.695664,3.77533492 102.279,3.458 C102.862336,3.14066508 103.522663,2.982 104.26,2.982 Z M104.26,4.102 C103.802664,4.102 103.380335,4.20466564 102.993,4.41 C102.605665,4.61533436 102.293001,4.93033121 102.055,5.355 C101.816999,5.77966879 101.698,6.30466354 101.698,6.93 C101.698,7.54600308 101.816999,8.06633121 102.055,8.491 C102.293001,8.91566879 102.605665,9.23066564 102.993,9.436 C103.380335,9.64133436 103.802664,9.744 104.26,9.744 C104.717336,9.744 105.139665,9.64133436 105.527,9.436 C105.914335,9.23066564 106.226999,8.91566879 106.465,8.491 C106.703001,8.06633121 106.822,7.54600308 106.822,6.93 C106.822,6.30466354 106.703001,5.77966879 106.465,5.355 C106.226999,4.93033121 105.914335,4.61533436 105.527,4.41 C105.139665,4.20466564 104.717336,4.102 104.26,4.102 Z M113.822,2.954 C114.718004,2.954 115.441331,3.24099713 115.992,3.815 C116.542669,4.38900287 116.818,5.21732792 116.818,6.3 L116.818,10.766 L115.544,10.766 L115.544,6.412 C115.544,5.64666284 115.348002,5.05866872 114.956,4.648 C114.563998,4.23733128 114.032003,4.032 113.36,4.032 C112.659996,4.032 112.100002,4.25833107 111.68,4.711 C111.259998,5.16366893 111.05,5.82399566 111.05,6.692 L111.05,10.766 L109.776,10.766 L109.776,3.08 L111.05,3.08 L111.05,4.9 C111.246001,4.27466354 111.593664,3.79400168 112.093,3.458 C112.592336,3.12199832 113.168663,2.954 113.822,2.954 Z" id="Vibration" fill="#8B8B8B"></path>
                    <path d="M235.274,309.894 L235.274,313.87 L234,313.87 L234,304 L237.136,304 C238.265339,304 239.109997,304.263664 239.67,304.791 C240.230003,305.318336 240.51,306.039329 240.51,306.954 C240.51,307.878005 240.22067,308.598997 239.642,309.117 C239.06333,309.635003 238.228005,309.894 237.136,309.894 L235.274,309.894 Z M237.024,308.83 C237.798671,308.83 238.356332,308.666668 238.697,308.34 C239.037668,308.013332 239.208,307.551336 239.208,306.954 C239.208,306.337997 239.037668,305.869002 238.697,305.547 C238.356332,305.224998 237.798671,305.064 237.024,305.064 L235.274,305.064 L235.274,308.83 L237.024,308.83 Z M243.268,307.738 C243.520001,307.205997 243.888664,306.793001 244.374,306.499 C244.859336,306.204999 245.437997,306.058 246.11,306.058 L246.11,307.444 L245.718,307.444 C244.99933,307.444 244.411336,307.628331 243.954,307.997 C243.496664,308.365669 243.268,308.974662 243.268,309.824 L243.268,313.87 L241.994,313.87 L241.994,306.184 L243.268,306.184 L243.268,307.738 Z M254.44,309.6 C254.44,309.870668 254.421334,310.103999 254.384,310.3 L248.238,310.3 C248.266,311.177338 248.515664,311.835331 248.987,312.274 C249.458336,312.712669 250.034663,312.932 250.716,312.932 C251.332003,312.932 251.847665,312.775668 252.263,312.463 C252.678335,312.150332 252.932666,311.732669 253.026,311.21 L254.384,311.21 C254.290666,311.742003 254.083002,312.217998 253.761,312.638 C253.438998,313.058002 253.021336,313.384665 252.508,313.618 C251.994664,313.851334 251.416003,313.968 250.772,313.968 C250.034663,313.968 249.381336,313.809335 248.812,313.492 C248.242664,313.174665 247.797002,312.71967 247.475,312.127 C247.152998,311.53433 246.992,310.836671 246.992,310.034 C246.992,309.231329 247.152998,308.531336 247.475,307.934 C247.797002,307.336664 248.242664,306.879335 248.812,306.562 C249.381336,306.244665 250.034663,306.086 250.772,306.086 C251.51867,306.086 252.169664,306.244665 252.725,306.562 C253.280336,306.879335 253.704999,307.303997 253.999,307.836 C254.293001,308.368003 254.44,308.955997 254.44,309.6 Z M253.152,309.684 C253.18,309.114664 253.086668,308.638669 252.872,308.256 C252.657332,307.873331 252.363335,307.588668 251.99,307.402 C251.616665,307.215332 251.210669,307.122 250.772,307.122 C250.071996,307.122 249.484002,307.338998 249.008,307.773 C248.531998,308.207002 248.275334,308.843996 248.238,309.684 L253.152,309.684 Z M258.514,306.086 C259.382004,306.086 260.079664,306.312331 260.607,306.765 C261.134336,307.217669 261.453999,307.826663 261.566,308.592 L260.348,308.592 C260.292,308.134664 260.103002,307.759001 259.781,307.465 C259.458998,307.170999 259.027336,307.024 258.486,307.024 C258.028664,307.024 257.671668,307.133666 257.415,307.353 C257.158332,307.572334 257.03,307.868665 257.03,308.242 C257.03,308.522001 257.116332,308.748332 257.289,308.921 C257.461668,309.093668 257.676332,309.224333 257.933,309.313 C258.189668,309.401667 258.541998,309.497333 258.99,309.6 C259.559336,309.730667 260.018998,309.863666 260.369,309.999 C260.719002,310.134334 261.017665,310.351332 261.265,310.65 C261.512335,310.948668 261.636,311.349997 261.636,311.854 C261.636,312.479336 261.400336,312.987998 260.929,313.38 C260.457664,313.772002 259.830004,313.968 259.046,313.968 C258.131329,313.968 257.38467,313.748669 256.806,313.31 C256.22733,312.871331 255.886667,312.260004 255.784,311.476 L257.016,311.476 C257.062667,311.942669 257.265665,312.320665 257.625,312.61 C257.984335,312.899335 258.457997,313.044 259.046,313.044 C259.484669,313.044 259.827665,312.932001 260.075,312.708 C260.322335,312.483999 260.446,312.190002 260.446,311.826 C260.446,311.527332 260.357334,311.289334 260.18,311.112 C260.002666,310.934666 259.783335,310.799334 259.522,310.706 C259.260665,310.612666 258.901336,310.514667 258.444,310.412 C257.874664,310.281333 257.419668,310.150667 257.079,310.02 C256.738332,309.889333 256.449001,309.681668 256.211,309.397 C255.972999,309.112332 255.854,308.727336 255.854,308.242 C255.854,307.597997 256.091998,307.077669 256.568,306.681 C257.044002,306.284331 257.692663,306.086 258.514,306.086 Z M265.752,306.086 C266.620004,306.086 267.317664,306.312331 267.845,306.765 C268.372336,307.217669 268.691999,307.826663 268.804,308.592 L267.586,308.592 C267.53,308.134664 267.341002,307.759001 267.019,307.465 C266.696998,307.170999 266.265336,307.024 265.724,307.024 C265.266664,307.024 264.909668,307.133666 264.653,307.353 C264.396332,307.572334 264.268,307.868665 264.268,308.242 C264.268,308.522001 264.354332,308.748332 264.527,308.921 C264.699668,309.093668 264.914332,309.224333 265.171,309.313 C265.427668,309.401667 265.779998,309.497333 266.228,309.6 C266.797336,309.730667 267.256998,309.863666 267.607,309.999 C267.957002,310.134334 268.255665,310.351332 268.503,310.65 C268.750335,310.948668 268.874,311.349997 268.874,311.854 C268.874,312.479336 268.638336,312.987998 268.167,313.38 C267.695664,313.772002 267.068004,313.968 266.284,313.968 C265.369329,313.968 264.62267,313.748669 264.044,313.31 C263.46533,312.871331 263.124667,312.260004 263.022,311.476 L264.254,311.476 C264.300667,311.942669 264.503665,312.320665 264.863,312.61 C265.222335,312.899335 265.695997,313.044 266.284,313.044 C266.722669,313.044 267.065665,312.932001 267.313,312.708 C267.560335,312.483999 267.684,312.190002 267.684,311.826 C267.684,311.527332 267.595334,311.289334 267.418,311.112 C267.240666,310.934666 267.021335,310.799334 266.76,310.706 C266.498665,310.612666 266.139336,310.514667 265.682,310.412 C265.112664,310.281333 264.657668,310.150667 264.317,310.02 C263.976332,309.889333 263.687001,309.681668 263.449,309.397 C263.210999,309.112332 263.092,308.727336 263.092,308.242 C263.092,307.597997 263.329998,307.077669 263.806,306.681 C264.282002,306.284331 264.930663,306.086 265.752,306.086 Z M277.414,306.184 L277.414,313.87 L276.14,313.87 L276.14,312.064 C275.943999,312.689336 275.596336,313.167665 275.097,313.499 C274.597664,313.830335 274.01667,313.996 273.354,313.996 C272.467329,313.996 271.748669,313.709003 271.198,313.135 C270.647331,312.560997 270.372,311.737339 270.372,310.664 L270.372,306.184 L271.646,306.184 L271.646,310.538 C271.646,311.303337 271.841998,311.893665 272.234,312.309 C272.626002,312.724335 273.157997,312.932 273.83,312.932 C274.530003,312.932 275.089998,312.705669 275.51,312.253 C275.930002,311.800331 276.14,311.140004 276.14,310.272 L276.14,306.184 L277.414,306.184 Z M280.732,307.738 C280.984001,307.205997 281.352664,306.793001 281.838,306.499 C282.323336,306.204999 282.901997,306.058 283.574,306.058 L283.574,307.444 L283.182,307.444 C282.46333,307.444 281.875336,307.628331 281.418,307.997 C280.960664,308.365669 280.732,308.974662 280.732,309.824 L280.732,313.87 L279.458,313.87 L279.458,306.184 L280.732,306.184 L280.732,307.738 Z M291.904,309.6 C291.904,309.870668 291.885334,310.103999 291.848,310.3 L285.702,310.3 C285.73,311.177338 285.979664,311.835331 286.451,312.274 C286.922336,312.712669 287.498663,312.932 288.18,312.932 C288.796003,312.932 289.311665,312.775668 289.727,312.463 C290.142335,312.150332 290.396666,311.732669 290.49,311.21 L291.848,311.21 C291.754666,311.742003 291.547002,312.217998 291.225,312.638 C290.902998,313.058002 290.485336,313.384665 289.972,313.618 C289.458664,313.851334 288.880003,313.968 288.236,313.968 C287.498663,313.968 286.845336,313.809335 286.276,313.492 C285.706664,313.174665 285.261002,312.71967 284.939,312.127 C284.616998,311.53433 284.456,310.836671 284.456,310.034 C284.456,309.231329 284.616998,308.531336 284.939,307.934 C285.261002,307.336664 285.706664,306.879335 286.276,306.562 C286.845336,306.244665 287.498663,306.086 288.236,306.086 C288.98267,306.086 289.633664,306.244665 290.189,306.562 C290.744336,306.879335 291.168999,307.303997 291.463,307.836 C291.757001,308.368003 291.904,308.955997 291.904,309.6 Z M290.616,309.684 C290.644,309.114664 290.550668,308.638669 290.336,308.256 C290.121332,307.873331 289.827335,307.588668 289.454,307.402 C289.080665,307.215332 288.674669,307.122 288.236,307.122 C287.535996,307.122 286.948002,307.338998 286.472,307.773 C285.995998,308.207002 285.739334,308.843996 285.702,309.684 L290.616,309.684 Z" id="Pressure" fill="#8B8B8B"></path>
                    <path d="M32,267.986072 C32,266.416891 32.2608091,265.193598 32.7824351,264.316156 C33.3040612,263.438714 34.2075784,263 35.493014,263 C36.7784495,263 37.6842954,263.441036 38.2105788,264.32312 C38.7368622,265.205204 39,266.426176 39,267.986072 C39,269.564539 38.7368622,270.794796 38.2105788,271.67688 C37.6842954,272.558964 36.7784495,273 35.493014,273 C34.2075784,273 33.3040612,272.558964 32.7824351,271.67688 C32.2608091,270.794796 32,269.564539 32,267.986072 Z M37.742515,267.986072 C37.742515,267.187554 37.6842987,266.519037 37.5678643,265.980501 C37.4514299,265.441966 37.2302079,265.012536 36.9041916,264.692201 C36.5781753,264.371865 36.1077875,264.211699 35.493014,264.211699 C34.8875552,264.211699 34.4218247,264.371865 34.0958084,264.692201 C33.7697921,265.012536 33.5485701,265.441966 33.4321357,265.980501 C33.3157013,266.519037 33.257485,267.187554 33.257485,267.986072 C33.257485,268.793876 33.3157013,269.469357 33.4321357,270.012535 C33.5485701,270.555713 33.7697921,270.989785 34.0958084,271.314763 C34.4218247,271.639742 34.8875552,271.802228 35.493014,271.802228 C36.1077875,271.802228 36.5781753,271.639742 36.9041916,271.314763 C37.2302079,270.989785 37.4514299,270.555713 37.5678643,270.012535 C37.6842987,269.469357 37.742515,268.793876 37.742515,267.986072 Z" id="0" fill="#8B8B8B"></path>
                    <path d="M0,251.946648 C1.55159506,250.906972 2.79285249,249.87415 3.72380952,248.848153 C4.65476656,247.822156 5.1202381,246.866853 5.1202381,245.982216 C5.1202381,245.435018 4.98105298,244.994986 4.70267857,244.662107 C4.42430416,244.329228 3.97480469,244.162791 3.35416667,244.162791 C2.71527458,244.162791 2.23154926,244.365707 1.90297619,244.771546 C1.57440312,245.177385 1.39186526,245.735975 1.35535714,246.447332 L0.123214286,246.447332 C0.187103494,245.371176 0.520235083,244.543551 1.12261905,243.964432 C1.72500301,243.385314 2.5007889,243.095759 3.45,243.095759 C4.35357595,243.095759 5.07003704,243.337435 5.59940476,243.820793 C6.12877249,244.304152 6.39345238,244.98814 6.39345238,245.872777 C6.39345238,246.602375 6.15843489,247.343361 5.68839286,248.095759 C5.21835082,248.848157 4.62966624,249.545824 3.92232143,250.188782 C3.21497662,250.831741 2.48710692,251.376651 1.73869048,251.823529 L6.63988095,251.823529 L6.63988095,252.849521 L0,252.849521 L0,251.946648 Z M11.2809524,243 C11.9015904,243 12.4355136,243.109438 12.8827381,243.328317 C13.3299626,243.547197 13.6676576,243.848151 13.8958333,244.23119 C14.1240091,244.614229 14.2380952,245.047421 14.2380952,245.53078 C14.2380952,246.132698 14.0624026,246.638849 13.7110119,247.049248 C13.3596213,247.459646 12.8462335,247.705882 12.1708333,247.787962 L12.1708333,247.870041 C12.8736146,248.05244 13.4235099,248.335155 13.8205357,248.718194 C14.2175615,249.101233 14.4160714,249.630184 14.4160714,250.305062 C14.4160714,251.098499 14.1513915,251.746008 13.6220238,252.247606 C13.0926561,252.749205 12.3305605,253 11.3357143,253 C10.340868,253 9.53541975,252.742365 8.91934524,252.227086 C8.30327073,251.711808 7.94047674,250.957141 7.83095238,249.963064 L9.06309524,249.963064 C9.14523851,250.564982 9.37569255,251.043774 9.75446429,251.399453 C10.133236,251.755132 10.6466237,251.932969 11.2946429,251.932969 C11.9061539,251.932969 12.3761888,251.775651 12.7047619,251.461012 C13.033335,251.146373 13.197619,250.738261 13.197619,250.236662 C13.197619,249.634744 12.9626016,249.176472 12.4925595,248.861833 C12.0225175,248.547194 11.3539726,248.389877 10.4869048,248.389877 L10.1583333,248.389877 L10.1583333,247.350205 L10.4869048,247.350205 C12.1662782,247.350205 13.0059524,246.789335 13.0059524,245.667579 C13.0059524,245.1751 12.8507952,244.782947 12.5404762,244.491108 C12.2301572,244.199269 11.8011932,244.053352 11.2535714,244.053352 C10.7059496,244.053352 10.2450416,244.210669 9.87083333,244.525308 C9.49662511,244.839947 9.27757968,245.302779 9.21369048,245.913817 L7.9952381,245.913817 C8.0591273,245.001819 8.37628683,244.288192 8.94672619,243.772914 C9.51716555,243.257635 10.2952332,243 11.2809524,243 Z M22.5345238,244.24487 L17.5785714,244.24487 L17.5785714,247.473324 C17.8067472,247.163245 18.1353153,246.91701 18.5642857,246.73461 C18.9932561,246.552211 19.4632911,246.461012 19.9744048,246.461012 C20.658932,246.461012 21.2270811,246.60465 21.678869,246.891929 C22.130657,247.179208 22.4637886,247.557681 22.6782738,248.02736 C22.892759,248.497038 23,249.019149 23,249.593707 C23,250.587784 22.7216298,251.39945 22.164881,252.028728 C21.6081321,252.658006 20.7912752,252.97264 19.7142857,252.97264 C18.7468206,252.97264 17.9573443,252.710445 17.3458333,252.186047 C16.7343223,251.661648 16.3920639,250.957141 16.3190476,250.072503 L17.5511905,250.072503 C17.6515878,250.637942 17.8866053,251.077974 18.25625,251.392613 C18.6258947,251.707252 19.093648,251.864569 19.6595238,251.864569 C20.3623051,251.864569 20.8916649,251.654813 21.247619,251.235294 C21.6035732,250.815775 21.7815476,250.264025 21.7815476,249.580027 C21.7815476,248.914269 21.5990098,248.394439 21.2339286,248.02052 C20.8688474,247.646601 20.3531779,247.459644 19.6869048,247.459644 C19.2122992,247.459644 18.7970256,247.562242 18.4410714,247.767442 C18.0851173,247.972641 17.8158739,248.248516 17.6333333,248.595075 L16.4285714,248.595075 L16.4285714,243.136799 L22.5345238,243.136799 L22.5345238,244.24487 Z" id="235" fill="#8B8B8B"></path>
                    <path d="M2,203.946648 C3.49686283,202.906972 4.69433513,201.87415 5.59245283,200.848153 C6.49057053,199.822156 6.93962264,198.866853 6.93962264,197.982216 C6.93962264,197.435018 6.80534725,196.994986 6.53679245,196.662107 C6.26823765,196.329228 5.83459419,196.162791 5.23584906,196.162791 C4.61949377,196.162791 4.15283177,196.365707 3.83584906,196.771546 C3.51886634,197.177385 3.34276747,197.735975 3.30754717,198.447332 L2.11886792,198.447332 C2.18050345,197.371176 2.50188389,196.543551 3.08301887,195.964432 C3.66415385,195.385314 4.41257404,195.095759 5.32830189,195.095759 C6.20000436,195.095759 6.89119242,195.337435 7.40188679,195.820793 C7.91258117,196.304152 8.16792453,196.98814 8.16792453,197.872777 C8.16792453,198.602375 7.94119724,199.343361 7.48773585,200.095759 C7.03427446,200.848157 6.46635561,201.545824 5.78396226,202.188782 C5.10156892,202.831741 4.39937468,203.376651 3.67735849,203.823529 L8.40566038,203.823529 L8.40566038,204.849521 L2,204.849521 L2,203.946648 Z M12.8830189,195 C13.481764,195 13.9968532,195.109438 14.4283019,195.328317 C14.8597506,195.547197 15.1855335,195.848151 15.4056604,196.23119 C15.6257873,196.614229 15.7358491,197.047421 15.7358491,197.53078 C15.7358491,198.132698 15.5663539,198.638849 15.2273585,199.049248 C14.8883631,199.459646 14.393085,199.705882 13.7415094,199.787962 L13.7415094,199.870041 C14.4195002,200.05244 14.9499981,200.335155 15.3330189,200.718194 C15.7160397,201.101233 15.9075472,201.630184 15.9075472,202.305062 C15.9075472,203.098499 15.6522038,203.746008 15.1415094,204.247606 C14.6308151,204.749205 13.8956023,205 12.9358491,205 C11.9760958,205 11.1990596,204.742365 10.604717,204.227086 C10.0103744,203.711808 9.66037789,202.957141 9.55471698,201.963064 L10.7433962,201.963064 C10.8226419,202.564982 11.0449667,203.043774 11.4103774,203.399453 C11.775788,203.755132 12.2710661,203.932969 12.8962264,203.932969 C13.4861665,203.932969 13.9396211,203.775651 14.2566038,203.461012 C14.5735865,203.146373 14.7320755,202.738261 14.7320755,202.236662 C14.7320755,201.634744 14.5053482,201.176472 14.0518868,200.861833 C13.5984254,200.547194 12.9534633,200.389877 12.1169811,200.389877 L11.8,200.389877 L11.8,199.350205 L12.1169811,199.350205 C13.737115,199.350205 14.5471698,198.789335 14.5471698,197.667579 C14.5471698,197.1751 14.3974858,196.782947 14.0981132,196.491108 C13.7987406,196.199269 13.3849083,196.053352 12.8566038,196.053352 C12.3282992,196.053352 11.8836496,196.210669 11.5226415,196.525308 C11.1616334,196.839947 10.9503148,197.302779 10.8886792,197.913817 L9.71320755,197.913817 C9.77484308,197.001819 10.0808149,196.288192 10.6311321,195.772914 C11.1814493,195.257635 11.9320707,195 12.8830189,195 Z M23,196.162791 L19.4735849,204.904241 L18.2056604,204.904241 L21.7849057,196.28591 L16.8981132,196.28591 L16.8981132,195.205198 L23,195.205198 L23,196.162791 Z" id="237" fill="#8B8B8B"></path>
                    <path d="M1,155.934426 C2.49660612,154.89617 3.69387306,153.864759 4.59183673,152.840164 C5.48980041,151.815569 5.93877551,150.861571 5.93877551,149.978142 C5.93877551,149.431691 5.80452315,148.99226 5.53601441,148.659836 C5.26750566,148.327412 4.83393657,148.161202 4.23529412,148.161202 C3.61904454,148.161202 3.15246257,148.363841 2.83553421,148.769126 C2.51860586,149.17441 2.34253719,149.732237 2.30732293,150.442623 L1.11884754,150.442623 C1.1804725,149.367936 1.50179782,148.541442 2.08283313,147.963115 C2.66386845,147.384788 3.41216029,147.095628 4.32773109,147.095628 C5.19928407,147.095628 5.89035359,147.336974 6.40096038,147.819672 C6.91156718,148.30237 7.16686675,148.985424 7.16686675,149.868852 C7.16686675,150.597454 6.94017834,151.337428 6.48679472,152.088798 C6.0334111,152.840168 5.46558965,153.536882 4.78331333,154.178962 C4.101037,154.821041 3.39896319,155.365207 2.67707083,155.811475 L7.40456182,155.811475 L7.40456182,156.836066 L1,156.836066 L1,155.934426 Z M11.8811525,147 C12.4797949,147 12.9947958,147.109289 13.4261705,147.327869 C13.8575452,147.546449 14.1832722,147.846993 14.4033613,148.229508 C14.6234505,148.612024 14.7334934,149.044624 14.7334934,149.527322 C14.7334934,150.128418 14.5640273,150.633878 14.22509,151.043716 C13.8861528,151.453554 13.3909596,151.699453 12.7394958,151.781421 L12.7394958,151.863388 C13.4173703,152.045538 13.9477772,152.327867 14.3307323,152.710383 C14.7136874,153.092898 14.9051621,153.621126 14.9051621,154.295082 C14.9051621,155.087436 14.6498625,155.734059 14.1392557,156.234973 C13.6286489,156.735886 12.8935622,156.986339 11.9339736,156.986339 C10.974385,156.986339 10.197482,156.729055 9.6032413,156.214481 C9.00900063,155.699906 8.65906415,154.946271 8.55342137,153.953552 L9.74189676,153.953552 C9.82112885,154.554648 10.0434155,155.032785 10.4087635,155.387978 C10.7741115,155.743171 11.2693046,155.920765 11.8943577,155.920765 C12.4841966,155.920765 12.9375734,155.763663 13.2545018,155.449454 C13.5714302,155.135244 13.729892,154.727689 13.729892,154.226776 C13.729892,153.62568 13.5032035,153.168034 13.0498199,152.853825 C12.5964363,152.539616 11.9515848,152.382514 11.1152461,152.382514 L10.7983193,152.382514 L10.7983193,151.344262 L11.1152461,151.344262 C12.7351021,151.344262 13.545018,150.784159 13.545018,149.663934 C13.545018,149.172129 13.3953596,148.780511 13.0960384,148.489071 C12.7967172,148.197631 12.3829558,148.051913 11.8547419,148.051913 C11.326528,148.051913 10.8819546,148.209015 10.5210084,148.523224 C10.1600622,148.837433 9.94877982,149.299633 9.88715486,149.909836 L8.71188475,149.909836 C8.77350971,148.999085 9.07942902,148.286432 9.62965186,147.771858 C10.1798747,147.257283 10.9303674,147 11.8811525,147 Z M17.8235294,154.185792 C17.9027615,154.759566 18.096437,155.201273 18.4045618,155.510929 C18.7126866,155.820584 19.1352514,155.97541 19.6722689,155.97541 C20.4117684,155.97541 20.9707864,155.67942 21.3493397,155.087432 C21.727893,154.495443 21.9171669,153.557383 21.9171669,152.273224 C21.9171669,152.027321 21.9127652,151.84062 21.9039616,151.713115 C21.7807117,152.259566 21.4813949,152.69672 21.0060024,153.02459 C20.5306099,153.352461 19.9715918,153.516393 19.3289316,153.516393 C18.4045572,153.516393 17.6782739,153.229511 17.15006,152.655738 C16.6218461,152.081964 16.3577431,151.280515 16.3577431,150.251366 C16.3577431,149.65027 16.4721877,149.103828 16.7010804,148.612022 C16.9299731,148.120216 17.2799096,147.730876 17.7509004,147.443989 C18.2218911,147.157102 18.8051186,147.013661 19.5006002,147.013661 C20.8387422,147.013661 21.7565001,147.439431 22.2539016,148.290984 C22.751303,149.142536 23,150.310557 23,151.795082 C23,153.48908 22.7447004,154.78005 22.2340936,155.668033 C21.7234868,156.556015 20.8695538,157 19.6722689,157 C18.7831088,157 18.0854367,156.738163 17.5792317,156.214481 C17.0730267,155.690799 16.7759108,155.014576 16.6878752,154.185792 L17.8235294,154.185792 Z M21.785114,150.442623 C21.785114,149.786882 21.5980411,149.231332 21.2238896,148.775956 C20.849738,148.320581 20.2885191,148.092896 19.5402161,148.092896 C18.9239665,148.092896 18.4309742,148.284151 18.0612245,148.666667 C17.6914747,149.049182 17.5066026,149.581964 17.5066026,150.265027 C17.5066026,150.993628 17.6914747,151.553732 18.0612245,151.945355 C18.4309742,152.336978 18.9371717,152.532787 19.5798319,152.532787 C19.9495817,152.532787 20.3039199,152.455374 20.6428571,152.300546 C20.9817944,152.145719 21.2569017,151.908927 21.4681873,151.590164 C21.6794728,151.271401 21.785114,150.888891 21.785114,150.442623 Z" id="239" fill="#8B8B8B"></path>
                    <path d="M5,108.02371 C6.5000075,106.963732 7.6999955,105.910744 8.6,104.864714 C9.5000045,103.818684 9.95,102.844728 9.95,101.942817 C9.95,101.384934 9.81544252,100.93631 9.54632353,100.596932 C9.27720454,100.257553 8.84265006,100.087866 8.24264706,100.087866 C7.62499691,100.087866 7.15735453,100.294745 6.83970588,100.708508 C6.52205724,101.122271 6.34558841,101.691768 6.31029412,102.417015 L5.11911765,102.417015 C5.18088266,101.319846 5.50293826,100.476061 6.08529412,99.8856346 C6.66764997,99.2952086 7.41764247,99 8.33529412,99 C9.2088279,99 9.90146803,99.2463946 10.4132353,99.7391911 C10.9250026,100.231988 11.1808824,100.929331 11.1808824,101.831241 C11.1808824,102.575085 10.9536787,103.33054 10.4992647,104.097629 C10.0448507,104.864718 9.47573871,105.576008 8.79191176,106.23152 C8.10808482,106.887033 7.40441538,107.442583 6.68088235,107.898187 L11.4191176,107.898187 L11.4191176,108.944212 L5,108.944212 L5,108.02371 Z M12.3588235,106.740586 L12.3588235,105.680614 L17.15,99.097629 L18.4470588,99.097629 L18.4470588,105.638773 L19.8235294,105.638773 L19.8235294,106.740586 L18.4470588,106.740586 L18.4470588,109 L17.2294118,109 L17.2294118,106.740586 L12.3588235,106.740586 Z M17.3088235,100.645746 L13.6294118,105.638773 L17.3088235,105.638773 L17.3088235,100.645746 Z M20.3264706,100.352859 L20.3264706,99.167364 L23,99.167364 L23,109 L21.7294118,109 L21.7294118,100.352859 L20.3264706,100.352859 Z" id="241" fill="#8B8B8B"></path>
                    <path d="M0,58.9466484 C1.55808709,57.9069715 2.80453806,56.8741501 3.73939032,55.8481532 C4.67424257,54.8221563 5.14166169,53.8668535 5.14166169,52.9822161 C5.14166169,52.4350178 5.00189421,51.9949857 4.72235505,51.6621067 C4.4428159,51.3292277 3.99143567,51.1627907 3.36820084,51.1627907 C2.72663556,51.1627907 2.24088629,51.365707 1.91093843,51.7715458 C1.58099058,52.1773846 1.39768897,52.7359746 1.36102809,53.4473324 L0.123729827,53.4473324 C0.187886354,52.3711756 0.522411799,51.5435505 1.1273162,50.9644323 C1.7322206,50.385314 2.51125246,50.0957592 3.46443515,50.0957592 C4.37179175,50.0957592 5.09125058,50.3374349 5.62283323,50.8207934 C6.15441589,51.304152 6.42020323,51.9881397 6.42020323,52.872777 C6.42020323,53.6023748 6.1842024,54.3433615 5.71219366,55.0957592 C5.24018493,55.848157 4.64903722,56.5458244 3.93873282,57.1887825 C3.22842841,57.8317406 2.49751322,58.3766508 1.74596533,58.8235294 L6.66766288,58.8235294 L6.66766288,59.8495212 L0,59.8495212 L0,58.9466484 Z M7.64375374,57.6880985 L7.64375374,56.6484268 L12.6204423,50.1915185 L13.9677227,50.1915185 L13.9677227,56.6073871 L15.3974895,56.6073871 L15.3974895,57.6880985 L13.9677227,57.6880985 L13.9677227,59.9042408 L12.7029289,59.9042408 L12.7029289,57.6880985 L7.64375374,57.6880985 Z M12.7854154,51.7099863 L8.96353855,56.6073871 L12.7854154,56.6073871 L12.7854154,51.7099863 Z M19.8517633,50 C20.4749981,50 21.0111554,50.109438 21.460251,50.3283174 C21.9093467,50.5471967 22.2484547,50.8481513 22.4775852,51.2311902 C22.7067156,51.614229 22.8212791,52.0474212 22.8212791,52.5307798 C22.8212791,53.1326979 22.6448513,53.6388488 22.2919904,54.0492476 C21.9391295,54.4596464 21.4235937,54.7058819 20.7453676,54.7879617 L20.7453676,54.870041 C21.4510894,55.0524405 22.0032855,55.3351554 22.4019725,55.7181943 C22.8006595,56.1012331 23,56.6301836 23,57.3050616 C23,58.0984992 22.7342127,58.7460075 22.20263,59.247606 C21.6710474,59.7492045 20.9057631,60 19.9067543,60 C18.9077456,60 18.0989272,59.7423646 17.480275,59.2270862 C16.8616227,58.7118077 16.4973108,57.9571413 16.3873282,56.9630643 L17.6246264,56.9630643 C17.7071134,57.5649825 17.9385317,58.0437739 18.3188882,58.3994528 C18.6992448,58.7551317 19.2147806,58.9329685 19.8655111,58.9329685 C20.4795807,58.9329685 20.9515823,58.7756514 21.2815302,58.4610123 C21.611478,58.1463733 21.7764495,57.7382606 21.7764495,57.2366621 C21.7764495,56.6347439 21.5404487,56.1764722 21.0684399,55.8618331 C20.5964312,55.547194 19.925089,55.3898769 19.0543933,55.3898769 L18.7244471,55.3898769 L18.7244471,54.3502052 L19.0543933,54.3502052 C20.7407934,54.3502052 21.5839809,53.7893353 21.5839809,52.6675787 C21.5839809,52.1751001 21.4281745,51.7829472 21.1165571,51.4911081 C20.8049397,51.1992689 20.3741809,51.0533516 19.8242678,51.0533516 C19.2743547,51.0533516 18.8115181,51.2106687 18.4357442,51.5253078 C18.0599702,51.8399469 17.8400083,52.3027785 17.7758518,52.9138167 L16.5523013,52.9138167 C16.6164578,52.0018194 16.9349443,51.2881923 17.5077705,50.7729138 C18.0805966,50.2576354 18.8619197,50 19.8517633,50 Z" id="243" fill="#8B8B8B"></path>
                    <path d="M0,9.96121884 C1.52348317,8.90858199 2.74225142,7.86288608 3.65634132,6.82409972 C4.57043122,5.78531337 5.02746932,4.81810235 5.02746932,3.92243767 C5.02746932,3.36841828 4.89080596,2.92290104 4.61747516,2.58587258 C4.34414436,2.24884411 3.90278894,2.08033241 3.29339568,2.08033241 C2.66607908,2.08033241 2.19111792,2.28577819 1.86849795,2.6966759 C1.54587799,3.10757361 1.36664736,3.67312659 1.3308007,4.3933518 L0.120981882,4.3933518 C0.183713542,3.30378033 0.510809433,2.46583857 1.10227937,1.87950139 C1.6937493,1.2931642 2.45547946,1 3.38749269,1 C4.2746976,1 4.9781778,1.24468823 5.49795441,1.73407202 C6.01773102,2.22345582 6.27761543,2.91596967 6.27761543,3.81163435 C6.27761543,4.55032687 6.046856,5.30055021 5.58533022,6.06232687 C5.12380443,6.82410353 4.54578567,7.53046766 3.85125658,8.18144044 C3.15672748,8.83241323 2.44204537,9.38411593 1.70718878,9.8365651 L6.51957919,9.8365651 L6.51957919,10.8753463 L0,10.8753463 L0,9.96121884 Z M7.47399182,8.68698061 L7.47399182,7.63434903 L12.340152,1.09695291 L13.6575102,1.09695291 L13.6575102,7.59279778 L15.0555231,7.59279778 L15.0555231,8.68698061 L13.6575102,8.68698061 L13.6575102,10.9307479 L12.4208065,10.9307479 L12.4208065,8.68698061 L7.47399182,8.68698061 Z M12.5014611,2.63434903 L8.76446523,7.59279778 L12.5014611,7.59279778 L12.5014611,2.63434903 Z M22.5429573,2.1634349 L17.6767972,2.1634349 L17.6767972,5.43213296 C17.9008388,5.11818864 18.223454,4.86888366 18.6446523,4.68421053 C19.0658505,4.4995374 19.5273694,4.40720222 20.0292227,4.40720222 C20.7013476,4.40720222 21.2592029,4.55263012 21.7028054,4.8434903 C22.1464078,5.13435048 22.4735037,5.51754148 22.6841029,5.99307479 C22.894702,6.4686081 23,6.99722701 23,7.57894737 C23,8.58541593 22.7266733,9.40719903 22.1800117,10.0443213 C21.6333501,10.6814436 20.831293,11 19.7738165,11 C18.8238799,11 18.0487075,10.7345364 17.4482759,10.2036011 C16.8478443,9.67266586 16.5117868,8.95937659 16.4400935,8.06371191 L17.6499123,8.06371191 C17.7484907,8.63619861 17.9792501,9.08171586 18.3421975,9.40027701 C18.705145,9.71883816 19.1644235,9.87811634 19.7200468,9.87811634 C20.410095,9.87811634 20.9298638,9.66574543 21.2793688,9.24099723 C21.6288738,8.81624903 21.8036236,8.25762119 21.8036236,7.56509695 C21.8036236,6.89104003 21.624393,6.3647295 21.2659264,5.98614958 C20.9074597,5.60756967 20.4011332,5.41828255 19.7469316,5.41828255 C19.280925,5.41828255 18.8731753,5.52215963 18.5236704,5.7299169 C18.1741654,5.93767417 17.9098002,6.21698809 17.7305669,6.56786704 L16.547633,6.56786704 L16.547633,1.04155125 L22.5429573,1.04155125 L22.5429573,2.1634349 Z" id="245" fill="#8B8B8B"></path>
                    <path d="M109,271.986111 C110.569722,270.93055 111.82548,269.88195 112.767313,268.840278 C113.709146,267.798606 114.180055,266.828708 114.180055,265.930556 C114.180055,265.374997 114.039244,264.928242 113.757618,264.590278 C113.475991,264.252313 113.02124,264.083333 112.393352,264.083333 C111.746996,264.083333 111.257619,264.28935 110.925208,264.701389 C110.592796,265.113428 110.408126,265.680552 110.371191,266.402778 L109.124654,266.402778 C109.189289,265.31018 109.526313,264.46991 110.135734,263.881944 C110.745155,263.293979 111.530004,263 112.490305,263 C113.404437,263 114.129268,263.245368 114.66482,263.736111 C115.200372,264.226854 115.468144,264.921292 115.468144,265.819444 C115.468144,266.560189 115.230381,267.312496 114.754848,268.076389 C114.279314,268.840282 113.683752,269.548608 112.968144,270.201389 C112.252536,270.85417 111.516163,271.407405 110.759003,271.861111 L115.717452,271.861111 L115.717452,272.902778 L109,272.902778 L109,271.986111 Z M117.060942,268 C117.060942,266.435177 117.31948,265.215282 117.836565,264.340278 C118.35365,263.465273 119.249301,263.027778 120.523546,263.027778 C121.79779,263.027778 122.69575,263.467588 123.217452,264.347222 C123.739153,265.226856 124,266.444437 124,268 C124,269.574082 123.739153,270.800922 123.217452,271.680556 C122.69575,272.56019 121.79779,273 120.523546,273 C119.249301,273 118.35365,272.56019 117.836565,271.680556 C117.31948,270.800922 117.060942,269.574082 117.060942,268 Z M122.753463,268 C122.753463,267.2037 122.695753,266.53704 122.580332,266 C122.464912,265.46296 122.245616,265.034724 121.922438,264.715278 C121.59926,264.395832 121.132967,264.236111 120.523546,264.236111 C119.923358,264.236111 119.461682,264.395832 119.138504,264.715278 C118.815326,265.034724 118.59603,265.46296 118.480609,266 C118.365189,266.53704 118.307479,267.2037 118.307479,268 C118.307479,268.80556 118.365189,269.479164 118.480609,270.020833 C118.59603,270.562503 118.815326,270.995369 119.138504,271.319444 C119.461682,271.64352 119.923358,271.805556 120.523546,271.805556 C121.132967,271.805556 121.59926,271.64352 121.922438,271.319444 C122.245616,270.995369 122.464912,270.562503 122.580332,270.020833 C122.695753,269.479164 122.753463,268.80556 122.753463,268 Z" id="20" fill="#8B8B8B"></path>
                    <path d="M69,264.32312 L69,263.139276 L71.6706731,263.139276 L71.6706731,272.958217 L70.4014423,272.958217 L70.4014423,264.32312 L69,264.32312 Z M73.3762019,267.986072 C73.3762019,266.416891 73.6229943,265.193598 74.1165865,264.316156 C74.6101788,263.438714 75.4651381,263 76.6814904,263 C77.8978426,263 78.7550055,263.441036 79.2530048,264.32312 C79.7510041,265.205204 80,266.426176 80,267.986072 C80,269.564539 79.7510041,270.794796 79.2530048,271.67688 C78.7550055,272.558964 77.8978426,273 76.6814904,273 C75.4651381,273 74.6101788,272.558964 74.1165865,271.67688 C73.6229943,270.794796 73.3762019,269.564539 73.3762019,267.986072 Z M78.8100962,267.986072 C78.8100962,267.187554 78.7550086,266.519037 78.6448317,265.980501 C78.5346549,265.441966 78.3253221,265.012536 78.0168269,264.692201 C77.7083318,264.371865 77.2632241,264.211699 76.6814904,264.211699 C76.1085709,264.211699 75.6678701,264.371865 75.359375,264.692201 C75.0508799,265.012536 74.841547,265.441966 74.7313702,265.980501 C74.6211934,266.519037 74.5661058,267.187554 74.5661058,267.986072 C74.5661058,268.793876 74.6211934,269.469357 74.7313702,270.012535 C74.841547,270.555713 75.0508799,270.989785 75.359375,271.314763 C75.6678701,271.639742 76.1085709,271.802228 76.6814904,271.802228 C77.2632241,271.802228 77.7083318,271.639742 78.0168269,271.314763 C78.3253221,270.989785 78.5346549,270.555713 78.6448317,270.012535 C78.7550086,269.469357 78.8100962,268.793876 78.8100962,267.986072 Z" id="10" fill="#8B8B8B"></path>
                    <path d="M157.436364,263 C158.054549,263 158.586361,263.109438 159.031818,263.328317 C159.477275,263.547197 159.813635,263.848151 160.040909,264.23119 C160.268183,264.614229 160.381818,265.047421 160.381818,265.53078 C160.381818,266.132698 160.20682,266.638849 159.856818,267.049248 C159.506816,267.459646 158.995458,267.705882 158.322727,267.787962 L158.322727,267.870041 C159.022731,268.05244 159.570453,268.335155 159.965909,268.718194 C160.361366,269.101233 160.559091,269.630184 160.559091,270.305062 C160.559091,271.098499 160.295457,271.746008 159.768182,272.247606 C159.240906,272.749205 158.481823,273 157.490909,273 C156.499995,273 155.69773,272.742365 155.084091,272.227086 C154.470451,271.711808 154.109091,270.957141 154,269.963064 L155.227273,269.963064 C155.309091,270.564982 155.538634,271.043774 155.915909,271.399453 C156.293184,271.755132 156.804542,271.932969 157.45,271.932969 C158.059094,271.932969 158.527271,271.775651 158.854545,271.461012 C159.18182,271.146373 159.345455,270.738261 159.345455,270.236662 C159.345455,269.634744 159.111366,269.176472 158.643182,268.861833 C158.174998,268.547194 157.509095,268.389877 156.645455,268.389877 L156.318182,268.389877 L156.318182,267.350205 L156.645455,267.350205 C158.31819,267.350205 159.154545,266.789335 159.154545,265.667579 C159.154545,265.1751 159.000002,264.782947 158.690909,264.491108 C158.381817,264.199269 157.954548,264.053352 157.409091,264.053352 C156.863634,264.053352 156.404547,264.210669 156.031818,264.525308 C155.659089,264.839947 155.440909,265.302779 155.377273,265.913817 L154.163636,265.913817 C154.227273,265.001819 154.543179,264.288192 155.111364,263.772914 C155.679548,263.257635 156.454541,263 157.436364,263 Z M162.168182,268.02052 C162.168182,266.479244 162.422725,265.277706 162.931818,264.415869 C163.440912,263.554031 164.322721,263.123119 165.577273,263.123119 C166.831824,263.123119 167.715907,263.556311 168.229545,264.422709 C168.743184,265.289106 169,266.488364 169,268.02052 C169,269.570915 168.743184,270.779293 168.229545,271.645691 C167.715907,272.512088 166.831824,272.94528 165.577273,272.94528 C164.322721,272.94528 163.440912,272.512088 162.931818,271.645691 C162.422725,270.779293 162.168182,269.570915 162.168182,268.02052 Z M167.772727,268.02052 C167.772727,267.236202 167.71591,266.579574 167.602273,266.050616 C167.488636,265.521657 167.272729,265.099865 166.954545,264.785226 C166.636362,264.470587 166.177276,264.313269 165.577273,264.313269 C164.986361,264.313269 164.53182,264.470587 164.213636,264.785226 C163.895453,265.099865 163.679546,265.521657 163.565909,266.050616 C163.452272,266.579574 163.395455,267.236202 163.395455,268.02052 C163.395455,268.813957 163.452272,269.477426 163.565909,270.010944 C163.679546,270.544462 163.895453,270.970815 164.213636,271.290014 C164.53182,271.609213 164.986361,271.76881 165.577273,271.76881 C166.177276,271.76881 166.636362,271.609213 166.954545,271.290014 C167.272729,270.970815 167.488636,270.544462 167.602273,270.010944 C167.71591,269.477426 167.772727,268.813957 167.772727,268.02052 Z" id="30" fill="#8B8B8B"></path>
                    <path d="M199,270.70195 L199,269.643454 L203.734089,263.069638 L205.015693,263.069638 L205.015693,269.601671 L206.375763,269.601671 L206.375763,270.70195 L205.015693,270.70195 L205.015693,272.958217 L203.812554,272.958217 L203.812554,270.70195 L199,270.70195 Z M203.89102,264.615599 L200.255449,269.601671 L203.89102,269.601671 L203.89102,264.615599 Z M207.448126,267.986072 C207.448126,266.416891 207.692238,265.193598 208.180471,264.316156 C208.668703,263.438714 209.514379,263 210.717524,263 C211.920669,263 212.768524,263.441036 213.261116,264.32312 C213.753708,265.205204 214,266.426176 214,267.986072 C214,269.564539 213.753708,270.794796 213.261116,271.67688 C212.768524,272.558964 211.920669,273 210.717524,273 C209.514379,273 208.668703,272.558964 208.180471,271.67688 C207.692238,270.794796 207.448126,269.564539 207.448126,267.986072 Z M212.823017,267.986072 C212.823017,267.187554 212.768527,266.519037 212.659547,265.980501 C212.550566,265.441966 212.343506,265.012536 212.038361,264.692201 C211.733216,264.371865 211.292941,264.211699 210.717524,264.211699 C210.150825,264.211699 209.71491,264.371865 209.409765,264.692201 C209.104619,265.012536 208.897559,265.441966 208.788579,265.980501 C208.679598,266.519037 208.625109,267.187554 208.625109,267.986072 C208.625109,268.793876 208.679598,269.469357 208.788579,270.012535 C208.897559,270.555713 209.104619,270.989785 209.409765,271.314763 C209.71491,271.639742 210.150825,271.802228 210.717524,271.802228 C211.292941,271.802228 211.733216,271.639742 212.038361,271.314763 C212.343506,270.989785 212.550566,270.555713 212.659547,270.012535 C212.768527,269.469357 212.823017,268.793876 212.823017,267.986072 Z" id="40" fill="#8B8B8B"></path>
                    <path d="M250.213504,264.138889 L245.259124,264.138889 L245.259124,267.416667 C245.487227,267.10185 245.815691,266.851853 246.244526,266.666667 C246.67336,266.481481 247.143246,266.388889 247.654197,266.388889 C248.338507,266.388889 248.906476,266.534721 249.35812,266.826389 C249.809765,267.118057 250.142791,267.502312 250.357208,267.979167 C250.571625,268.456021 250.678832,268.986108 250.678832,269.569444 C250.678832,270.578709 250.40055,271.402775 249.843978,272.041667 C249.287406,272.680559 248.470808,273 247.394161,273 C246.427002,273 245.637777,272.733799 245.02646,272.201389 C244.415143,271.668979 244.072993,270.953708 244,270.055556 L245.231752,270.055556 C245.332117,270.629633 245.56706,271.076387 245.936588,271.395833 C246.306115,271.715279 246.77372,271.875 247.339416,271.875 C248.041974,271.875 248.571166,271.662039 248.927007,271.236111 C249.282848,270.810183 249.460766,270.250003 249.460766,269.555556 C249.460766,268.879626 249.278286,268.351854 248.913321,267.972222 C248.548356,267.592591 248.03285,267.402778 247.366788,267.402778 C246.892333,267.402778 246.477192,267.506943 246.12135,267.715278 C245.765509,267.923612 245.496351,268.203702 245.313869,268.555556 L244.109489,268.555556 L244.109489,263.013889 L250.213504,263.013889 L250.213504,264.138889 Z M252.143248,267.972222 C252.143248,266.4074 252.39872,265.187504 252.909672,264.3125 C253.420623,263.437496 254.305651,263 255.564781,263 C256.823911,263 257.71122,263.43981 258.226734,264.319444 C258.742247,265.199078 259,266.416659 259,267.972222 C259,269.546304 258.742247,270.773144 258.226734,271.652778 C257.71122,272.532412 256.823911,272.972222 255.564781,272.972222 C254.305651,272.972222 253.420623,272.532412 252.909672,271.652778 C252.39872,270.773144 252.143248,269.546304 252.143248,267.972222 Z M257.768248,267.972222 C257.768248,267.175922 257.711223,266.509262 257.597172,265.972222 C257.48312,265.435182 257.266425,265.006946 256.94708,264.6875 C256.627736,264.368054 256.166974,264.208333 255.564781,264.208333 C254.971712,264.208333 254.515513,264.368054 254.196168,264.6875 C253.876823,265.006946 253.660128,265.435182 253.546077,265.972222 C253.432025,266.509262 253.375,267.175922 253.375,267.972222 C253.375,268.777782 253.432025,269.451386 253.546077,269.993056 C253.660128,270.534725 253.876823,270.967591 254.196168,271.291667 C254.515513,271.615742 254.971712,271.777778 255.564781,271.777778 C256.166974,271.777778 256.627736,271.615742 256.94708,271.291667 C257.266425,270.967591 257.48312,270.534725 257.597172,269.993056 C257.711223,269.451386 257.768248,268.777782 257.768248,267.972222 Z" id="50" fill="#8B8B8B"></path>
                    <path d="M294.26009,265.821918 C294.18834,265.246572 293.997759,264.801371 293.688341,264.486301 C293.378922,264.171231 292.950675,264.013699 292.403587,264.013699 C291.641252,264.013699 291.065024,264.315065 290.674888,264.917808 C290.284751,265.520551 290.089686,266.474879 290.089686,267.780822 L290.103139,268.287671 C290.237669,267.739723 290.547083,267.303655 291.03139,266.979452 C291.515697,266.65525 292.085199,266.493151 292.73991,266.493151 C293.681619,266.493151 294.41928,266.780819 294.952915,267.356164 C295.48655,267.93151 295.753363,268.735155 295.753363,269.767123 C295.753363,270.369866 295.636772,270.915523 295.403587,271.40411 C295.170402,271.892697 294.813904,272.28082 294.334081,272.568493 C293.854258,272.856166 293.260093,273 292.55157,273 C291.197303,273 290.266819,272.566214 289.76009,271.69863 C289.253361,270.831046 289,269.652975 289,268.164384 C289,266.44748 289.271298,265.157539 289.813901,264.294521 C290.356505,263.431503 291.242146,263 292.470852,263 C293.376686,263 294.073989,263.260271 294.56278,263.780822 C295.051572,264.301372 295.340807,264.981731 295.430493,265.821918 L294.26009,265.821918 Z M290.237668,269.561644 C290.237668,270.228314 290.428249,270.787669 290.809417,271.239726 C291.190585,271.691783 291.762328,271.917808 292.524664,271.917808 C293.15247,271.917808 293.654707,271.728312 294.03139,271.349315 C294.408074,270.970318 294.596413,270.43836 294.596413,269.753425 C294.596413,269.013695 294.408074,268.449774 294.03139,268.061644 C293.654707,267.673514 293.134532,267.479452 292.470852,267.479452 C292.094169,267.479452 291.735428,267.557077 291.394619,267.712329 C291.05381,267.867581 290.775786,268.102738 290.560538,268.417808 C290.34529,268.732878 290.237668,269.114153 290.237668,269.561644 Z M297.26009,268.013699 C297.26009,266.470312 297.511208,265.267128 298.013453,264.40411 C298.515698,263.541092 299.385644,263.109589 300.623318,263.109589 C301.860993,263.109589 302.733181,263.543375 303.23991,264.410959 C303.746639,265.278543 304,266.479444 304,268.013699 C304,269.566218 303.746639,270.776251 303.23991,271.643836 C302.733181,272.51142 301.860993,272.945205 300.623318,272.945205 C299.385644,272.945205 298.515698,272.51142 298.013453,271.643836 C297.511208,270.776251 297.26009,269.566218 297.26009,268.013699 Z M302.789238,268.013699 C302.789238,267.228307 302.733184,266.570779 302.621076,266.041096 C302.508968,265.511413 302.295966,265.089043 301.982063,264.773973 C301.66816,264.458903 301.21525,264.30137 300.623318,264.30137 C300.040356,264.30137 299.59193,264.458903 299.278027,264.773973 C298.964124,265.089043 298.751122,265.511413 298.639013,266.041096 C298.526905,266.570779 298.470852,267.228307 298.470852,268.013699 C298.470852,268.808223 298.526905,269.4726 298.639013,270.006849 C298.751122,270.541099 298.964124,270.968035 299.278027,271.287671 C299.59193,271.607308 300.040356,271.767123 300.623318,271.767123 C301.21525,271.767123 301.66816,271.607308 301.982063,271.287671 C302.295966,270.968035 302.508968,270.541099 302.621076,270.006849 C302.733184,269.4726 302.789238,268.808223 302.789238,268.013699 Z" id="60" fill="#8B8B8B"></path>
                    <path d="M334.582187,272.958658 C334.713067,272.182597 334.899229,271.511964 335.14068,270.94674 C335.382131,270.381516 335.80974,269.605466 336.423521,268.618567 L339.158445,264.244832 L334,264.244832 L334,263 L340.431132,263 L340.431132,264.244832 C337.86318,268.008506 336.425779,270.913086 336.118889,272.958658 L334.582187,272.958658 Z M342.054052,268.038973 C342.054052,266.486348 342.312847,265.275961 342.830446,264.407777 C343.348044,263.539593 344.244584,263.105508 345.520094,263.105508 C346.795604,263.105508 347.694455,263.54189 348.216675,264.414668 C348.738894,265.287445 349,266.495535 349,268.038973 C349,269.600786 348.738894,270.818063 348.216675,271.69084 C347.694455,272.563618 346.795604,273 345.520094,273 C344.244584,273 343.348044,272.563618 342.830446,271.69084 C342.312847,270.818063 342.054052,269.600786 342.054052,268.038973 Z M347.752225,268.038973 C347.752225,267.24888 347.694458,266.587416 347.578923,266.054563 C347.463388,265.521709 347.243874,265.096811 346.920375,264.779854 C346.596876,264.462898 346.13012,264.304423 345.520094,264.304423 C344.91931,264.304423 344.457176,264.462898 344.133677,264.779854 C343.810178,265.096811 343.590665,265.521709 343.475129,266.054563 C343.359594,266.587416 343.301827,267.24888 343.301827,268.038973 C343.301827,268.838254 343.359594,269.506608 343.475129,270.044055 C343.590665,270.581502 343.810178,271.010994 344.133677,271.332544 C344.457176,271.654093 344.91931,271.814866 345.520094,271.814866 C346.13012,271.814866 346.596876,271.654093 346.920375,271.332544 C347.243874,271.010994 347.463388,270.581502 347.578923,270.044055 C347.694458,269.506608 347.752225,268.838254 347.752225,268.038973 Z" id="70" fill="#8B8B8B"></path>
                    <path d="M379.238938,265.516734 C379.238938,265.052653 379.362831,264.628739 379.610619,264.24498 C379.858408,263.861221 380.225661,263.557788 380.712389,263.334672 C381.199117,263.111556 381.778758,263 382.451327,263 C383.123897,263 383.701325,263.111556 384.183628,263.334672 C384.665932,263.557788 385.030972,263.861221 385.278761,264.24498 C385.52655,264.628739 385.650442,265.052653 385.650442,265.516734 C385.650442,266.043287 385.508851,266.498436 385.225664,266.882195 C384.942476,267.265955 384.513277,267.538152 383.938053,267.698795 C384.557525,267.868363 385.039821,268.162872 385.384956,268.582329 C385.73009,269.001787 385.902655,269.519408 385.902655,270.135207 C385.902655,271.027671 385.588499,271.728244 384.960177,272.236948 C384.331855,272.745652 383.49558,273 382.451327,273 C381.407074,273 380.5708,272.745652 379.942478,272.236948 C379.314156,271.728244 379,271.027671 379,270.135207 C379,269.519408 379.170352,269.001787 379.511062,268.582329 C379.851772,268.162872 380.331855,267.868363 380.951327,267.698795 C380.376103,267.538152 379.946904,267.265955 379.663717,266.882195 C379.38053,266.498436 379.238938,266.043287 379.238938,265.516734 Z M380.433628,265.690763 C380.433628,266.226241 380.615042,266.638999 380.977876,266.92905 C381.34071,267.2191 381.831855,267.364123 382.451327,267.364123 C383.0708,267.364123 383.559733,267.2191 383.918142,266.92905 C384.27655,266.638999 384.455752,266.226241 384.455752,265.690763 C384.455752,265.155285 384.274338,264.742527 383.911504,264.452477 C383.548671,264.162426 383.06195,264.017403 382.451327,264.017403 C381.840705,264.017403 381.351772,264.162426 380.984513,264.452477 C380.617255,264.742527 380.433628,265.155285 380.433628,265.690763 Z M380.181416,270.068273 C380.181416,270.675148 380.384954,271.145915 380.792035,271.480589 C381.199117,271.815263 381.752209,271.982597 382.451327,271.982597 C383.141596,271.982597 383.690263,271.813032 384.097345,271.473896 C384.504427,271.13476 384.707965,270.666223 384.707965,270.068273 C384.707965,269.461398 384.495577,269.001786 384.070796,268.689424 C383.646016,268.377062 383.106198,268.220884 382.451327,268.220884 C381.787607,268.220884 381.243365,268.377062 380.818584,268.689424 C380.393803,269.001786 380.181416,269.461398 380.181416,270.068273 Z M387.349558,267.953146 C387.349558,266.444883 387.597343,265.269081 388.09292,264.425703 C388.588498,263.582325 389.446897,263.160643 390.668142,263.160643 C391.889387,263.160643 392.749997,263.584556 393.25,264.432396 C393.750002,265.280236 394,266.453808 394,267.953146 C394,269.470333 393.750002,270.652829 393.25,271.500669 C392.749997,272.348509 391.889387,272.772423 390.668142,272.772423 C389.446897,272.772423 388.588498,272.348509 388.09292,271.500669 C387.597343,270.652829 387.349558,269.470333 387.349558,267.953146 Z M392.80531,267.953146 C392.80531,267.185628 392.750001,266.543064 392.639381,266.025435 C392.528761,265.507806 392.318586,265.095048 392.00885,264.787149 C391.699113,264.479249 391.252215,264.325301 390.668142,264.325301 C390.092917,264.325301 389.650444,264.479249 389.340708,264.787149 C389.030972,265.095048 388.820797,265.507806 388.710177,266.025435 C388.599557,266.543064 388.544248,267.185628 388.544248,267.953146 C388.544248,268.729589 388.599557,269.378846 388.710177,269.900937 C388.820797,270.423028 389.030972,270.840248 389.340708,271.15261 C389.650444,271.464973 390.092917,271.621151 390.668142,271.621151 C391.252215,271.621151 391.699113,271.464973 392.00885,271.15261 C392.318586,270.840248 392.528761,270.423028 392.639381,269.900937 C392.750001,269.378846 392.80531,268.729589 392.80531,267.953146 Z" id="80" fill="#8B8B8B"></path>
                    <path d="M425.4906,270.181943 C425.571173,270.756501 425.768127,271.198813 426.081468,271.508892 C426.394809,271.818971 426.824527,271.974008 427.370636,271.974008 C428.122654,271.974008 428.691135,271.677614 429.076097,271.084815 C429.461058,270.492017 429.653536,269.552674 429.653536,268.266758 C429.653536,268.020519 429.64906,267.833562 429.640107,267.705882 C429.514771,268.253081 429.210387,268.690833 428.726947,269.019152 C428.243507,269.347471 427.675026,269.511628 427.021486,269.511628 C426.081464,269.511628 425.342885,269.224353 424.80573,268.649795 C424.268574,268.075237 424,267.272691 424,266.242134 C424,265.640216 424.116382,265.093026 424.34915,264.600547 C424.581917,264.108069 424.937777,263.718196 425.416741,263.430917 C425.895705,263.143637 426.488806,263 427.196061,263 C428.556856,263 429.49015,263.426352 429.995971,264.27907 C430.501793,265.131787 430.7547,266.301406 430.7547,267.787962 C430.7547,269.484277 430.495079,270.777013 429.975828,271.666211 C429.456578,272.555408 428.588189,273 427.370636,273 C426.466423,273 425.756941,272.737805 425.242167,272.213406 C424.727392,271.689008 424.425247,271.01186 424.335721,270.181943 L425.4906,270.181943 Z M429.519248,266.433653 C429.519248,265.777015 429.329008,265.220705 428.948523,264.764706 C428.568037,264.308707 427.997318,264.080711 427.236347,264.080711 C426.609666,264.080711 426.108328,264.272228 425.732319,264.655267 C425.35631,265.038306 425.168308,265.571816 425.168308,266.255814 C425.168308,266.985412 425.35631,267.546282 425.732319,267.93844 C426.108328,268.330599 426.623094,268.526676 427.276634,268.526676 C427.652643,268.526676 428.012979,268.449157 428.357654,268.294118 C428.702329,268.139078 428.982094,267.901962 429.196956,267.582763 C429.411818,267.263564 429.519248,266.880531 429.519248,266.433653 Z M432.272158,268.00684 C432.272158,266.465565 432.522826,265.264026 433.024172,264.402189 C433.525517,263.540351 434.393906,263.109439 435.629364,263.109439 C436.864823,263.109439 437.73545,263.542631 438.241271,264.409029 C438.747093,265.275426 439,266.474685 439,268.00684 C439,269.557235 438.747093,270.765614 438.241271,271.632011 C437.73545,272.498408 436.864823,272.931601 435.629364,272.931601 C434.393906,272.931601 433.525517,272.498408 433.024172,271.632011 C432.522826,270.765614 432.272158,269.557235 432.272158,268.00684 Z M437.791406,268.00684 C437.791406,267.222522 437.735453,266.565894 437.623545,266.036936 C437.511638,265.507977 437.299017,265.086185 436.985676,264.771546 C436.672335,264.456907 436.220236,264.29959 435.629364,264.29959 C435.047446,264.29959 434.599823,264.456907 434.286482,264.771546 C433.973141,265.086185 433.76052,265.507977 433.648612,266.036936 C433.536705,266.565894 433.480752,267.222522 433.480752,268.00684 C433.480752,268.800278 433.536705,269.463746 433.648612,269.997264 C433.76052,270.530782 433.973141,270.957135 434.286482,271.276334 C434.599823,271.595533 435.047446,271.75513 435.629364,271.75513 C436.220236,271.75513 436.672335,271.595533 436.985676,271.276334 C437.299017,270.957135 437.511638,270.530782 437.623545,269.997264 C437.735453,269.463746 437.791406,268.800278 437.791406,268.00684 Z" id="90" fill="#8B8B8B"></path>
                    <path d="M468,264.32312 L468,263.139276 L470.654219,263.139276 L470.654219,272.958217 L469.392808,272.958217 L469.392808,264.32312 L468,264.32312 Z M472.349239,267.986072 C472.349239,266.416891 472.594511,265.193598 473.085062,264.316156 C473.575613,263.438714 474.425305,263 475.634163,263 C476.843021,263 477.694903,263.441036 478.189834,264.32312 C478.684765,265.205204 478.932227,266.426176 478.932227,267.986072 C478.932227,269.564539 478.684765,270.794796 478.189834,271.67688 C477.694903,272.558964 476.843021,273 475.634163,273 C474.425305,273 473.575613,272.558964 473.085062,271.67688 C472.594511,270.794796 472.349239,269.564539 472.349239,267.986072 Z M477.749654,267.986072 C477.749654,267.187554 477.694906,266.519037 477.585408,265.980501 C477.47591,265.441966 477.267867,265.012536 476.961272,264.692201 C476.654678,264.371865 476.212313,264.211699 475.634163,264.211699 C475.064774,264.211699 474.626788,264.371865 474.320194,264.692201 C474.013599,265.012536 473.805556,265.441966 473.696058,265.980501 C473.58656,266.519037 473.531812,267.187554 473.531812,267.986072 C473.531812,268.793876 473.58656,269.469357 473.696058,270.012535 C473.805556,270.555713 474.013599,270.989785 474.320194,271.314763 C474.626788,271.639742 475.064774,271.802228 475.634163,271.802228 C476.212313,271.802228 476.654678,271.639742 476.961272,271.314763 C477.267867,270.989785 477.47591,270.555713 477.585408,270.012535 C477.694906,269.469357 477.749654,268.793876 477.749654,267.986072 Z M480.417012,267.986072 C480.417012,266.416891 480.662284,265.193598 481.152835,264.316156 C481.643387,263.438714 482.493078,263 483.701936,263 C484.910794,263 485.762676,263.441036 486.257607,264.32312 C486.752538,265.205204 487,266.426176 487,267.986072 C487,269.564539 486.752538,270.794796 486.257607,271.67688 C485.762676,272.558964 484.910794,273 483.701936,273 C482.493078,273 481.643387,272.558964 481.152835,271.67688 C480.662284,270.794796 480.417012,269.564539 480.417012,267.986072 Z M485.817427,267.986072 C485.817427,267.187554 485.762679,266.519037 485.653181,265.980501 C485.543683,265.441966 485.33564,265.012536 485.029046,264.692201 C484.722451,264.371865 484.280086,264.211699 483.701936,264.211699 C483.132547,264.211699 482.694561,264.371865 482.387967,264.692201 C482.081372,265.012536 481.873329,265.441966 481.763831,265.980501 C481.654333,266.519037 481.599585,267.187554 481.599585,267.986072 C481.599585,268.793876 481.654333,269.469357 481.763831,270.012535 C481.873329,270.555713 482.081372,270.989785 482.387967,271.314763 C482.694561,271.639742 483.132547,271.802228 483.701936,271.802228 C484.280086,271.802228 484.722451,271.639742 485.029046,271.314763 C485.33564,270.989785 485.543683,270.555713 485.653181,270.012535 C485.762679,269.469357 485.817427,268.793876 485.817427,267.986072 Z" id="100" fill="#8B8B8B"></path>
                    <rect id="Rectangle" fill="#DEDEDE" x="36" y="248" width="453" height="1"></rect>
                    <rect id="Rectangle-Copy-4" fill="#DEDEDE" x="32" y="199" width="4" height="1"></rect>
                    <rect id="Rectangle-Copy-5" fill="#DEDEDE" x="32" y="151" width="4" height="1"></rect>
                    <rect id="Rectangle-Copy-6" fill="#DEDEDE" x="32" y="104" width="4" height="1"></rect>
                    <rect id="Rectangle-Copy-27" fill="#DEDEDE" x="32" y="54" width="4" height="1"></rect>
                    <rect id="Rectangle-Copy-6" fill="#DEDEDE" x="32" y="6" width="4" height="1"></rect>
                    <rect id="Rectangle" fill="#DEDEDE" x="36" y="6" width="1" height="242"></rect>
                    <rect id="Rectangle-Copy" fill="#DEDEDE" x="162" y="249" width="1" height="4"></rect>
                    <rect id="Rectangle-Copy-25" fill="#DEDEDE" x="117" y="249" width="1" height="4"></rect>
                    <rect id="Rectangle-Copy-26" fill="#DEDEDE" x="74" y="249" width="1" height="4"></rect>
                    <rect id="Rectangle-Copy-2" fill="#DEDEDE" x="207" y="249" width="1" height="4"></rect>
                    <rect id="Rectangle-Copy-2" fill="#DEDEDE" x="251" y="249" width="1" height="4"></rect>
                    <rect id="Rectangle-Copy-2" fill="#DEDEDE" x="341" y="249" width="1" height="4"></rect>
                    <rect id="Rectangle-Copy-24" fill="#DEDEDE" x="296" y="249" width="1" height="4"></rect>
                    <rect id="Rectangle-Copy-2" fill="#DEDEDE" x="386" y="249" width="1" height="4"></rect>
                    <rect id="Rectangle-Copy-2" fill="#DEDEDE" x="478" y="249" width="1" height="4"></rect>
                    <rect id="Rectangle-Copy-23" fill="#DEDEDE" x="431" y="249" width="1" height="4"></rect>
                    <polygon id="Path" fill="#0052FF" points="438.5 222.551548 436.051548 225 435 223.948452 437.448452 221.5 435 219.051548 436.051548 218 438.5 220.448452 440.948452 218 442 219.051548 439.551548 221.5 442 223.948452 440.948452 225"></polygon>
                    <polygon id="Path" fill="#0052FF" points="463.5 222.551548 461.051548 225 460 223.948452 462.448452 221.5 460 219.051548 461.051548 218 463.5 220.448452 465.948452 218 467 219.051548 464.551548 221.5 467 223.948452 465.948452 225"></polygon>
                    <polygon id="Path" fill="#0052FF" points="472.5 213.551548 470.051548 216 469 214.948452 471.448452 212.5 469 210.051548 470.051548 209 472.5 211.448452 474.948452 209 476 210.051548 473.551548 212.5 476 214.948452 474.948452 216"></polygon>
                    <polygon id="Path" fill="#0052FF" points="468.5 204.551548 466.051548 207 465 205.948452 467.448452 203.5 465 201.051548 466.051548 200 468.5 202.448452 470.948452 200 472 201.051548 469.551548 203.5 472 205.948452 470.948452 207"></polygon>
                    <polygon id="Path" fill="#0052FF" points="477.5 193.551548 475.051548 196 474 194.948452 476.448452 192.5 474 190.051548 475.051548 189 477.5 191.448452 479.948452 189 481 190.051548 478.551548 192.5 481 194.948452 479.948452 196"></polygon>
                </g>
            </g>
        </g>
    </g>
</svg>