<?xml version="1.0" encoding="UTF-8"?>
<svg width="497px" height="317px" viewBox="0 0 497 317" version="1.1" xmlns="http://www.w3.org/2000/svg" xmlns:xlink="http://www.w3.org/1999/xlink">
    <!-- Generator: Sketch 52.2 (67145) - http://www.bohemiancoding.com/sketch -->
    <title>Machine learning</title>
    <desc>Created with Sketch.</desc>
    <g id="Design" stroke="none" stroke-width="1" fill="none" fill-rule="evenodd">
        <g id="ARSData_Solutions_v2@2x" transform="translate(-748.000000, -2961.000000)">
            <g id="Machine-learning" transform="translate(748.000000, 2961.000000)">
                <g id="Group-6">
                    <circle id="Oval" stroke="#E63A0F" cx="459.5" cy="92.5" r="6.5"></circle>
                    <circle id="Oval" stroke="#E63A0F" cx="400.5" cy="56.5" r="6.5"></circle>
                    <circle id="Oval" stroke="#E63A0F" cx="331.5" cy="66.5" r="6.5"></circle>
                    <circle id="Oval" stroke="#E63A0F" cx="319.5" cy="92.5" r="6.5"></circle>
                    <circle id="Oval" stroke="#E63A0F" cx="313.5" cy="57.5" r="6.5"></circle>
                    <circle id="Oval" stroke="#E63A0F" cx="169.5" cy="66.5" r="6.5"></circle>
                    <polygon id="Path" fill="#0052FF" points="493.5 139.551548 491.051548 142 490 140.948452 492.448452 138.5 490 136.051548 491.051548 135 493.5 137.448452 495.948452 135 497 136.051548 494.551548 138.5 497 140.948452 495.948452 142"></polygon>
                    <polygon id="Path" fill="#0052FF" points="457.5 207.551548 455.051548 210 454 208.948452 456.448452 206.5 454 204.051548 455.051548 203 457.5 205.448452 459.948452 203 461 204.051548 458.551548 206.5 461 208.948452 459.948452 210"></polygon>
                    <polygon id="Path" fill="#0052FF" points="459.5 201.551548 457.051548 204 456 202.948452 458.448452 200.5 456 198.051548 457.051548 197 459.5 199.448452 461.948452 197 463 198.051548 460.551548 200.5 463 202.948452 461.948452 204"></polygon>
                    <polygon id="Path" fill="#8B8B8B" points="459.5 93.5515477 457.051548 96 456 94.9484523 458.448452 92.5 456 90.0515477 457.051548 89 459.5 91.4484523 461.948452 89 463 90.0515477 460.551548 92.5 463 94.9484523 461.948452 96"></polygon>
                    <polygon id="Path" fill="#8B8B8B" points="400.5 57.5515477 398.051548 60 397 58.9484523 399.448452 56.5 397 54.0515477 398.051548 53 400.5 55.4484523 402.948452 53 404 54.0515477 401.551548 56.5 404 58.9484523 402.948452 60"></polygon>
                    <polygon id="Path" fill="#8B8B8B" points="319.5 93.5515477 317.051548 96 316 94.9484523 318.448452 92.5 316 90.0515477 317.051548 89 319.5 91.4484523 321.948452 89 323 90.0515477 320.551548 92.5 323 94.9484523 321.948452 96"></polygon>
                    <polygon id="Path" fill="#8B8B8B" points="331.5 67.5515477 329.051548 70 328 68.9484523 330.448452 66.5 328 64.0515477 329.051548 63 331.5 65.4484523 333.948452 63 335 64.0515477 332.551548 66.5 335 68.9484523 333.948452 70"></polygon>
                    <polygon id="Path" fill="#8B8B8B" points="313.5 58.5515477 311.051548 61 310 59.9484523 312.448452 57.5 310 55.0515477 311.051548 54 313.5 56.4484523 315.948452 54 317 55.0515477 314.551548 57.5 317 59.9484523 315.948452 61"></polygon>
                    <polygon id="Path" fill="#8B8B8B" points="169.5 67.5515477 167.051548 70 166 68.9484523 168.448452 66.5 166 64.0515477 167.051548 63 169.5 65.4484523 171.948452 63 173 64.0515477 170.551548 66.5 173 68.9484523 171.948452 70"></polygon>
                    <polygon id="Path" fill="#0052FF" points="451.5 204.551548 449.051548 207 448 205.948452 450.448452 203.5 448 201.051548 449.051548 200 451.5 202.448452 453.948452 200 455 201.051548 452.551548 203.5 455 205.948452 453.948452 207"></polygon>
                    <polygon id="Path" fill="#0052FF" points="459.5 183.551548 457.051548 186 456 184.948452 458.448452 182.5 456 180.051548 457.051548 179 459.5 181.448452 461.948452 179 463 180.051548 460.551548 182.5 463 184.948452 461.948452 186"></polygon>
                    <polygon id="Path" fill="#0052FF" points="451.5 192.551548 449.051548 195 448 193.948452 450.448452 191.5 448 189.051548 449.051548 188 451.5 190.448452 453.948452 188 455 189.051548 452.551548 191.5 455 193.948452 453.948452 195"></polygon>
                    <polygon id="Path" fill="#0052FF" points="339.5 187.551548 337.051548 190 336 188.948452 338.448452 186.5 336 184.051548 337.051548 183 339.5 185.448452 341.948452 183 343 184.051548 340.551548 186.5 343 188.948452 341.948452 190"></polygon>
                    <polygon id="Path" fill="#0052FF" points="348.5 179.551548 346.051548 182 345 180.948452 347.448452 178.5 345 176.051548 346.051548 175 348.5 177.448452 350.948452 175 352 176.051548 349.551548 178.5 352 180.948452 350.948452 182"></polygon>
                    <polygon id="Path" fill="#0052FF" points="357.5 215.551548 355.051548 218 354 216.948452 356.448452 214.5 354 212.051548 355.051548 211 357.5 213.448452 359.948452 211 361 212.051548 358.551548 214.5 361 216.948452 359.948452 218"></polygon>
                    <polygon id="Path" fill="#0052FF" points="361.5 207.551548 359.051548 210 358 208.948452 360.448452 206.5 358 204.051548 359.051548 203 361.5 205.448452 363.948452 203 365 204.051548 362.551548 206.5 365 208.948452 363.948452 210"></polygon>
                    <polygon id="Path" fill="#0052FF" points="364.5 218.551548 362.051548 221 361 219.948452 363.448452 217.5 361 215.051548 362.051548 214 364.5 216.448452 366.948452 214 368 215.051548 365.551548 217.5 368 219.948452 366.948452 221"></polygon>
                    <polygon id="Path" fill="#0052FF" points="373.5 223.551548 371.051548 226 370 224.948452 372.448452 222.5 370 220.051548 371.051548 219 373.5 221.448452 375.948452 219 377 220.051548 374.551548 222.5 377 224.948452 375.948452 226"></polygon>
                    <polygon id="Path" fill="#0052FF" points="400.5 214.551548 398.051548 217 397 215.948452 399.448452 213.5 397 211.051548 398.051548 210 400.5 212.448452 402.948452 210 404 211.051548 401.551548 213.5 404 215.948452 402.948452 217"></polygon>
                    <polygon id="Path" fill="#0052FF" points="408.5 205.551548 406.051548 208 405 206.948452 407.448452 204.5 405 202.051548 406.051548 201 408.5 203.448452 410.948452 201 412 202.051548 409.551548 204.5 412 206.948452 410.948452 208"></polygon>
                    <polygon id="Path" fill="#0052FF" points="435.5 169.551548 433.051548 172 432 170.948452 434.448452 168.5 432 166.051548 433.051548 165 435.5 167.448452 437.948452 165 439 166.051548 436.551548 168.5 439 170.948452 437.948452 172"></polygon>
                    <polygon id="Path" fill="#0052FF" points="444.5 165.551548 442.051548 168 441 166.948452 443.448452 164.5 441 162.051548 442.051548 161 444.5 163.448452 446.948452 161 448 162.051548 445.551548 164.5 448 166.948452 446.948452 168"></polygon>
                    <polygon id="Path" fill="#0052FF" points="453.5 174.551548 451.051548 177 450 175.948452 452.448452 173.5 450 171.051548 451.051548 170 453.5 172.448452 455.948452 170 457 171.051548 454.551548 173.5 457 175.948452 455.948452 177"></polygon>
                    <polygon id="Path" fill="#0052FF" points="289.5 175.551548 287.051548 178 286 176.948452 288.448452 174.5 286 172.051548 287.051548 171 289.5 173.448452 291.948452 171 293 172.051548 290.551548 174.5 293 176.948452 291.948452 178"></polygon>
                    <polygon id="Path" fill="#0052FF" points="286.5 184.551548 284.051548 187 283 185.948452 285.448452 183.5 283 181.051548 284.051548 180 286.5 182.448452 288.948452 180 290 181.051548 287.551548 183.5 290 185.948452 288.948452 187"></polygon>
                    <polygon id="Path" fill="#0052FF" points="297.5 202.551548 295.051548 205 294 203.948452 296.448452 201.5 294 199.051548 295.051548 198 297.5 200.448452 299.948452 198 301 199.051548 298.551548 201.5 301 203.948452 299.948452 205"></polygon>
                    <polygon id="Path" fill="#0052FF" points="304.5 205.551548 302.051548 208 301 206.948452 303.448452 204.5 301 202.051548 302.051548 201 304.5 203.448452 306.948452 201 308 202.051548 305.551548 204.5 308 206.948452 306.948452 208"></polygon>
                    <polygon id="Path" fill="#0052FF" points="313.5 178.551548 311.051548 181 310 179.948452 312.448452 177.5 310 175.051548 311.051548 174 313.5 176.448452 315.948452 174 317 175.051548 314.551548 177.5 317 179.948452 315.948452 181"></polygon>
                    <polygon id="Path" fill="#0052FF" points="339.5 169.551548 337.051548 172 336 170.948452 338.448452 168.5 336 166.051548 337.051548 165 339.5 167.448452 341.948452 165 343 166.051548 340.551548 168.5 343 170.948452 341.948452 172"></polygon>
                    <polygon id="Path" fill="#0052FF" points="304.5 187.551548 302.051548 190 301 188.948452 303.448452 186.5 301 184.051548 302.051548 183 304.5 185.448452 306.948452 183 308 184.051548 305.551548 186.5 308 188.948452 306.948452 190"></polygon>
                    <polygon id="Path" fill="#0052FF" points="126.5 191.551548 124.051548 194 123 192.948452 125.448452 190.5 123 188.051548 124.051548 187 126.5 189.448452 128.948452 187 130 188.051548 127.551548 190.5 130 192.948452 128.948452 194"></polygon>
                    <polygon id="Path" fill="#0052FF" points="117.5 196.551548 115.051548 199 114 197.948452 116.448452 195.5 114 193.051548 115.051548 192 117.5 194.448452 119.948452 192 121 193.051548 118.551548 195.5 121 197.948452 119.948452 199"></polygon>
                    <polygon id="Path" fill="#0052FF" points="162.5 194.551548 160.051548 197 159 195.948452 161.448452 193.5 159 191.051548 160.051548 190 162.5 192.448452 164.948452 190 166 191.051548 163.551548 193.5 166 195.948452 164.948452 197"></polygon>
                    <polygon id="Path" fill="#0052FF" points="252.5 212.551548 250.051548 215 249 213.948452 251.448452 211.5 249 209.051548 250.051548 208 252.5 210.448452 254.948452 208 256 209.051548 253.551548 211.5 256 213.948452 254.948452 215"></polygon>
                    <polygon id="Path" fill="#0052FF" points="243.5 203.551548 241.051548 206 240 204.948452 242.448452 202.5 240 200.051548 241.051548 199 243.5 201.448452 245.948452 199 247 200.051548 244.551548 202.5 247 204.948452 245.948452 206"></polygon>
                    <polygon id="Path" fill="#0052FF" points="250.5 196.551548 248.051548 199 247 197.948452 249.448452 195.5 247 193.051548 248.051548 192 250.5 194.448452 252.948452 192 254 193.051548 251.551548 195.5 254 197.948452 252.948452 199"></polygon>
                    <polygon id="Path" fill="#0052FF" points="232.5 178.551548 230.051548 181 229 179.948452 231.448452 177.5 229 175.051548 230.051548 174 232.5 176.448452 234.948452 174 236 175.051548 233.551548 177.5 236 179.948452 234.948452 181"></polygon>
                    <polygon id="Path" fill="#0052FF" points="240.5 179.551548 238.051548 182 237 180.948452 239.448452 178.5 237 176.051548 238.051548 175 240.5 177.448452 242.948452 175 244 176.051548 241.551548 178.5 244 180.948452 242.948452 182"></polygon>
                    <polygon id="Path" fill="#0052FF" points="258.5 218.551548 256.051548 221 255 219.948452 257.448452 217.5 255 215.051548 256.051548 214 258.5 216.448452 260.948452 214 262 215.051548 259.551548 217.5 262 219.948452 260.948452 221"></polygon>
                    <polygon id="Path" fill="#0052FF" points="264.5 220.551548 262.051548 223 261 221.948452 263.448452 219.5 261 217.051548 262.051548 216 264.5 218.448452 266.948452 216 268 217.051548 265.551548 219.5 268 221.948452 266.948452 223"></polygon>
                    <polygon id="Path" fill="#0052FF" points="273.5 193.551548 271.051548 196 270 194.948452 272.448452 192.5 270 190.051548 271.051548 189 273.5 191.448452 275.948452 189 277 190.051548 274.551548 192.5 277 194.948452 275.948452 196"></polygon>
                    <path d="M61.2956422,11.1621622 L57.1165221,11.1621622 L56.3211412,13.3648649 L55,13.3648649 L58.5185495,4.01351351 L59.9070958,4.01351351 L63.4121643,13.3648649 L62.0910231,13.3648649 L61.2956422,11.1621622 Z M60.9451353,10.2027027 L59.2060821,5.39189189 L57.4670289,10.2027027 L60.9451353,10.2027027 Z M67.5238792,12.0540541 L69.8156547,5.94594595 L71.1367959,5.94594595 L68.2383739,13.3648649 L66.7824224,13.3648649 L63.8840004,5.94594595 L65.2051416,5.94594595 L67.5238792,12.0540541 Z M79.1445292,9.24324324 C79.1445292,9.50450581 79.1265547,9.72972878 79.0906051,9.91891892 L73.1724318,9.91891892 C73.199394,10.76577 73.4398034,11.4008988 73.893667,11.8243243 C74.3475307,12.2477499 74.9024944,12.4594595 75.5585746,12.4594595 C76.151743,12.4594595 76.6482894,12.3085601 77.0482287,12.0067568 C77.448168,11.7049534 77.6930709,11.3018043 77.7829449,10.7972973 L79.0906051,10.7972973 C79.0007311,11.3108134 78.8007644,11.7702682 78.4906991,12.1756757 C78.1806338,12.5810831 77.7784537,12.8963953 77.2841467,13.1216216 C76.7898397,13.346848 76.2326293,13.4594595 75.6124987,13.4594595 C74.9024941,13.4594595 74.2733855,13.3063078 73.7251541,13 C73.1769227,12.6936922 72.7477808,12.2545074 72.4377155,11.6824324 C72.1276502,11.1103575 71.9726199,10.4369408 71.9726199,9.66216216 C71.9726199,8.88738351 72.1276502,8.21171459 72.4377155,7.63513514 C72.7477808,7.05855568 73.1769227,6.61711865 73.7251541,6.31081081 C74.2733855,6.00450297 74.9024941,5.85135135 75.6124987,5.85135135 C76.3314907,5.85135135 76.9583524,6.00450297 77.4931027,6.31081081 C78.027853,6.61711865 78.4367736,7.02702446 78.7198767,7.54054054 C79.0029798,8.05405662 79.1445292,8.62161851 79.1445292,9.24324324 Z M77.9042742,9.32432432 C77.9312364,8.77477203 77.8413638,8.31531716 77.6346536,7.94594595 C77.4279434,7.57657473 77.1448445,7.3018027 76.7853485,7.12162162 C76.4258525,6.94144054 76.0349065,6.85135135 75.6124987,6.85135135 C74.9384437,6.85135135 74.372246,7.06080872 73.9138886,7.47972973 C73.4555312,7.89865074 73.2083814,8.51350946 73.1724318,9.32432432 L77.9042742,9.32432432 Z M81.975546,7.44594595 C82.2182058,6.93242986 82.5732028,6.5337852 83.0405476,6.25 C83.5078924,5.9662148 84.0651028,5.82432432 84.7121956,5.82432432 L84.7121956,7.16216216 L84.3347267,7.16216216 C83.6426969,7.16216216 83.0764992,7.34008831 82.6361166,7.69594595 C82.195734,8.05180358 81.975546,8.63963554 81.975546,9.45945946 L81.975546,13.3648649 L80.7487721,13.3648649 L80.7487721,5.94594595 L81.975546,5.94594595 L81.975546,7.44594595 Z M88.9587209,5.85135135 C89.6777129,5.85135135 90.2866001,6.03152973 90.7854008,6.39189189 C91.2842015,6.75225405 91.632458,7.23423122 91.8301808,7.83783784 L91.8301808,5.94594595 L93.0569547,5.94594595 L93.0569547,13.3648649 L91.8301808,13.3648649 L91.8301808,11.472973 C91.632458,12.0765796 91.2842015,12.5585568 90.7854008,12.9189189 C90.2866001,13.2792811 89.6777129,13.4594595 88.9587209,13.4594595 C88.3026407,13.4594595 87.7184684,13.3063078 87.2061866,13 C86.6939048,12.6936922 86.2917247,12.2545074 85.9996342,11.6824324 C85.7075437,11.1103575 85.5615007,10.4369408 85.5615007,9.66216216 C85.5615007,8.88738351 85.7075437,8.21171459 85.9996342,7.63513514 C86.2917247,7.05855568 86.6939048,6.61711865 87.2061866,6.31081081 C87.7184684,6.00450297 88.3026407,5.85135135 88.9587209,5.85135135 Z M89.3092277,6.94594595 C88.5542861,6.94594595 87.9498925,7.18693453 87.4960288,7.66891892 C87.0421651,8.15090331 86.8152367,8.81531108 86.8152367,9.66216216 C86.8152367,10.5090132 87.0421651,11.173421 87.4960288,11.6554054 C87.9498925,12.1373898 88.5542861,12.3783784 89.3092277,12.3783784 C89.7945473,12.3783784 90.2281829,12.2657669 90.6101474,12.0405405 C90.9921118,11.8153142 91.2909384,11.4977498 91.506636,11.0878378 C91.7223336,10.6779259 91.8301808,10.2027054 91.8301808,9.66216216 C91.8301808,9.12161892 91.7223336,8.64414622 91.506636,8.22972973 C91.2909384,7.81531324 90.9921118,7.49774885 90.6101474,7.27702703 C90.2281829,7.0563052 89.7945473,6.94594595 89.3092277,6.94594595 Z M98.0449368,5.85135135 C98.7639288,5.85135135 99.372816,6.03152973 99.8716167,6.39189189 C100.370417,6.75225405 100.718674,7.23423122 100.916397,7.83783784 L100.916397,5.94594595 L102.143171,5.94594595 L102.143171,13.4864865 C102.143171,14.1711746 101.999374,14.7792766 101.711778,15.3108108 C101.424181,15.842345 101.019754,16.2567553 100.498485,16.5540541 C99.9772155,16.8513528 99.3705751,17 98.6785453,17 C97.6809439,17 96.8675964,16.7590114 96.2384784,16.277027 C95.6093604,15.7950426 95.2094271,15.1441482 95.0386665,14.3243243 L96.2519595,14.3243243 C96.3957579,14.8198223 96.6676226,15.209458 97.0675619,15.4932432 C97.4675012,15.7770284 97.9820221,15.9189189 98.6111401,15.9189189 C99.2762077,15.9189189 99.8266777,15.7049571 100.262567,15.277027 C100.698456,14.849097 100.916397,14.2522561 100.916397,13.4864865 L100.916397,11.472973 C100.718674,12.0765796 100.370417,12.5585568 99.8716167,12.9189189 C99.372816,13.2792811 98.7639288,13.4594595 98.0449368,13.4594595 C97.3888566,13.4594595 96.8046843,13.3063078 96.2924025,13 C95.7801208,12.6936922 95.3779406,12.2545074 95.0858501,11.6824324 C94.7937596,11.1103575 94.6477166,10.4369408 94.6477166,9.66216216 C94.6477166,8.88738351 94.7937596,8.21171459 95.0858501,7.63513514 C95.3779406,7.05855568 95.7801208,6.61711865 96.2924025,6.31081081 C96.8046843,6.00450297 97.3888566,5.85135135 98.0449368,5.85135135 Z M98.3954436,6.94594595 C97.640502,6.94594595 97.0361084,7.18693453 96.5822447,7.66891892 C96.1283811,8.15090331 95.9014526,8.81531108 95.9014526,9.66216216 C95.9014526,10.5090132 96.1283811,11.173421 96.5822447,11.6554054 C97.0361084,12.1373898 97.640502,12.3783784 98.3954436,12.3783784 C98.8807632,12.3783784 99.3143988,12.2657669 99.6963633,12.0405405 C100.078328,11.8153142 100.377154,11.4977498 100.592852,11.0878378 C100.80855,10.6779259 100.916397,10.2027054 100.916397,9.66216216 C100.916397,9.12161892 100.80855,8.64414622 100.592852,8.22972973 C100.377154,7.81531324 100.078328,7.49774885 99.6963633,7.27702703 C99.3143988,7.0563052 98.8807632,6.94594595 98.3954436,6.94594595 Z M110.905842,9.24324324 C110.905842,9.50450581 110.887867,9.72972878 110.851918,9.91891892 L104.933744,9.91891892 C104.960707,10.76577 105.201116,11.4008988 105.65498,11.8243243 C106.108843,12.2477499 106.663807,12.4594595 107.319887,12.4594595 C107.913056,12.4594595 108.409602,12.3085601 108.809541,12.0067568 C109.209481,11.7049534 109.454383,11.3018043 109.544257,10.7972973 L110.851918,10.7972973 C110.762044,11.3108134 110.562077,11.7702682 110.252012,12.1756757 C109.941946,12.5810831 109.539766,12.8963953 109.045459,13.1216216 C108.551152,13.346848 107.993942,13.4594595 107.373811,13.4594595 C106.663807,13.4594595 106.034698,13.3063078 105.486467,13 C104.938235,12.6936922 104.509093,12.2545074 104.199028,11.6824324 C103.888963,11.1103575 103.733932,10.4369408 103.733932,9.66216216 C103.733932,8.88738351 103.888963,8.21171459 104.199028,7.63513514 C104.509093,7.05855568 104.938235,6.61711865 105.486467,6.31081081 C106.034698,6.00450297 106.663807,5.85135135 107.373811,5.85135135 C108.092803,5.85135135 108.719665,6.00450297 109.254415,6.31081081 C109.789166,6.61711865 110.198086,7.02702446 110.481189,7.54054054 C110.764292,8.05405662 110.905842,8.62161851 110.905842,9.24324324 Z M109.665587,9.32432432 C109.692549,8.77477203 109.602676,8.31531716 109.395966,7.94594595 C109.189256,7.57657473 108.906157,7.3018027 108.546661,7.12162162 C108.187165,6.94144054 107.796219,6.85135135 107.373811,6.85135135 C106.699756,6.85135135 106.133559,7.06080872 105.675201,7.47972973 C105.216844,7.89865074 104.969694,8.51350946 104.933744,9.32432432 L109.665587,9.32432432 Z M116.460027,3.83783784 L119.358449,12 L122.297314,3.83783784 L123.631936,3.83783784 L120.140349,13.3648649 L118.59003,13.3648649 L115.111924,3.83783784 L116.460027,3.83783784 Z M124.656495,3.77027027 C124.656495,3.54504392 124.732887,3.36261331 124.885672,3.22297297 C125.038458,3.08333264 125.240672,3.01351351 125.492319,3.01351351 C125.743966,3.01351351 125.94618,3.08333264 126.098965,3.22297297 C126.251751,3.36261331 126.328143,3.54504392 126.328143,3.77027027 C126.328143,3.99549662 126.251751,4.17792723 126.098965,4.31756757 C125.94618,4.45720791 125.743966,4.52702703 125.492319,4.52702703 C125.240672,4.52702703 125.038458,4.45720791 124.885672,4.31756757 C124.732887,4.17792723 124.656495,3.99549662 124.656495,3.77027027 Z M126.098965,5.94594595 L126.098965,13.3648649 L124.872191,13.3648649 L124.872191,5.94594595 L126.098965,5.94594595 Z M129.29397,3.36486486 L129.29397,13.3648649 L128.067196,13.3648649 L128.067196,3.36486486 L129.29397,3.36486486 Z M134.794231,12.2837838 L134.794231,13.3648649 L133.877521,13.3648649 C133.12258,13.3648649 132.558629,13.1846865 132.185652,12.8243243 C131.812674,12.4639622 131.626189,11.8603646 131.626189,11.0135135 L131.626189,7.01351351 L130.520744,7.01351351 L130.520744,5.94594595 L131.626189,5.94594595 L131.626189,4.09459459 L132.866444,4.09459459 L132.866444,5.94594595 L134.78075,5.94594595 L134.78075,7.01351351 L132.866444,7.01351351 L132.866444,11.0405405 C132.866444,11.5180204 132.95407,11.8445937 133.129324,12.0202703 C133.304578,12.1959468 133.607898,12.2837838 134.039294,12.2837838 L134.794231,12.2837838 Z M139.323858,5.85135135 C140.04285,5.85135135 140.651737,6.03152973 141.150538,6.39189189 C141.649339,6.75225405 141.997595,7.23423122 142.195318,7.83783784 L142.195318,5.94594595 L143.422092,5.94594595 L143.422092,13.3648649 L142.195318,13.3648649 L142.195318,11.472973 C141.997595,12.0765796 141.649339,12.5585568 141.150538,12.9189189 C140.651737,13.2792811 140.04285,13.4594595 139.323858,13.4594595 C138.667778,13.4594595 138.083606,13.3063078 137.571324,13 C137.059042,12.6936922 136.656862,12.2545074 136.364772,11.6824324 C136.072681,11.1103575 135.926638,10.4369408 135.926638,9.66216216 C135.926638,8.88738351 136.072681,8.21171459 136.364772,7.63513514 C136.656862,7.05855568 137.059042,6.61711865 137.571324,6.31081081 C138.083606,6.00450297 138.667778,5.85135135 139.323858,5.85135135 Z M139.674365,6.94594595 C138.919424,6.94594595 138.31503,7.18693453 137.861166,7.66891892 C137.407303,8.15090331 137.180374,8.81531108 137.180374,9.66216216 C137.180374,10.5090132 137.407303,11.173421 137.861166,11.6554054 C138.31503,12.1373898 138.919424,12.3783784 139.674365,12.3783784 C140.159685,12.3783784 140.59332,12.2657669 140.975285,12.0405405 C141.357249,11.8153142 141.656076,11.4977498 141.871773,11.0878378 C142.087471,10.6779259 142.195318,10.2027054 142.195318,9.66216216 C142.195318,9.12161892 142.087471,8.64414622 141.871773,8.22972973 C141.656076,7.81531324 141.357249,7.49774885 140.975285,7.27702703 C140.59332,7.0563052 140.159685,6.94594595 139.674365,6.94594595 Z M148.410074,5.85135135 C149.129066,5.85135135 149.737953,6.03152973 150.236754,6.39189189 C150.735555,6.75225405 151.083811,7.23423122 151.281534,7.83783784 L151.281534,5.94594595 L152.508308,5.94594595 L152.508308,13.4864865 C152.508308,14.1711746 152.364512,14.7792766 152.076915,15.3108108 C151.789318,15.842345 151.384891,16.2567553 150.863622,16.5540541 C150.342353,16.8513528 149.735713,17 149.043683,17 C148.046081,17 147.232734,16.7590114 146.603616,16.277027 C145.974498,15.7950426 145.574565,15.1441482 145.403804,14.3243243 L146.617097,14.3243243 C146.760895,14.8198223 147.03276,15.209458 147.432699,15.4932432 C147.832639,15.7770284 148.34716,15.9189189 148.976278,15.9189189 C149.641345,15.9189189 150.191815,15.7049571 150.627704,15.277027 C151.063593,14.849097 151.281534,14.2522561 151.281534,13.4864865 L151.281534,11.472973 C151.083811,12.0765796 150.735555,12.5585568 150.236754,12.9189189 C149.737953,13.2792811 149.129066,13.4594595 148.410074,13.4594595 C147.753994,13.4594595 147.169822,13.3063078 146.65754,13 C146.145258,12.6936922 145.743078,12.2545074 145.450988,11.6824324 C145.158897,11.1103575 145.012854,10.4369408 145.012854,9.66216216 C145.012854,8.88738351 145.158897,8.21171459 145.450988,7.63513514 C145.743078,7.05855568 146.145258,6.61711865 146.65754,6.31081081 C147.169822,6.00450297 147.753994,5.85135135 148.410074,5.85135135 Z M148.760581,6.94594595 C148.005639,6.94594595 147.401246,7.18693453 146.947382,7.66891892 C146.493518,8.15090331 146.26659,8.81531108 146.26659,9.66216216 C146.26659,10.5090132 146.493518,11.173421 146.947382,11.6554054 C147.401246,12.1373898 148.005639,12.3783784 148.760581,12.3783784 C149.245901,12.3783784 149.679536,12.2657669 150.061501,12.0405405 C150.443465,11.8153142 150.742292,11.4977498 150.957989,11.0878378 C151.173687,10.6779259 151.281534,10.2027054 151.281534,9.66216216 C151.281534,9.12161892 151.173687,8.64414622 150.957989,8.22972973 C150.742292,7.81531324 150.443465,7.49774885 150.061501,7.27702703 C149.679536,7.0563052 149.245901,6.94594595 148.760581,6.94594595 Z M161.270979,9.24324324 C161.270979,9.50450581 161.253005,9.72972878 161.217055,9.91891892 L155.298882,9.91891892 C155.325844,10.76577 155.566253,11.4008988 156.020117,11.8243243 C156.473981,12.2477499 157.028944,12.4594595 157.685025,12.4594595 C158.278193,12.4594595 158.774739,12.3085601 159.174679,12.0067568 C159.574618,11.7049534 159.819521,11.3018043 159.909395,10.7972973 L161.217055,10.7972973 C161.127181,11.3108134 160.927214,11.7702682 160.617149,12.1756757 C160.307084,12.5810831 159.904904,12.8963953 159.410597,13.1216216 C158.91629,13.346848 158.359079,13.4594595 157.738949,13.4594595 C157.028944,13.4594595 156.399836,13.3063078 155.851604,13 C155.303373,12.6936922 154.874231,12.2545074 154.564166,11.6824324 C154.2541,11.1103575 154.09907,10.4369408 154.09907,9.66216216 C154.09907,8.88738351 154.2541,8.21171459 154.564166,7.63513514 C154.874231,7.05855568 155.303373,6.61711865 155.851604,6.31081081 C156.399836,6.00450297 157.028944,5.85135135 157.738949,5.85135135 C158.457941,5.85135135 159.084802,6.00450297 159.619553,6.31081081 C160.154303,6.61711865 160.563224,7.02702446 160.846327,7.54054054 C161.12943,8.05405662 161.270979,8.62161851 161.270979,9.24324324 Z M160.030724,9.32432432 C160.057686,8.77477203 159.967814,8.31531716 159.761104,7.94594595 C159.554393,7.57657473 159.271295,7.3018027 158.911799,7.12162162 C158.552303,6.94144054 158.161356,6.85135135 157.738949,6.85135135 C157.064894,6.85135135 156.498696,7.06080872 156.040339,7.47972973 C155.581981,7.89865074 155.334831,8.51350946 155.298882,9.32432432 L160.030724,9.32432432 Z M165.814087,7.91891892 C165.814087,6.18918054 166.139876,4.64415095 166.791462,3.28378378 C167.443049,1.92341662 168.303579,0.828832973 169.37308,0 L170.572892,0 L170.572892,0.121621622 C168.191231,2.05856824 167.000418,4.65764135 167.000418,7.91891892 C167.000418,11.1892055 168.191231,13.7927831 170.572892,15.7297297 L170.572892,15.8513514 L169.37308,15.8513514 C168.303579,15.0135093 167.443049,13.9189257 166.791462,12.5675676 C166.139876,11.2162095 165.814087,9.66667541 165.814087,7.91891892 Z M171.9884,3.83783784 L174.886822,12 L177.825687,3.83783784 L179.160309,3.83783784 L175.668722,13.3648649 L174.118403,13.3648649 L170.640297,3.83783784 L171.9884,3.83783784 Z M184,7.91891892 C184,9.65766635 183.674212,11.2049482 183.022625,12.5608108 C182.371039,13.9166734 181.510508,15.0135093 180.441007,15.8513514 L179.241196,15.8513514 L179.241196,15.7297297 C181.613869,13.7837741 182.800188,11.1801965 182.800188,7.91891892 C182.800188,6.32431635 182.505855,4.87162818 181.91718,3.56081081 C181.328506,2.24999345 180.43652,1.10360851 179.241196,0.121621622 L179.241196,0 L180.441007,0 C181.510508,0.828832973 182.371039,1.92341662 183.022625,3.28378378 C183.674212,4.64415095 184,6.18918054 184,7.91891892 Z" id="Average-Viltage-(V)" fill="#8B8B8B"></path>
                    <path d="M239.115469,311.94382 C239.115469,312.945698 238.919644,313.818817 238.527986,314.563202 C238.136328,315.307588 237.560236,315.883425 236.799691,316.29073 C236.039147,316.698036 235.126052,316.901685 234.060379,316.901685 L231,316.901685 L231,307 L234.060379,307 C235.126052,307 236.039147,307.198968 236.799691,307.59691 C237.560236,307.994852 238.136328,308.566008 238.527986,309.310393 C238.919644,310.054779 239.115469,310.932579 239.115469,311.94382 Z M233.964742,315.75 C235.22169,315.75 236.182603,315.417606 236.84751,314.752809 C237.512417,314.088012 237.844866,313.151691 237.844866,311.94382 C237.844866,310.735949 237.514694,309.797288 236.854341,309.127809 C236.193988,308.45833 235.230798,308.123596 233.964742,308.123596 L232.243279,308.123596 L232.243279,315.75 L233.964742,315.75 Z M243.869987,309.092697 C244.598652,309.092697 245.215731,309.279961 245.721243,309.654494 C246.226754,310.029028 246.579696,310.529959 246.780079,311.157303 L246.780079,309.191011 L248.023358,309.191011 L248.023358,316.901685 L246.780079,316.901685 L246.780079,314.935393 C246.579696,315.562737 246.226754,316.063669 245.721243,316.438202 C245.215731,316.812736 244.598652,317 243.869987,317 C243.20508,317 242.613048,316.840826 242.093874,316.522472 C241.5747,316.204118 241.167109,315.747662 240.871089,315.15309 C240.575068,314.558518 240.42706,313.858618 240.42706,313.053371 C240.42706,312.248123 240.575068,311.545883 240.871089,310.946629 C241.167109,310.347375 241.5747,309.888578 242.093874,309.570225 C242.613048,309.251871 243.20508,309.092697 243.869987,309.092697 Z M244.225209,310.230337 C243.460111,310.230337 242.847586,310.480803 242.387616,310.981742 C241.927646,311.48268 241.697664,312.173217 241.697664,313.053371 C241.697664,313.933525 241.927646,314.624061 242.387616,315.125 C242.847586,315.625939 243.460111,315.876404 244.225209,315.876404 C244.717058,315.876404 245.156528,315.759364 245.543632,315.525281 C245.930735,315.291197 246.233582,314.961144 246.452182,314.535112 C246.670781,314.10908 246.780079,313.615171 246.780079,313.053371 C246.780079,312.49157 246.670781,311.995321 246.452182,311.564607 C246.233582,311.133893 245.930735,310.80384 245.543632,310.574438 C245.156528,310.345036 244.717058,310.230337 244.225209,310.230337 Z M253.583958,315.77809 L253.583958,316.901685 L252.654914,316.901685 C251.889815,316.901685 251.318277,316.714421 250.940282,316.339888 C250.562287,315.965354 250.373292,315.338019 250.373292,314.457865 L250.373292,310.300562 L249.252975,310.300562 L249.252975,309.191011 L250.373292,309.191011 L250.373292,307.266854 L251.630234,307.266854 L251.630234,309.191011 L253.570295,309.191011 L253.570295,310.300562 L251.630234,310.300562 L251.630234,314.485955 C251.630234,314.982212 251.719038,315.321628 251.896651,315.504213 C252.074263,315.686799 252.381664,315.77809 252.818863,315.77809 L253.583958,315.77809 Z M262,312.617978 C262,312.889514 261.981784,313.123595 261.94535,313.320225 L255.947554,313.320225 C255.974879,314.200379 256.218523,314.860485 256.678493,315.300562 C257.138463,315.740639 257.700893,315.960674 258.3658,315.960674 C258.966949,315.960674 259.470176,315.803841 259.875496,315.490169 C260.280816,315.176497 260.529014,314.757493 260.620097,314.233146 L261.94535,314.233146 C261.854267,314.766857 261.65161,315.24438 261.337373,315.66573 C261.023136,316.087081 260.615545,316.414793 260.114588,316.648876 C259.613631,316.88296 259.048923,317 258.42045,317 C257.700893,317 257.06332,316.840826 256.507713,316.522472 C255.952105,316.204118 255.51719,315.747662 255.202953,315.15309 C254.888716,314.558518 254.7316,313.858618 254.7316,313.053371 C254.7316,312.248123 254.888716,311.545883 255.202953,310.946629 C255.51719,310.347375 255.952105,309.888578 256.507713,309.570225 C257.06332,309.251871 257.700893,309.092697 258.42045,309.092697 C259.149115,309.092697 259.78441,309.251871 260.326355,309.570225 C260.8683,309.888578 261.282722,310.314604 261.569634,310.848315 C261.856546,311.382025 262,311.971907 262,312.617978 Z M260.743059,312.702247 C260.770384,312.131083 260.679302,311.65356 260.46981,311.269663 C260.260319,310.885766 259.973412,310.600188 259.609079,310.412921 C259.244746,310.225654 258.84854,310.132022 258.42045,310.132022 C257.737326,310.132022 257.16351,310.349717 256.698986,310.785112 C256.234462,311.220508 255.983987,311.859546 255.947554,312.702247 L260.743059,312.702247 Z" id="Date" fill="#8B8B8B"></path>
                    <path d="M32,270.986072 C32,269.416891 32.2608091,268.193598 32.7824351,267.316156 C33.3040612,266.438714 34.2075784,266 35.493014,266 C36.7784495,266 37.6842954,266.441036 38.2105788,267.32312 C38.7368622,268.205204 39,269.426176 39,270.986072 C39,272.564539 38.7368622,273.794796 38.2105788,274.67688 C37.6842954,275.558964 36.7784495,276 35.493014,276 C34.2075784,276 33.3040612,275.558964 32.7824351,274.67688 C32.2608091,273.794796 32,272.564539 32,270.986072 Z M37.742515,270.986072 C37.742515,270.187554 37.6842987,269.519037 37.5678643,268.980501 C37.4514299,268.441966 37.2302079,268.012536 36.9041916,267.692201 C36.5781753,267.371865 36.1077875,267.211699 35.493014,267.211699 C34.8875552,267.211699 34.4218247,267.371865 34.0958084,267.692201 C33.7697921,268.012536 33.5485701,268.441966 33.4321357,268.980501 C33.3157013,269.519037 33.257485,270.187554 33.257485,270.986072 C33.257485,271.793876 33.3157013,272.469357 33.4321357,273.012535 C33.5485701,273.555713 33.7697921,273.989785 34.0958084,274.314763 C34.4218247,274.639742 34.8875552,274.802228 35.493014,274.802228 C36.1077875,274.802228 36.5781753,274.639742 36.9041916,274.314763 C37.2302079,273.989785 37.4514299,273.555713 37.5678643,273.012535 C37.6842987,272.469357 37.742515,271.793876 37.742515,270.986072 Z" id="0" fill="#8B8B8B"></path>
                    <path d="M0,254.946648 C1.55159506,253.906972 2.79285249,252.87415 3.72380952,251.848153 C4.65476656,250.822156 5.1202381,249.866853 5.1202381,248.982216 C5.1202381,248.435018 4.98105298,247.994986 4.70267857,247.662107 C4.42430416,247.329228 3.97480469,247.162791 3.35416667,247.162791 C2.71527458,247.162791 2.23154926,247.365707 1.90297619,247.771546 C1.57440312,248.177385 1.39186526,248.735975 1.35535714,249.447332 L0.123214286,249.447332 C0.187103494,248.371176 0.520235083,247.543551 1.12261905,246.964432 C1.72500301,246.385314 2.5007889,246.095759 3.45,246.095759 C4.35357595,246.095759 5.07003704,246.337435 5.59940476,246.820793 C6.12877249,247.304152 6.39345238,247.98814 6.39345238,248.872777 C6.39345238,249.602375 6.15843489,250.343361 5.68839286,251.095759 C5.21835082,251.848157 4.62966624,252.545824 3.92232143,253.188782 C3.21497662,253.831741 2.48710692,254.376651 1.73869048,254.823529 L6.63988095,254.823529 L6.63988095,255.849521 L0,255.849521 L0,254.946648 Z M11.2809524,246 C11.9015904,246 12.4355136,246.109438 12.8827381,246.328317 C13.3299626,246.547197 13.6676576,246.848151 13.8958333,247.23119 C14.1240091,247.614229 14.2380952,248.047421 14.2380952,248.53078 C14.2380952,249.132698 14.0624026,249.638849 13.7110119,250.049248 C13.3596213,250.459646 12.8462335,250.705882 12.1708333,250.787962 L12.1708333,250.870041 C12.8736146,251.05244 13.4235099,251.335155 13.8205357,251.718194 C14.2175615,252.101233 14.4160714,252.630184 14.4160714,253.305062 C14.4160714,254.098499 14.1513915,254.746008 13.6220238,255.247606 C13.0926561,255.749205 12.3305605,256 11.3357143,256 C10.340868,256 9.53541975,255.742365 8.91934524,255.227086 C8.30327073,254.711808 7.94047674,253.957141 7.83095238,252.963064 L9.06309524,252.963064 C9.14523851,253.564982 9.37569255,254.043774 9.75446429,254.399453 C10.133236,254.755132 10.6466237,254.932969 11.2946429,254.932969 C11.9061539,254.932969 12.3761888,254.775651 12.7047619,254.461012 C13.033335,254.146373 13.197619,253.738261 13.197619,253.236662 C13.197619,252.634744 12.9626016,252.176472 12.4925595,251.861833 C12.0225175,251.547194 11.3539726,251.389877 10.4869048,251.389877 L10.1583333,251.389877 L10.1583333,250.350205 L10.4869048,250.350205 C12.1662782,250.350205 13.0059524,249.789335 13.0059524,248.667579 C13.0059524,248.1751 12.8507952,247.782947 12.5404762,247.491108 C12.2301572,247.199269 11.8011932,247.053352 11.2535714,247.053352 C10.7059496,247.053352 10.2450416,247.210669 9.87083333,247.525308 C9.49662511,247.839947 9.27757968,248.302779 9.21369048,248.913817 L7.9952381,248.913817 C8.0591273,248.001819 8.37628683,247.288192 8.94672619,246.772914 C9.51716555,246.257635 10.2952332,246 11.2809524,246 Z M22.5345238,247.24487 L17.5785714,247.24487 L17.5785714,250.473324 C17.8067472,250.163245 18.1353153,249.91701 18.5642857,249.73461 C18.9932561,249.552211 19.4632911,249.461012 19.9744048,249.461012 C20.658932,249.461012 21.2270811,249.60465 21.678869,249.891929 C22.130657,250.179208 22.4637886,250.557681 22.6782738,251.02736 C22.892759,251.497038 23,252.019149 23,252.593707 C23,253.587784 22.7216298,254.39945 22.164881,255.028728 C21.6081321,255.658006 20.7912752,255.97264 19.7142857,255.97264 C18.7468206,255.97264 17.9573443,255.710445 17.3458333,255.186047 C16.7343223,254.661648 16.3920639,253.957141 16.3190476,253.072503 L17.5511905,253.072503 C17.6515878,253.637942 17.8866053,254.077974 18.25625,254.392613 C18.6258947,254.707252 19.093648,254.864569 19.6595238,254.864569 C20.3623051,254.864569 20.8916649,254.654813 21.247619,254.235294 C21.6035732,253.815775 21.7815476,253.264025 21.7815476,252.580027 C21.7815476,251.914269 21.5990098,251.394439 21.2339286,251.02052 C20.8688474,250.646601 20.3531779,250.459644 19.6869048,250.459644 C19.2122992,250.459644 18.7970256,250.562242 18.4410714,250.767442 C18.0851173,250.972641 17.8158739,251.248516 17.6333333,251.595075 L16.4285714,251.595075 L16.4285714,246.136799 L22.5345238,246.136799 L22.5345238,247.24487 Z" id="235" fill="#8B8B8B"></path>
                    <path d="M2,206.946648 C3.49686283,205.906972 4.69433513,204.87415 5.59245283,203.848153 C6.49057053,202.822156 6.93962264,201.866853 6.93962264,200.982216 C6.93962264,200.435018 6.80534725,199.994986 6.53679245,199.662107 C6.26823765,199.329228 5.83459419,199.162791 5.23584906,199.162791 C4.61949377,199.162791 4.15283177,199.365707 3.83584906,199.771546 C3.51886634,200.177385 3.34276747,200.735975 3.30754717,201.447332 L2.11886792,201.447332 C2.18050345,200.371176 2.50188389,199.543551 3.08301887,198.964432 C3.66415385,198.385314 4.41257404,198.095759 5.32830189,198.095759 C6.20000436,198.095759 6.89119242,198.337435 7.40188679,198.820793 C7.91258117,199.304152 8.16792453,199.98814 8.16792453,200.872777 C8.16792453,201.602375 7.94119724,202.343361 7.48773585,203.095759 C7.03427446,203.848157 6.46635561,204.545824 5.78396226,205.188782 C5.10156892,205.831741 4.39937468,206.376651 3.67735849,206.823529 L8.40566038,206.823529 L8.40566038,207.849521 L2,207.849521 L2,206.946648 Z M12.8830189,198 C13.481764,198 13.9968532,198.109438 14.4283019,198.328317 C14.8597506,198.547197 15.1855335,198.848151 15.4056604,199.23119 C15.6257873,199.614229 15.7358491,200.047421 15.7358491,200.53078 C15.7358491,201.132698 15.5663539,201.638849 15.2273585,202.049248 C14.8883631,202.459646 14.393085,202.705882 13.7415094,202.787962 L13.7415094,202.870041 C14.4195002,203.05244 14.9499981,203.335155 15.3330189,203.718194 C15.7160397,204.101233 15.9075472,204.630184 15.9075472,205.305062 C15.9075472,206.098499 15.6522038,206.746008 15.1415094,207.247606 C14.6308151,207.749205 13.8956023,208 12.9358491,208 C11.9760958,208 11.1990596,207.742365 10.604717,207.227086 C10.0103744,206.711808 9.66037789,205.957141 9.55471698,204.963064 L10.7433962,204.963064 C10.8226419,205.564982 11.0449667,206.043774 11.4103774,206.399453 C11.775788,206.755132 12.2710661,206.932969 12.8962264,206.932969 C13.4861665,206.932969 13.9396211,206.775651 14.2566038,206.461012 C14.5735865,206.146373 14.7320755,205.738261 14.7320755,205.236662 C14.7320755,204.634744 14.5053482,204.176472 14.0518868,203.861833 C13.5984254,203.547194 12.9534633,203.389877 12.1169811,203.389877 L11.8,203.389877 L11.8,202.350205 L12.1169811,202.350205 C13.737115,202.350205 14.5471698,201.789335 14.5471698,200.667579 C14.5471698,200.1751 14.3974858,199.782947 14.0981132,199.491108 C13.7987406,199.199269 13.3849083,199.053352 12.8566038,199.053352 C12.3282992,199.053352 11.8836496,199.210669 11.5226415,199.525308 C11.1616334,199.839947 10.9503148,200.302779 10.8886792,200.913817 L9.71320755,200.913817 C9.77484308,200.001819 10.0808149,199.288192 10.6311321,198.772914 C11.1814493,198.257635 11.9320707,198 12.8830189,198 Z M23,199.162791 L19.4735849,207.904241 L18.2056604,207.904241 L21.7849057,199.28591 L16.8981132,199.28591 L16.8981132,198.205198 L23,198.205198 L23,199.162791 Z" id="237" fill="#8B8B8B"></path>
                    <path d="M1,158.934426 C2.49660612,157.89617 3.69387306,156.864759 4.59183673,155.840164 C5.48980041,154.815569 5.93877551,153.861571 5.93877551,152.978142 C5.93877551,152.431691 5.80452315,151.99226 5.53601441,151.659836 C5.26750566,151.327412 4.83393657,151.161202 4.23529412,151.161202 C3.61904454,151.161202 3.15246257,151.363841 2.83553421,151.769126 C2.51860586,152.17441 2.34253719,152.732237 2.30732293,153.442623 L1.11884754,153.442623 C1.1804725,152.367936 1.50179782,151.541442 2.08283313,150.963115 C2.66386845,150.384788 3.41216029,150.095628 4.32773109,150.095628 C5.19928407,150.095628 5.89035359,150.336974 6.40096038,150.819672 C6.91156718,151.30237 7.16686675,151.985424 7.16686675,152.868852 C7.16686675,153.597454 6.94017834,154.337428 6.48679472,155.088798 C6.0334111,155.840168 5.46558965,156.536882 4.78331333,157.178962 C4.101037,157.821041 3.39896319,158.365207 2.67707083,158.811475 L7.40456182,158.811475 L7.40456182,159.836066 L1,159.836066 L1,158.934426 Z M11.8811525,150 C12.4797949,150 12.9947958,150.109289 13.4261705,150.327869 C13.8575452,150.546449 14.1832722,150.846993 14.4033613,151.229508 C14.6234505,151.612024 14.7334934,152.044624 14.7334934,152.527322 C14.7334934,153.128418 14.5640273,153.633878 14.22509,154.043716 C13.8861528,154.453554 13.3909596,154.699453 12.7394958,154.781421 L12.7394958,154.863388 C13.4173703,155.045538 13.9477772,155.327867 14.3307323,155.710383 C14.7136874,156.092898 14.9051621,156.621126 14.9051621,157.295082 C14.9051621,158.087436 14.6498625,158.734059 14.1392557,159.234973 C13.6286489,159.735886 12.8935622,159.986339 11.9339736,159.986339 C10.974385,159.986339 10.197482,159.729055 9.6032413,159.214481 C9.00900063,158.699906 8.65906415,157.946271 8.55342137,156.953552 L9.74189676,156.953552 C9.82112885,157.554648 10.0434155,158.032785 10.4087635,158.387978 C10.7741115,158.743171 11.2693046,158.920765 11.8943577,158.920765 C12.4841966,158.920765 12.9375734,158.763663 13.2545018,158.449454 C13.5714302,158.135244 13.729892,157.727689 13.729892,157.226776 C13.729892,156.62568 13.5032035,156.168034 13.0498199,155.853825 C12.5964363,155.539616 11.9515848,155.382514 11.1152461,155.382514 L10.7983193,155.382514 L10.7983193,154.344262 L11.1152461,154.344262 C12.7351021,154.344262 13.545018,153.784159 13.545018,152.663934 C13.545018,152.172129 13.3953596,151.780511 13.0960384,151.489071 C12.7967172,151.197631 12.3829558,151.051913 11.8547419,151.051913 C11.326528,151.051913 10.8819546,151.209015 10.5210084,151.523224 C10.1600622,151.837433 9.94877982,152.299633 9.88715486,152.909836 L8.71188475,152.909836 C8.77350971,151.999085 9.07942902,151.286432 9.62965186,150.771858 C10.1798747,150.257283 10.9303674,150 11.8811525,150 Z M17.8235294,157.185792 C17.9027615,157.759566 18.096437,158.201273 18.4045618,158.510929 C18.7126866,158.820584 19.1352514,158.97541 19.6722689,158.97541 C20.4117684,158.97541 20.9707864,158.67942 21.3493397,158.087432 C21.727893,157.495443 21.9171669,156.557383 21.9171669,155.273224 C21.9171669,155.027321 21.9127652,154.84062 21.9039616,154.713115 C21.7807117,155.259566 21.4813949,155.69672 21.0060024,156.02459 C20.5306099,156.352461 19.9715918,156.516393 19.3289316,156.516393 C18.4045572,156.516393 17.6782739,156.229511 17.15006,155.655738 C16.6218461,155.081964 16.3577431,154.280515 16.3577431,153.251366 C16.3577431,152.65027 16.4721877,152.103828 16.7010804,151.612022 C16.9299731,151.120216 17.2799096,150.730876 17.7509004,150.443989 C18.2218911,150.157102 18.8051186,150.013661 19.5006002,150.013661 C20.8387422,150.013661 21.7565001,150.439431 22.2539016,151.290984 C22.751303,152.142536 23,153.310557 23,154.795082 C23,156.48908 22.7447004,157.78005 22.2340936,158.668033 C21.7234868,159.556015 20.8695538,160 19.6722689,160 C18.7831088,160 18.0854367,159.738163 17.5792317,159.214481 C17.0730267,158.690799 16.7759108,158.014576 16.6878752,157.185792 L17.8235294,157.185792 Z M21.785114,153.442623 C21.785114,152.786882 21.5980411,152.231332 21.2238896,151.775956 C20.849738,151.320581 20.2885191,151.092896 19.5402161,151.092896 C18.9239665,151.092896 18.4309742,151.284151 18.0612245,151.666667 C17.6914747,152.049182 17.5066026,152.581964 17.5066026,153.265027 C17.5066026,153.993628 17.6914747,154.553732 18.0612245,154.945355 C18.4309742,155.336978 18.9371717,155.532787 19.5798319,155.532787 C19.9495817,155.532787 20.3039199,155.455374 20.6428571,155.300546 C20.9817944,155.145719 21.2569017,154.908927 21.4681873,154.590164 C21.6794728,154.271401 21.785114,153.888891 21.785114,153.442623 Z" id="239" fill="#8B8B8B"></path>
                    <path d="M5,111.02371 C6.5000075,109.963732 7.6999955,108.910744 8.6,107.864714 C9.5000045,106.818684 9.95,105.844728 9.95,104.942817 C9.95,104.384934 9.81544252,103.93631 9.54632353,103.596932 C9.27720454,103.257553 8.84265006,103.087866 8.24264706,103.087866 C7.62499691,103.087866 7.15735453,103.294745 6.83970588,103.708508 C6.52205724,104.122271 6.34558841,104.691768 6.31029412,105.417015 L5.11911765,105.417015 C5.18088266,104.319846 5.50293826,103.476061 6.08529412,102.885635 C6.66764997,102.295209 7.41764247,102 8.33529412,102 C9.2088279,102 9.90146803,102.246395 10.4132353,102.739191 C10.9250026,103.231988 11.1808824,103.929331 11.1808824,104.831241 C11.1808824,105.575085 10.9536787,106.33054 10.4992647,107.097629 C10.0448507,107.864718 9.47573871,108.576008 8.79191176,109.23152 C8.10808482,109.887033 7.40441538,110.442583 6.68088235,110.898187 L11.4191176,110.898187 L11.4191176,111.944212 L5,111.944212 L5,111.02371 Z M12.3588235,109.740586 L12.3588235,108.680614 L17.15,102.097629 L18.4470588,102.097629 L18.4470588,108.638773 L19.8235294,108.638773 L19.8235294,109.740586 L18.4470588,109.740586 L18.4470588,112 L17.2294118,112 L17.2294118,109.740586 L12.3588235,109.740586 Z M17.3088235,103.645746 L13.6294118,108.638773 L17.3088235,108.638773 L17.3088235,103.645746 Z M20.3264706,103.352859 L20.3264706,102.167364 L23,102.167364 L23,112 L21.7294118,112 L21.7294118,103.352859 L20.3264706,103.352859 Z" id="241" fill="#8B8B8B"></path>
                    <path d="M0,61.9466484 C1.55808709,60.9069715 2.80453806,59.8741501 3.73939032,58.8481532 C4.67424257,57.8221563 5.14166169,56.8668535 5.14166169,55.9822161 C5.14166169,55.4350178 5.00189421,54.9949857 4.72235505,54.6621067 C4.4428159,54.3292277 3.99143567,54.1627907 3.36820084,54.1627907 C2.72663556,54.1627907 2.24088629,54.365707 1.91093843,54.7715458 C1.58099058,55.1773846 1.39768897,55.7359746 1.36102809,56.4473324 L0.123729827,56.4473324 C0.187886354,55.3711756 0.522411799,54.5435505 1.1273162,53.9644323 C1.7322206,53.385314 2.51125246,53.0957592 3.46443515,53.0957592 C4.37179175,53.0957592 5.09125058,53.3374349 5.62283323,53.8207934 C6.15441589,54.304152 6.42020323,54.9881397 6.42020323,55.872777 C6.42020323,56.6023748 6.1842024,57.3433615 5.71219366,58.0957592 C5.24018493,58.848157 4.64903722,59.5458244 3.93873282,60.1887825 C3.22842841,60.8317406 2.49751322,61.3766508 1.74596533,61.8235294 L6.66766288,61.8235294 L6.66766288,62.8495212 L0,62.8495212 L0,61.9466484 Z M7.64375374,60.6880985 L7.64375374,59.6484268 L12.6204423,53.1915185 L13.9677227,53.1915185 L13.9677227,59.6073871 L15.3974895,59.6073871 L15.3974895,60.6880985 L13.9677227,60.6880985 L13.9677227,62.9042408 L12.7029289,62.9042408 L12.7029289,60.6880985 L7.64375374,60.6880985 Z M12.7854154,54.7099863 L8.96353855,59.6073871 L12.7854154,59.6073871 L12.7854154,54.7099863 Z M19.8517633,53 C20.4749981,53 21.0111554,53.109438 21.460251,53.3283174 C21.9093467,53.5471967 22.2484547,53.8481513 22.4775852,54.2311902 C22.7067156,54.614229 22.8212791,55.0474212 22.8212791,55.5307798 C22.8212791,56.1326979 22.6448513,56.6388488 22.2919904,57.0492476 C21.9391295,57.4596464 21.4235937,57.7058819 20.7453676,57.7879617 L20.7453676,57.870041 C21.4510894,58.0524405 22.0032855,58.3351554 22.4019725,58.7181943 C22.8006595,59.1012331 23,59.6301836 23,60.3050616 C23,61.0984992 22.7342127,61.7460075 22.20263,62.247606 C21.6710474,62.7492045 20.9057631,63 19.9067543,63 C18.9077456,63 18.0989272,62.7423646 17.480275,62.2270862 C16.8616227,61.7118077 16.4973108,60.9571413 16.3873282,59.9630643 L17.6246264,59.9630643 C17.7071134,60.5649825 17.9385317,61.0437739 18.3188882,61.3994528 C18.6992448,61.7551317 19.2147806,61.9329685 19.8655111,61.9329685 C20.4795807,61.9329685 20.9515823,61.7756514 21.2815302,61.4610123 C21.611478,61.1463733 21.7764495,60.7382606 21.7764495,60.2366621 C21.7764495,59.6347439 21.5404487,59.1764722 21.0684399,58.8618331 C20.5964312,58.547194 19.925089,58.3898769 19.0543933,58.3898769 L18.7244471,58.3898769 L18.7244471,57.3502052 L19.0543933,57.3502052 C20.7407934,57.3502052 21.5839809,56.7893353 21.5839809,55.6675787 C21.5839809,55.1751001 21.4281745,54.7829472 21.1165571,54.4911081 C20.8049397,54.1992689 20.3741809,54.0533516 19.8242678,54.0533516 C19.2743547,54.0533516 18.8115181,54.2106687 18.4357442,54.5253078 C18.0599702,54.8399469 17.8400083,55.3027785 17.7758518,55.9138167 L16.5523013,55.9138167 C16.6164578,55.0018194 16.9349443,54.2881923 17.5077705,53.7729138 C18.0805966,53.2576354 18.8619197,53 19.8517633,53 Z" id="243" fill="#8B8B8B"></path>
                    <path d="M0,12.9612188 C1.52348317,11.908582 2.74225142,10.8628861 3.65634132,9.82409972 C4.57043122,8.78531337 5.02746932,7.81810235 5.02746932,6.92243767 C5.02746932,6.36841828 4.89080596,5.92290104 4.61747516,5.58587258 C4.34414436,5.24884411 3.90278894,5.08033241 3.29339568,5.08033241 C2.66607908,5.08033241 2.19111792,5.28577819 1.86849795,5.6966759 C1.54587799,6.10757361 1.36664736,6.67312659 1.3308007,7.3933518 L0.120981882,7.3933518 C0.183713542,6.30378033 0.510809433,5.46583857 1.10227937,4.87950139 C1.6937493,4.2931642 2.45547946,4 3.38749269,4 C4.2746976,4 4.9781778,4.24468823 5.49795441,4.73407202 C6.01773102,5.22345582 6.27761543,5.91596967 6.27761543,6.81163435 C6.27761543,7.55032687 6.046856,8.30055021 5.58533022,9.06232687 C5.12380443,9.82410353 4.54578567,10.5304677 3.85125658,11.1814404 C3.15672748,11.8324132 2.44204537,12.3841159 1.70718878,12.8365651 L6.51957919,12.8365651 L6.51957919,13.8753463 L0,13.8753463 L0,12.9612188 Z M7.47399182,11.6869806 L7.47399182,10.634349 L12.340152,4.09695291 L13.6575102,4.09695291 L13.6575102,10.5927978 L15.0555231,10.5927978 L15.0555231,11.6869806 L13.6575102,11.6869806 L13.6575102,13.9307479 L12.4208065,13.9307479 L12.4208065,11.6869806 L7.47399182,11.6869806 Z M12.5014611,5.63434903 L8.76446523,10.5927978 L12.5014611,10.5927978 L12.5014611,5.63434903 Z M22.5429573,5.1634349 L17.6767972,5.1634349 L17.6767972,8.43213296 C17.9008388,8.11818864 18.223454,7.86888366 18.6446523,7.68421053 C19.0658505,7.4995374 19.5273694,7.40720222 20.0292227,7.40720222 C20.7013476,7.40720222 21.2592029,7.55263012 21.7028054,7.8434903 C22.1464078,8.13435048 22.4735037,8.51754148 22.6841029,8.99307479 C22.894702,9.4686081 23,9.99722701 23,10.5789474 C23,11.5854159 22.7266733,12.407199 22.1800117,13.0443213 C21.6333501,13.6814436 20.831293,14 19.7738165,14 C18.8238799,14 18.0487075,13.7345364 17.4482759,13.2036011 C16.8478443,12.6726659 16.5117868,11.9593766 16.4400935,11.0637119 L17.6499123,11.0637119 C17.7484907,11.6361986 17.9792501,12.0817159 18.3421975,12.400277 C18.705145,12.7188382 19.1644235,12.8781163 19.7200468,12.8781163 C20.410095,12.8781163 20.9298638,12.6657454 21.2793688,12.2409972 C21.6288738,11.816249 21.8036236,11.2576212 21.8036236,10.565097 C21.8036236,9.89104003 21.624393,9.3647295 21.2659264,8.98614958 C20.9074597,8.60756967 20.4011332,8.41828255 19.7469316,8.41828255 C19.280925,8.41828255 18.8731753,8.52215963 18.5236704,8.7299169 C18.1741654,8.93767417 17.9098002,9.21698809 17.7305669,9.56786704 L16.547633,9.56786704 L16.547633,4.04155125 L22.5429573,4.04155125 L22.5429573,5.1634349 Z" id="245" fill="#8B8B8B"></path>
                    <path d="M109,274.986111 C110.569722,273.93055 111.82548,272.88195 112.767313,271.840278 C113.709146,270.798606 114.180055,269.828708 114.180055,268.930556 C114.180055,268.374997 114.039244,267.928242 113.757618,267.590278 C113.475991,267.252313 113.02124,267.083333 112.393352,267.083333 C111.746996,267.083333 111.257619,267.28935 110.925208,267.701389 C110.592796,268.113428 110.408126,268.680552 110.371191,269.402778 L109.124654,269.402778 C109.189289,268.31018 109.526313,267.46991 110.135734,266.881944 C110.745155,266.293979 111.530004,266 112.490305,266 C113.404437,266 114.129268,266.245368 114.66482,266.736111 C115.200372,267.226854 115.468144,267.921292 115.468144,268.819444 C115.468144,269.560189 115.230381,270.312496 114.754848,271.076389 C114.279314,271.840282 113.683752,272.548608 112.968144,273.201389 C112.252536,273.85417 111.516163,274.407405 110.759003,274.861111 L115.717452,274.861111 L115.717452,275.902778 L109,275.902778 L109,274.986111 Z M117.060942,271 C117.060942,269.435177 117.31948,268.215282 117.836565,267.340278 C118.35365,266.465273 119.249301,266.027778 120.523546,266.027778 C121.79779,266.027778 122.69575,266.467588 123.217452,267.347222 C123.739153,268.226856 124,269.444437 124,271 C124,272.574082 123.739153,273.800922 123.217452,274.680556 C122.69575,275.56019 121.79779,276 120.523546,276 C119.249301,276 118.35365,275.56019 117.836565,274.680556 C117.31948,273.800922 117.060942,272.574082 117.060942,271 Z M122.753463,271 C122.753463,270.2037 122.695753,269.53704 122.580332,269 C122.464912,268.46296 122.245616,268.034724 121.922438,267.715278 C121.59926,267.395832 121.132967,267.236111 120.523546,267.236111 C119.923358,267.236111 119.461682,267.395832 119.138504,267.715278 C118.815326,268.034724 118.59603,268.46296 118.480609,269 C118.365189,269.53704 118.307479,270.2037 118.307479,271 C118.307479,271.80556 118.365189,272.479164 118.480609,273.020833 C118.59603,273.562503 118.815326,273.995369 119.138504,274.319444 C119.461682,274.64352 119.923358,274.805556 120.523546,274.805556 C121.132967,274.805556 121.59926,274.64352 121.922438,274.319444 C122.245616,273.995369 122.464912,273.562503 122.580332,273.020833 C122.695753,272.479164 122.753463,271.80556 122.753463,271 Z" id="20" fill="#8B8B8B"></path>
                    <path d="M69,267.32312 L69,266.139276 L71.6706731,266.139276 L71.6706731,275.958217 L70.4014423,275.958217 L70.4014423,267.32312 L69,267.32312 Z M73.3762019,270.986072 C73.3762019,269.416891 73.6229943,268.193598 74.1165865,267.316156 C74.6101788,266.438714 75.4651381,266 76.6814904,266 C77.8978426,266 78.7550055,266.441036 79.2530048,267.32312 C79.7510041,268.205204 80,269.426176 80,270.986072 C80,272.564539 79.7510041,273.794796 79.2530048,274.67688 C78.7550055,275.558964 77.8978426,276 76.6814904,276 C75.4651381,276 74.6101788,275.558964 74.1165865,274.67688 C73.6229943,273.794796 73.3762019,272.564539 73.3762019,270.986072 Z M78.8100962,270.986072 C78.8100962,270.187554 78.7550086,269.519037 78.6448317,268.980501 C78.5346549,268.441966 78.3253221,268.012536 78.0168269,267.692201 C77.7083318,267.371865 77.2632241,267.211699 76.6814904,267.211699 C76.1085709,267.211699 75.6678701,267.371865 75.359375,267.692201 C75.0508799,268.012536 74.841547,268.441966 74.7313702,268.980501 C74.6211934,269.519037 74.5661058,270.187554 74.5661058,270.986072 C74.5661058,271.793876 74.6211934,272.469357 74.7313702,273.012535 C74.841547,273.555713 75.0508799,273.989785 75.359375,274.314763 C75.6678701,274.639742 76.1085709,274.802228 76.6814904,274.802228 C77.2632241,274.802228 77.7083318,274.639742 78.0168269,274.314763 C78.3253221,273.989785 78.5346549,273.555713 78.6448317,273.012535 C78.7550086,272.469357 78.8100962,271.793876 78.8100962,270.986072 Z" id="10" fill="#8B8B8B"></path>
                    <path d="M157.436364,266 C158.054549,266 158.586361,266.109438 159.031818,266.328317 C159.477275,266.547197 159.813635,266.848151 160.040909,267.23119 C160.268183,267.614229 160.381818,268.047421 160.381818,268.53078 C160.381818,269.132698 160.20682,269.638849 159.856818,270.049248 C159.506816,270.459646 158.995458,270.705882 158.322727,270.787962 L158.322727,270.870041 C159.022731,271.05244 159.570453,271.335155 159.965909,271.718194 C160.361366,272.101233 160.559091,272.630184 160.559091,273.305062 C160.559091,274.098499 160.295457,274.746008 159.768182,275.247606 C159.240906,275.749205 158.481823,276 157.490909,276 C156.499995,276 155.69773,275.742365 155.084091,275.227086 C154.470451,274.711808 154.109091,273.957141 154,272.963064 L155.227273,272.963064 C155.309091,273.564982 155.538634,274.043774 155.915909,274.399453 C156.293184,274.755132 156.804542,274.932969 157.45,274.932969 C158.059094,274.932969 158.527271,274.775651 158.854545,274.461012 C159.18182,274.146373 159.345455,273.738261 159.345455,273.236662 C159.345455,272.634744 159.111366,272.176472 158.643182,271.861833 C158.174998,271.547194 157.509095,271.389877 156.645455,271.389877 L156.318182,271.389877 L156.318182,270.350205 L156.645455,270.350205 C158.31819,270.350205 159.154545,269.789335 159.154545,268.667579 C159.154545,268.1751 159.000002,267.782947 158.690909,267.491108 C158.381817,267.199269 157.954548,267.053352 157.409091,267.053352 C156.863634,267.053352 156.404547,267.210669 156.031818,267.525308 C155.659089,267.839947 155.440909,268.302779 155.377273,268.913817 L154.163636,268.913817 C154.227273,268.001819 154.543179,267.288192 155.111364,266.772914 C155.679548,266.257635 156.454541,266 157.436364,266 Z M162.168182,271.02052 C162.168182,269.479244 162.422725,268.277706 162.931818,267.415869 C163.440912,266.554031 164.322721,266.123119 165.577273,266.123119 C166.831824,266.123119 167.715907,266.556311 168.229545,267.422709 C168.743184,268.289106 169,269.488364 169,271.02052 C169,272.570915 168.743184,273.779293 168.229545,274.645691 C167.715907,275.512088 166.831824,275.94528 165.577273,275.94528 C164.322721,275.94528 163.440912,275.512088 162.931818,274.645691 C162.422725,273.779293 162.168182,272.570915 162.168182,271.02052 Z M167.772727,271.02052 C167.772727,270.236202 167.71591,269.579574 167.602273,269.050616 C167.488636,268.521657 167.272729,268.099865 166.954545,267.785226 C166.636362,267.470587 166.177276,267.313269 165.577273,267.313269 C164.986361,267.313269 164.53182,267.470587 164.213636,267.785226 C163.895453,268.099865 163.679546,268.521657 163.565909,269.050616 C163.452272,269.579574 163.395455,270.236202 163.395455,271.02052 C163.395455,271.813957 163.452272,272.477426 163.565909,273.010944 C163.679546,273.544462 163.895453,273.970815 164.213636,274.290014 C164.53182,274.609213 164.986361,274.76881 165.577273,274.76881 C166.177276,274.76881 166.636362,274.609213 166.954545,274.290014 C167.272729,273.970815 167.488636,273.544462 167.602273,273.010944 C167.71591,272.477426 167.772727,271.813957 167.772727,271.02052 Z" id="30" fill="#8B8B8B"></path>
                    <path d="M199,273.70195 L199,272.643454 L203.734089,266.069638 L205.015693,266.069638 L205.015693,272.601671 L206.375763,272.601671 L206.375763,273.70195 L205.015693,273.70195 L205.015693,275.958217 L203.812554,275.958217 L203.812554,273.70195 L199,273.70195 Z M203.89102,267.615599 L200.255449,272.601671 L203.89102,272.601671 L203.89102,267.615599 Z M207.448126,270.986072 C207.448126,269.416891 207.692238,268.193598 208.180471,267.316156 C208.668703,266.438714 209.514379,266 210.717524,266 C211.920669,266 212.768524,266.441036 213.261116,267.32312 C213.753708,268.205204 214,269.426176 214,270.986072 C214,272.564539 213.753708,273.794796 213.261116,274.67688 C212.768524,275.558964 211.920669,276 210.717524,276 C209.514379,276 208.668703,275.558964 208.180471,274.67688 C207.692238,273.794796 207.448126,272.564539 207.448126,270.986072 Z M212.823017,270.986072 C212.823017,270.187554 212.768527,269.519037 212.659547,268.980501 C212.550566,268.441966 212.343506,268.012536 212.038361,267.692201 C211.733216,267.371865 211.292941,267.211699 210.717524,267.211699 C210.150825,267.211699 209.71491,267.371865 209.409765,267.692201 C209.104619,268.012536 208.897559,268.441966 208.788579,268.980501 C208.679598,269.519037 208.625109,270.187554 208.625109,270.986072 C208.625109,271.793876 208.679598,272.469357 208.788579,273.012535 C208.897559,273.555713 209.104619,273.989785 209.409765,274.314763 C209.71491,274.639742 210.150825,274.802228 210.717524,274.802228 C211.292941,274.802228 211.733216,274.639742 212.038361,274.314763 C212.343506,273.989785 212.550566,273.555713 212.659547,273.012535 C212.768527,272.469357 212.823017,271.793876 212.823017,270.986072 Z" id="40" fill="#8B8B8B"></path>
                    <path d="M250.213504,267.138889 L245.259124,267.138889 L245.259124,270.416667 C245.487227,270.10185 245.815691,269.851853 246.244526,269.666667 C246.67336,269.481481 247.143246,269.388889 247.654197,269.388889 C248.338507,269.388889 248.906476,269.534721 249.35812,269.826389 C249.809765,270.118057 250.142791,270.502312 250.357208,270.979167 C250.571625,271.456021 250.678832,271.986108 250.678832,272.569444 C250.678832,273.578709 250.40055,274.402775 249.843978,275.041667 C249.287406,275.680559 248.470808,276 247.394161,276 C246.427002,276 245.637777,275.733799 245.02646,275.201389 C244.415143,274.668979 244.072993,273.953708 244,273.055556 L245.231752,273.055556 C245.332117,273.629633 245.56706,274.076387 245.936588,274.395833 C246.306115,274.715279 246.77372,274.875 247.339416,274.875 C248.041974,274.875 248.571166,274.662039 248.927007,274.236111 C249.282848,273.810183 249.460766,273.250003 249.460766,272.555556 C249.460766,271.879626 249.278286,271.351854 248.913321,270.972222 C248.548356,270.592591 248.03285,270.402778 247.366788,270.402778 C246.892333,270.402778 246.477192,270.506943 246.12135,270.715278 C245.765509,270.923612 245.496351,271.203702 245.313869,271.555556 L244.109489,271.555556 L244.109489,266.013889 L250.213504,266.013889 L250.213504,267.138889 Z M252.143248,270.972222 C252.143248,269.4074 252.39872,268.187504 252.909672,267.3125 C253.420623,266.437496 254.305651,266 255.564781,266 C256.823911,266 257.71122,266.43981 258.226734,267.319444 C258.742247,268.199078 259,269.416659 259,270.972222 C259,272.546304 258.742247,273.773144 258.226734,274.652778 C257.71122,275.532412 256.823911,275.972222 255.564781,275.972222 C254.305651,275.972222 253.420623,275.532412 252.909672,274.652778 C252.39872,273.773144 252.143248,272.546304 252.143248,270.972222 Z M257.768248,270.972222 C257.768248,270.175922 257.711223,269.509262 257.597172,268.972222 C257.48312,268.435182 257.266425,268.006946 256.94708,267.6875 C256.627736,267.368054 256.166974,267.208333 255.564781,267.208333 C254.971712,267.208333 254.515513,267.368054 254.196168,267.6875 C253.876823,268.006946 253.660128,268.435182 253.546077,268.972222 C253.432025,269.509262 253.375,270.175922 253.375,270.972222 C253.375,271.777782 253.432025,272.451386 253.546077,272.993056 C253.660128,273.534725 253.876823,273.967591 254.196168,274.291667 C254.515513,274.615742 254.971712,274.777778 255.564781,274.777778 C256.166974,274.777778 256.627736,274.615742 256.94708,274.291667 C257.266425,273.967591 257.48312,273.534725 257.597172,272.993056 C257.711223,272.451386 257.768248,271.777782 257.768248,270.972222 Z" id="50" fill="#8B8B8B"></path>
                    <path d="M294.26009,268.821918 C294.18834,268.246572 293.997759,267.801371 293.688341,267.486301 C293.378922,267.171231 292.950675,267.013699 292.403587,267.013699 C291.641252,267.013699 291.065024,267.315065 290.674888,267.917808 C290.284751,268.520551 290.089686,269.474879 290.089686,270.780822 L290.103139,271.287671 C290.237669,270.739723 290.547083,270.303655 291.03139,269.979452 C291.515697,269.65525 292.085199,269.493151 292.73991,269.493151 C293.681619,269.493151 294.41928,269.780819 294.952915,270.356164 C295.48655,270.93151 295.753363,271.735155 295.753363,272.767123 C295.753363,273.369866 295.636772,273.915523 295.403587,274.40411 C295.170402,274.892697 294.813904,275.28082 294.334081,275.568493 C293.854258,275.856166 293.260093,276 292.55157,276 C291.197303,276 290.266819,275.566214 289.76009,274.69863 C289.253361,273.831046 289,272.652975 289,271.164384 C289,269.44748 289.271298,268.157539 289.813901,267.294521 C290.356505,266.431503 291.242146,266 292.470852,266 C293.376686,266 294.073989,266.260271 294.56278,266.780822 C295.051572,267.301372 295.340807,267.981731 295.430493,268.821918 L294.26009,268.821918 Z M290.237668,272.561644 C290.237668,273.228314 290.428249,273.787669 290.809417,274.239726 C291.190585,274.691783 291.762328,274.917808 292.524664,274.917808 C293.15247,274.917808 293.654707,274.728312 294.03139,274.349315 C294.408074,273.970318 294.596413,273.43836 294.596413,272.753425 C294.596413,272.013695 294.408074,271.449774 294.03139,271.061644 C293.654707,270.673514 293.134532,270.479452 292.470852,270.479452 C292.094169,270.479452 291.735428,270.557077 291.394619,270.712329 C291.05381,270.867581 290.775786,271.102738 290.560538,271.417808 C290.34529,271.732878 290.237668,272.114153 290.237668,272.561644 Z M297.26009,271.013699 C297.26009,269.470312 297.511208,268.267128 298.013453,267.40411 C298.515698,266.541092 299.385644,266.109589 300.623318,266.109589 C301.860993,266.109589 302.733181,266.543375 303.23991,267.410959 C303.746639,268.278543 304,269.479444 304,271.013699 C304,272.566218 303.746639,273.776251 303.23991,274.643836 C302.733181,275.51142 301.860993,275.945205 300.623318,275.945205 C299.385644,275.945205 298.515698,275.51142 298.013453,274.643836 C297.511208,273.776251 297.26009,272.566218 297.26009,271.013699 Z M302.789238,271.013699 C302.789238,270.228307 302.733184,269.570779 302.621076,269.041096 C302.508968,268.511413 302.295966,268.089043 301.982063,267.773973 C301.66816,267.458903 301.21525,267.30137 300.623318,267.30137 C300.040356,267.30137 299.59193,267.458903 299.278027,267.773973 C298.964124,268.089043 298.751122,268.511413 298.639013,269.041096 C298.526905,269.570779 298.470852,270.228307 298.470852,271.013699 C298.470852,271.808223 298.526905,272.4726 298.639013,273.006849 C298.751122,273.541099 298.964124,273.968035 299.278027,274.287671 C299.59193,274.607308 300.040356,274.767123 300.623318,274.767123 C301.21525,274.767123 301.66816,274.607308 301.982063,274.287671 C302.295966,273.968035 302.508968,273.541099 302.621076,273.006849 C302.733184,272.4726 302.789238,271.808223 302.789238,271.013699 Z" id="60" fill="#8B8B8B"></path>
                    <path d="M334.582187,275.958658 C334.713067,275.182597 334.899229,274.511964 335.14068,273.94674 C335.382131,273.381516 335.80974,272.605466 336.423521,271.618567 L339.158445,267.244832 L334,267.244832 L334,266 L340.431132,266 L340.431132,267.244832 C337.86318,271.008506 336.425779,273.913086 336.118889,275.958658 L334.582187,275.958658 Z M342.054052,271.038973 C342.054052,269.486348 342.312847,268.275961 342.830446,267.407777 C343.348044,266.539593 344.244584,266.105508 345.520094,266.105508 C346.795604,266.105508 347.694455,266.54189 348.216675,267.414668 C348.738894,268.287445 349,269.495535 349,271.038973 C349,272.600786 348.738894,273.818063 348.216675,274.69084 C347.694455,275.563618 346.795604,276 345.520094,276 C344.244584,276 343.348044,275.563618 342.830446,274.69084 C342.312847,273.818063 342.054052,272.600786 342.054052,271.038973 Z M347.752225,271.038973 C347.752225,270.24888 347.694458,269.587416 347.578923,269.054563 C347.463388,268.521709 347.243874,268.096811 346.920375,267.779854 C346.596876,267.462898 346.13012,267.304423 345.520094,267.304423 C344.91931,267.304423 344.457176,267.462898 344.133677,267.779854 C343.810178,268.096811 343.590665,268.521709 343.475129,269.054563 C343.359594,269.587416 343.301827,270.24888 343.301827,271.038973 C343.301827,271.838254 343.359594,272.506608 343.475129,273.044055 C343.590665,273.581502 343.810178,274.010994 344.133677,274.332544 C344.457176,274.654093 344.91931,274.814866 345.520094,274.814866 C346.13012,274.814866 346.596876,274.654093 346.920375,274.332544 C347.243874,274.010994 347.463388,273.581502 347.578923,273.044055 C347.694458,272.506608 347.752225,271.838254 347.752225,271.038973 Z" id="70" fill="#8B8B8B"></path>
                    <path d="M379.238938,268.516734 C379.238938,268.052653 379.362831,267.628739 379.610619,267.24498 C379.858408,266.861221 380.225661,266.557788 380.712389,266.334672 C381.199117,266.111556 381.778758,266 382.451327,266 C383.123897,266 383.701325,266.111556 384.183628,266.334672 C384.665932,266.557788 385.030972,266.861221 385.278761,267.24498 C385.52655,267.628739 385.650442,268.052653 385.650442,268.516734 C385.650442,269.043287 385.508851,269.498436 385.225664,269.882195 C384.942476,270.265955 384.513277,270.538152 383.938053,270.698795 C384.557525,270.868363 385.039821,271.162872 385.384956,271.582329 C385.73009,272.001787 385.902655,272.519408 385.902655,273.135207 C385.902655,274.027671 385.588499,274.728244 384.960177,275.236948 C384.331855,275.745652 383.49558,276 382.451327,276 C381.407074,276 380.5708,275.745652 379.942478,275.236948 C379.314156,274.728244 379,274.027671 379,273.135207 C379,272.519408 379.170352,272.001787 379.511062,271.582329 C379.851772,271.162872 380.331855,270.868363 380.951327,270.698795 C380.376103,270.538152 379.946904,270.265955 379.663717,269.882195 C379.38053,269.498436 379.238938,269.043287 379.238938,268.516734 Z M380.433628,268.690763 C380.433628,269.226241 380.615042,269.638999 380.977876,269.92905 C381.34071,270.2191 381.831855,270.364123 382.451327,270.364123 C383.0708,270.364123 383.559733,270.2191 383.918142,269.92905 C384.27655,269.638999 384.455752,269.226241 384.455752,268.690763 C384.455752,268.155285 384.274338,267.742527 383.911504,267.452477 C383.548671,267.162426 383.06195,267.017403 382.451327,267.017403 C381.840705,267.017403 381.351772,267.162426 380.984513,267.452477 C380.617255,267.742527 380.433628,268.155285 380.433628,268.690763 Z M380.181416,273.068273 C380.181416,273.675148 380.384954,274.145915 380.792035,274.480589 C381.199117,274.815263 381.752209,274.982597 382.451327,274.982597 C383.141596,274.982597 383.690263,274.813032 384.097345,274.473896 C384.504427,274.13476 384.707965,273.666223 384.707965,273.068273 C384.707965,272.461398 384.495577,272.001786 384.070796,271.689424 C383.646016,271.377062 383.106198,271.220884 382.451327,271.220884 C381.787607,271.220884 381.243365,271.377062 380.818584,271.689424 C380.393803,272.001786 380.181416,272.461398 380.181416,273.068273 Z M387.349558,270.953146 C387.349558,269.444883 387.597343,268.269081 388.09292,267.425703 C388.588498,266.582325 389.446897,266.160643 390.668142,266.160643 C391.889387,266.160643 392.749997,266.584556 393.25,267.432396 C393.750002,268.280236 394,269.453808 394,270.953146 C394,272.470333 393.750002,273.652829 393.25,274.500669 C392.749997,275.348509 391.889387,275.772423 390.668142,275.772423 C389.446897,275.772423 388.588498,275.348509 388.09292,274.500669 C387.597343,273.652829 387.349558,272.470333 387.349558,270.953146 Z M392.80531,270.953146 C392.80531,270.185628 392.750001,269.543064 392.639381,269.025435 C392.528761,268.507806 392.318586,268.095048 392.00885,267.787149 C391.699113,267.479249 391.252215,267.325301 390.668142,267.325301 C390.092917,267.325301 389.650444,267.479249 389.340708,267.787149 C389.030972,268.095048 388.820797,268.507806 388.710177,269.025435 C388.599557,269.543064 388.544248,270.185628 388.544248,270.953146 C388.544248,271.729589 388.599557,272.378846 388.710177,272.900937 C388.820797,273.423028 389.030972,273.840248 389.340708,274.15261 C389.650444,274.464973 390.092917,274.621151 390.668142,274.621151 C391.252215,274.621151 391.699113,274.464973 392.00885,274.15261 C392.318586,273.840248 392.528761,273.423028 392.639381,272.900937 C392.750001,272.378846 392.80531,271.729589 392.80531,270.953146 Z" id="80" fill="#8B8B8B"></path>
                    <path d="M425.4906,273.181943 C425.571173,273.756501 425.768127,274.198813 426.081468,274.508892 C426.394809,274.818971 426.824527,274.974008 427.370636,274.974008 C428.122654,274.974008 428.691135,274.677614 429.076097,274.084815 C429.461058,273.492017 429.653536,272.552674 429.653536,271.266758 C429.653536,271.020519 429.64906,270.833562 429.640107,270.705882 C429.514771,271.253081 429.210387,271.690833 428.726947,272.019152 C428.243507,272.347471 427.675026,272.511628 427.021486,272.511628 C426.081464,272.511628 425.342885,272.224353 424.80573,271.649795 C424.268574,271.075237 424,270.272691 424,269.242134 C424,268.640216 424.116382,268.093026 424.34915,267.600547 C424.581917,267.108069 424.937777,266.718196 425.416741,266.430917 C425.895705,266.143637 426.488806,266 427.196061,266 C428.556856,266 429.49015,266.426352 429.995971,267.27907 C430.501793,268.131787 430.7547,269.301406 430.7547,270.787962 C430.7547,272.484277 430.495079,273.777013 429.975828,274.666211 C429.456578,275.555408 428.588189,276 427.370636,276 C426.466423,276 425.756941,275.737805 425.242167,275.213406 C424.727392,274.689008 424.425247,274.01186 424.335721,273.181943 L425.4906,273.181943 Z M429.519248,269.433653 C429.519248,268.777015 429.329008,268.220705 428.948523,267.764706 C428.568037,267.308707 427.997318,267.080711 427.236347,267.080711 C426.609666,267.080711 426.108328,267.272228 425.732319,267.655267 C425.35631,268.038306 425.168308,268.571816 425.168308,269.255814 C425.168308,269.985412 425.35631,270.546282 425.732319,270.93844 C426.108328,271.330599 426.623094,271.526676 427.276634,271.526676 C427.652643,271.526676 428.012979,271.449157 428.357654,271.294118 C428.702329,271.139078 428.982094,270.901962 429.196956,270.582763 C429.411818,270.263564 429.519248,269.880531 429.519248,269.433653 Z M432.272158,271.00684 C432.272158,269.465565 432.522826,268.264026 433.024172,267.402189 C433.525517,266.540351 434.393906,266.109439 435.629364,266.109439 C436.864823,266.109439 437.73545,266.542631 438.241271,267.409029 C438.747093,268.275426 439,269.474685 439,271.00684 C439,272.557235 438.747093,273.765614 438.241271,274.632011 C437.73545,275.498408 436.864823,275.931601 435.629364,275.931601 C434.393906,275.931601 433.525517,275.498408 433.024172,274.632011 C432.522826,273.765614 432.272158,272.557235 432.272158,271.00684 Z M437.791406,271.00684 C437.791406,270.222522 437.735453,269.565894 437.623545,269.036936 C437.511638,268.507977 437.299017,268.086185 436.985676,267.771546 C436.672335,267.456907 436.220236,267.29959 435.629364,267.29959 C435.047446,267.29959 434.599823,267.456907 434.286482,267.771546 C433.973141,268.086185 433.76052,268.507977 433.648612,269.036936 C433.536705,269.565894 433.480752,270.222522 433.480752,271.00684 C433.480752,271.800278 433.536705,272.463746 433.648612,272.997264 C433.76052,273.530782 433.973141,273.957135 434.286482,274.276334 C434.599823,274.595533 435.047446,274.75513 435.629364,274.75513 C436.220236,274.75513 436.672335,274.595533 436.985676,274.276334 C437.299017,273.957135 437.511638,273.530782 437.623545,272.997264 C437.735453,272.463746 437.791406,271.800278 437.791406,271.00684 Z" id="90" fill="#8B8B8B"></path>
                    <path d="M468,267.32312 L468,266.139276 L470.654219,266.139276 L470.654219,275.958217 L469.392808,275.958217 L469.392808,267.32312 L468,267.32312 Z M472.349239,270.986072 C472.349239,269.416891 472.594511,268.193598 473.085062,267.316156 C473.575613,266.438714 474.425305,266 475.634163,266 C476.843021,266 477.694903,266.441036 478.189834,267.32312 C478.684765,268.205204 478.932227,269.426176 478.932227,270.986072 C478.932227,272.564539 478.684765,273.794796 478.189834,274.67688 C477.694903,275.558964 476.843021,276 475.634163,276 C474.425305,276 473.575613,275.558964 473.085062,274.67688 C472.594511,273.794796 472.349239,272.564539 472.349239,270.986072 Z M477.749654,270.986072 C477.749654,270.187554 477.694906,269.519037 477.585408,268.980501 C477.47591,268.441966 477.267867,268.012536 476.961272,267.692201 C476.654678,267.371865 476.212313,267.211699 475.634163,267.211699 C475.064774,267.211699 474.626788,267.371865 474.320194,267.692201 C474.013599,268.012536 473.805556,268.441966 473.696058,268.980501 C473.58656,269.519037 473.531812,270.187554 473.531812,270.986072 C473.531812,271.793876 473.58656,272.469357 473.696058,273.012535 C473.805556,273.555713 474.013599,273.989785 474.320194,274.314763 C474.626788,274.639742 475.064774,274.802228 475.634163,274.802228 C476.212313,274.802228 476.654678,274.639742 476.961272,274.314763 C477.267867,273.989785 477.47591,273.555713 477.585408,273.012535 C477.694906,272.469357 477.749654,271.793876 477.749654,270.986072 Z M480.417012,270.986072 C480.417012,269.416891 480.662284,268.193598 481.152835,267.316156 C481.643387,266.438714 482.493078,266 483.701936,266 C484.910794,266 485.762676,266.441036 486.257607,267.32312 C486.752538,268.205204 487,269.426176 487,270.986072 C487,272.564539 486.752538,273.794796 486.257607,274.67688 C485.762676,275.558964 484.910794,276 483.701936,276 C482.493078,276 481.643387,275.558964 481.152835,274.67688 C480.662284,273.794796 480.417012,272.564539 480.417012,270.986072 Z M485.817427,270.986072 C485.817427,270.187554 485.762679,269.519037 485.653181,268.980501 C485.543683,268.441966 485.33564,268.012536 485.029046,267.692201 C484.722451,267.371865 484.280086,267.211699 483.701936,267.211699 C483.132547,267.211699 482.694561,267.371865 482.387967,267.692201 C482.081372,268.012536 481.873329,268.441966 481.763831,268.980501 C481.654333,269.519037 481.599585,270.187554 481.599585,270.986072 C481.599585,271.793876 481.654333,272.469357 481.763831,273.012535 C481.873329,273.555713 482.081372,273.989785 482.387967,274.314763 C482.694561,274.639742 483.132547,274.802228 483.701936,274.802228 C484.280086,274.802228 484.722451,274.639742 485.029046,274.314763 C485.33564,273.989785 485.543683,273.555713 485.653181,273.012535 C485.762679,272.469357 485.817427,271.793876 485.817427,270.986072 Z" id="100" fill="#8B8B8B"></path>
                    <rect id="Rectangle" fill="#DEDEDE" x="36" y="251" width="453" height="1"></rect>
                    <rect id="Rectangle-Copy-4" fill="#DEDEDE" x="32" y="202" width="4" height="1"></rect>
                    <rect id="Rectangle-Copy-5" fill="#DEDEDE" x="32" y="154" width="4" height="1"></rect>
                    <rect id="Rectangle-Copy-6" fill="#DEDEDE" x="32" y="107" width="4" height="1"></rect>
                    <rect id="Rectangle-Copy-27" fill="#DEDEDE" x="32" y="57" width="4" height="1"></rect>
                    <rect id="Rectangle-Copy-6" fill="#DEDEDE" x="32" y="9" width="4" height="1"></rect>
                    <rect id="Rectangle" fill="#DEDEDE" x="36" y="9" width="1" height="242"></rect>
                    <rect id="Rectangle-Copy" fill="#DEDEDE" x="162" y="252" width="1" height="4"></rect>
                    <rect id="Rectangle-Copy-25" fill="#DEDEDE" x="117" y="252" width="1" height="4"></rect>
                    <rect id="Rectangle-Copy-26" fill="#DEDEDE" x="74" y="252" width="1" height="4"></rect>
                    <rect id="Rectangle-Copy-2" fill="#DEDEDE" x="207" y="252" width="1" height="4"></rect>
                    <rect id="Rectangle-Copy-2" fill="#DEDEDE" x="251" y="252" width="1" height="4"></rect>
                    <rect id="Rectangle-Copy-2" fill="#DEDEDE" x="341" y="252" width="1" height="4"></rect>
                    <rect id="Rectangle-Copy-24" fill="#DEDEDE" x="296" y="252" width="1" height="4"></rect>
                    <rect id="Rectangle-Copy-2" fill="#DEDEDE" x="386" y="252" width="1" height="4"></rect>
                    <rect id="Rectangle-Copy-2" fill="#DEDEDE" x="478" y="252" width="1" height="4"></rect>
                    <rect id="Rectangle-Copy-23" fill="#DEDEDE" x="431" y="252" width="1" height="4"></rect>
                    <polygon id="Path" fill="#0052FF" points="52.5 150.551548 50.0515477 153 49 151.948452 51.4484523 149.5 49 147.051548 50.0515477 146 52.5 148.448452 54.9484523 146 56 147.051548 53.5515477 149.5 56 151.948452 54.9484523 153"></polygon>
                    <polygon id="Path" fill="#0052FF" points="61.5 142.551548 59.0515477 145 58 143.948452 60.4484523 141.5 58 139.051548 59.0515477 138 61.5 140.448452 63.9484523 138 65 139.051548 62.5515477 141.5 65 143.948452 63.9484523 145"></polygon>
                    <polygon id="Path" fill="#0052FF" points="70.5 158.551548 68.0515477 161 67 159.948452 69.4484523 157.5 67 155.051548 68.0515477 154 70.5 156.448452 72.9484523 154 74 155.051548 71.5515477 157.5 74 159.948452 72.9484523 161"></polygon>
                    <polygon id="Path" fill="#0052FF" points="77.5 165.551548 75.0515477 168 74 166.948452 76.4484523 164.5 74 162.051548 75.0515477 161 77.5 163.448452 79.9484523 161 81 162.051548 78.5515477 164.5 81 166.948452 79.9484523 168"></polygon>
                    <polygon id="Path" fill="#0052FF" points="73.5 152.551548 71.0515477 155 70 153.948452 72.4484523 151.5 70 149.051548 71.0515477 148 73.5 150.448452 75.9484523 148 77 149.051548 74.5515477 151.5 77 153.948452 75.9484523 155"></polygon>
                    <polygon id="Path" fill="#0052FF" points="59.5 137.551548 57.0515477 140 56 138.948452 58.4484523 136.5 56 134.051548 57.0515477 133 59.5 135.448452 61.9484523 133 63 134.051548 60.5515477 136.5 63 138.948452 61.9484523 140"></polygon>
                    <polygon id="Path" fill="#0052FF" points="88.5 124.551548 86.0515477 127 85 125.948452 87.4484523 123.5 85 121.051548 86.0515477 120 88.5 122.448452 90.9484523 120 92 121.051548 89.5515477 123.5 92 125.948452 90.9484523 127"></polygon>
                    <polygon id="Path" fill="#0052FF" points="115.5 151.551548 113.051548 154 112 152.948452 114.448452 150.5 112 148.051548 113.051548 147 115.5 149.448452 117.948452 147 119 148.051548 116.551548 150.5 119 152.948452 117.948452 154"></polygon>
                    <polygon id="Path" fill="#0052FF" points="121.5 158.551548 119.051548 161 118 159.948452 120.448452 157.5 118 155.051548 119.051548 154 121.5 156.448452 123.948452 154 125 155.051548 122.551548 157.5 125 159.948452 123.948452 161"></polygon>
                    <polygon id="Path" fill="#0052FF" points="117.5 145.551548 115.051548 148 114 146.948452 116.448452 144.5 114 142.051548 115.051548 141 117.5 143.448452 119.948452 141 121 142.051548 118.551548 144.5 121 146.948452 119.948452 148"></polygon>
                    <polygon id="Path" fill="#0052FF" points="126.5 154.551548 124.051548 157 123 155.948452 125.448452 153.5 123 151.051548 124.051548 150 126.5 152.448452 128.948452 150 130 151.051548 127.551548 153.5 130 155.948452 128.948452 157"></polygon>
                    <polygon id="Path" fill="#0052FF" points="132.5 154.551548 130.051548 157 129 155.948452 131.448452 153.5 129 151.051548 130.051548 150 132.5 152.448452 134.948452 150 136 151.051548 133.551548 153.5 136 155.948452 134.948452 157"></polygon>
                    <polygon id="Path" fill="#0052FF" points="150.5 163.551548 148.051548 166 147 164.948452 149.448452 162.5 147 160.051548 148.051548 159 150.5 161.448452 152.948452 159 154 160.051548 151.551548 162.5 154 164.948452 152.948452 166"></polygon>
                    <polygon id="Path" fill="#0052FF" points="132.5 181.551548 130.051548 184 129 182.948452 131.448452 180.5 129 178.051548 130.051548 177 132.5 179.448452 134.948452 177 136 178.051548 133.551548 180.5 136 182.948452 134.948452 184"></polygon>
                    <polygon id="Path" fill="#0052FF" points="145.5 176.551548 143.051548 179 142 177.948452 144.448452 175.5 142 173.051548 143.051548 172 145.5 174.448452 147.948452 172 149 173.051548 146.551548 175.5 149 177.948452 147.948452 179"></polygon>
                    <polygon id="Path" fill="#0052FF" points="154.5 203.551548 152.051548 206 151 204.948452 153.448452 202.5 151 200.051548 152.051548 199 154.5 201.448452 156.948452 199 158 200.051548 155.551548 202.5 158 204.948452 156.948452 206"></polygon>
                    <polygon id="Path" fill="#0052FF" points="136.5 209.551548 134.051548 212 133 210.948452 135.448452 208.5 133 206.051548 134.051548 205 136.5 207.448452 138.948452 205 140 206.051548 137.551548 208.5 140 210.948452 138.948452 212"></polygon>
                    <polygon id="Path" fill="#0052FF" points="442.5 186.551548 440.051548 189 439 187.948452 441.448452 185.5 439 183.051548 440.051548 182 442.5 184.448452 444.948452 182 446 183.051548 443.551548 185.5 446 187.948452 444.948452 189"></polygon>
                    <polygon id="Path" fill="#0052FF" points="477.5 186.551548 475.051548 189 474 187.948452 476.448452 185.5 474 183.051548 475.051548 182 477.5 184.448452 479.948452 182 481 183.051548 478.551548 185.5 481 187.948452 479.948452 189"></polygon>
                    <polygon id="Path" fill="#0052FF" points="486.5 177.551548 484.051548 180 483 178.948452 485.448452 176.5 483 174.051548 484.051548 173 486.5 175.448452 488.948452 173 490 174.051548 487.551548 176.5 490 178.948452 488.948452 180"></polygon>
                    <polygon id="Path" fill="#0052FF" points="482.5 168.551548 480.051548 171 479 169.948452 481.448452 167.5 479 165.051548 480.051548 164 482.5 166.448452 484.948452 164 486 165.051548 483.551548 167.5 486 169.948452 484.948452 171"></polygon>
                    <polygon id="Path" fill="#0052FF" points="491.5 157.551548 489.051548 160 488 158.948452 490.448452 156.5 488 154.051548 489.051548 153 491.5 155.448452 493.948452 153 495 154.051548 492.551548 156.5 495 158.948452 493.948452 160"></polygon>
                    <polygon id="Path" fill="#0052FF" points="488.5 148.551548 486.051548 151 485 149.948452 487.448452 147.5 485 145.051548 486.051548 144 488.5 146.448452 490.948452 144 492 145.051548 489.551548 147.5 492 149.948452 490.948452 151"></polygon>
                </g>
            </g>
        </g>
    </g>
</svg>