<?xml version="1.0" encoding="UTF-8"?>
<svg width="947px" height="829px" viewBox="0 0 947 829" version="1.1" xmlns="http://www.w3.org/2000/svg" xmlns:xlink="http://www.w3.org/1999/xlink">
    <!-- Generator: Sketch 55.1 (78136) - https://sketchapp.com -->
    <title>main-bg</title>
    <desc>Created with Sketch.</desc>
    <defs>
        <linearGradient x1="-88.182208%" y1="74.5010348%" x2="67.3342115%" y2="36.7849429%" id="linearGradient-1">
            <stop stop-color="#0052FF" offset="0%"></stop>
            <stop stop-color="#111111" offset="100%"></stop>
        </linearGradient>
        <linearGradient x1="88.8542164%" y1="34.4912224%" x2="-60.5696199%" y2="51.0100568%" id="linearGradient-2">
            <stop stop-color="#111111" offset="0%"></stop>
            <stop stop-color="#0052FF" offset="100%"></stop>
        </linearGradient>
        <linearGradient x1="-51.1417337%" y1="50%" x2="211.953793%" y2="147.521936%" id="linearGradient-3">
            <stop stop-color="#111111" offset="0%"></stop>
            <stop stop-color="#0052FF" offset="100%"></stop>
        </linearGradient>
        <linearGradient x1="54.866622%" y1="0%" x2="31.56368%" y2="159.166818%" id="linearGradient-4">
            <stop stop-color="#111111" offset="0%"></stop>
            <stop stop-color="#0052FF" offset="100%"></stop>
        </linearGradient>
        <linearGradient x1="-51.8551331%" y1="51.3547451%" x2="87.3911853%" y2="53.4293011%" id="linearGradient-5">
            <stop stop-color="#0052FF" stop-opacity="0.976336051" offset="0%"></stop>
            <stop stop-color="#111111" offset="100%"></stop>
            <stop stop-color="#111111" offset="100%"></stop>
        </linearGradient>
        <linearGradient x1="-33.1646406%" y1="52.1961814%" x2="167.178743%" y2="48.7701058%" id="linearGradient-6">
            <stop stop-color="#111111" offset="0%"></stop>
            <stop stop-color="#0052FF" offset="100%"></stop>
        </linearGradient>
        <linearGradient x1="172.481923%" y1="-4.92312752%" x2="3.72215855%" y2="58.0017416%" id="linearGradient-7">
            <stop stop-color="#3A3A3A" offset="0%"></stop>
            <stop stop-color="#393939" offset="0%"></stop>
            <stop stop-color="#171717" offset="100%"></stop>
        </linearGradient>
        <linearGradient x1="-132.420639%" y1="-134.925225%" x2="3.72215855%" y2="73.1250333%" id="linearGradient-8">
            <stop stop-color="#3A3A3A" offset="0%"></stop>
            <stop stop-color="#171717" offset="100%"></stop>
        </linearGradient>
        <linearGradient x1="61.3498837%" y1="282.678408%" x2="31.0501909%" y2="21.5460461%" id="linearGradient-9">
            <stop stop-color="#3A3A3A" offset="0%"></stop>
            <stop stop-color="#171717" offset="100%"></stop>
        </linearGradient>
        <linearGradient x1="-13.8959968%" y1="-191.890956%" x2="50%" y2="167.668922%" id="linearGradient-10">
            <stop stop-color="#3A3A3A" offset="0%"></stop>
            <stop stop-color="#171717" offset="100%"></stop>
        </linearGradient>
        <linearGradient x1="14.5019808%" y1="-349.837747%" x2="40.9945952%" y2="100%" id="linearGradient-11">
            <stop stop-color="#3A3A3A" offset="0%"></stop>
            <stop stop-color="#171717" offset="100%"></stop>
        </linearGradient>
        <linearGradient x1="-25.0113954%" y1="8.08803912%" x2="312.746027%" y2="62.0490643%" id="linearGradient-12">
            <stop stop-color="#111111" offset="0%"></stop>
            <stop stop-color="#0052FF" offset="100%"></stop>
        </linearGradient>
    </defs>
    <g id="Desktop-Design" stroke="none" stroke-width="1" fill="none" fill-rule="evenodd">
        <g id="ARSData_Homepage_v1@2x-Copy" transform="translate(-419.000000, 0.000000)">
            <g id="First-screen" transform="translate(1.000000, -1.000000)">
                <g id="main-bg" transform="translate(418.000000, 0.000000)">
                    <g id="Graphic-element">
                        <path d="M487.959027,582.487102 L661.536492,582.487102 L661.536492,583.487102 L487.959027,583.487102 L487.959027,582.487102 Z M486.852113,583.594148 L486.852113,522.896121 L487.852113,522.896121 L487.852113,583.594148 L486.852113,583.594148 Z" id="Combined-Shape" fill="url(#linearGradient-1)"></path>
                        <path d="M716.158771,493.867982 L716.158771,542.426404 L714.944942,542.426404 L714.944942,493.867982 L714.944942,492.654021 L948,492.654021 L948,493.867982 L873.349552,493.867982 L873.349552,541.819423 L872.135723,541.819423 L872.135723,493.867982 L823.582586,493.867982 L823.582586,541.819423 L822.368758,541.819423 L822.368758,493.867982 L716.158771,493.867982 Z" id="Combined-Shape" fill="url(#linearGradient-2)"></path>
                        <path d="M675,156 L488,156 L488,155 L488.065941,155 L488.065941,0.893085787 L489.065941,0.893085787 L489.065941,155 L676,155 L676,156 L676,193 L675,193 L675,156 Z" id="Combined-Shape" fill="url(#linearGradient-3)"></path>
                        <path d="M876,146 L875,146 L875,1 L876,1 L876,145 L947,145 L947,146 L876,146 Z" id="Combined-Shape" fill="url(#linearGradient-4)"></path>
                        <path d="M774.529449,323 L774.529449,275.248169 L775.529449,275.248169 L775.529449,323 L946.174136,323 L946.174136,324 L650,324 L650,323 L674.995519,323 L674.995519,275.248169 L675.995519,275.248169 L675.995519,323 L724.762484,323 L724.762484,275.248169 L725.762484,275.248169 L725.762484,323 L774.529449,323 Z" id="Combined-Shape" fill="url(#linearGradient-5)"></path>
                        <path d="M514.85,740 L514.85,829.85 L513.85,829.85 L513.85,739.15 L514,739.15 L514,739 L947.336748,739 L947.336748,740 L514.85,740 Z" id="Combined-Shape" fill="url(#linearGradient-6)"></path>
                        <rect id="Rectangle" fill="url(#linearGradient-7)" x="604.486556" y="192.805766" width="206.350832" height="82.5493171" rx="3"></rect>
                        <rect id="Rectangle-Copy-18" fill="url(#linearGradient-8)" x="426.053777" y="439.239757" width="121.382843" height="82.5493171" rx="3"></rect>
                        <rect id="Rectangle-Copy-20" fill="#DEDEDE" opacity="0.03" x="661.536492" y="542.426404" width="72.8297055" height="82.5493171" rx="3"></rect>
                        <rect id="Rectangle-Copy-21" fill="url(#linearGradient-9)" x="770.78105" y="542.426404" width="121.382843" height="82.5493171" rx="3"></rect>
                        <rect id="Rectangle-Copy-9" fill="url(#linearGradient-10)" x="657.895006" y="192.805766" width="36.4148528" height="82.5493171" rx="3"></rect>
                        <rect id="Rectangle-Copy-9" fill="url(#linearGradient-11)" x="697.951344" y="542.426404" width="36.4148528" height="82.5493171" rx="3"></rect>
                        <path d="M243,337.053111 L243,521 L242,521 L122,521 L122,677 L730,677 L730,678 L730,739 L729,739 L729,678 L121,678 L121,677.60091 L121,521 L121,520 L242,520 L242,225 L0,225 L0,224.368741 L0,1 L1,1 L1,224 L242,224 L243,224 L243,336.053111 L487.959027,336.053111 L487.959027,337.053111 L243,337.053111 Z M486.745198,337.267071 L487.745198,337.267071 L487.745198,439.239757 L486.745198,439.239757 L486.745198,337.267071 Z" id="Combined-Shape" fill="url(#linearGradient-12)"></path>
                    </g>
                </g>
            </g>
        </g>
    </g>
</svg>