<?xml version="1.0" encoding="UTF-8"?>
<svg width="498px" height="310px" viewBox="0 0 498 310" version="1.1" xmlns="http://www.w3.org/2000/svg" xmlns:xlink="http://www.w3.org/1999/xlink">
    <!-- Generator: Sketch 52.2 (67145) - http://www.bohemiancoding.com/sketch -->
    <title>Predictive Maintenance</title>
    <desc>Created with Sketch.</desc>
    <g id="Design" stroke="none" stroke-width="1" fill="none" fill-rule="evenodd">
        <g id="ARSData_Solutions_v2@2x" transform="translate(-743.000000, -232.000000)">
            <g id="Predictive-Maintenance">
                <g transform="translate(743.000000, 232.000000)" id="Group-4">
                    <g>
                        <rect id="Rectangle" fill="#4E4E4E" x="139.719439" y="285" width="204.589178" height="1"></rect>
                        <path d="M496.15434,254.085504 L485.566633,254.085504 C485.268079,254.085504 485.026052,253.837272 485.026052,253.531062 C485.026052,253.224852 485.268079,252.97662 485.566633,252.97662 L496.15434,252.97662 L492.752521,249.487574 C492.541411,249.271051 492.541411,248.919998 492.752521,248.703475 C492.963631,248.486951 493.305908,248.486951 493.517018,248.703475 L497.841667,253.139012 C498.052778,253.355535 498.052778,253.706589 497.841667,253.923112 L493.517018,258.35865 C493.305908,258.575173 492.963631,258.575173 492.752521,258.35865 C492.541411,258.142127 492.541411,257.791073 492.752521,257.57455 L496.15434,254.085504 Z" id="Path" fill="#DEDEDE"></path>
                        <path d="M77.1282884,7.54442219 L66.5405812,7.54442219 C66.2420264,7.54442219 66,7.29618999 66,6.98997998 C66,6.68376997 66.2420264,6.43553776 66.5405812,6.43553776 L77.1282884,6.43553776 L73.7264688,2.94649207 C73.5153588,2.72996891 73.5153588,2.37891553 73.7264688,2.16239237 C73.937579,1.94586921 74.2798559,1.94586921 74.4909661,2.16239237 L78.8156154,6.59793011 C79.0267254,6.81445333 79.0267254,7.16550662 78.8156154,7.38202984 L74.4909661,11.8175676 C74.2798559,12.0340907 73.937579,12.0340907 73.7264688,11.8175676 C73.5153588,11.6010444 73.5153588,11.2499911 73.7264688,11.0334679 L77.1282884,7.54442219 Z" id="Path-Copy-2" fill="#DEDEDE" transform="translate(72.486974, 6.989980) rotate(-90.000000) translate(-72.486974, -6.989980) "></path>
                        <path d="M346.454942,286.021376 L335.867234,286.021376 C335.56868,286.021376 335.326653,285.773144 335.326653,285.466934 C335.326653,285.160724 335.56868,284.912492 335.867234,284.912492 L346.454942,284.912492 L343.053122,281.423446 C342.842012,281.206923 342.842012,280.855869 343.053122,280.639346 C343.264232,280.422823 343.606509,280.422823 343.817619,280.639346 L348.142269,285.074884 C348.353379,285.291407 348.353379,285.642461 348.142269,285.858984 L343.817619,290.294521 C343.606509,290.511045 343.264232,290.511045 343.053122,290.294521 C342.842012,290.077998 342.842012,289.726945 343.053122,289.510422 L346.454942,286.021376 Z" id="Path-Copy" fill="#4E4E4E"></path>
                        <path d="M144.859751,286.021376 L134.272044,286.021376 C133.973489,286.021376 133.731463,285.773144 133.731463,285.466934 C133.731463,285.160724 133.973489,284.912492 134.272044,284.912492 L144.859751,284.912492 L141.457932,281.423446 C141.246822,281.206923 141.246822,280.855869 141.457932,280.639346 C141.669042,280.422823 142.011319,280.422823 142.222429,280.639346 L146.547078,285.074884 C146.758188,285.291407 146.758188,285.642461 146.547078,285.858984 L142.222429,290.294521 C142.011319,290.511045 141.669042,290.511045 141.457932,290.294521 C141.246822,290.077998 141.246822,289.726945 141.457932,289.510422 L144.859751,286.021376 Z" id="Path-Copy" fill="#4E4E4E" transform="translate(140.218437, 285.466934) scale(-1, 1) translate(-140.218437, -285.466934) "></path>
                        <rect id="Rectangle" fill="#4E4E4E" x="131.735471" y="90.8577154" width="1" height="208.581162"></rect>
                        <rect id="Rectangle" fill="#4E4E4E" x="350.296593" y="186.665331" width="1" height="112.773547"></rect>
                        <rect id="Rectangle" fill="#DEDEDE" x="71.8557114" y="0.997995992" width="1" height="252.53507"></rect>
                        <rect id="Rectangle" fill="#DEDEDE" x="71.8557114" y="253" width="415.166333" height="1"></rect>
                        <path d="M72.8537074,184.170341 L496.582975,184.170341" id="Line" stroke="#E63A0F" stroke-linecap="square" stroke-dasharray="4,4"></path>
                        <path d="M77.4935857,55.1204976 C69.6478886,51.6491485 80.1182303,56.0317473 97.6366024,65.003607 C115.154975,73.9754668 115.505883,77.9528627 126.920931,84.5713004 C138.335979,91.189738 138.713679,90.3450418 154.015806,96.3786049 C169.317933,102.412168 172.900087,102.023962 185.921684,107.835044 C198.943281,113.646126 193.947838,112.23286 208.721574,120.791869 C223.49531,129.350878 223.465493,130.854065 237.98916,137.99979 C252.512827,145.145514 253.196193,144.390672 270.251984,151.06517 C287.307774,157.739669 292.637157,159.615291 304.871811,164.173197 C317.106466,168.731104 314.661372,166.711133 329.580583,173.167487 C344.499794,179.623841 347.349373,181.589942 357.482465,186.940689 C367.615556,192.291436 369.639226,194.608498 376.658582,198.026878 C383.677938,201.445257 382.23179,201.505268 392.520092,205.175166 C402.808393,208.845064 403.473928,208.123744 413.617955,211.210506 C423.761981,214.297267 425.546793,214.576192 434.728173,216.872817 C443.909554,219.169441 457.105877,222.834575 453.469749,221.179005" id="Path-2" stroke="#0052FF" stroke-width="2"></path>
                        <path d="M236.480345,309.330532 L234.047376,305.697378 L232.738332,305.697378 L232.738332,309.330532 L231.53507,309.330532 L231.53507,300.436874 L234.602727,300.436874 C235.660545,300.436874 236.453897,300.678661 236.982806,301.162243 C237.511715,301.645825 237.776166,302.287087 237.776166,303.086049 C237.776166,303.809319 237.564605,304.391711 237.141478,304.833242 C236.718351,305.274774 236.105707,305.550201 235.303528,305.659533 L237.842279,309.330532 L236.480345,309.330532 Z M232.738332,304.86478 L234.496946,304.86478 C235.863294,304.86478 236.546458,304.2929 236.546458,303.149124 C236.546458,302.005348 235.863294,301.433468 234.496946,301.433468 L232.738332,301.433468 L232.738332,304.86478 Z M240.38103,300.436874 L240.38103,305.773069 C240.38103,306.647721 240.583775,307.293188 240.989272,307.709489 C241.394769,308.12579 241.954523,308.333938 242.66855,308.333938 C243.373762,308.333938 243.9247,308.123688 244.321382,307.703182 C244.718064,307.282676 244.916402,306.639311 244.916402,305.773069 L244.916402,300.436874 L246.119664,300.436874 L246.119664,305.773069 C246.119664,306.984126 245.804527,307.894508 245.174244,308.504242 C244.54396,309.113975 243.699922,309.418838 242.642104,309.418838 C241.593101,309.418838 240.753471,309.113975 240.123188,308.504242 C239.492904,307.894508 239.177768,306.984126 239.177768,305.773069 L239.177768,300.436874 L240.38103,300.436874 Z M249.187321,308.434858 L252.492986,308.434858 L252.492986,309.330532 L247.984059,309.330532 L247.984059,300.436874 L249.187321,300.436874 L249.187321,308.434858 Z" id="RUL" fill="#8B8B8B"></path>
                        <path d="M14.03314,39.7877354 C14.6809303,39.7877354 15.2577213,39.9430701 15.7635301,40.2537441 C16.269339,40.5644181 16.6664374,41.0121474 16.9548372,41.5969456 C17.243237,42.1817437 17.3874347,42.8670438 17.3874347,43.6528663 C17.3874347,44.4386888 17.243237,45.1217045 16.9548372,45.7019339 C16.6664374,46.2821633 16.269339,46.7276083 15.7635301,47.0382823 C15.2577213,47.3489563 14.6809303,47.504291 14.03314,47.504291 C13.3232328,47.504291 12.7220392,47.31926 12.2295411,46.9491924 C11.737043,46.5791249 11.3976237,46.0925618 11.2112731,45.4894887 L11.2112731,50.9719439 L10,50.9719439 L10,39.8836784 L11.2112731,39.8836784 L11.2112731,41.8025377 C11.3976237,41.1994646 11.737043,40.7129015 12.2295411,40.342834 C12.7220392,39.9727664 13.3232328,39.7877354 14.03314,39.7877354 Z M13.687062,40.8979326 C13.2167485,40.8979326 12.7908106,41.0098649 12.4092355,41.2337329 C12.0276603,41.457601 11.7303912,41.779692 11.517419,42.2000157 C11.3044469,42.6203393 11.1979624,43.104618 11.1979624,43.6528663 C11.1979624,44.2011145 11.3044469,44.6831089 11.517419,45.0988638 C11.7303912,45.5146187 12.0276603,45.8367098 12.4092355,46.0651465 C12.7908106,46.2935833 13.2167485,46.4078 13.687062,46.4078 C14.4413384,46.4078 15.042532,46.1633763 15.4906609,45.6745216 C15.9387898,45.1856669 16.1628509,44.5117885 16.1628509,43.6528663 C16.1628509,42.793944 15.9387898,42.1200656 15.4906609,41.6312109 C15.042532,41.1423562 14.4413384,40.8979326 13.687062,40.8979326 Z M25.6933072,43.227976 C25.6933072,43.4929627 25.6755598,43.721396 25.6400644,43.9132829 L19.7966701,43.9132829 C19.8232917,44.7722052 20.0606633,45.4163872 20.5087922,45.8458483 C20.9569211,46.2753095 21.5048725,46.4900368 22.1526628,46.4900368 C22.7383363,46.4900368 23.2286086,46.3369865 23.6234944,46.0308812 C24.0183803,45.7247759 24.2601888,45.3158802 24.3489272,44.8041818 L25.6400644,44.8041818 C25.551326,45.3250177 25.3538861,45.7910217 25.0477386,46.2022079 C24.7415911,46.6133941 24.3444927,46.9332008 23.8564316,47.1616376 C23.3683704,47.3900743 22.8182005,47.504291 22.2059056,47.504291 C21.5048723,47.504291 20.8837128,47.3489563 20.3424086,47.0382823 C19.8011043,46.7276083 19.3773848,46.2821633 19.0712374,45.7019339 C18.7650899,45.1217045 18.6120185,44.4386888 18.6120185,43.6528663 C18.6120185,42.8670438 18.7650899,42.1817437 19.0712374,41.5969456 C19.3773848,41.0121474 19.8011043,40.5644181 20.3424086,40.2537441 C20.8837128,39.9430701 21.5048723,39.7877354 22.2059056,39.7877354 C22.9158128,39.7877354 23.5347538,39.9430701 24.0627473,40.2537441 C24.5907408,40.5644181 24.9944944,40.9801668 25.2740204,41.5010026 C25.5535463,42.0218385 25.6933072,42.5974905 25.6933072,43.227976 Z M24.4687234,43.3102128 C24.495345,42.7528271 24.4066079,42.2868231 24.2025096,41.9121868 C23.9984113,41.5375505 23.7188895,41.2588618 23.3639359,41.0761124 C23.0089823,40.8933629 22.6229761,40.8019896 22.2059056,40.8019896 C21.5403676,40.8019896 20.9813241,41.0144326 20.5287583,41.439325 C20.0761924,41.8642174 19.8321655,42.4878404 19.7966701,43.3102128 L24.4687234,43.3102128 Z M28.4885528,41.4050597 C28.7281464,40.8842238 29.0786578,40.4798968 29.5400975,40.1920665 C30.0015372,39.9042361 30.551707,39.7603231 31.1906235,39.7603231 L31.1906235,41.1172308 L30.8179241,41.1172308 C30.1346384,41.1172308 29.5755949,41.2976931 29.1407767,41.6586232 C28.7059586,42.0195533 28.4885528,42.6157643 28.4885528,43.4472742 L28.4885528,47.408348 L27.2772797,47.408348 L27.2772797,39.8836784 L28.4885528,39.8836784 L28.4885528,41.4050597 Z M35.6230843,38.1018804 C34.975294,38.092743 34.5249534,38.2069596 34.2720489,38.4445339 C34.0191445,38.6821081 33.8926942,39.0932881 33.8926942,39.6780863 L33.8926942,39.8836784 L35.6230843,39.8836784 L35.6230843,40.9801694 L33.8926942,40.9801694 L33.8926942,47.408348 L32.6814211,47.408348 L32.6814211,40.9801694 L31.6298763,40.9801694 L31.6298763,39.8836784 L32.6814211,39.8836784 L32.6814211,39.5821433 C32.6814211,37.7820616 33.6619657,36.9231522 35.6230843,37.0053894 L35.6230843,38.1018804 Z M40.2552055,39.7877354 C40.9562388,39.7877354 41.5840536,39.9430701 42.1386686,40.2537441 C42.6932836,40.5644181 43.1280952,41.0121474 43.4431165,41.5969456 C43.7581378,42.1817437 43.9156461,42.8670438 43.9156461,43.6528663 C43.9156461,44.4386888 43.7581378,45.1217045 43.4431165,45.7019339 C43.1280952,46.2821633 42.6932836,46.7276083 42.1386686,47.0382823 C41.5840536,47.3489563 40.9562388,47.504291 40.2552055,47.504291 C39.5541721,47.504291 38.9263574,47.3489563 38.3717424,47.0382823 C37.8171274,46.7276083 37.3800974,46.2821633 37.0606391,45.7019339 C36.7411809,45.1217045 36.5814542,44.4386888 36.5814542,43.6528663 C36.5814542,42.8670438 36.7411809,42.1817437 37.0606391,41.5969456 C37.3800974,41.0121474 37.8171274,40.5644181 38.3717424,40.2537441 C38.9263574,39.9430701 39.5541721,39.7877354 40.2552055,39.7877354 Z M40.2552055,40.8842264 C39.8203873,40.8842264 39.4188521,40.9847371 39.0505878,41.1857615 C38.6823234,41.3867858 38.3850542,41.6951708 38.1587713,42.1109258 C37.9324884,42.5266807 37.8193486,43.0406557 37.8193486,43.6528663 C37.8193486,44.2559394 37.9324884,44.7653457 38.1587713,45.1811006 C38.3850542,45.5968556 38.6823234,45.9052406 39.0505878,46.1062649 C39.4188521,46.3072893 39.8203873,46.4078 40.2552055,46.4078 C40.6900236,46.4078 41.0915589,46.3072893 41.4598232,46.1062649 C41.8280876,45.9052406 42.1253567,45.5968556 42.3516397,45.1811006 C42.5779226,44.7653457 42.6910623,44.2559394 42.6910623,43.6528663 C42.6910623,43.0406557 42.5779226,42.5266807 42.3516397,42.1109258 C42.1253567,41.6951708 41.8280876,41.3867858 41.4598232,41.1857615 C41.0915589,40.9847371 40.6900236,40.8842264 40.2552055,40.8842264 Z M46.7108917,41.4050597 C46.9504853,40.8842238 47.3009967,40.4798968 47.7624364,40.1920665 C48.2238761,39.9042361 48.7740459,39.7603231 49.4129624,39.7603231 L49.4129624,41.1172308 L49.040263,41.1172308 C48.3569773,41.1172308 47.7979338,41.2976931 47.3631156,41.6586232 C46.9282975,42.0195533 46.7108917,42.6157643 46.7108917,43.4472742 L46.7108917,47.408348 L45.4996186,47.408348 L45.4996186,39.8836784 L46.7108917,39.8836784 L46.7108917,41.4050597 Z M59.5956426,39.7603231 C60.4475312,39.7603231 61.1330251,40.0412961 61.6521447,40.6032506 C62.1712643,41.1652051 62.4308202,41.9761434 62.4308202,43.0360901 L62.4308202,47.408348 L61.2195472,47.408348 L61.2195472,43.1457392 C61.2195472,42.405604 61.0442915,41.8390893 60.6937748,41.4461781 C60.3432581,41.0532668 59.8618595,40.8568141 59.2495646,40.8568141 C58.6106481,40.8568141 58.0981916,41.0738258 57.7121795,41.5078557 C57.3261675,41.9418856 57.1331644,42.5792146 57.1331644,43.4198619 L57.1331644,47.408348 L55.9218913,47.408348 L55.9218913,43.1457392 C55.9218913,42.405604 55.7444172,41.8390893 55.3894636,41.4461781 C55.03451,41.0532668 54.5553298,40.8568141 53.9519087,40.8568141 C53.3041184,40.8568141 52.787225,41.0738258 52.401213,41.5078557 C52.0152009,41.9418856 51.8221978,42.5792146 51.8221978,43.4198619 L51.8221978,47.408348 L50.6109247,47.408348 L50.6109247,39.8836784 L51.8221978,39.8836784 L51.8221978,41.5969456 C51.9996746,41.00301 52.3169096,40.5484276 52.7739124,40.2331849 C53.2309151,39.9179421 53.7566823,39.7603231 54.3512295,39.7603231 C54.9723983,39.7603231 55.511476,39.9225108 55.9684787,40.246891 C56.4254815,40.5712712 56.7515902,41.0486969 56.9468147,41.6791824 C57.150913,41.0669719 57.4925507,40.5941148 57.971738,40.2605971 C58.4509254,39.9270795 58.9922215,39.7603231 59.5956426,39.7603231 Z M67.3025339,39.7877354 C68.0124411,39.7877354 68.6136347,39.9704821 69.1061329,40.3359809 C69.598631,40.7014797 69.9424871,41.1903271 70.1377116,41.8025377 L70.1377116,39.8836784 L71.3489846,39.8836784 L71.3489846,47.408348 L70.1377116,47.408348 L70.1377116,45.4894887 C69.9424871,46.1016993 69.598631,46.5905467 69.1061329,46.9560455 C68.6136347,47.3215443 68.0124411,47.504291 67.3025339,47.504291 C66.6547436,47.504291 66.0779527,47.3489563 65.5721438,47.0382823 C65.066335,46.7276083 64.6692366,46.2821633 64.3808368,45.7019339 C64.092437,45.1217045 63.9482393,44.4386888 63.9482393,43.6528663 C63.9482393,42.8670438 64.092437,42.1817437 64.3808368,41.5969456 C64.6692366,41.0121474 65.066335,40.5644181 65.5721438,40.2537441 C66.0779527,39.9430701 66.6547436,39.7877354 67.3025339,39.7877354 Z M67.648612,40.8979326 C66.9032094,40.8979326 66.3064526,41.1423562 65.8583237,41.6312109 C65.4101948,42.1200656 65.1861337,42.793944 65.1861337,43.6528663 C65.1861337,44.5117885 65.4101948,45.1856669 65.8583237,45.6745216 C66.3064526,46.1633763 66.9032094,46.4078 67.648612,46.4078 C68.1277993,46.4078 68.5559557,46.2935833 68.9330938,46.0651465 C69.310232,45.8367098 69.6052828,45.5146187 69.8182549,45.0988638 C70.0312271,44.6831089 70.1377116,44.2011145 70.1377116,43.6528663 C70.1377116,43.104618 70.0312271,42.6203393 69.8182549,42.2000157 C69.6052828,41.779692 69.310232,41.457601 68.9330938,41.2337329 C68.5559557,41.0098649 68.1277993,40.8979326 67.648612,40.8979326 Z M77.1258255,39.7603231 C77.9777141,39.7603231 78.6654264,40.0412961 79.1889829,40.6032506 C79.7125394,41.1652051 79.9743138,41.9761434 79.9743138,43.0360901 L79.9743138,47.408348 L78.7630407,47.408348 L78.7630407,43.1457392 C78.7630407,42.3964666 78.5766929,41.8208145 78.2039916,41.4187658 C77.8312903,41.0167171 77.3254891,40.8156957 76.6865726,40.8156957 C76.0210346,40.8156957 75.4886122,41.0372761 75.0892894,41.4804434 C74.6899666,41.9236108 74.4903082,42.5700771 74.4903082,43.4198619 L74.4903082,47.408348 L73.2790352,47.408348 L73.2790352,39.8836784 L74.4903082,39.8836784 L74.4903082,41.6654763 C74.6766589,41.0532657 75.0072044,40.582693 75.4819549,40.2537441 C75.9567053,39.9247951 76.5046567,39.7603231 77.1258255,39.7603231 Z M85.0723093,39.7877354 C86.0040624,39.7877354 86.7760749,40.0435807 87.3883699,40.5552791 C88.0006648,41.0669775 88.3777974,41.7522775 88.5197788,42.6111998 L87.2419522,42.6111998 C87.1532138,42.072089 86.9114053,41.6494873 86.5165195,41.343382 C86.1216336,41.0372768 85.6313613,40.8842264 85.0456879,40.8842264 C84.6197436,40.8842264 84.2315189,40.9847371 83.8810022,41.1857615 C83.5304856,41.3867858 83.2487454,41.6951708 83.0357732,42.1109258 C82.8228011,42.5266807 82.7163166,43.0406557 82.7163166,43.6528663 C82.7163166,44.2650768 82.8228011,44.7790519 83.0357732,45.1948068 C83.2487454,45.6105617 83.5304856,45.9189467 83.8810022,46.1199711 C84.2315189,46.3209954 84.6197436,46.4215061 85.0456879,46.4215061 C85.6313613,46.4215061 86.1216336,46.2661714 86.5165195,45.9554974 C86.9114053,45.6448234 87.1532138,45.2199374 87.2419522,44.6808266 L88.5197788,44.6808266 C88.3777974,45.5488863 88.0006648,46.2364707 87.3883699,46.7436004 C86.7760749,47.25073 86.0040624,47.504291 85.0723093,47.504291 C84.3712759,47.504291 83.7501165,47.3489563 83.2088122,47.0382823 C82.667508,46.7276083 82.2437885,46.2821633 81.937641,45.7019339 C81.6314936,45.1217045 81.4784221,44.4386888 81.4784221,43.6528663 C81.4784221,42.8670438 81.6314936,42.1817437 81.937641,41.5969456 C82.2437885,41.0121474 82.667508,40.5644181 83.2088122,40.2537441 C83.7501165,39.9430701 84.3712759,39.7877354 85.0723093,39.7877354 Z M96.8256513,43.227976 C96.8256513,43.4929627 96.8079039,43.721396 96.7724085,43.9132829 L90.9290142,43.9132829 C90.9556358,44.7722052 91.1930074,45.4163872 91.6411363,45.8458483 C92.0892652,46.2753095 92.6372166,46.4900368 93.2850069,46.4900368 C93.8706804,46.4900368 94.3609526,46.3369865 94.7558385,46.0308812 C95.1507244,45.7247759 95.3925329,45.3158802 95.4812713,44.8041818 L96.7724085,44.8041818 C96.6836701,45.3250177 96.4862302,45.7910217 96.1800827,46.2022079 C95.8739352,46.6133941 95.4768368,46.9332008 94.9887757,47.1616376 C94.5007145,47.3900743 93.9505446,47.504291 93.3382497,47.504291 C92.6372164,47.504291 92.0160569,47.3489563 91.4747527,47.0382823 C90.9334484,46.7276083 90.5097289,46.2821633 90.2035815,45.7019339 C89.897434,45.1217045 89.7443626,44.4386888 89.7443626,43.6528663 C89.7443626,42.8670438 89.897434,42.1817437 90.2035815,41.5969456 C90.5097289,41.0121474 90.9334484,40.5644181 91.4747527,40.2537441 C92.0160569,39.9430701 92.6372164,39.7877354 93.3382497,39.7877354 C94.0481569,39.7877354 94.6670979,39.9430701 95.1950914,40.2537441 C95.7230849,40.5644181 96.1268385,40.9801668 96.4063645,41.5010026 C96.6858904,42.0218385 96.8256513,42.5974905 96.8256513,43.227976 Z M95.6010675,43.3102128 C95.6276891,42.7528271 95.538952,42.2868231 95.3348537,41.9121868 C95.1307554,41.5375505 94.8512336,41.2588618 94.49628,41.0761124 C94.1413264,40.8933629 93.7553202,40.8019896 93.3382497,40.8019896 C92.6727117,40.8019896 92.1136682,41.0144326 91.6611024,41.439325 C91.2085365,41.8642174 90.9645096,42.4878404 90.9290142,43.3102128 L95.6010675,43.3102128 Z" id="performance" fill="#8B8B8B" transform="translate(53.412826, 43.985972) rotate(-90.000000) translate(-53.412826, -43.985972) "></path>
                        <path d="M4.22001145,187.498998 L4.22001145,188.567802 L3.3147724,188.567802 C2.56927769,188.567802 2.01238375,188.38967 1.64407386,188.0334 C1.27576398,187.67713 1.0916118,187.080387 1.0916118,186.243153 L1.0916118,182.288577 L0,182.288577 L0,181.233133 L1.0916118,181.233133 L1.0916118,179.402806 L2.31634698,179.402806 L2.31634698,181.233133 L4.20669911,181.233133 L4.20669911,182.288577 L2.31634698,182.288577 L2.31634698,186.269873 C2.31634698,186.741931 2.40287632,187.064795 2.57593759,187.238477 C2.74899886,187.412159 3.04852349,187.498998 3.47452047,187.498998 L4.22001145,187.498998 Z M9.54494704,181.112892 C10.396941,181.112892 11.0847383,181.386771 11.6083596,181.934536 C12.1319809,182.482301 12.3937876,183.272763 12.3937876,184.305945 L12.3937876,188.567802 L11.1823647,188.567802 L11.1823647,184.412826 C11.1823647,183.682472 10.9959938,183.121356 10.6232465,182.729459 C10.2504991,182.337562 9.74463532,182.141617 9.10563985,182.141617 C8.44001957,182.141617 7.90753134,182.357602 7.50815918,182.789579 C7.10878701,183.221556 6.90910392,183.851699 6.90910392,184.680027 L6.90910392,188.567802 L5.69768108,188.567802 L5.69768108,178.681363 L6.90910392,178.681363 L6.90910392,182.96994 C7.0954776,182.373188 7.42606404,181.914497 7.90087317,181.593854 C8.37568231,181.273211 8.92370145,181.112892 9.54494704,181.112892 Z M15.4689379,182.716099 C15.7085612,182.208414 16.0591159,181.814297 16.5206127,181.533734 C16.9821094,181.253172 17.5323472,181.112892 18.1713427,181.112892 L18.1713427,182.435538 L17.7985972,182.435538 C17.115227,182.435538 16.5561144,182.611443 16.1212425,182.96326 C15.6863706,183.315076 15.4689379,183.896233 15.4689379,184.706747 L15.4689379,188.567802 L14.257515,188.567802 L14.257515,181.233133 L15.4689379,181.233133 L15.4689379,182.716099 Z M26.0921844,184.492986 C26.0921844,184.751282 26.0744348,184.973947 26.038935,185.160989 L20.1948182,185.160989 C20.221443,185.998223 20.458844,186.626139 20.9070283,187.044756 C21.3552127,187.463373 21.9032318,187.672679 22.5511022,187.672679 C23.136848,187.672679 23.627181,187.523493 24.0221157,187.225117 C24.4170504,186.926741 24.6588888,186.52817 24.7476381,186.029392 L26.038935,186.029392 C25.9501856,186.537077 25.7527213,186.991314 25.4465359,187.392118 C25.1403506,187.792921 24.7432031,188.104653 24.2550816,188.327321 C23.7669601,188.54999 23.2167222,188.661323 22.6043516,188.661323 C21.9032315,188.661323 21.2819953,188.50991 20.7406241,188.207081 C20.1992529,187.904251 19.7754811,187.470054 19.4692957,186.904476 C19.1631104,186.338897 19.01002,185.673128 19.01002,184.907148 C19.01002,184.141167 19.1631104,183.473171 19.4692957,182.90314 C19.7754811,182.333108 20.1992529,181.896684 20.7406241,181.593854 C21.2819953,181.291025 21.9032315,181.139613 22.6043516,181.139613 C23.3143465,181.139613 23.9333641,181.291025 24.4614228,181.593854 C24.9894816,181.896684 25.3932852,182.301935 25.6728457,182.809619 C25.9524062,183.317304 26.0921844,183.87842 26.0921844,184.492986 Z M24.8674492,184.573146 C24.894074,184.029835 24.805326,183.575597 24.6012024,183.210421 C24.3970789,182.845244 24.1175225,182.573593 23.7625251,182.395458 C23.4075276,182.217323 23.0214736,182.128257 22.6043516,182.128257 C21.9387313,182.128257 21.3796186,182.335335 20.9269969,182.749499 C20.4743751,183.163663 20.230318,183.771539 20.1948182,184.573146 L24.8674492,184.573146 Z M29.966075,181.139613 C30.7914441,181.139613 31.4548357,181.355598 31.9562697,181.787575 C32.4577036,182.219552 32.7616657,182.800709 32.8681649,183.531062 L31.7099914,183.531062 C31.6567418,183.094632 31.477027,182.73614 31.1708417,182.455578 C30.8646564,182.175015 30.4541967,182.034736 29.9394503,182.034736 C29.5045784,182.034736 29.1651172,182.139389 28.9210564,182.348697 C28.6769956,182.558006 28.5549671,182.840791 28.5549671,183.197061 C28.5549671,183.464263 28.637059,183.680249 28.8012453,183.845023 C28.9654317,184.009798 29.1695522,184.134491 29.4136129,184.219105 C29.6576737,184.303719 29.9926976,184.395012 30.4186945,184.492986 C30.9600657,184.61768 31.3971498,184.7446 31.7299599,184.873747 C32.0627701,185.002895 32.3467638,185.209974 32.5819496,185.49499 C32.8171354,185.780006 32.9347266,186.16299 32.9347266,186.643955 C32.9347266,187.240707 32.7106378,187.726117 32.2624535,188.1002 C31.8142692,188.474284 31.2174386,188.661323 30.4719439,188.661323 C29.6022001,188.661323 28.8922157,188.452017 28.3419697,188.0334 C27.7917236,187.614783 27.4677932,187.0314 27.3701689,186.283233 L28.5416547,186.283233 C28.5860294,186.72857 28.7790564,187.089288 29.1207415,187.365397 C29.4624266,187.641507 29.9128229,187.779559 30.4719439,187.779559 C30.8890659,187.779559 31.215215,187.67268 31.4504008,187.458918 C31.6855866,187.245156 31.8031778,186.964598 31.8031778,186.617234 C31.8031778,186.332219 31.7188671,186.1051 31.5502433,185.935872 C31.3816195,185.766644 31.1730616,185.637498 30.9245634,185.54843 C30.6760652,185.459363 30.3343852,185.365843 29.8995133,185.267869 C29.3581422,185.143175 28.9254955,185.018482 28.6015603,184.893788 C28.2776251,184.769093 28.0025061,184.570921 27.7761952,184.299265 C27.5498844,184.027609 27.4367306,183.660212 27.4367306,183.197061 C27.4367306,182.582495 27.6630381,182.085952 28.1156599,181.707415 C28.5682817,181.328878 29.1850805,181.139613 29.966075,181.139613 Z M38.4060979,181.112892 C39.2580919,181.112892 39.9458892,181.386771 40.4695104,181.934536 C40.9931317,182.482301 41.2549384,183.272763 41.2549384,184.305945 L41.2549384,188.567802 L40.0435156,188.567802 L40.0435156,184.412826 C40.0435156,183.682472 39.8571447,183.121356 39.4843974,182.729459 C39.11165,182.337562 38.6057862,182.141617 37.9667907,182.141617 C37.3011704,182.141617 36.7686822,182.357602 36.36931,182.789579 C35.9699379,183.221556 35.7702548,183.851699 35.7702548,184.680027 L35.7702548,188.567802 L34.5588319,188.567802 L34.5588319,178.681363 L35.7702548,178.681363 L35.7702548,182.96994 C35.9566285,182.373188 36.2872149,181.914497 36.762024,181.593854 C37.2368332,181.273211 37.7848523,181.112892 38.4060979,181.112892 Z M46.4334383,181.139613 C47.1345583,181.139613 47.7624507,181.291025 48.3171343,181.593854 C48.8718178,181.896684 49.3066832,182.333108 49.6217435,182.90314 C49.9368038,183.473171 50.0943315,184.141167 50.0943315,184.907148 C50.0943315,185.673128 49.9368038,186.338897 49.6217435,186.904476 C49.3066832,187.470054 48.8718178,187.904251 48.3171343,188.207081 C47.7624507,188.50991 47.1345583,188.661323 46.4334383,188.661323 C45.7323183,188.661323 45.1044259,188.50991 44.5497423,188.207081 C43.9950588,187.904251 43.5579747,187.470054 43.238477,186.904476 C42.9189792,186.338897 42.7592328,185.673128 42.7592328,184.907148 C42.7592328,184.141167 42.9189792,183.473171 43.238477,182.90314 C43.5579747,182.333108 43.9950588,181.896684 44.5497423,181.593854 C45.1044259,181.291025 45.7323183,181.139613 46.4334383,181.139613 Z M46.4334383,182.208417 C45.9985664,182.208417 45.5969815,182.30639 45.2286716,182.502338 C44.8603617,182.698286 44.5630558,182.998885 44.3367449,183.404142 C44.110434,183.809399 43.9972803,184.310396 43.9972803,184.907148 C43.9972803,185.494993 44.110434,185.991537 44.3367449,186.396794 C44.5630558,186.802051 44.8603617,187.102649 45.2286716,187.298597 C45.5969815,187.494546 45.9985664,187.592518 46.4334383,187.592518 C46.8683102,187.592518 47.2698951,187.494546 47.638205,187.298597 C48.0065149,187.102649 48.3038208,186.802051 48.5301317,186.396794 C48.7564426,185.991537 48.8695963,185.494993 48.8695963,184.907148 C48.8695963,184.310396 48.7564426,183.809399 48.5301317,183.404142 C48.3038208,182.998885 48.0065149,182.698286 47.638205,182.502338 C47.2698951,182.30639 46.8683102,182.208417 46.4334383,182.208417 Z M52.8899227,178.681363 L52.8899227,188.567802 L51.6784999,188.567802 L51.6784999,178.681363 L52.8899227,178.681363 Z M57.8288005,181.139613 C58.5387954,181.139613 59.1400634,181.317745 59.6326224,181.674015 C60.1251814,182.030285 60.46908,182.506788 60.6643287,183.10354 L60.6643287,178.681363 L61.8757515,178.681363 L61.8757515,188.567802 L60.6643287,188.567802 L60.6643287,186.697395 C60.46908,187.294147 60.1251814,187.770651 59.6326224,188.126921 C59.1400634,188.48319 58.5387954,188.661323 57.8288005,188.661323 C57.1809301,188.661323 56.6040678,188.50991 56.0981964,188.207081 C55.592325,187.904251 55.1951775,187.470054 54.9067421,186.904476 C54.6183066,186.338897 54.474091,185.673128 54.474091,184.907148 C54.474091,184.141167 54.6183066,183.473171 54.9067421,182.90314 C55.1951775,182.333108 55.592325,181.896684 56.0981964,181.593854 C56.6040678,181.291025 57.1809301,181.139613 57.8288005,181.139613 Z M58.1749213,182.221777 C57.4294266,182.221777 56.832596,182.460029 56.3844117,182.93654 C55.9362274,183.413051 55.7121386,184.069913 55.7121386,184.907148 C55.7121386,185.744382 55.9362274,186.401245 56.3844117,186.877756 C56.832596,187.354266 57.4294266,187.592518 58.1749213,187.592518 C58.6541679,187.592518 59.0823772,187.481186 59.459562,187.258517 C59.8367468,187.035848 60.131834,186.72189 60.3448325,186.316633 C60.557831,185.911376 60.6643287,185.441552 60.6643287,184.907148 C60.6643287,184.372743 60.557831,183.900692 60.3448325,183.490982 C60.131834,183.081272 59.8367468,182.767313 59.459562,182.549098 C59.0823772,182.330883 58.6541679,182.221777 58.1749213,182.221777 Z" id="threshold" fill="#8B8B8B"></path>
                        <path d="M146.291016,62.6240869 C147.218543,62.6240869 147.987055,62.864462 148.596573,63.3452195 C149.206091,63.8259769 149.581513,64.4698389 149.722851,65.2768246 L148.450819,65.2768246 C148.362483,64.7703123 148.121771,64.3732641 147.728676,64.0856681 C147.335581,63.7980721 146.847532,63.6542763 146.264515,63.6542763 C145.840502,63.6542763 145.454038,63.7487094 145.105111,63.9375784 C144.756184,64.1264474 144.475722,64.4161853 144.263715,64.8068007 C144.051709,65.1974161 143.945707,65.6803126 143.945707,66.2555046 C143.945707,66.8306965 144.051709,67.313593 144.263715,67.7042084 C144.475722,68.0948239 144.756184,68.3845617 145.105111,68.5734307 C145.454038,68.7622997 145.840502,68.8567328 146.264515,68.8567328 C146.847532,68.8567328 147.335581,68.7107908 147.728676,68.4189023 C148.121771,68.1270139 148.362483,67.7278195 148.450819,67.2213071 L149.722851,67.2213071 C149.581513,68.0368778 149.206091,68.682886 148.596573,69.159351 C147.987055,69.6358159 147.218543,69.8740449 146.291016,69.8740449 C145.593161,69.8740449 144.974819,69.7281028 144.43597,69.4362144 C143.89712,69.1443259 143.475322,68.7258156 143.170563,68.180671 C142.865804,67.6355264 142.713427,66.9938107 142.713427,66.2555046 C142.713427,65.5171985 142.865804,64.8733365 143.170563,64.3238994 C143.475322,63.7744623 143.89712,63.3538058 144.43597,63.0619174 C144.974819,62.7700289 145.593161,62.6240869 146.291016,62.6240869 Z M157.7658,62.7142285 L157.7658,69.7839033 L156.56002,69.7839033 L156.56002,68.1227229 C156.374515,68.6979148 156.045468,69.1378872 155.572871,69.442653 C155.100273,69.7474189 154.55039,69.8997996 153.923205,69.8997996 C153.084013,69.8997996 152.403836,69.6358162 151.882654,69.1078415 C151.361472,68.5798668 151.100885,67.8222559 151.100885,66.8349861 L151.100885,62.7142285 L152.306665,62.7142285 L152.306665,66.7190898 C152.306665,67.4230561 152.492168,67.9660463 152.863179,68.3480768 C153.23419,68.7301073 153.737697,68.9211197 154.373716,68.9211197 C155.036236,68.9211197 155.566244,68.7129376 155.963755,68.2965673 C156.361267,67.880197 156.56002,67.2728206 156.56002,66.4744198 L156.56002,62.7142285 L157.7658,62.7142285 Z M160.906128,64.1436163 C161.144635,63.6542738 161.493557,63.2743953 161.952904,63.0039692 C162.412251,62.7335432 162.959926,62.5983321 163.595945,62.5983321 L163.595945,63.8731915 L163.224936,63.8731915 C162.544749,63.8731915 161.98824,64.0427419 161.555394,64.3818476 C161.122548,64.7209533 160.906128,65.2811132 160.906128,66.062344 L160.906128,69.7839033 L159.700348,69.7839033 L159.700348,62.7142285 L160.906128,62.7142285 L160.906128,64.1436163 Z M165.994254,64.1436163 C166.232761,63.6542738 166.581683,63.2743953 167.04103,63.0039692 C167.500377,62.7335432 168.048052,62.5983321 168.684071,62.5983321 L168.684071,63.8731915 L168.313062,63.8731915 C167.632875,63.8731915 167.076367,64.0427419 166.64352,64.3818476 C166.210674,64.7209533 165.994254,65.2811132 165.994254,66.062344 L165.994254,69.7839033 L164.788474,69.7839033 L164.788474,62.7142285 L165.994254,62.7142285 L165.994254,64.1436163 Z M176.568017,65.8563062 C176.568017,66.1052698 176.55035,66.3198905 176.515015,66.5001745 L170.698121,66.5001745 C170.724622,67.3071603 170.960917,67.9123905 171.407014,68.3158834 C171.85311,68.7193762 172.398577,68.9211197 173.043429,68.9211197 C173.626446,68.9211197 174.114495,68.7773238 174.50759,68.4897278 C174.900685,68.2021319 175.141397,67.8179609 175.229733,67.3372034 L176.515015,67.3372034 C176.426679,67.8265459 176.230135,68.264372 175.925376,68.6506949 C175.620617,69.0370179 175.225319,69.3374868 174.739471,69.5521107 C174.253623,69.7667345 173.705949,69.8740449 173.09643,69.8740449 C172.398576,69.8740449 171.780234,69.7281028 171.241384,69.4362144 C170.702535,69.1443259 170.280737,68.7258156 169.975978,68.180671 C169.671219,67.6355264 169.518842,66.9938107 169.518842,66.2555046 C169.518842,65.5171985 169.671219,64.8733365 169.975978,64.3238994 C170.280737,63.7744623 170.702535,63.3538058 171.241384,63.0619174 C171.780234,62.7700289 172.398576,62.6240869 173.09643,62.6240869 C173.803118,62.6240869 174.419252,62.7700289 174.944851,63.0619174 C175.47045,63.3538058 175.872373,63.7444154 176.150631,64.2337578 C176.428889,64.7231003 176.568017,65.2639443 176.568017,65.8563062 Z M175.348986,65.9335704 C175.375487,65.4098881 175.287152,64.972062 175.08398,64.6200789 C174.880807,64.2680957 174.602553,64.0062585 174.249209,63.8345594 C173.895865,63.6628603 173.511609,63.5770121 173.09643,63.5770121 C172.433911,63.5770121 171.877402,63.7766093 171.426889,64.1758097 C170.976376,64.5750101 170.733455,65.1609244 170.698121,65.9335704 L175.348986,65.9335704 Z M181.974151,62.5983321 C182.822176,62.5983321 183.506769,62.8623155 184.027952,63.3902903 C184.549134,63.918265 184.809721,64.6801683 184.809721,65.676023 L184.809721,69.7839033 L183.603941,69.7839033 L183.603941,65.779042 C183.603941,65.0750757 183.418438,64.5342316 183.047427,64.1564936 C182.676416,63.7787556 182.172909,63.5898895 181.53689,63.5898895 C180.87437,63.5898895 180.344362,63.7980715 179.94685,64.2144418 C179.549338,64.6308121 179.350586,65.2381885 179.350586,66.0365893 L179.350586,69.7839033 L178.144806,69.7839033 L178.144806,62.7142285 L179.350586,62.7142285 L179.350586,64.3882862 C179.536091,63.8130943 179.865138,63.3709758 180.337735,63.0619174 C180.810332,62.752859 181.355799,62.5983321 181.974151,62.5983321 Z M190.136353,68.7537139 L190.136353,69.7839033 L189.235331,69.7839033 C188.493309,69.7839033 187.939009,69.6122068 187.572414,69.2688086 C187.20582,68.9254104 187.022526,68.3502271 187.022526,67.5432413 L187.022526,63.7315405 L185.935999,63.7315405 L185.935999,62.7142285 L187.022526,62.7142285 L187.022526,60.9500291 L188.241556,60.9500291 L188.241556,62.7142285 L190.123103,62.7142285 L190.123103,63.7315405 L188.241556,63.7315405 L188.241556,67.5689961 C188.241556,68.0239987 188.327682,68.3351986 188.499937,68.5026052 C188.672193,68.6700118 188.970322,68.7537139 189.394335,68.7537139 L190.136353,68.7537139 Z M198.099801,62.6240869 C199.027328,62.6240869 199.79584,62.864462 200.405358,63.3452195 C201.014876,63.8259769 201.390298,64.4698389 201.531636,65.2768246 L200.259604,65.2768246 C200.171268,64.7703123 199.930556,64.3732641 199.537461,64.0856681 C199.144366,63.7980721 198.656317,63.6542763 198.0733,63.6542763 C197.649287,63.6542763 197.262823,63.7487094 196.913896,63.9375784 C196.564969,64.1264474 196.284507,64.4161853 196.0725,64.8068007 C195.860494,65.1974161 195.754492,65.6803126 195.754492,66.2555046 C195.754492,66.8306965 195.860494,67.313593 196.0725,67.7042084 C196.284507,68.0948239 196.564969,68.3845617 196.913896,68.5734307 C197.262823,68.7622997 197.649287,68.8567328 198.0733,68.8567328 C198.656317,68.8567328 199.144366,68.7107908 199.537461,68.4189023 C199.930556,68.1270139 200.171268,67.7278195 200.259604,67.2213071 L201.531636,67.2213071 C201.390298,68.0368778 201.014876,68.682886 200.405358,69.159351 C199.79584,69.6358159 199.027328,69.8740449 198.099801,69.8740449 C197.401946,69.8740449 196.783604,69.7281028 196.244755,69.4362144 C195.705905,69.1443259 195.284107,68.7258156 194.979348,68.180671 C194.674589,67.6355264 194.522212,66.9938107 194.522212,66.2555046 C194.522212,65.5171985 194.674589,64.8733365 194.979348,64.3238994 C195.284107,63.7744623 195.705905,63.3538058 196.244755,63.0619174 C196.783604,62.7700289 197.401946,62.6240869 198.099801,62.6240869 Z M206.407757,62.6240869 C207.105611,62.6240869 207.730578,62.7700289 208.282678,63.0619174 C208.834778,63.3538058 209.267618,63.7744623 209.58121,64.3238994 C209.894803,64.8733365 210.051597,65.5171985 210.051597,66.2555046 C210.051597,66.9938107 209.894803,67.6355264 209.58121,68.180671 C209.267618,68.7258156 208.834778,69.1443259 208.282678,69.4362144 C207.730578,69.7281028 207.105611,69.8740449 206.407757,69.8740449 C205.709903,69.8740449 205.084935,69.7281028 204.532835,69.4362144 C203.980735,69.1443259 203.545687,68.7258156 203.227678,68.180671 C202.909668,67.6355264 202.750666,66.9938107 202.750666,66.2555046 C202.750666,65.5171985 202.909668,64.8733365 203.227678,64.3238994 C203.545687,63.7744623 203.980735,63.3538058 204.532835,63.0619174 C205.084935,62.7700289 205.709903,62.6240869 206.407757,62.6240869 Z M206.407757,63.6542763 C205.97491,63.6542763 205.575196,63.7487094 205.208602,63.9375784 C204.842008,64.1264474 204.546087,64.4161853 204.32083,64.8068007 C204.095573,65.1974161 203.982947,65.6803126 203.982947,66.2555046 C203.982947,66.8221116 204.095573,67.3007156 204.32083,67.691331 C204.546087,68.0819465 204.842008,68.3716844 205.208602,68.5605534 C205.575196,68.7494224 205.97491,68.8438555 206.407757,68.8438555 C206.840603,68.8438555 207.240317,68.7494224 207.606911,68.5605534 C207.973506,68.3716844 208.269427,68.0819465 208.494683,67.691331 C208.71994,67.3007156 208.832567,66.8221116 208.832567,66.2555046 C208.832567,65.6803126 208.71994,65.1974161 208.494683,64.8068007 C208.269427,64.4161853 207.973506,64.1264474 207.606911,63.9375784 C207.240317,63.7487094 206.840603,63.6542763 206.407757,63.6542763 Z M215.457731,62.5983321 C216.305756,62.5983321 216.99035,62.8623155 217.511532,63.3902903 C218.032714,63.918265 218.293301,64.6801683 218.293301,65.676023 L218.293301,69.7839033 L217.087522,69.7839033 L217.087522,65.779042 C217.087522,65.0750757 216.902019,64.5342316 216.531008,64.1564936 C216.159997,63.7787556 215.656489,63.5898895 215.02047,63.5898895 C214.357951,63.5898895 213.827943,63.7980715 213.430431,64.2144418 C213.032919,64.6308121 212.834166,65.2381885 212.834166,66.0365893 L212.834166,69.7839033 L211.628386,69.7839033 L211.628386,62.7142285 L212.834166,62.7142285 L212.834166,64.3882862 C213.019672,63.8130943 213.348718,63.3709758 213.821316,63.0619174 C214.293913,62.752859 214.839379,62.5983321 215.457731,62.5983321 Z M223.129671,62.6240869 C223.836359,62.6240869 224.434826,62.7957834 224.925091,63.1391816 C225.415356,63.4825798 225.757652,63.941868 225.951991,64.5170599 L225.951991,60.2546512 L227.157771,60.2546512 L227.157771,69.7839033 L225.951991,69.7839033 L225.951991,67.9810718 C225.757652,68.5562638 225.415356,69.015552 224.925091,69.3589502 C224.434826,69.7023483 223.836359,69.8740449 223.129671,69.8740449 C222.484819,69.8740449 221.910644,69.7281028 221.407129,69.4362144 C220.903614,69.1443259 220.508316,68.7258156 220.221224,68.180671 C219.934132,67.6355264 219.790589,66.9938107 219.790589,66.2555046 C219.790589,65.5171985 219.934132,64.8733365 220.221224,64.3238994 C220.508316,63.7744623 220.903614,63.3538058 221.407129,63.0619174 C221.910644,62.7700289 222.484819,62.6240869 223.129671,62.6240869 Z M223.47418,63.6671537 C222.732158,63.6671537 222.138107,63.8967978 221.692011,64.3560928 C221.245914,64.8153879 221.022869,65.4485188 221.022869,66.2555046 C221.022869,67.0624903 221.245914,67.6956212 221.692011,68.1549163 C222.138107,68.6142114 222.732158,68.8438555 223.47418,68.8438555 C223.951194,68.8438555 224.377409,68.7365451 224.752837,68.5219213 C225.128265,68.3072974 225.421977,68.0046823 225.633984,67.6140668 C225.84599,67.2234514 225.951991,66.7706018 225.951991,66.2555046 C225.951991,65.7404073 225.84599,65.2854115 225.633984,64.8905036 C225.421977,64.4955957 225.128265,64.1929806 224.752837,63.9826492 C224.377409,63.7723178 223.951194,63.6671537 223.47418,63.6671537 Z M228.867064,60.6409723 C228.867064,60.4263484 228.942148,60.2525057 229.092319,60.1194389 C229.24249,59.9863721 229.441243,59.9198397 229.688584,59.9198397 C229.935925,59.9198397 230.134678,59.9863721 230.284849,60.1194389 C230.43502,60.2525057 230.510104,60.4263484 230.510104,60.6409723 C230.510104,60.8555961 230.43502,61.0294389 230.284849,61.1625057 C230.134678,61.2955725 229.935925,61.3621049 229.688584,61.3621049 C229.441243,61.3621049 229.24249,61.2955725 229.092319,61.1625057 C228.942148,61.0294389 228.867064,60.8555961 228.867064,60.6409723 Z M230.284849,62.7142285 L230.284849,69.7839033 L229.079069,69.7839033 L229.079069,62.7142285 L230.284849,62.7142285 Z M235.690983,68.7537139 L235.690983,69.7839033 L234.789961,69.7839033 C234.047938,69.7839033 233.493639,69.6122068 233.127044,69.2688086 C232.76045,68.9254104 232.577156,68.3502271 232.577156,67.5432413 L232.577156,63.7315405 L231.490629,63.7315405 L231.490629,62.7142285 L232.577156,62.7142285 L232.577156,60.9500291 L233.796186,60.9500291 L233.796186,62.7142285 L235.677733,62.7142285 L235.677733,63.7315405 L233.796186,63.7315405 L233.796186,67.5689961 C233.796186,68.0239987 233.882312,68.3351986 234.054567,68.5026052 C234.226822,68.6700118 234.524952,68.7537139 234.948965,68.7537139 L235.690983,68.7537139 Z M236.949764,60.6409723 C236.949764,60.4263484 237.024849,60.2525057 237.17502,60.1194389 C237.325191,59.9863721 237.523944,59.9198397 237.771285,59.9198397 C238.018625,59.9198397 238.217378,59.9863721 238.367549,60.1194389 C238.51772,60.2525057 238.592805,60.4263484 238.592805,60.6409723 C238.592805,60.8555961 238.51772,61.0294389 238.367549,61.1625057 C238.217378,61.2955725 238.018625,61.3621049 237.771285,61.3621049 C237.523944,61.3621049 237.325191,61.2955725 237.17502,61.1625057 C237.024849,61.0294389 236.949764,60.8555961 236.949764,60.6409723 Z M238.367549,62.7142285 L238.367549,69.7839033 L237.161769,69.7839033 L237.161769,62.7142285 L238.367549,62.7142285 Z M243.601429,62.6240869 C244.299283,62.6240869 244.924251,62.7700289 245.476351,63.0619174 C246.02845,63.3538058 246.46129,63.7744623 246.774883,64.3238994 C247.088476,64.8733365 247.24527,65.5171985 247.24527,66.2555046 C247.24527,66.9938107 247.088476,67.6355264 246.774883,68.180671 C246.46129,68.7258156 246.02845,69.1443259 245.476351,69.4362144 C244.924251,69.7281028 244.299283,69.8740449 243.601429,69.8740449 C242.903575,69.8740449 242.278607,69.7281028 241.726508,69.4362144 C241.174408,69.1443259 240.73936,68.7258156 240.42135,68.180671 C240.103341,67.6355264 239.944338,66.9938107 239.944338,66.2555046 C239.944338,65.5171985 240.103341,64.8733365 240.42135,64.3238994 C240.73936,63.7744623 241.174408,63.3538058 241.726508,63.0619174 C242.278607,62.7700289 242.903575,62.6240869 243.601429,62.6240869 Z M243.601429,63.6542763 C243.168583,63.6542763 242.768869,63.7487094 242.402274,63.9375784 C242.03568,64.1264474 241.739759,64.4161853 241.514502,64.8068007 C241.289246,65.1974161 241.176619,65.6803126 241.176619,66.2555046 C241.176619,66.8221116 241.289246,67.3007156 241.514502,67.691331 C241.739759,68.0819465 242.03568,68.3716844 242.402274,68.5605534 C242.768869,68.7494224 243.168583,68.8438555 243.601429,68.8438555 C244.034275,68.8438555 244.43399,68.7494224 244.800584,68.5605534 C245.167178,68.3716844 245.463099,68.0819465 245.688356,67.691331 C245.913613,67.3007156 246.026239,66.8221116 246.026239,66.2555046 C246.026239,65.6803126 245.913613,65.1974161 245.688356,64.8068007 C245.463099,64.4161853 245.167178,64.1264474 244.800584,63.9375784 C244.43399,63.7487094 244.034275,63.6542763 243.601429,63.6542763 Z M252.651404,62.5983321 C253.499429,62.5983321 254.184022,62.8623155 254.705205,63.3902903 C255.226387,63.918265 255.486974,64.6801683 255.486974,65.676023 L255.486974,69.7839033 L254.281194,69.7839033 L254.281194,65.779042 C254.281194,65.0750757 254.095691,64.5342316 253.72468,64.1564936 C253.353669,63.7787556 252.850162,63.5898895 252.214143,63.5898895 C251.551623,63.5898895 251.021615,63.7980715 250.624103,64.2144418 C250.226591,64.6308121 250.027839,65.2381885 250.027839,66.0365893 L250.027839,69.7839033 L248.822059,69.7839033 L248.822059,62.7142285 L250.027839,62.7142285 L250.027839,64.3882862 C250.213344,63.8130943 250.542391,63.3709758 251.014988,63.0619174 C251.487585,62.752859 252.033052,62.5983321 252.651404,62.5983321 Z" id="current-condition" fill="#8B8B8B"></path>
                        <path d="M129.739479,67.6215755 L129.739479,68.9018036 L128.669073,68.9018036 C127.787558,68.9018036 127.129055,68.6884344 126.693545,68.2616896 C126.258034,67.8349447 126.040282,67.1201579 126.040282,66.1173075 L126.040282,61.3804636 L124.749499,61.3804636 L124.749499,60.1162383 L126.040282,60.1162383 L126.040282,57.9238477 L127.488479,57.9238477 L127.488479,60.1162383 L129.723738,60.1162383 L129.723738,61.3804636 L127.488479,61.3804636 L127.488479,66.1493132 C127.488479,66.7147501 127.590796,67.1014818 127.795433,67.3095199 C128.000071,67.517558 128.354245,67.6215755 128.857968,67.6215755 L129.739479,67.6215755 Z" id="t" fill="#8B8B8B"></path>
                        <path d="M352.292585,152.451235 L352.292585,153.731463 L351.222179,153.731463 C350.340664,153.731463 349.682161,153.518094 349.246651,153.091349 C348.811141,152.664604 348.593389,151.949817 348.593389,150.946967 L348.593389,146.210123 L347.302605,146.210123 L347.302605,144.945898 L348.593389,144.945898 L348.593389,142.753507 L350.041585,142.753507 L350.041585,144.945898 L352.276844,144.945898 L352.276844,146.210123 L350.041585,146.210123 L350.041585,150.978973 C350.041585,151.544409 350.143902,151.931141 350.348539,152.139179 C350.553177,152.347217 350.907352,152.451235 351.411075,152.451235 L352.292585,152.451235 Z" id="t-copy" fill="#8B8B8B"></path>
                        <path d="M132.733467,66.8974718 C132.733467,65.9634096 132.925387,65.2322945 133.309234,64.7041046 C133.69308,64.1759147 134.332815,63.9118236 135.228457,63.9118236 C136.124099,63.9118236 136.763833,64.1773046 137.14768,64.7082745 C137.531527,65.2392444 137.723447,65.9689695 137.723447,66.8974718 C137.723447,67.831534 137.531527,68.565429 137.14768,69.0991789 C136.763833,69.6329287 136.124099,69.8997996 135.228457,69.8997996 C134.332815,69.8997996 133.69308,69.6343186 133.309234,69.1033488 C132.925387,68.5723789 132.733467,67.8370939 132.733467,66.8974718 Z M136.62949,66.8974718 C136.62949,66.2302845 136.53353,65.717392 136.341606,65.3587788 C136.149683,65.0001657 135.778637,64.8208618 135.228457,64.8208618 C134.671879,64.8208618 134.297635,64.9987757 134.105711,65.3546089 C133.913788,65.7104422 133.817828,66.2247246 133.817828,66.8974718 C133.817828,67.5757789 133.913788,68.0956212 134.105711,68.4570143 C134.297635,68.8184074 134.671879,68.9991013 135.228457,68.9991013 C135.778637,68.9991013 136.149683,68.8184074 136.341606,68.4570143 C136.53353,68.0956212 136.62949,67.5757789 136.62949,66.8974718 Z" id="0" fill="#8B8B8B"></path>
                        <polygon id="1" fill="#8B8B8B" points="354.288577 150.647005 354.288577 149.739479 356.284569 149.739479 356.284569 155.727455 355.22475 155.727455 355.22475 150.647005"></polygon>
                        <circle id="Oval" fill="#DEDEDE" cx="131.735471" cy="87.8637275" r="2.99398798"></circle>
                        <circle id="Oval-Copy" fill="#DEDEDE" cx="350.296593" cy="183.671343" r="2.99398798"></circle>
                        <path d="M471.234283,276.359736 L471.234283,277.392591 L470.339309,277.392591 C469.602268,277.392591 469.051689,277.22045 468.687555,276.876164 C468.323422,276.531877 468.141358,275.955206 468.141358,275.146132 L468.141358,271.324569 L467.062124,271.324569 L467.062124,270.304625 L468.141358,270.304625 L468.141358,268.535861 L469.352205,268.535861 L469.352205,270.304625 L471.221122,270.304625 L471.221122,271.324569 L469.352205,271.324569 L469.352205,275.171953 C469.352205,275.628133 469.437753,275.940138 469.608852,276.107978 C469.779951,276.275818 470.076079,276.359736 470.497246,276.359736 L471.234283,276.359736 Z M472.484615,268.226004 C472.484615,268.010825 472.559195,267.836533 472.708358,267.703122 C472.857521,267.569711 473.05494,267.503006 473.30062,267.503006 C473.546301,267.503006 473.74372,267.569711 473.892883,267.703122 C474.042046,267.836533 474.116626,268.010825 474.116626,268.226004 C474.116626,268.441184 474.042046,268.615476 473.892883,268.748887 C473.74372,268.882298 473.546301,268.949003 473.30062,268.949003 C473.05494,268.949003 472.857521,268.882298 472.708358,268.748887 C472.559195,268.615476 472.484615,268.441184 472.484615,268.226004 Z M473.892883,270.304625 L473.892883,277.392591 L472.695197,277.392591 L472.695197,270.304625 L473.892883,270.304625 Z M484.698379,270.188429 C485.540712,270.188429 486.218516,270.453095 486.731813,270.982436 C487.245109,271.511777 487.501754,272.275651 487.501754,273.274082 L487.501754,277.392591 L486.304068,277.392591 L486.304068,273.377368 C486.304068,272.680187 486.130778,272.146551 485.784193,271.776443 C485.437608,271.406335 484.96161,271.221283 484.356183,271.221283 C483.724433,271.221283 483.217725,271.425701 482.836043,271.834541 C482.454361,272.243381 482.263523,272.843722 482.263523,273.635582 L482.263523,277.392591 L481.065837,277.392591 L481.065837,273.377368 C481.065837,272.680187 480.890354,272.146551 480.539382,271.776443 C480.18841,271.406335 479.714605,271.221283 479.117952,271.221283 C478.477428,271.221283 477.966333,271.425701 477.584651,271.834541 C477.202969,272.243381 477.012131,272.843722 477.012131,273.635582 L477.012131,277.392591 L475.814445,277.392591 L475.814445,270.304625 L477.012131,270.304625 L477.012131,271.91846 C477.187617,271.358995 477.501293,270.930795 477.95317,270.633847 C478.405046,270.3369 478.924916,270.188429 479.512794,270.188429 C480.126995,270.188429 480.660025,270.341204 481.111902,270.646758 C481.563778,270.952312 481.886229,271.40203 482.079264,271.995925 C482.281072,271.419244 482.618878,270.97383 483.09269,270.659669 C483.566502,270.345507 484.101727,270.188429 484.698379,270.188429 Z M496.004008,273.454832 C496.004008,273.70444 495.98646,273.919616 495.951362,274.100366 L490.173515,274.100366 C490.199838,274.90944 490.434547,275.516236 490.877649,275.920773 C491.320751,276.32531 491.862556,276.527575 492.50308,276.527575 C493.082184,276.527575 493.566956,276.383407 493.957413,276.095067 C494.347869,275.806727 494.586965,275.421562 494.674708,274.939561 L495.951362,274.939561 C495.863619,275.430169 495.668394,275.869128 495.365681,276.256451 C495.062968,276.643773 494.670324,276.94502 494.187737,277.160199 C493.705151,277.375378 493.161152,277.482966 492.555725,277.482966 C491.862556,277.482966 491.248364,277.336646 490.713132,277.044003 C490.177899,276.751359 489.758933,276.331766 489.456219,275.785211 C489.153506,275.238656 489.002152,274.59528 489.002152,273.855063 C489.002152,273.114847 489.153506,272.469319 489.456219,271.91846 C489.758933,271.367602 490.177899,270.945857 490.713132,270.653213 C491.248364,270.36057 491.862556,270.21425 492.555725,270.21425 C493.257669,270.21425 493.869668,270.36057 494.391738,270.653213 C494.913809,270.945857 495.313034,271.337477 495.589424,271.828086 C495.865815,272.318694 496.004008,272.860938 496.004008,273.454832 Z M494.793161,273.532296 C494.819484,273.007259 494.731742,272.5683 494.529933,272.215406 C494.328124,271.862512 494.051738,271.599998 493.700766,271.427854 C493.349794,271.255711 492.968117,271.169641 492.555725,271.169641 C491.897653,271.169641 491.34488,271.369754 490.897391,271.769988 C490.449902,272.170221 490.208612,272.757651 490.173515,273.532296 L494.793161,273.532296 Z" id="time" fill="#8B8B8B"></path>
                        <path d="M373.552077,146.510956 C374.398444,146.510956 375.079495,146.782919 375.59525,147.326852 C376.111004,147.870786 376.368878,148.655719 376.368878,149.681674 L376.368878,153.913721 L375.165456,153.913721 L375.165456,149.787807 C375.165456,149.071407 374.991336,148.52306 374.643092,148.142749 C374.294847,147.762437 373.816569,147.572285 373.208243,147.572285 C372.573467,147.572285 372.064332,147.782337 371.680822,148.202448 C371.297312,148.622559 371.10556,149.23945 371.10556,150.053139 L371.10556,153.913721 L369.902138,153.913721 L369.902138,149.787807 C369.902138,149.071407 369.725815,148.52306 369.373162,148.142749 C369.020509,147.762437 368.544435,147.572285 367.944925,147.572285 C367.301333,147.572285 366.78779,147.782337 366.40428,148.202448 C366.02077,148.622559 365.829018,149.23945 365.829018,150.053139 L365.829018,153.913721 L364.625596,153.913721 L364.625596,146.630356 L365.829018,146.630356 L365.829018,148.288681 C366.005345,147.713792 366.320523,147.273788 366.774564,146.968654 C367.228605,146.663521 367.750964,146.510956 368.341657,146.510956 C368.9588,146.510956 369.494383,146.667943 369.948424,146.981921 C370.402464,147.295899 370.726459,147.758014 370.920418,148.368281 C371.123194,147.775703 371.462617,147.31801 371.938699,146.995187 C372.41478,146.672365 372.952567,146.510956 373.552077,146.510956 Z M378.02193,144.494433 C378.02193,144.273322 378.096868,144.094224 378.246745,143.957135 C378.396623,143.820046 378.594987,143.751503 378.841844,143.751503 C379.088701,143.751503 379.287065,143.820046 379.436943,143.957135 C379.58682,144.094224 379.661758,144.273322 379.661758,144.494433 C379.661758,144.715544 379.58682,144.894641 379.436943,145.03173 C379.287065,145.168819 379.088701,145.237363 378.841844,145.237363 C378.594987,145.237363 378.396623,145.168819 378.246745,145.03173 C378.096868,144.894641 378.02193,144.715544 378.02193,144.494433 Z M379.436943,146.630356 L379.436943,153.913721 L378.233521,153.913721 L378.233521,146.630356 L379.436943,146.630356 Z M385.189564,146.510956 C386.035931,146.510956 386.719185,146.782919 387.239348,147.326852 C387.759511,147.870786 388.019589,148.655719 388.019589,149.681674 L388.019589,153.913721 L386.816167,153.913721 L386.816167,149.787807 C386.816167,149.062563 386.631027,148.505371 386.260741,148.116215 C385.890456,147.72706 385.387933,147.532485 384.753158,147.532485 C384.091934,147.532485 383.562963,147.746959 383.166228,148.175915 C382.769494,148.604871 382.571129,149.230606 382.571129,150.053139 L382.571129,153.913721 L381.367707,153.913721 L381.367707,146.630356 L382.571129,146.630356 L382.571129,148.355014 C382.756272,147.762436 383.084675,147.306954 383.556348,146.988554 C384.028022,146.670154 384.572421,146.510956 385.189564,146.510956 Z M389.659416,144.494433 C389.659416,144.273322 389.734354,144.094224 389.884232,143.957135 C390.034109,143.820046 390.232473,143.751503 390.47933,143.751503 C390.726187,143.751503 390.924552,143.820046 391.074429,143.957135 C391.224306,144.094224 391.299244,144.273322 391.299244,144.494433 C391.299244,144.715544 391.224306,144.894641 391.074429,145.03173 C390.924552,145.168819 390.726187,145.237363 390.47933,145.237363 C390.232473,145.237363 390.034109,145.168819 389.884232,145.03173 C389.734354,144.894641 389.659416,144.715544 389.659416,144.494433 Z M391.074429,146.630356 L391.074429,153.913721 L389.871007,153.913721 L389.871007,146.630356 L391.074429,146.630356 Z M401.931675,146.510956 C402.778042,146.510956 403.459092,146.782919 403.974847,147.326852 C404.490602,147.870786 404.748476,148.655719 404.748476,149.681674 L404.748476,153.913721 L403.545054,153.913721 L403.545054,149.787807 C403.545054,149.071407 403.370934,148.52306 403.022689,148.142749 C402.674444,147.762437 402.196166,147.572285 401.58784,147.572285 C400.953065,147.572285 400.44393,147.782337 400.06042,148.202448 C399.67691,148.622559 399.485158,149.23945 399.485158,150.053139 L399.485158,153.913721 L398.281736,153.913721 L398.281736,149.787807 C398.281736,149.071407 398.105412,148.52306 397.752759,148.142749 C397.400106,147.762437 396.924032,147.572285 396.324522,147.572285 C395.680931,147.572285 395.167388,147.782337 394.783878,148.202448 C394.400368,148.622559 394.208616,149.23945 394.208616,150.053139 L394.208616,153.913721 L393.005194,153.913721 L393.005194,146.630356 L394.208616,146.630356 L394.208616,148.288681 C394.384942,147.713792 394.700121,147.273788 395.154161,146.968654 C395.608202,146.663521 396.130561,146.510956 396.721255,146.510956 C397.338397,146.510956 397.873981,146.667943 398.328021,146.981921 C398.782062,147.295899 399.106057,147.758014 399.300016,148.368281 C399.502791,147.775703 399.842215,147.31801 400.318296,146.995187 C400.794377,146.672365 401.332165,146.510956 401.931675,146.510956 Z M409.588612,146.53749 C410.293918,146.53749 410.891214,146.714376 411.38052,147.068154 C411.869826,147.421932 412.211454,147.895102 412.405413,148.48768 L412.405413,146.630356 L413.608834,146.630356 L413.608834,153.913721 L412.405413,153.913721 L412.405413,152.056396 C412.211454,152.648974 411.869826,153.122145 411.38052,153.475923 C410.891214,153.829701 410.293918,154.006587 409.588612,154.006587 C408.94502,154.006587 408.371968,153.856234 407.869438,153.555523 C407.366907,153.254811 406.972383,152.823651 406.685853,152.262029 C406.399322,151.700406 406.256059,151.039294 406.256059,150.278672 C406.256059,149.518049 406.399322,148.854726 406.685853,148.288681 C406.972383,147.722637 407.366907,147.289265 407.869438,146.988554 C408.371968,146.687843 408.94502,146.53749 409.588612,146.53749 Z M409.932447,147.612084 C409.191876,147.612084 408.598987,147.84867 408.153763,148.321848 C407.708538,148.795026 407.48593,149.447294 407.48593,150.278672 C407.48593,151.11005 407.708538,151.762318 408.153763,152.235496 C408.598987,152.708673 409.191876,152.945259 409.932447,152.945259 C410.408528,152.945259 410.833909,152.834705 411.208603,152.613594 C411.583297,152.392483 411.876435,152.08072 412.088027,151.678298 C412.299618,151.275876 412.405413,150.809338 412.405413,150.278672 C412.405413,149.748005 412.299618,149.279256 412.088027,148.872412 C411.876435,148.465567 411.583297,148.153805 411.208603,147.937116 C410.833909,147.720427 410.408528,147.612084 409.932447,147.612084 Z M416.729797,144.096435 L416.729797,153.913721 L415.526375,153.913721 L415.526375,144.096435 L416.729797,144.096435 Z M424.902486,146.53749 C425.607792,146.53749 426.205089,146.714376 426.694394,147.068154 C427.1837,147.421932 427.525328,147.895102 427.719287,148.48768 L427.719287,146.630356 L428.922709,146.630356 L428.922709,153.913721 L427.719287,153.913721 L427.719287,152.056396 C427.525328,152.648974 427.1837,153.122145 426.694394,153.475923 C426.205089,153.829701 425.607792,154.006587 424.902486,154.006587 C424.258895,154.006587 423.685842,153.856234 423.183312,153.555523 C422.680782,153.254811 422.286257,152.823651 421.999727,152.262029 C421.713196,151.700406 421.569933,151.039294 421.569933,150.278672 C421.569933,149.518049 421.713196,148.854726 421.999727,148.288681 C422.286257,147.722637 422.680782,147.289265 423.183312,146.988554 C423.685842,146.687843 424.258895,146.53749 424.902486,146.53749 Z M425.246321,147.612084 C424.50575,147.612084 423.912861,147.84867 423.467637,148.321848 C423.022413,148.795026 422.799804,149.447294 422.799804,150.278672 C422.799804,151.11005 423.022413,151.762318 423.467637,152.235496 C423.912861,152.708673 424.50575,152.945259 425.246321,152.945259 C425.722402,152.945259 426.147783,152.834705 426.522477,152.613594 C426.897171,152.392483 427.190309,152.08072 427.401901,151.678298 C427.613492,151.275876 427.719287,150.809338 427.719287,150.278672 C427.719287,149.748005 427.613492,149.279256 427.401901,148.872412 C427.190309,148.465567 426.897171,148.153805 426.522477,147.937116 C426.147783,147.720427 425.722402,147.612084 425.246321,147.612084 Z M434.053782,146.53749 C434.979496,146.53749 435.746504,146.78513 436.354831,147.280419 C436.963157,147.775708 437.337845,148.439032 437.478906,149.27041 L436.209362,149.27041 C436.121199,148.748587 435.880958,148.339538 435.488631,148.043249 C435.096305,147.74696 434.609211,147.598818 434.027333,147.598818 C433.60415,147.598818 433.218442,147.696105 432.870197,147.890683 C432.521952,148.085261 432.242038,148.383756 432.030446,148.786179 C431.818855,149.188601 431.71306,149.686094 431.71306,150.278672 C431.71306,150.871249 431.818855,151.368742 432.030446,151.771164 C432.242038,152.173587 432.521952,152.472082 432.870197,152.66666 C433.218442,152.861238 433.60415,152.958525 434.027333,152.958525 C434.609211,152.958525 435.096305,152.808172 435.488631,152.507461 C435.880958,152.20675 436.121199,151.795489 436.209362,151.273667 L437.478906,151.273667 C437.337845,152.113889 436.963157,152.779424 436.354831,153.270291 C435.746504,153.761157 434.979496,154.006587 434.053782,154.006587 C433.357293,154.006587 432.740159,153.856234 432.202364,153.555523 C431.664568,153.254811 431.243595,152.823651 430.939432,152.262029 C430.635269,151.700406 430.48319,151.039294 430.48319,150.278672 C430.48319,149.518049 430.635269,148.854726 430.939432,148.288681 C431.243595,147.722637 431.664568,147.289265 432.202364,146.988554 C432.740159,146.687843 433.357293,146.53749 434.053782,146.53749 Z M442.266145,146.53749 C443.191858,146.53749 443.958867,146.78513 444.567193,147.280419 C445.175519,147.775708 445.550207,148.439032 445.691269,149.27041 L444.421725,149.27041 C444.333561,148.748587 444.09332,148.339538 443.700994,148.043249 C443.308668,147.74696 442.821573,147.598818 442.239696,147.598818 C441.816512,147.598818 441.430804,147.696105 441.082559,147.890683 C440.734315,148.085261 440.454401,148.383756 440.242809,148.786179 C440.031217,149.188601 439.925423,149.686094 439.925423,150.278672 C439.925423,150.871249 440.031217,151.368742 440.242809,151.771164 C440.454401,152.173587 440.734315,152.472082 441.082559,152.66666 C441.430804,152.861238 441.816512,152.958525 442.239696,152.958525 C442.821573,152.958525 443.308668,152.808172 443.700994,152.507461 C444.09332,152.20675 444.333561,151.795489 444.421725,151.273667 L445.691269,151.273667 C445.550207,152.113889 445.175519,152.779424 444.567193,153.270291 C443.958867,153.761157 443.191858,154.006587 442.266145,154.006587 C441.569655,154.006587 440.952522,153.856234 440.414726,153.555523 C439.876931,153.254811 439.455958,152.823651 439.151795,152.262029 C438.847632,151.700406 438.695552,151.039294 438.695552,150.278672 C438.695552,149.518049 438.847632,148.854726 439.151795,148.288681 C439.455958,147.722637 439.876931,147.289265 440.414726,146.988554 C440.952522,146.687843 441.569655,146.53749 442.266145,146.53749 Z M453.943304,149.867407 C453.943304,150.123896 453.925672,150.345004 453.890407,150.530737 L448.084888,150.530737 C448.111337,151.362115 448.34717,151.985639 448.792394,152.401328 C449.237618,152.817017 449.782018,153.024858 450.42561,153.024858 C451.007487,153.024858 451.494581,152.876716 451.886908,152.580427 C452.279234,152.284138 452.519475,151.888355 452.607638,151.393066 L453.890407,151.393066 C453.802243,151.8972 453.606083,152.34826 453.30192,152.74626 C452.997757,153.14426 452.603233,153.453811 452.118335,153.674922 C451.633437,153.896033 451.086833,154.006587 450.478507,154.006587 C449.782018,154.006587 449.164885,153.856234 448.627089,153.555523 C448.089293,153.254811 447.66832,152.823651 447.364157,152.262029 C447.059994,151.700406 446.907915,151.039294 446.907915,150.278672 C446.907915,149.518049 447.059994,148.854726 447.364157,148.288681 C447.66832,147.722637 448.089293,147.289265 448.627089,146.988554 C449.164885,146.687843 449.782018,146.53749 450.478507,146.53749 C451.183813,146.53749 451.798742,146.687843 452.323313,146.988554 C452.847884,147.289265 453.249021,147.691682 453.526735,148.195815 C453.804449,148.699948 453.943304,149.25714 453.943304,149.867407 Z M452.726658,149.947007 C452.753107,149.407495 452.664945,148.956435 452.46217,148.593813 C452.259394,148.231191 451.981684,147.961439 451.629032,147.78455 C451.276379,147.607661 450.892874,147.519218 450.478507,147.519218 C449.817283,147.519218 449.261863,147.724848 448.812231,148.136115 C448.362598,148.547382 448.120153,149.151006 448.084888,149.947007 L452.726658,149.947007 Z M459.524008,146.53749 C460.1676,146.53749 460.740652,146.687843 461.243182,146.988554 C461.745713,147.289265 462.140237,147.722637 462.426767,148.288681 C462.713298,148.854726 462.856561,149.518049 462.856561,150.278672 C462.856561,151.039294 462.713298,151.700406 462.426767,152.262029 C462.140237,152.823651 461.745713,153.254811 461.243182,153.555523 C460.740652,153.856234 460.1676,154.006587 459.524008,154.006587 C458.818702,154.006587 458.221405,153.82749 457.7321,153.46929 C457.242794,153.11109 456.905575,152.64013 456.720432,152.056396 L456.720432,157.363038 L455.51701,157.363038 L455.51701,146.630356 L456.720432,146.630356 L456.720432,148.48768 C456.905575,147.903947 457.242794,147.432987 457.7321,147.074787 C458.221405,146.716587 458.818702,146.53749 459.524008,146.53749 Z M459.180173,147.612084 C458.712908,147.612084 458.289731,147.720427 457.910629,147.937116 C457.531527,148.153805 457.236185,148.465567 457.024593,148.872412 C456.813002,149.279256 456.707207,149.748005 456.707207,150.278672 C456.707207,150.809338 456.813002,151.275876 457.024593,151.678298 C457.236185,152.08072 457.531527,152.392483 457.910629,152.613594 C458.289731,152.834705 458.712908,152.945259 459.180173,152.945259 C459.929561,152.945259 460.526857,152.708673 460.972082,152.235496 C461.417306,151.762318 461.639915,151.11005 461.639915,150.278672 C461.639915,149.447294 461.417306,148.795026 460.972082,148.321848 C460.526857,147.84867 459.929561,147.612084 459.180173,147.612084 Z M467.895064,152.852393 L467.895064,153.913721 L466.995803,153.913721 C466.255232,153.913721 465.702016,153.736835 465.336139,153.383057 C464.970262,153.029279 464.787326,152.43671 464.787326,151.605332 L464.787326,147.678417 L463.702924,147.678417 L463.702924,146.630356 L464.787326,146.630356 L464.787326,144.812831 L466.003972,144.812831 L466.003972,146.630356 L467.881839,146.630356 L467.881839,147.678417 L466.003972,147.678417 L466.003972,151.631865 C466.003972,152.100621 466.08993,152.421227 466.261848,152.593694 C466.433766,152.76616 466.731313,152.852393 467.154496,152.852393 L467.895064,152.852393 Z M472.338468,146.53749 C473.043773,146.53749 473.64107,146.714376 474.130376,147.068154 C474.619682,147.421932 474.961309,147.895102 475.155268,148.48768 L475.155268,146.630356 L476.35869,146.630356 L476.35869,153.913721 L475.155268,153.913721 L475.155268,152.056396 C474.961309,152.648974 474.619682,153.122145 474.130376,153.475923 C473.64107,153.829701 473.043773,154.006587 472.338468,154.006587 C471.694876,154.006587 471.121824,153.856234 470.619293,153.555523 C470.116763,153.254811 469.722239,152.823651 469.435708,152.262029 C469.149178,151.700406 469.005915,151.039294 469.005915,150.278672 C469.005915,149.518049 469.149178,148.854726 469.435708,148.288681 C469.722239,147.722637 470.116763,147.289265 470.619293,146.988554 C471.121824,146.687843 471.694876,146.53749 472.338468,146.53749 Z M472.682302,147.612084 C471.941731,147.612084 471.348843,147.84867 470.903618,148.321848 C470.458394,148.795026 470.235785,149.447294 470.235785,150.278672 C470.235785,151.11005 470.458394,151.762318 470.903618,152.235496 C471.348843,152.708673 471.941731,152.945259 472.682302,152.945259 C473.158384,152.945259 473.583765,152.834705 473.958459,152.613594 C474.333152,152.392483 474.62629,152.08072 474.837882,151.678298 C475.049474,151.275876 475.155268,150.809338 475.155268,150.278672 C475.155268,149.748005 475.049474,149.279256 474.837882,148.872412 C474.62629,148.465567 474.333152,148.153805 473.958459,147.937116 C473.583765,147.720427 473.158384,147.612084 472.682302,147.612084 Z M482.283229,146.53749 C482.92682,146.53749 483.499872,146.687843 484.002403,146.988554 C484.504933,147.289265 484.899458,147.722637 485.185988,148.288681 C485.472518,148.854726 485.615782,149.518049 485.615782,150.278672 C485.615782,151.039294 485.472518,151.700406 485.185988,152.262029 C484.899458,152.823651 484.504933,153.254811 484.002403,153.555523 C483.499872,153.856234 482.92682,154.006587 482.283229,154.006587 C481.577923,154.006587 480.980626,153.82749 480.49132,153.46929 C480.002014,153.11109 479.664795,152.64013 479.479652,152.056396 L479.479652,153.913721 L478.27623,153.913721 L478.27623,144.096435 L479.479652,144.096435 L479.479652,148.48768 C479.664795,147.903947 480.002014,147.432987 480.49132,147.074787 C480.980626,146.716587 481.577923,146.53749 482.283229,146.53749 Z M481.939394,147.612084 C481.472129,147.612084 481.048952,147.720427 480.66985,147.937116 C480.290748,148.153805 479.995406,148.465567 479.783814,148.872412 C479.572222,149.279256 479.466428,149.748005 479.466428,150.278672 C479.466428,150.809338 479.572222,151.275876 479.783814,151.678298 C479.995406,152.08072 480.290748,152.392483 480.66985,152.613594 C481.048952,152.834705 481.472129,152.945259 481.939394,152.945259 C482.688781,152.945259 483.286078,152.708673 483.731302,152.235496 C484.176526,151.762318 484.399135,151.11005 484.399135,150.278672 C484.399135,149.447294 484.176526,148.795026 483.731302,148.321848 C483.286078,147.84867 482.688781,147.612084 481.939394,147.612084 Z M488.392909,144.096435 L488.392909,153.913721 L487.189487,153.913721 L487.189487,144.096435 L488.392909,144.096435 Z M497.002004,149.867407 C497.002004,150.123896 496.984372,150.345004 496.949106,150.530737 L491.143588,150.530737 C491.170037,151.362115 491.40587,151.985639 491.851094,152.401328 C492.296318,152.817017 492.840718,153.024858 493.484309,153.024858 C494.066186,153.024858 494.553281,152.876716 494.945607,152.580427 C495.337934,152.284138 495.578175,151.888355 495.666338,151.393066 L496.949106,151.393066 C496.860943,151.8972 496.664783,152.34826 496.36062,152.74626 C496.056457,153.14426 495.661932,153.453811 495.177035,153.674922 C494.692137,153.896033 494.145533,154.006587 493.537207,154.006587 C492.840718,154.006587 492.223584,153.856234 491.685789,153.555523 C491.147993,153.254811 490.72702,152.823651 490.422857,152.262029 C490.118694,151.700406 489.966615,151.039294 489.966615,150.278672 C489.966615,149.518049 490.118694,148.854726 490.422857,148.288681 C490.72702,147.722637 491.147993,147.289265 491.685789,146.988554 C492.223584,146.687843 492.840718,146.53749 493.537207,146.53749 C494.242513,146.53749 494.857442,146.687843 495.382013,146.988554 C495.906584,147.289265 496.307721,147.691682 496.585435,148.195815 C496.863149,148.699948 497.002004,149.25714 497.002004,149.867407 Z M495.785358,149.947007 C495.811807,149.407495 495.723645,148.956435 495.520869,148.593813 C495.318094,148.231191 495.040384,147.961439 494.687731,147.78455 C494.335078,147.607661 493.951574,147.519218 493.537207,147.519218 C492.875983,147.519218 492.320563,147.724848 491.87093,148.136115 C491.421298,148.547382 491.178853,149.151006 491.143588,149.947007 L495.785358,149.947007 Z M367.839129,164.226293 C368.764843,164.226293 369.531852,164.473934 370.140178,164.969223 C370.748504,165.464512 371.123192,166.127836 371.264253,166.959214 L369.994709,166.959214 C369.906546,166.437391 369.666305,166.028342 369.273979,165.732053 C368.881652,165.435764 368.394558,165.287622 367.812681,165.287622 C367.389497,165.287622 367.003789,165.384909 366.655544,165.579487 C366.3073,165.774065 366.027386,166.07256 365.815794,166.474983 C365.604202,166.877405 365.498408,167.374897 365.498408,167.967475 C365.498408,168.560053 365.604202,169.057546 365.815794,169.459968 C366.027386,169.862391 366.3073,170.160886 366.655544,170.355464 C367.003789,170.550042 367.389497,170.647329 367.812681,170.647329 C368.394558,170.647329 368.881652,170.496976 369.273979,170.196265 C369.666305,169.895553 369.906546,169.484293 369.994709,168.962471 L371.264253,168.962471 C371.123192,169.802693 370.748504,170.468228 370.140178,170.959094 C369.531852,171.449961 368.764843,171.695391 367.839129,171.695391 C367.14264,171.695391 366.525507,171.545037 365.987711,171.244326 C365.449916,170.943615 365.028943,170.512455 364.724779,169.950833 C364.420616,169.38921 364.268537,168.728098 364.268537,167.967475 C364.268537,167.206853 364.420616,166.54353 364.724779,165.977485 C365.028943,165.41144 365.449916,164.978069 365.987711,164.677358 C366.525507,164.376647 367.14264,164.226293 367.839129,164.226293 Z M376.130839,164.226293 C376.827328,164.226293 377.451073,164.376647 378.002093,164.677358 C378.553114,164.978069 378.985107,165.41144 379.298086,165.977485 C379.611066,166.54353 379.767553,167.206853 379.767553,167.967475 C379.767553,168.728098 379.611066,169.38921 379.298086,169.950833 C378.985107,170.512455 378.553114,170.943615 378.002093,171.244326 C377.451073,171.545037 376.827328,171.695391 376.130839,171.695391 C375.434349,171.695391 374.810604,171.545037 374.259584,171.244326 C373.708564,170.943615 373.274366,170.512455 372.956979,169.950833 C372.639591,169.38921 372.4809,168.728098 372.4809,167.967475 C372.4809,167.206853 372.639591,166.54353 372.956979,165.977485 C373.274366,165.41144 373.708564,164.978069 374.259584,164.677358 C374.810604,164.376647 375.434349,164.226293 376.130839,164.226293 Z M376.130839,165.287622 C375.698839,165.287622 375.299906,165.384909 374.934029,165.579487 C374.568152,165.774065 374.272809,166.07256 374.047993,166.474983 C373.823177,166.877405 373.71077,167.374897 373.71077,167.967475 C373.71077,168.551209 373.823177,169.044279 374.047993,169.446702 C374.272809,169.849124 374.568152,170.147619 374.934029,170.342197 C375.299906,170.536775 375.698839,170.634063 376.130839,170.634063 C376.562838,170.634063 376.961771,170.536775 377.327648,170.342197 C377.693526,170.147619 377.988868,169.849124 378.213684,169.446702 C378.4385,169.044279 378.550907,168.551209 378.550907,167.967475 C378.550907,167.374897 378.4385,166.877405 378.213684,166.474983 C377.988868,166.07256 377.693526,165.774065 377.327648,165.579487 C376.961771,165.384909 376.562838,165.287622 376.130839,165.287622 Z M385.163115,164.19976 C386.009482,164.19976 386.692736,164.471723 387.212899,165.015656 C387.733062,165.55959 387.99314,166.344523 387.99314,167.370478 L387.99314,171.602525 L386.789718,171.602525 L386.789718,167.476611 C386.789718,166.751366 386.604578,166.194175 386.234293,165.805019 C385.864007,165.415863 385.361484,165.221289 384.726709,165.221289 C384.065485,165.221289 383.536514,165.435763 383.139779,165.864719 C382.743045,166.293674 382.54468,166.91941 382.54468,167.741943 L382.54468,171.602525 L381.341259,171.602525 L381.341259,164.31916 L382.54468,164.31916 L382.54468,166.043818 C382.729823,165.45124 383.058226,164.995758 383.529899,164.677358 C384.001573,164.358958 384.545972,164.19976 385.163115,164.19976 Z M392.820052,164.226293 C393.525358,164.226293 394.122655,164.40318 394.61196,164.756957 C395.101266,165.110735 395.442894,165.583906 395.636853,166.176484 L395.636853,161.785238 L396.840275,161.785238 L396.840275,171.602525 L395.636853,171.602525 L395.636853,169.7452 C395.442894,170.337778 395.101266,170.810949 394.61196,171.164727 C394.122655,171.518505 393.525358,171.695391 392.820052,171.695391 C392.17646,171.695391 391.603408,171.545037 391.100878,171.244326 C390.598348,170.943615 390.203823,170.512455 389.917293,169.950833 C389.630762,169.38921 389.487499,168.728098 389.487499,167.967475 C389.487499,167.206853 389.630762,166.54353 389.917293,165.977485 C390.203823,165.41144 390.598348,164.978069 391.100878,164.677358 C391.603408,164.376647 392.17646,164.226293 392.820052,164.226293 Z M393.163887,165.300888 C392.423316,165.300888 391.830427,165.537474 391.385203,166.010651 C390.939979,166.483829 390.71737,167.136097 390.71737,167.967475 C390.71737,168.798853 390.939979,169.451121 391.385203,169.924299 C391.830427,170.397477 392.423316,170.634063 393.163887,170.634063 C393.639968,170.634063 394.065349,170.523509 394.440043,170.302397 C394.814737,170.081286 395.107875,169.769524 395.319467,169.367102 C395.531058,168.96468 395.636853,168.498142 395.636853,167.967475 C395.636853,167.436809 395.531058,166.96806 395.319467,166.561215 C395.107875,166.154371 394.814737,165.842609 394.440043,165.62592 C394.065349,165.409231 393.639968,165.300888 393.163887,165.300888 Z M398.546224,162.183237 C398.546224,161.962125 398.621162,161.783028 398.771039,161.645939 C398.920917,161.50885 399.119281,161.440307 399.366138,161.440307 C399.612995,161.440307 399.811359,161.50885 399.961237,161.645939 C400.111114,161.783028 400.186052,161.962125 400.186052,162.183237 C400.186052,162.404348 400.111114,162.583445 399.961237,162.720534 C399.811359,162.857623 399.612995,162.926166 399.366138,162.926166 C399.119281,162.926166 398.920917,162.857623 398.771039,162.720534 C398.621162,162.583445 398.546224,162.404348 398.546224,162.183237 Z M399.961237,164.31916 L399.961237,171.602525 L398.757815,171.602525 L398.757815,164.31916 L399.961237,164.31916 Z M405.356799,170.541196 L405.356799,171.602525 L404.457538,171.602525 C403.716967,171.602525 403.163751,171.425638 402.797874,171.07186 C402.431997,170.718083 402.249061,170.125514 402.249061,169.294136 L402.249061,165.367221 L401.164659,165.367221 L401.164659,164.31916 L402.249061,164.31916 L402.249061,162.501635 L403.465707,162.501635 L403.465707,164.31916 L405.343574,164.31916 L405.343574,165.367221 L403.465707,165.367221 L403.465707,169.320669 C403.465707,169.789425 403.551665,170.110031 403.723583,170.282498 C403.895502,170.454964 404.193048,170.541196 404.616231,170.541196 L405.356799,170.541196 Z M406.613118,162.183237 C406.613118,161.962125 406.688056,161.783028 406.837933,161.645939 C406.987811,161.50885 407.186175,161.440307 407.433032,161.440307 C407.679889,161.440307 407.878253,161.50885 408.028131,161.645939 C408.178008,161.783028 408.252946,161.962125 408.252946,162.183237 C408.252946,162.404348 408.178008,162.583445 408.028131,162.720534 C407.878253,162.857623 407.679889,162.926166 407.433032,162.926166 C407.186175,162.926166 406.987811,162.857623 406.837933,162.720534 C406.688056,162.583445 406.613118,162.404348 406.613118,162.183237 Z M408.028131,164.31916 L408.028131,171.602525 L406.824709,171.602525 L406.824709,164.31916 L408.028131,164.31916 Z M413.251775,164.226293 C413.948265,164.226293 414.57201,164.376647 415.12303,164.677358 C415.67405,164.978069 416.106044,165.41144 416.419023,165.977485 C416.732002,166.54353 416.88849,167.206853 416.88849,167.967475 C416.88849,168.728098 416.732002,169.38921 416.419023,169.950833 C416.106044,170.512455 415.67405,170.943615 415.12303,171.244326 C414.57201,171.545037 413.948265,171.695391 413.251775,171.695391 C412.555286,171.695391 411.93154,171.545037 411.38052,171.244326 C410.8295,170.943615 410.395303,170.512455 410.077915,169.950833 C409.760528,169.38921 409.601836,168.728098 409.601836,167.967475 C409.601836,167.206853 409.760528,166.54353 410.077915,165.977485 C410.395303,165.41144 410.8295,164.978069 411.38052,164.677358 C411.93154,164.376647 412.555286,164.226293 413.251775,164.226293 Z M413.251775,165.287622 C412.819775,165.287622 412.420843,165.384909 412.054966,165.579487 C411.689088,165.774065 411.393746,166.07256 411.16893,166.474983 C410.944113,166.877405 410.831707,167.374897 410.831707,167.967475 C410.831707,168.551209 410.944113,169.044279 411.16893,169.446702 C411.393746,169.849124 411.689088,170.147619 412.054966,170.342197 C412.420843,170.536775 412.819775,170.634063 413.251775,170.634063 C413.683775,170.634063 414.082708,170.536775 414.448585,170.342197 C414.814462,170.147619 415.109805,169.849124 415.334621,169.446702 C415.559437,169.044279 415.671843,168.551209 415.671843,167.967475 C415.671843,167.374897 415.559437,166.877405 415.334621,166.474983 C415.109805,166.07256 414.814462,165.774065 414.448585,165.579487 C414.082708,165.384909 413.683775,165.287622 413.251775,165.287622 Z M422.284052,164.19976 C423.130418,164.19976 423.813673,164.471723 424.333836,165.015656 C424.853999,165.55959 425.114077,166.344523 425.114077,167.370478 L425.114077,171.602525 L423.910655,171.602525 L423.910655,167.476611 C423.910655,166.751366 423.725515,166.194175 423.355229,165.805019 C422.984944,165.415863 422.482421,165.221289 421.847646,165.221289 C421.186422,165.221289 420.65745,165.435763 420.260716,165.864719 C419.863981,166.293674 419.665617,166.91941 419.665617,167.741943 L419.665617,171.602525 L418.462195,171.602525 L418.462195,164.31916 L419.665617,164.31916 L419.665617,166.043818 C419.85076,165.45124 420.179163,164.995758 420.650836,164.677358 C421.122509,164.358958 421.666909,164.19976 422.284052,164.19976 Z" id="minimal-acceptable-c" fill="#8B8B8B"></path>
                    </g>
                </g>
            </g>
        </g>
    </g>
</svg>