<?xml version="1.0" encoding="UTF-8"?>
<svg width="492px" height="320px" viewBox="0 0 492 320" version="1.1" xmlns="http://www.w3.org/2000/svg" xmlns:xlink="http://www.w3.org/1999/xlink">
    <!-- Generator: Sketch 52.2 (67145) - http://www.bohemiancoding.com/sketch -->
    <title>Sensor data processing</title>
    <desc>Created with Sketch.</desc>
    <defs>
        <rect id="path-1" x="255" y="38" width="29" height="117"></rect>
        <mask id="mask-2" maskContentUnits="userSpaceOnUse" maskUnits="objectBoundingBox" x="0" y="0" width="29" height="117" fill="white">
            <use xlink:href="#path-1"></use>
        </mask>
        <rect id="path-3" x="234" y="38" width="8" height="117"></rect>
        <mask id="mask-4" maskContentUnits="userSpaceOnUse" maskUnits="objectBoundingBox" x="0" y="0" width="8" height="117" fill="white">
            <use xlink:href="#path-3"></use>
        </mask>
    </defs>
    <g id="Desktop-Design" stroke="none" stroke-width="1" fill="none" fill-rule="evenodd">
        <g id="ARSData_Solutions_v2@2x" transform="translate(-745.000000, -1586.000000)">
            <g id="Sensor-data-processing" transform="translate(0.000000, 1368.000000)">
                <g transform="translate(745.000000, 219.000000)">
                    <rect id="Rectangle" stroke="#0052FF" x="234.5" y="38.5" width="217" height="116"></rect>
                    <rect id="Rectangle-Copy" stroke="#0052FF" x="88.5" y="38.5" width="72" height="116"></rect>
                    <rect id="Rectangle-Copy-2" stroke="#0052FF" x="129.5" y="38.5" width="9" height="116"></rect>
                    <rect id="Rectangle-Copy-5" stroke="#0052FF" x="371.5" y="38.5" width="32" height="116"></rect>
                    <rect id="Rectangle-Copy-7" stroke="#0052FF" x="352.5" y="38.5" width="19" height="116"></rect>
                    <path d="M350.410949,63.0680709 L374.261613,62.979049 L374.943042,63.7911452 L375.325665,62.9697515 L374.479207,62.9704275 L374.111014,62.7995718 L374.254529,62.970607 L350.34519,62.9897024 L349.725063,62.2506633 L349.343907,63.0720536 L350.280674,63.0685571 L350.495215,63.1684948 L350.410949,63.0680709 Z" id="Rectangle" stroke="#0052FF" fill="#0052FF" transform="translate(362.334053, 62.984033) rotate(40.000000) translate(-362.334053, -62.984033) "></path>
                    <path d="M448.47114,57.9865488 L475.901249,57.8943916 L476.706261,58.7316885 L477.066296,57.8851526 L476.09685,57.8859268 L475.753015,57.7402119 L475.893267,57.8860894 L448.395668,57.9080506 L447.661024,57.1439427 L447.302269,57.9904759 L448.367533,57.9868969 L448.543378,58.0616846 L448.47114,57.9865488 Z" id="Rectangle-Copy-17" stroke="#0052FF" fill="#0052FF" transform="translate(462.183642, 57.900948) rotate(40.000000) translate(-462.183642, -57.900948) "></path>
                    <path d="M448.47114,132.29667 L475.901249,132.204513 L476.706261,133.04181 L477.066296,132.195274 L476.09685,132.196048 L475.753015,132.050333 L475.893267,132.196211 L448.395668,132.218172 L447.661024,131.454064 L447.302269,132.300597 L448.367533,132.297018 L448.543378,132.371806 L448.47114,132.29667 Z" id="Rectangle-Copy-18" stroke="#0052FF" fill="#0052FF" transform="translate(462.183642, 132.211069) scale(1, -1) rotate(40.000000) translate(-462.183642, -132.211069) "></path>
                    <path d="M417.507526,70.7534156 L417.5,70.7346136 L417.5,70.7454737 L403.5,55.9720031 L403.5,55 L402.638099,55.3450043 L417.5,70.9347552 L417.5,72 L418.362926,71.6560749 L417.507526,70.7534156 Z" id="Rectangle-Copy-11" stroke="#0052FF" fill="#0052FF"></path>
                    <path d="M350.410949,90.7769316 L374.261613,90.6879097 L374.943042,91.5000059 L375.325665,90.6786123 L374.479207,90.6792883 L374.111014,90.5084325 L374.254529,90.6794677 L350.34519,90.6985631 L349.725063,89.959524 L349.343907,90.7809143 L350.280674,90.7774179 L350.495215,90.8773556 L350.410949,90.7769316 Z" id="Rectangle-Copy-8" stroke="#0052FF" fill="#0052FF" transform="translate(362.334053, 90.692894) rotate(40.000000) translate(-362.334053, -90.692894) "></path>
                    <path d="M417.507526,98.7534156 L417.5,98.7346136 L417.5,98.7454737 L403.5,83.9720031 L403.5,83 L402.638099,83.3450043 L417.5,98.9347552 L417.5,100 L418.362926,99.6560749 L417.507526,98.7534156 Z" id="Rectangle-Copy-12" stroke="#0052FF" fill="#0052FF"></path>
                    <path d="M350.410949,114.707311 L374.261613,114.618289 L374.943042,115.430386 L375.325665,114.608992 L374.479207,114.609668 L374.111014,114.438812 L374.254529,114.609847 L350.34519,114.628943 L349.725063,113.889904 L349.343907,114.711294 L350.280674,114.707798 L350.495215,114.807735 L350.410949,114.707311 Z" id="Rectangle-Copy-9" stroke="#0052FF" fill="#0052FF" transform="translate(362.334053, 114.623274) rotate(40.000000) translate(-362.334053, -114.623274) "></path>
                    <path d="M417.507526,122.753416 L417.5,122.734614 L417.5,122.745474 L403.5,107.972003 L403.5,107 L402.638099,107.345004 L417.5,122.934755 L417.5,124 L418.362926,123.656075 L417.507526,122.753416 Z" id="Rectangle-Copy-13" stroke="#0052FF" fill="#0052FF"></path>
                    <path d="M350.410949,137.378197 L374.261613,137.289176 L374.943042,138.101272 L375.325665,137.279878 L374.479207,137.280554 L374.111014,137.109698 L374.254529,137.280734 L350.34519,137.299829 L349.725063,136.56079 L349.343907,137.38218 L350.280674,137.378684 L350.495215,137.478621 L350.410949,137.378197 Z" id="Rectangle-Copy-10" stroke="#0052FF" fill="#0052FF" transform="translate(362.334053, 137.294160) rotate(40.000000) translate(-362.334053, -137.294160) "></path>
                    <path d="M417.507526,144.753416 L417.5,144.734614 L417.5,144.745474 L403.5,129.972003 L403.5,129 L402.638099,129.345004 L417.5,144.934755 L417.5,146 L418.362926,145.656075 L417.507526,144.753416 Z" id="Rectangle-Copy-14" stroke="#0052FF" fill="#0052FF"></path>
                    <rect id="Rectangle-Copy-6" stroke="#0052FF" x="418.5" y="38.5" width="18" height="116"></rect>
                    <rect id="Rectangle-Copy-16" stroke="#0052FF" x="473.5" y="64.5" width="18" height="61"></rect>
                    <rect id="Rectangle-Copy-15" stroke="#0052FF" x="371.5" y="154.5" width="32" height="36"></rect>
                    <use id="Rectangle-Copy-3" stroke="#0052FF" mask="url(#mask-2)" stroke-width="2" stroke-dasharray="4,4" xlink:href="#path-1"></use>
                    <use id="Rectangle-Copy-4" stroke="#0052FF" mask="url(#mask-4)" stroke-width="2" stroke-dasharray="4,4" xlink:href="#path-3"></use>
                    <rect id="Rectangle" stroke="#0052FF" fill="#0052FF" x="0.5" y="95.5" width="66" height="1"></rect>
                    <path d="M214.5,95 C223.612698,95 231,72.7392086 231,45.2791308 C231,32.8181274 228.807491,17.7250838 224.422472,0 C219.747406,0 216.439916,0 214.5,0 C212.660595,0 209.313841,0 204.459739,0 C200.153246,17.4222071 198,32.5152507 198,45.2791308 C198,72.7392086 205.387302,95 214.5,95 Z" id="Oval" stroke="#0052FF"></path>
                    <path d="M214.5,191 C223.612698,191 231,168.739209 231,141.279131 C231,128.818127 228.807491,113.725084 224.422472,96 C219.747406,96 216.439916,96 214.5,96 C212.660595,96 209.313841,96 204.459739,96 C200.153246,113.422207 198,128.515251 198,141.279131 C198,168.739209 205.387302,191 214.5,191 Z" id="Oval-Copy-2" stroke="#0052FF" transform="translate(214.500000, 143.500000) scale(1, -1) translate(-214.500000, -143.500000) "></path>
                    <path d="M180.5,95 C189.612698,95 197,72.7392086 197,45.2791308 C197,32.8181274 194.807491,17.7250838 190.422472,0 C185.747406,0 182.439916,0 180.5,0 C178.660595,0 175.313841,0 170.459739,0 C166.153246,17.4222071 164,32.5152507 164,45.2791308 C164,72.7392086 171.387302,95 180.5,95 Z" id="Oval-Copy" stroke="#0052FF"></path>
                    <path d="M180.5,191 C189.612698,191 197,168.739209 197,141.279131 C197,128.818127 194.807491,113.725084 190.422472,96 C185.747406,96 182.439916,96 180.5,96 C178.660595,96 175.313841,96 170.459739,96 C166.153246,113.422207 164,128.515251 164,141.279131 C164,168.739209 171.387302,191 180.5,191 Z" id="Oval-Copy-3" stroke="#0052FF" transform="translate(180.500000, 143.500000) scale(1, -1) translate(-180.500000, -143.500000) "></path>
                    <path d="M73.6304348,95.25 L216.73913,95.25" id="Line-2" stroke="#0052FF" stroke-linecap="square" stroke-dasharray="6,8"></path>
                    <path d="M245.630952,95.25 L350.773274,95.25" id="Line-2-Copy-2" stroke="#0052FF" stroke-linecap="square" stroke-dasharray="6,8"></path>
                    <path d="M374.625,95.25 L403.420983,95.25" id="Line-2-Copy-3" stroke="#0052FF" stroke-linecap="square" stroke-dasharray="6,8"></path>
                    <path d="M422.627273,95.25 L491,95.25" id="Line-2-Copy-4" stroke="#0052FF" stroke-linecap="square" stroke-dasharray="6,8"></path>
                    <path d="" id="Line-2-Copy" stroke="#0052FF" stroke-linecap="square" stroke-dasharray="6,8" transform="translate(306.500000, 31.500000) rotate(-270.000000) translate(-306.500000, -31.500000) "></path>
                    <g id="Info" transform="translate(88.000000, 219.000000)">
                        <path d="M0.208,56.08 L0.208,54.72 L3.44,54.72 L3.44,66 L1.904,66 L1.904,56.08 L0.208,56.08 Z M5.088,63.408 L5.088,62.192 L10.88,54.64 L12.448,54.64 L12.448,62.144 L14.112,62.144 L14.112,63.408 L12.448,63.408 L12.448,66 L10.976,66 L10.976,63.408 L5.088,63.408 Z M11.072,56.416 L6.624,62.144 L11.072,62.144 L11.072,56.416 Z M17.072,62.832 C17.1680005,63.5040034 17.4026648,64.0213315 17.776,64.384 C18.1493352,64.7466685 18.6613301,64.928 19.312,64.928 C20.2080045,64.928 20.885331,64.5813368 21.344,63.888 C21.802669,63.1946632 22.032,62.0960075 22.032,60.592 C22.032,60.3039986 22.0266667,60.0853341 22.016,59.936 C21.8666659,60.5760032 21.5040029,61.0879981 20.928,61.472 C20.3519971,61.8560019 19.6746706,62.048 18.896,62.048 C17.7759944,62.048 16.8960032,61.7120034 16.256,61.04 C15.6159968,60.3679966 15.296,59.4293394 15.296,58.224 C15.296,57.5199965 15.4346653,56.8800029 15.712,56.304 C15.9893347,55.7279971 16.4133305,55.2720017 16.984,54.936 C17.5546695,54.5999983 18.2613291,54.432 19.104,54.432 C20.7253414,54.432 21.8373303,54.9306617 22.44,55.928 C23.0426697,56.9253383 23.344,58.2933246 23.344,60.032 C23.344,62.0160099 23.0346698,63.5279948 22.416,64.568 C21.7973302,65.6080052 20.7626739,66.128 19.312,66.128 C18.2346613,66.128 17.3893364,65.8213364 16.776,65.208 C16.1626636,64.5946636 15.8026672,63.8026715 15.696,62.832 L17.072,62.832 Z M21.872,58.448 C21.872,57.6799962 21.6453356,57.029336 21.192,56.496 C20.7386644,55.962664 20.0586712,55.696 19.152,55.696 C18.4053296,55.696 17.8080022,55.9199978 17.36,56.368 C16.9119978,56.8160022 16.688,57.439996 16.688,58.24 C16.688,59.0933376 16.9119978,59.749331 17.36,60.208 C17.8080022,60.666669 18.4213294,60.896 19.2,60.896 C19.6480022,60.896 20.0773313,60.8053342 20.488,60.624 C20.8986687,60.4426658 21.2319987,60.1653352 21.488,59.792 C21.7440013,59.4186648 21.872,58.9706693 21.872,58.448 Z M29.024,54.416 C29.749337,54.416 30.3733307,54.5439987 30.896,54.8 C31.4186693,55.0560013 31.813332,55.4079978 32.08,55.856 C32.346668,56.3040022 32.48,56.8106638 32.48,57.376 C32.48,58.0800035 32.2746687,58.6719976 31.864,59.152 C31.4533313,59.6320024 30.8533373,59.9199995 30.064,60.016 L30.064,60.112 C30.8853374,60.3253344 31.5279977,60.6559978 31.992,61.104 C32.4560023,61.5520022 32.688,62.1706627 32.688,62.96 C32.688,63.8880046 32.3786698,64.6453304 31.76,65.232 C31.1413302,65.8186696 30.2506725,66.112 29.088,66.112 C27.9253275,66.112 26.9840036,65.8106697 26.264,65.208 C25.5439964,64.6053303 25.1200006,63.7226725 24.992,62.56 L26.432,62.56 C26.5280005,63.2640035 26.7973311,63.8239979 27.24,64.24 C27.6826689,64.6560021 28.2826629,64.864 29.04,64.864 C29.7546702,64.864 30.3039981,64.6800018 30.688,64.312 C31.0720019,63.9439982 31.264,63.4666696 31.264,62.88 C31.264,62.1759965 30.9893361,61.6400018 30.44,61.272 C29.8906639,60.9039982 29.1093384,60.72 28.096,60.72 L27.712,60.72 L27.712,59.504 L28.096,59.504 C30.0586765,59.504 31.04,58.8480066 31.04,57.536 C31.04,56.9599971 30.8586685,56.501335 30.496,56.16 C30.1333315,55.818665 29.6320032,55.648 28.992,55.648 C28.3519968,55.648 27.8133355,55.8319982 27.376,56.2 C26.9386645,56.5680018 26.682667,57.1093298 26.608,57.824 L25.184,57.824 C25.258667,56.757328 25.62933,55.9226697 26.296,55.32 C26.96267,54.7173303 27.8719942,54.416 29.024,54.416 Z M36.224,62.832 C36.3200005,63.5040034 36.5546648,64.0213315 36.928,64.384 C37.3013352,64.7466685 37.8133301,64.928 38.464,64.928 C39.3600045,64.928 40.037331,64.5813368 40.496,63.888 C40.954669,63.1946632 41.184,62.0960075 41.184,60.592 C41.184,60.3039986 41.1786667,60.0853341 41.168,59.936 C41.0186659,60.5760032 40.6560029,61.0879981 40.08,61.472 C39.5039971,61.8560019 38.8266706,62.048 38.048,62.048 C36.9279944,62.048 36.0480032,61.7120034 35.408,61.04 C34.7679968,60.3679966 34.448,59.4293394 34.448,58.224 C34.448,57.5199965 34.5866653,56.8800029 34.864,56.304 C35.1413347,55.7279971 35.5653305,55.2720017 36.136,54.936 C36.7066695,54.5999983 37.4133291,54.432 38.256,54.432 C39.8773414,54.432 40.9893303,54.9306617 41.592,55.928 C42.1946697,56.9253383 42.496,58.2933246 42.496,60.032 C42.496,62.0160099 42.1866698,63.5279948 41.568,64.568 C40.9493302,65.6080052 39.9146739,66.128 38.464,66.128 C37.3866613,66.128 36.5413364,65.8213364 35.928,65.208 C35.3146636,64.5946636 34.9546672,63.8026715 34.848,62.832 L36.224,62.832 Z M41.024,58.448 C41.024,57.6799962 40.7973356,57.029336 40.344,56.496 C39.8906644,55.962664 39.2106712,55.696 38.304,55.696 C37.5573296,55.696 36.9600022,55.9199978 36.512,56.368 C36.0639978,56.8160022 35.84,57.439996 35.84,58.24 C35.84,59.0933376 36.0639978,59.749331 36.512,60.208 C36.9600022,60.666669 37.5733294,60.896 38.352,60.896 C38.8000022,60.896 39.2293313,60.8053342 39.64,60.624 C40.0506687,60.4426658 40.3839987,60.1653352 40.64,59.792 C40.8960013,59.4186648 41.024,58.9706693 41.024,58.448 Z M43.888,63.408 L43.888,62.192 L49.68,54.64 L51.248,54.64 L51.248,62.144 L52.912,62.144 L52.912,63.408 L51.248,63.408 L51.248,66 L49.776,66 L49.776,63.408 L43.888,63.408 Z M49.872,56.416 L45.424,62.144 L49.872,62.144 L49.872,56.416 Z M53.984,64.88 C55.7973424,63.6639939 57.2479946,62.456006 58.336,61.256 C59.4240054,60.055994 59.968,58.9386718 59.968,57.904 C59.968,57.2639968 59.805335,56.7493353 59.48,56.36 C59.154665,55.9706647 58.629337,55.776 57.904,55.776 C57.1573296,55.776 56.5920019,56.013331 56.208,56.488 C55.8239981,56.962669 55.6106669,57.6159958 55.568,58.448 L54.128,58.448 C54.202667,57.189327 54.5919965,56.2213367 55.296,55.544 C56.0000035,54.8666633 56.9066611,54.528 58.016,54.528 C59.0720053,54.528 59.9093302,54.8106638 60.528,55.376 C61.1466698,55.9413362 61.456,56.7413282 61.456,57.776 C61.456,58.6293376 61.1813361,59.4959956 60.632,60.376 C60.0826639,61.2560044 59.3946708,62.0719962 58.568,62.824 C57.7413292,63.5760038 56.890671,64.2133307 56.016,64.736 L61.744,64.736 L61.744,65.936 L53.984,65.936 L53.984,64.88 Z M62.88,63.408 L62.88,62.192 L68.672,54.64 L70.24,54.64 L70.24,62.144 L71.904,62.144 L71.904,63.408 L70.24,63.408 L70.24,66 L68.768,66 L68.768,63.408 L62.88,63.408 Z M68.864,56.416 L64.416,62.144 L68.864,62.144 L68.864,56.416 Z M82.72,56.336 C83.178669,56.8480026 83.5333321,57.4479966 83.784,58.136 C84.0346679,58.8240034 84.16,59.5626627 84.16,60.352 C84.16,61.4613389 83.9200024,62.4559956 83.44,63.336 C82.9599976,64.2160044 82.3013375,64.9013309 81.464,65.392 C80.6266625,65.8826691 79.6853386,66.128 78.64,66.128 C77.9466632,66.128 77.2906698,66.0160011 76.672,65.792 C76.0533302,65.5679989 75.4986691,65.2480021 75.008,64.832 L73.952,66 L73.04,66 L74.528,64.352 C74.069331,63.8399974 73.7146679,63.2426701 73.464,62.56 C73.2133321,61.8773299 73.088,61.1413373 73.088,60.352 C73.088,59.2426611 73.3279976,58.2480044 73.808,57.368 C74.2880024,56.4879956 74.9519958,55.8026691 75.8,55.312 C76.6480042,54.8213309 77.5946614,54.576 78.64,54.576 C79.3440035,54.576 79.999997,54.6879989 80.608,54.912 C81.216003,55.1360011 81.7599976,55.4559979 82.24,55.872 L83.312,54.688 L84.208,54.688 L82.72,56.336 Z M74.592,60.352 C74.592,61.5253392 74.895997,62.5066627 75.504,63.296 L81.296,56.896 C80.954665,56.5866651 80.5573356,56.3493342 80.104,56.184 C79.6506644,56.0186658 79.1626693,55.936 78.64,55.936 C77.8613294,55.936 77.1653364,56.1146649 76.552,56.472 C75.9386636,56.8293351 75.4586684,57.34133 75.112,58.008 C74.7653316,58.67467 74.592,59.4559955 74.592,60.352 Z M82.672,60.352 C82.672,59.1679941 82.368003,58.1813373 81.76,57.392 L75.952,63.792 C76.6880037,64.4426699 77.5839947,64.768 78.64,64.768 C79.4080038,64.768 80.0986636,64.5866685 80.712,64.224 C81.3253364,63.8613315 81.8053316,63.34667 82.152,62.68 C82.4986684,62.01333 82.672,61.2373378 82.672,60.352 Z M95.376,56.336 C95.834669,56.8480026 96.1893321,57.4479966 96.44,58.136 C96.6906679,58.8240034 96.816,59.5626627 96.816,60.352 C96.816,61.4613389 96.5760024,62.4559956 96.096,63.336 C95.6159976,64.2160044 94.9573375,64.9013309 94.12,65.392 C93.2826625,65.8826691 92.3413386,66.128 91.296,66.128 C90.6026632,66.128 89.9466698,66.0160011 89.328,65.792 C88.7093302,65.5679989 88.1546691,65.2480021 87.664,64.832 L86.608,66 L85.696,66 L87.184,64.352 C86.725331,63.8399974 86.3706679,63.2426701 86.12,62.56 C85.8693321,61.8773299 85.744,61.1413373 85.744,60.352 C85.744,59.2426611 85.9839976,58.2480044 86.464,57.368 C86.9440024,56.4879956 87.6079958,55.8026691 88.456,55.312 C89.3040042,54.8213309 90.2506614,54.576 91.296,54.576 C92.0000035,54.576 92.655997,54.6879989 93.264,54.912 C93.872003,55.1360011 94.4159976,55.4559979 94.896,55.872 L95.968,54.688 L96.864,54.688 L95.376,56.336 Z M87.248,60.352 C87.248,61.5253392 87.551997,62.5066627 88.16,63.296 L93.952,56.896 C93.610665,56.5866651 93.2133356,56.3493342 92.76,56.184 C92.3066644,56.0186658 91.8186693,55.936 91.296,55.936 C90.5173294,55.936 89.8213364,56.1146649 89.208,56.472 C88.5946636,56.8293351 88.1146684,57.34133 87.768,58.008 C87.4213316,58.67467 87.248,59.4559955 87.248,60.352 Z M95.328,60.352 C95.328,59.1679941 95.024003,58.1813373 94.416,57.392 L88.608,63.792 C89.3440037,64.4426699 90.2399947,64.768 91.296,64.768 C92.0640038,64.768 92.7546636,64.5866685 93.368,64.224 C93.9813364,63.8613315 94.4613316,63.34667 94.808,62.68 C95.1546684,62.01333 95.328,61.2373378 95.328,60.352 Z" id="14939424ØØ" fill="#8B8B8B"></path>
                        <path d="M8.08,5.72 L8.08,6.904 L4.896,6.904 L4.896,17 L3.44,17 L3.44,6.904 L0.256,6.904 L0.256,5.72 L8.08,5.72 Z M9.264,5.64 C9.264,5.373332 9.35466576,5.15733416 9.536,4.992 C9.71733424,4.82666584 9.95733184,4.744 10.256,4.744 C10.5546682,4.744 10.7946658,4.82666584 10.976,4.992 C11.1573342,5.15733416 11.248,5.373332 11.248,5.64 C11.248,5.906668 11.1573342,6.12266584 10.976,6.288 C10.7946658,6.45333416 10.5546682,6.536 10.256,6.536 C9.95733184,6.536 9.71733424,6.45333416 9.536,6.288 C9.35466576,6.12266584 9.264,5.906668 9.264,5.64 Z M10.976,8.216 L10.976,17 L9.52,17 L9.52,8.216 L10.976,8.216 Z M24.112,8.072 C25.1360051,8.072 25.9599969,8.39999672 26.584,9.056 C27.2080031,9.71200328 27.52,10.6586605 27.52,11.896 L27.52,17 L26.064,17 L26.064,12.024 C26.064,11.1599957 25.8533354,10.498669 25.432,10.04 C25.0106646,9.58133104 24.4320037,9.352 23.696,9.352 C22.9279962,9.352 22.3120023,9.6053308 21.848,10.112 C21.3839977,10.6186692 21.152,11.3626618 21.152,12.344 L21.152,17 L19.696,17 L19.696,12.024 C19.696,11.1599957 19.4826688,10.498669 19.056,10.04 C18.6293312,9.58133104 18.053337,9.352 17.328,9.352 C16.5493294,9.352 15.9280023,9.6053308 15.464,10.112 C14.9999977,10.6186692 14.768,11.3626618 14.768,12.344 L14.768,17 L13.312,17 L13.312,8.216 L14.768,8.216 L14.768,10.216 C14.9813344,9.5226632 15.3626639,8.99200184 15.912,8.624 C16.4613361,8.25599816 17.0933298,8.072 17.808,8.072 C18.5546704,8.072 19.2026639,8.26133144 19.752,8.64 C20.3013361,9.01866856 20.6933322,9.57599632 20.928,10.312 C21.1733346,9.59732976 21.5839971,9.04533528 22.16,8.656 C22.7360029,8.26666472 23.386663,8.072 24.112,8.072 Z M37.856,12.12 C37.856,12.4293349 37.8346669,12.6959989 37.792,12.92 L30.768,12.92 C30.8000002,13.9226717 31.0853306,14.6746642 31.624,15.176 C32.1626694,15.6773358 32.8213294,15.928 33.6,15.928 C34.3040035,15.928 34.893331,15.7493351 35.368,15.392 C35.842669,15.0346649 36.1333328,14.5573363 36.24,13.96 L37.792,13.96 C37.6853328,14.568003 37.4480018,15.1119976 37.08,15.592 C36.7119982,16.0720024 36.2346696,16.445332 35.648,16.712 C35.0613304,16.978668 34.4000037,17.112 33.664,17.112 C32.8213291,17.112 32.0746699,16.9306685 31.424,16.568 C30.7733301,16.2053315 30.2640018,15.6853367 29.896,15.008 C29.5279982,14.3306633 29.344,13.5333379 29.344,12.616 C29.344,11.6986621 29.5279982,10.8986701 29.896,10.216 C30.2640018,9.53332992 30.7733301,9.01066848 31.424,8.648 C32.0746699,8.28533152 32.8213291,8.104 33.664,8.104 C34.5173376,8.104 35.2613302,8.28533152 35.896,8.648 C36.5306698,9.01066848 37.0159983,9.49599696 37.352,10.104 C37.6880017,10.712003 37.856,11.3839963 37.856,12.12 Z M36.384,12.216 C36.4160002,11.5653301 36.3093346,11.0213355 36.064,10.584 C35.8186654,10.1466645 35.4826688,9.8213344 35.056,9.608 C34.6293312,9.3946656 34.1653358,9.288 33.664,9.288 C32.863996,9.288 32.1920027,9.53599752 31.648,10.032 C31.1039973,10.5280025 30.8106669,11.2559952 30.768,12.216 L36.384,12.216 Z M42.512,8.104 C43.504005,8.104 44.3013303,8.36266408 44.904,8.88 C45.5066697,9.39733592 45.8719994,10.093329 46,10.968 L44.608,10.968 C44.5439997,10.4453307 44.3280018,10.0160017 43.96,9.68 C43.5919982,9.34399832 43.0986698,9.176 42.48,9.176 C41.9573307,9.176 41.5493348,9.30133208 41.256,9.552 C40.9626652,9.80266792 40.816,10.1413312 40.816,10.568 C40.816,10.8880016 40.9146657,11.1466657 41.112,11.344 C41.3093343,11.5413343 41.5546652,11.6906662 41.848,11.792 C42.1413348,11.8933338 42.5439974,12.0026661 43.056,12.12 C43.7066699,12.2693341 44.231998,12.4213326 44.632,12.576 C45.032002,12.7306674 45.3733319,12.978665 45.656,13.32 C45.9386681,13.661335 46.08,14.1199971 46.08,14.696 C46.08,15.4106702 45.8106694,15.9919978 45.272,16.44 C44.7333306,16.8880022 44.0160045,17.112 43.12,17.112 C42.0746614,17.112 41.2213366,16.8613358 40.56,16.36 C39.8986634,15.8586642 39.5093339,15.1600045 39.392,14.264 L40.8,14.264 C40.8533336,14.797336 41.0853313,15.2293317 41.496,15.56 C41.9066687,15.8906683 42.4479966,16.056 43.12,16.056 C43.6213358,16.056 44.0133319,15.9280013 44.296,15.672 C44.5786681,15.4159987 44.72,15.0800021 44.72,14.664 C44.72,14.322665 44.6186677,14.0506677 44.416,13.848 C44.2133323,13.6453323 43.9626682,13.4906672 43.664,13.384 C43.3653318,13.2773328 42.9546693,13.1653339 42.432,13.048 C41.7813301,12.8986659 41.2613353,12.7493341 40.872,12.6 C40.4826647,12.4506659 40.1520014,12.213335 39.88,11.888 C39.6079986,11.562665 39.472,11.1226694 39.472,10.568 C39.472,9.83199632 39.7439973,9.2373356 40.288,8.784 C40.8320027,8.3306644 41.5733286,8.104 42.512,8.104 Z M52.224,15.72 L52.224,17 L51.136,17 C50.2399955,17 49.5706689,16.7866688 49.128,16.36 C48.6853311,15.9333312 48.464,15.2186717 48.464,14.216 L48.464,9.48 L47.152,9.48 L47.152,8.216 L48.464,8.216 L48.464,6.024 L49.936,6.024 L49.936,8.216 L52.208,8.216 L52.208,9.48 L49.936,9.48 L49.936,14.248 C49.936,14.8133362 50.039999,15.199999 50.248,15.408 C50.456001,15.616001 50.8159974,15.72 51.328,15.72 L52.224,15.72 Z M57.6,8.104 C58.4533376,8.104 59.175997,8.3173312 59.768,8.744 C60.360003,9.1706688 60.7733322,9.74132976 61.008,10.456 L61.008,8.216 L62.464,8.216 L62.464,17 L61.008,17 L61.008,14.76 C60.7733322,15.4746702 60.360003,16.0453312 59.768,16.472 C59.175997,16.8986688 58.4533376,17.112 57.6,17.112 C56.8213294,17.112 56.128003,16.9306685 55.52,16.568 C54.911997,16.2053315 54.4346684,15.6853367 54.088,15.008 C53.7413316,14.3306633 53.568,13.5333379 53.568,12.616 C53.568,11.6986621 53.7413316,10.8986701 54.088,10.216 C54.4346684,9.53332992 54.911997,9.01066848 55.52,8.648 C56.128003,8.28533152 56.8213294,8.104 57.6,8.104 Z M58.016,9.4 C57.1199955,9.4 56.4026694,9.68533048 55.864,10.256 C55.3253306,10.8266695 55.056,11.6133283 55.056,12.616 C55.056,13.6186717 55.3253306,14.4053305 55.864,14.976 C56.4026694,15.5466695 57.1199955,15.832 58.016,15.832 C58.5920029,15.832 59.1066644,15.698668 59.56,15.432 C60.0133356,15.165332 60.3679987,14.7893358 60.624,14.304 C60.8800013,13.8186642 61.008,13.2560032 61.008,12.616 C61.008,11.9759968 60.8800013,11.4106691 60.624,10.92 C60.3679987,10.4293309 60.0133356,10.0533346 59.56,9.792 C59.1066644,9.53066536 58.5920029,9.4 58.016,9.4 Z M75.584,8.072 C76.6080051,8.072 77.4319969,8.39999672 78.056,9.056 C78.6800031,9.71200328 78.992,10.6586605 78.992,11.896 L78.992,17 L77.536,17 L77.536,12.024 C77.536,11.1599957 77.3253354,10.498669 76.904,10.04 C76.4826646,9.58133104 75.9040037,9.352 75.168,9.352 C74.3999962,9.352 73.7840023,9.6053308 73.32,10.112 C72.8559977,10.6186692 72.624,11.3626618 72.624,12.344 L72.624,17 L71.168,17 L71.168,12.024 C71.168,11.1599957 70.9546688,10.498669 70.528,10.04 C70.1013312,9.58133104 69.525337,9.352 68.8,9.352 C68.0213294,9.352 67.4000023,9.6053308 66.936,10.112 C66.4719977,10.6186692 66.24,11.3626618 66.24,12.344 L66.24,17 L64.784,17 L64.784,8.216 L66.24,8.216 L66.24,10.216 C66.4533344,9.5226632 66.8346639,8.99200184 67.384,8.624 C67.9333361,8.25599816 68.5653298,8.072 69.28,8.072 C70.0266704,8.072 70.6746639,8.26133144 71.224,8.64 C71.7733361,9.01866856 72.1653322,9.57599632 72.4,10.312 C72.6453346,9.59732976 73.0559971,9.04533528 73.632,8.656 C74.2080029,8.26666472 74.858663,8.072 75.584,8.072 Z M86.096,8.104 C86.8746706,8.104 87.567997,8.28533152 88.176,8.648 C88.784003,9.01066848 89.2613316,9.53332992 89.608,10.216 C89.9546684,10.8986701 90.128,11.6986621 90.128,12.616 C90.128,13.5333379 89.9546684,14.3306633 89.608,15.008 C89.2613316,15.6853367 88.784003,16.2053315 88.176,16.568 C87.567997,16.9306685 86.8746706,17.112 86.096,17.112 C85.2426624,17.112 84.520003,16.8960022 83.928,16.464 C83.335997,16.0319978 82.9280011,15.4640035 82.704,14.76 L82.704,21.16 L81.248,21.16 L81.248,8.216 L82.704,8.216 L82.704,10.456 C82.9280011,9.75199648 83.335997,9.18400216 83.928,8.752 C84.520003,8.31999784 85.2426624,8.104 86.096,8.104 Z M85.68,9.4 C85.1146638,9.4 84.602669,9.53066536 84.144,9.792 C83.685331,10.0533346 83.3280013,10.4293309 83.072,10.92 C82.8159987,11.4106691 82.688,11.9759968 82.688,12.616 C82.688,13.2560032 82.8159987,13.8186642 83.072,14.304 C83.3280013,14.7893358 83.685331,15.165332 84.144,15.432 C84.602669,15.698668 85.1146638,15.832 85.68,15.832 C86.5866712,15.832 87.3093306,15.5466695 87.848,14.976 C88.3866694,14.4053305 88.656,13.6186717 88.656,12.616 C88.656,11.6133283 88.3866694,10.8266695 87.848,10.256 C87.3093306,9.68533048 86.5866712,9.4 85.68,9.4 Z" id="Timestamp" fill="#8B8B8B"></path>
                        <rect id="Rectangle" fill="#4E4E4E" x="1" y="35" width="362" height="1"></rect>
                        <path d="M318.904,5.72 L322.344,15.384 L325.832,5.72 L327.416,5.72 L323.272,17 L321.432,17 L317.304,5.72 L318.904,5.72 Z M332.488,8.104 C333.341338,8.104 334.063997,8.3173312 334.656,8.744 C335.248003,9.1706688 335.661332,9.74132976 335.896,10.456 L335.896,8.216 L337.352,8.216 L337.352,17 L335.896,17 L335.896,14.76 C335.661332,15.4746702 335.248003,16.0453312 334.656,16.472 C334.063997,16.8986688 333.341338,17.112 332.488,17.112 C331.709329,17.112 331.016003,16.9306685 330.408,16.568 C329.799997,16.2053315 329.322668,15.6853367 328.976,15.008 C328.629332,14.3306633 328.456,13.5333379 328.456,12.616 C328.456,11.6986621 328.629332,10.8986701 328.976,10.216 C329.322668,9.53332992 329.799997,9.01066848 330.408,8.648 C331.016003,8.28533152 331.709329,8.104 332.488,8.104 Z M332.904,9.4 C332.007996,9.4 331.290669,9.68533048 330.752,10.256 C330.213331,10.8266695 329.944,11.6133283 329.944,12.616 C329.944,13.6186717 330.213331,14.4053305 330.752,14.976 C331.290669,15.5466695 332.007996,15.832 332.904,15.832 C333.480003,15.832 333.994664,15.698668 334.448,15.432 C334.901336,15.165332 335.255999,14.7893358 335.512,14.304 C335.768001,13.8186642 335.896,13.2560032 335.896,12.616 C335.896,11.9759968 335.768001,11.4106691 335.512,10.92 C335.255999,10.4293309 334.901336,10.0533346 334.448,9.792 C333.994664,9.53066536 333.480003,9.4 332.904,9.4 Z M341.128,5.16 L341.128,17 L339.672,17 L339.672,5.16 L341.128,5.16 Z M351.272,8.216 L351.272,17 L349.816,17 L349.816,14.936 C349.591999,15.6506702 349.19467,16.1973314 348.624,16.576 C348.05333,16.9546686 347.389337,17.144 346.632,17.144 C345.618662,17.144 344.797336,16.8160033 344.168,16.16 C343.538664,15.5039967 343.224,14.5626728 343.224,13.336 L343.224,8.216 L344.68,8.216 L344.68,13.192 C344.68,14.066671 344.903998,14.741331 345.352,15.216 C345.800002,15.690669 346.407996,15.928 347.176,15.928 C347.976004,15.928 348.615998,15.6693359 349.096,15.152 C349.576002,14.6346641 349.816,13.880005 349.816,12.888 L349.816,8.216 L351.272,8.216 Z M361.688,12.12 C361.688,12.4293349 361.666667,12.6959989 361.624,12.92 L354.6,12.92 C354.632,13.9226717 354.917331,14.6746642 355.456,15.176 C355.994669,15.6773358 356.653329,15.928 357.432,15.928 C358.136004,15.928 358.725331,15.7493351 359.2,15.392 C359.674669,15.0346649 359.965333,14.5573363 360.072,13.96 L361.624,13.96 C361.517333,14.568003 361.280002,15.1119976 360.912,15.592 C360.543998,16.0720024 360.06667,16.445332 359.48,16.712 C358.89333,16.978668 358.232004,17.112 357.496,17.112 C356.653329,17.112 355.90667,16.9306685 355.256,16.568 C354.60533,16.2053315 354.096002,15.6853367 353.728,15.008 C353.359998,14.3306633 353.176,13.5333379 353.176,12.616 C353.176,11.6986621 353.359998,10.8986701 353.728,10.216 C354.096002,9.53332992 354.60533,9.01066848 355.256,8.648 C355.90667,8.28533152 356.653329,8.104 357.496,8.104 C358.349338,8.104 359.09333,8.28533152 359.728,8.648 C360.36267,9.01066848 360.847998,9.49599696 361.184,10.104 C361.520002,10.712003 361.688,11.3839963 361.688,12.12 Z M360.216,12.216 C360.248,11.5653301 360.141335,11.0213355 359.896,10.584 C359.650665,10.1466645 359.314669,9.8213344 358.888,9.608 C358.461331,9.3946656 357.997336,9.288 357.496,9.288 C356.695996,9.288 356.024003,9.53599752 355.48,10.032 C354.935997,10.5280025 354.642667,11.2559952 354.6,12.216 L360.216,12.216 Z" id="Value" fill="#8B8B8B"></path>
                        <path d="M327.416,56.336 C327.874669,56.8480026 328.229332,57.4479966 328.48,58.136 C328.730668,58.8240034 328.856,59.5626627 328.856,60.352 C328.856,61.4613389 328.616002,62.4559956 328.136,63.336 C327.655998,64.2160044 326.997338,64.9013309 326.16,65.392 C325.322662,65.8826691 324.381339,66.128 323.336,66.128 C322.642663,66.128 321.98667,66.0160011 321.368,65.792 C320.74933,65.5679989 320.194669,65.2480021 319.704,64.832 L318.648,66 L317.736,66 L319.224,64.352 C318.765331,63.8399974 318.410668,63.2426701 318.16,62.56 C317.909332,61.8773299 317.784,61.1413373 317.784,60.352 C317.784,59.2426611 318.023998,58.2480044 318.504,57.368 C318.984002,56.4879956 319.647996,55.8026691 320.496,55.312 C321.344004,54.8213309 322.290661,54.576 323.336,54.576 C324.040004,54.576 324.695997,54.6879989 325.304,54.912 C325.912003,55.1360011 326.455998,55.4559979 326.936,55.872 L328.008,54.688 L328.904,54.688 L327.416,56.336 Z M319.288,60.352 C319.288,61.5253392 319.591997,62.5066627 320.2,63.296 L325.992,56.896 C325.650665,56.5866651 325.253336,56.3493342 324.8,56.184 C324.346664,56.0186658 323.858669,55.936 323.336,55.936 C322.557329,55.936 321.861336,56.1146649 321.248,56.472 C320.634664,56.8293351 320.154668,57.34133 319.808,58.008 C319.461332,58.67467 319.288,59.4559955 319.288,60.352 Z M327.368,60.352 C327.368,59.1679941 327.064003,58.1813373 326.456,57.392 L320.648,63.792 C321.384004,64.4426699 322.279995,64.768 323.336,64.768 C324.104004,64.768 324.794664,64.5866685 325.408,64.224 C326.021336,63.8613315 326.501332,63.34667 326.848,62.68 C327.194668,62.01333 327.368,61.2373378 327.368,60.352 Z M331.672,64.928 C331.821334,65.3973357 331.896,65.8346646 331.896,66.24 C331.896,66.7946694 331.757335,67.2399983 331.48,67.576 C331.202665,67.9120017 330.786669,68.08 330.232,68.08 L330.232,67.456 C330.498668,67.456 330.693333,67.3840007 330.816,67.24 C330.938667,67.0959993 331,66.8693349 331,66.56 L331,66.416 L330.184,66.416 L330.184,64.928 L331.672,64.928 Z M340.072,55.776 L335.8,66 L334.264,66 L338.6,55.92 L332.68,55.92 L332.68,54.656 L340.072,54.656 L340.072,55.776 Z M340.76,56.08 L340.76,54.72 L343.992,54.72 L343.992,66 L342.456,66 L342.456,56.08 L340.76,56.08 Z M345.64,63.408 L345.64,62.192 L351.432,54.64 L353,54.64 L353,62.144 L354.664,62.144 L354.664,63.408 L353,63.408 L353,66 L351.528,66 L351.528,63.408 L345.64,63.408 Z M351.624,56.416 L347.176,62.144 L351.624,62.144 L351.624,56.416 Z" id="Ø,714" fill="#8B8B8B"></path>
                        <path d="M0.208,87.08 L0.208,85.72 L3.44,85.72 L3.44,97 L1.904,97 L1.904,87.08 L0.208,87.08 Z M5.088,94.408 L5.088,93.192 L10.88,85.64 L12.448,85.64 L12.448,93.144 L14.112,93.144 L14.112,94.408 L12.448,94.408 L12.448,97 L10.976,97 L10.976,94.408 L5.088,94.408 Z M11.072,87.416 L6.624,93.144 L11.072,93.144 L11.072,87.416 Z M17.072,93.832 C17.1680005,94.5040034 17.4026648,95.0213315 17.776,95.384 C18.1493352,95.7466685 18.6613301,95.928 19.312,95.928 C20.2080045,95.928 20.885331,95.5813368 21.344,94.888 C21.802669,94.1946632 22.032,93.0960075 22.032,91.592 C22.032,91.3039986 22.0266667,91.0853341 22.016,90.936 C21.8666659,91.5760032 21.5040029,92.0879981 20.928,92.472 C20.3519971,92.8560019 19.6746706,93.048 18.896,93.048 C17.7759944,93.048 16.8960032,92.7120034 16.256,92.04 C15.6159968,91.3679966 15.296,90.4293394 15.296,89.224 C15.296,88.5199965 15.4346653,87.8800029 15.712,87.304 C15.9893347,86.7279971 16.4133305,86.2720017 16.984,85.936 C17.5546695,85.5999983 18.2613291,85.432 19.104,85.432 C20.7253414,85.432 21.8373303,85.9306617 22.44,86.928 C23.0426697,87.9253383 23.344,89.2933246 23.344,91.032 C23.344,93.0160099 23.0346698,94.5279948 22.416,95.568 C21.7973302,96.6080052 20.7626739,97.128 19.312,97.128 C18.2346613,97.128 17.3893364,96.8213364 16.776,96.208 C16.1626636,95.5946636 15.8026672,94.8026715 15.696,93.832 L17.072,93.832 Z M21.872,89.448 C21.872,88.6799962 21.6453356,88.029336 21.192,87.496 C20.7386644,86.962664 20.0586712,86.696 19.152,86.696 C18.4053296,86.696 17.8080022,86.9199978 17.36,87.368 C16.9119978,87.8160022 16.688,88.439996 16.688,89.24 C16.688,90.0933376 16.9119978,90.749331 17.36,91.208 C17.8080022,91.666669 18.4213294,91.896 19.2,91.896 C19.6480022,91.896 20.0773313,91.8053342 20.488,91.624 C20.8986687,91.4426658 21.2319987,91.1653352 21.488,90.792 C21.7440013,90.4186648 21.872,89.9706693 21.872,89.448 Z M29.024,85.416 C29.749337,85.416 30.3733307,85.5439987 30.896,85.8 C31.4186693,86.0560013 31.813332,86.4079978 32.08,86.856 C32.346668,87.3040022 32.48,87.8106638 32.48,88.376 C32.48,89.0800035 32.2746687,89.6719976 31.864,90.152 C31.4533313,90.6320024 30.8533373,90.9199995 30.064,91.016 L30.064,91.112 C30.8853374,91.3253344 31.5279977,91.6559978 31.992,92.104 C32.4560023,92.5520022 32.688,93.1706627 32.688,93.96 C32.688,94.8880046 32.3786698,95.6453304 31.76,96.232 C31.1413302,96.8186696 30.2506725,97.112 29.088,97.112 C27.9253275,97.112 26.9840036,96.8106697 26.264,96.208 C25.5439964,95.6053303 25.1200006,94.7226725 24.992,93.56 L26.432,93.56 C26.5280005,94.2640035 26.7973311,94.8239979 27.24,95.24 C27.6826689,95.6560021 28.2826629,95.864 29.04,95.864 C29.7546702,95.864 30.3039981,95.6800018 30.688,95.312 C31.0720019,94.9439982 31.264,94.4666696 31.264,93.88 C31.264,93.1759965 30.9893361,92.6400018 30.44,92.272 C29.8906639,91.9039982 29.1093384,91.72 28.096,91.72 L27.712,91.72 L27.712,90.504 L28.096,90.504 C30.0586765,90.504 31.04,89.8480066 31.04,88.536 C31.04,87.9599971 30.8586685,87.501335 30.496,87.16 C30.1333315,86.818665 29.6320032,86.648 28.992,86.648 C28.3519968,86.648 27.8133355,86.8319982 27.376,87.2 C26.9386645,87.5680018 26.682667,88.1093298 26.608,88.824 L25.184,88.824 C25.258667,87.757328 25.62933,86.9226697 26.296,86.32 C26.96267,85.7173303 27.8719942,85.416 29.024,85.416 Z M36.224,93.832 C36.3200005,94.5040034 36.5546648,95.0213315 36.928,95.384 C37.3013352,95.7466685 37.8133301,95.928 38.464,95.928 C39.3600045,95.928 40.037331,95.5813368 40.496,94.888 C40.954669,94.1946632 41.184,93.0960075 41.184,91.592 C41.184,91.3039986 41.1786667,91.0853341 41.168,90.936 C41.0186659,91.5760032 40.6560029,92.0879981 40.08,92.472 C39.5039971,92.8560019 38.8266706,93.048 38.048,93.048 C36.9279944,93.048 36.0480032,92.7120034 35.408,92.04 C34.7679968,91.3679966 34.448,90.4293394 34.448,89.224 C34.448,88.5199965 34.5866653,87.8800029 34.864,87.304 C35.1413347,86.7279971 35.5653305,86.2720017 36.136,85.936 C36.7066695,85.5999983 37.4133291,85.432 38.256,85.432 C39.8773414,85.432 40.9893303,85.9306617 41.592,86.928 C42.1946697,87.9253383 42.496,89.2933246 42.496,91.032 C42.496,93.0160099 42.1866698,94.5279948 41.568,95.568 C40.9493302,96.6080052 39.9146739,97.128 38.464,97.128 C37.3866613,97.128 36.5413364,96.8213364 35.928,96.208 C35.3146636,95.5946636 34.9546672,94.8026715 34.848,93.832 L36.224,93.832 Z M41.024,89.448 C41.024,88.6799962 40.7973356,88.029336 40.344,87.496 C39.8906644,86.962664 39.2106712,86.696 38.304,86.696 C37.5573296,86.696 36.9600022,86.9199978 36.512,87.368 C36.0639978,87.8160022 35.84,88.439996 35.84,89.24 C35.84,90.0933376 36.0639978,90.749331 36.512,91.208 C36.9600022,91.666669 37.5733294,91.896 38.352,91.896 C38.8000022,91.896 39.2293313,91.8053342 39.64,91.624 C40.0506687,91.4426658 40.3839987,91.1653352 40.64,90.792 C40.8960013,90.4186648 41.024,89.9706693 41.024,89.448 Z M43.888,94.408 L43.888,93.192 L49.68,85.64 L51.248,85.64 L51.248,93.144 L52.912,93.144 L52.912,94.408 L51.248,94.408 L51.248,97 L49.776,97 L49.776,94.408 L43.888,94.408 Z M49.872,87.416 L45.424,93.144 L49.872,93.144 L49.872,87.416 Z M53.984,95.88 C55.7973424,94.6639939 57.2479946,93.456006 58.336,92.256 C59.4240054,91.055994 59.968,89.9386718 59.968,88.904 C59.968,88.2639968 59.805335,87.7493353 59.48,87.36 C59.154665,86.9706647 58.629337,86.776 57.904,86.776 C57.1573296,86.776 56.5920019,87.013331 56.208,87.488 C55.8239981,87.962669 55.6106669,88.6159958 55.568,89.448 L54.128,89.448 C54.202667,88.189327 54.5919965,87.2213367 55.296,86.544 C56.0000035,85.8666633 56.9066611,85.528 58.016,85.528 C59.0720053,85.528 59.9093302,85.8106638 60.528,86.376 C61.1466698,86.9413362 61.456,87.7413282 61.456,88.776 C61.456,89.6293376 61.1813361,90.4959956 60.632,91.376 C60.0826639,92.2560044 59.3946708,93.0719962 58.568,93.824 C57.7413292,94.5760038 56.890671,95.2133307 56.016,95.736 L61.744,95.736 L61.744,96.936 L53.984,96.936 L53.984,95.88 Z M62.88,94.408 L62.88,93.192 L68.672,85.64 L70.24,85.64 L70.24,93.144 L71.904,93.144 L71.904,94.408 L70.24,94.408 L70.24,97 L68.768,97 L68.768,94.408 L62.88,94.408 Z M68.864,87.416 L64.416,93.144 L68.864,93.144 L68.864,87.416 Z M82.72,87.336 C83.178669,87.8480026 83.5333321,88.4479966 83.784,89.136 C84.0346679,89.8240034 84.16,90.5626627 84.16,91.352 C84.16,92.4613389 83.9200024,93.4559956 83.44,94.336 C82.9599976,95.2160044 82.3013375,95.9013309 81.464,96.392 C80.6266625,96.8826691 79.6853386,97.128 78.64,97.128 C77.9466632,97.128 77.2906698,97.0160011 76.672,96.792 C76.0533302,96.5679989 75.4986691,96.2480021 75.008,95.832 L73.952,97 L73.04,97 L74.528,95.352 C74.069331,94.8399974 73.7146679,94.2426701 73.464,93.56 C73.2133321,92.8773299 73.088,92.1413373 73.088,91.352 C73.088,90.2426611 73.3279976,89.2480044 73.808,88.368 C74.2880024,87.4879956 74.9519958,86.8026691 75.8,86.312 C76.6480042,85.8213309 77.5946614,85.576 78.64,85.576 C79.3440035,85.576 79.999997,85.6879989 80.608,85.912 C81.216003,86.1360011 81.7599976,86.4559979 82.24,86.872 L83.312,85.688 L84.208,85.688 L82.72,87.336 Z M74.592,91.352 C74.592,92.5253392 74.895997,93.5066627 75.504,94.296 L81.296,87.896 C80.954665,87.5866651 80.5573356,87.3493342 80.104,87.184 C79.6506644,87.0186658 79.1626693,86.936 78.64,86.936 C77.8613294,86.936 77.1653364,87.1146649 76.552,87.472 C75.9386636,87.8293351 75.4586684,88.34133 75.112,89.008 C74.7653316,89.67467 74.592,90.4559955 74.592,91.352 Z M82.672,91.352 C82.672,90.1679941 82.368003,89.1813373 81.76,88.392 L75.952,94.792 C76.6880037,95.4426699 77.5839947,95.768 78.64,95.768 C79.4080038,95.768 80.0986636,95.5866685 80.712,95.224 C81.3253364,94.8613315 81.8053316,94.34667 82.152,93.68 C82.4986684,93.01333 82.672,92.2373378 82.672,91.352 Z M93.472,86.872 L87.68,86.872 L87.68,90.648 C87.946668,90.2853315 88.3306642,89.9973344 88.832,89.784 C89.3333358,89.5706656 89.8826637,89.464 90.48,89.464 C91.280004,89.464 91.9439974,89.6319983 92.472,89.968 C93.0000026,90.3040017 93.3893321,90.7466639 93.64,91.296 C93.8906679,91.8453361 94.016,92.4559966 94.016,93.128 C94.016,94.2906725 93.6906699,95.2399963 93.04,95.976 C92.3893301,96.7120037 91.434673,97.08 90.176,97.08 C89.0453277,97.08 88.1226702,96.7733364 87.408,96.16 C86.6933298,95.5466636 86.2933338,94.7226718 86.208,93.688 L87.648,93.688 C87.7653339,94.3493366 88.0399978,94.8639982 88.472,95.232 C88.9040022,95.6000018 89.4506634,95.784 90.112,95.784 C90.9333374,95.784 91.5519979,95.5386691 91.968,95.048 C92.3840021,94.5573309 92.592,93.912004 92.592,93.112 C92.592,92.3333294 92.3786688,91.7253355 91.952,91.288 C91.5253312,90.8506645 90.9226706,90.632 90.144,90.632 C89.5893306,90.632 89.1040021,90.7519988 88.688,90.992 C88.2719979,91.2320012 87.9573344,91.5546646 87.744,91.96 L86.336,91.96 L86.336,85.576 L93.472,85.576 L93.472,86.872 Z" id="14939424Ø5" fill="#8B8B8B"></path>
                        <path d="M317.912,91.288 C317.912,89.4853243 318.210664,88.080005 318.808,87.072 C319.405336,86.063995 320.439993,85.56 321.912,85.56 C323.384007,85.56 324.42133,86.0666616 325.024,87.08 C325.62667,88.0933384 325.928,89.495991 325.928,91.288 C325.928,93.1013424 325.62667,94.5146616 325.024,95.528 C324.42133,96.5413384 323.384007,97.048 321.912,97.048 C320.439993,97.048 319.405336,96.5413384 318.808,95.528 C318.210664,94.5146616 317.912,93.1013424 317.912,91.288 Z M324.488,91.288 C324.488,90.3706621 324.421334,89.6026698 324.288,88.984 C324.154666,88.3653302 323.901335,87.8720018 323.528,87.504 C323.154665,87.1359982 322.616004,86.952 321.912,86.952 C321.218663,86.952 320.685335,87.1359982 320.312,87.504 C319.938665,87.8720018 319.685334,88.3653302 319.552,88.984 C319.418666,89.6026698 319.352,90.3706621 319.352,91.288 C319.352,92.2160046 319.418666,92.9919969 319.552,93.616 C319.685334,94.2400031 319.938665,94.7386648 320.312,95.112 C320.685335,95.4853352 321.218663,95.672 321.912,95.672 C322.616004,95.672 323.154665,95.4853352 323.528,95.112 C323.901335,94.7386648 324.154666,94.2400031 324.288,93.616 C324.421334,92.9919969 324.488,92.2160046 324.488,91.288 Z M328.84,95.928 C328.989334,96.3973357 329.064,96.8346646 329.064,97.24 C329.064,97.7946694 328.925335,98.2399983 328.648,98.576 C328.370665,98.9120017 327.954669,99.08 327.4,99.08 L327.4,98.456 C327.666668,98.456 327.861333,98.3840007 327.984,98.24 C328.106667,98.0959993 328.168,97.8693349 328.168,97.56 L328.168,97.416 L327.352,97.416 L327.352,95.928 L328.84,95.928 Z M330.76,88.376 C330.76,87.8213306 330.909332,87.314669 331.208,86.856 C331.506668,86.397331 331.94933,86.034668 332.536,85.768 C333.12267,85.501332 333.821329,85.368 334.632,85.368 C335.442671,85.368 336.138664,85.501332 336.72,85.768 C337.301336,86.034668 337.741332,86.397331 338.04,86.856 C338.338668,87.314669 338.488,87.8213306 338.488,88.376 C338.488,89.0053365 338.317335,89.549331 337.976,90.008 C337.634665,90.466669 337.117337,90.791999 336.424,90.984 C337.17067,91.1866677 337.751998,91.5386642 338.168,92.04 C338.584002,92.5413358 338.792,93.1599963 338.792,93.896 C338.792,94.962672 338.413337,95.799997 337.656,96.408 C336.898663,97.016003 335.890673,97.32 334.632,97.32 C333.373327,97.32 332.365337,97.016003 331.608,96.408 C330.850663,95.799997 330.472,94.962672 330.472,93.896 C330.472,93.1599963 330.677331,92.5413358 331.088,92.04 C331.498669,91.5386642 332.07733,91.1866677 332.824,90.984 C332.130663,90.791999 331.613335,90.466669 331.272,90.008 C330.930665,89.549331 330.76,89.0053365 330.76,88.376 Z M332.2,88.584 C332.2,89.2240032 332.418664,89.7173316 332.856,90.064 C333.293336,90.4106684 333.88533,90.584 334.632,90.584 C335.37867,90.584 335.967998,90.4106684 336.4,90.064 C336.832002,89.7173316 337.048,89.2240032 337.048,88.584 C337.048,87.9439968 336.829336,87.4506684 336.392,87.104 C335.954664,86.7573316 335.368004,86.584 334.632,86.584 C333.895996,86.584 333.306669,86.7573316 332.864,87.104 C332.421331,87.4506684 332.2,87.9439968 332.2,88.584 Z M331.896,93.816 C331.896,94.541337 332.141331,95.103998 332.632,95.504 C333.122669,95.904002 333.789329,96.104 334.632,96.104 C335.464004,96.104 336.125331,95.9013354 336.616,95.496 C337.106669,95.0906646 337.352,94.5306702 337.352,93.816 C337.352,93.090663 337.096003,92.5413352 336.584,92.168 C336.071997,91.7946648 335.421337,91.608 334.632,91.608 C333.831996,91.608 333.176003,91.7946648 332.664,92.168 C332.151997,92.5413352 331.896,93.090663 331.896,93.816 Z M339.832,87.08 L339.832,85.72 L343.064,85.72 L343.064,97 L341.528,97 L341.528,87.08 L339.832,87.08 Z M349,85.416 C349.725337,85.416 350.349331,85.5439987 350.872,85.8 C351.394669,86.0560013 351.789332,86.4079978 352.056,86.856 C352.322668,87.3040022 352.456,87.8106638 352.456,88.376 C352.456,89.0800035 352.250669,89.6719976 351.84,90.152 C351.429331,90.6320024 350.829337,90.9199995 350.04,91.016 L350.04,91.112 C350.861337,91.3253344 351.503998,91.6559978 351.968,92.104 C352.432002,92.5520022 352.664,93.1706627 352.664,93.96 C352.664,94.8880046 352.35467,95.6453304 351.736,96.232 C351.11733,96.8186696 350.226672,97.112 349.064,97.112 C347.901328,97.112 346.960004,96.8106697 346.24,96.208 C345.519996,95.6053303 345.096001,94.7226725 344.968,93.56 L346.408,93.56 C346.504,94.2640035 346.773331,94.8239979 347.216,95.24 C347.658669,95.6560021 348.258663,95.864 349.016,95.864 C349.73067,95.864 350.279998,95.6800018 350.664,95.312 C351.048002,94.9439982 351.24,94.4666696 351.24,93.88 C351.24,93.1759965 350.965336,92.6400018 350.416,92.272 C349.866664,91.9039982 349.085338,91.72 348.072,91.72 L347.688,91.72 L347.688,90.504 L348.072,90.504 C350.034676,90.504 351.016,89.8480066 351.016,88.536 C351.016,87.9599971 350.834668,87.501335 350.472,87.16 C350.109332,86.818665 349.608003,86.648 348.968,86.648 C348.327997,86.648 347.789336,86.8319982 347.352,87.2 C346.914664,87.5680018 346.658667,88.1093298 346.584,88.824 L345.16,88.824 C345.234667,87.757328 345.60533,86.9226697 346.272,86.32 C346.93867,85.7173303 347.847994,85.416 349,85.416 Z" id="0,813" fill="#8B8B8B"></path>
                    </g>
                </g>
            </g>
        </g>
    </g>
</svg>