<?xml version="1.0" encoding="UTF-8"?>
<svg width="497px" height="312px" viewBox="0 0 497 312" version="1.1" xmlns="http://www.w3.org/2000/svg" xmlns:xlink="http://www.w3.org/1999/xlink">
    <!-- Generator: Sketch 52.2 (67145) - http://www.bohemiancoding.com/sketch -->
    <title>Visualisations and Dashboards</title>
    <desc>Created with Sketch.</desc>
    <defs>
        <linearGradient x1="100%" y1="0%" x2="-4.84408291%" y2="100%" id="linearGradient-1">
            <stop stop-color="#3A3A3A" offset="0%"></stop>
            <stop stop-color="#171717" offset="100%"></stop>
        </linearGradient>
        <linearGradient x1="100%" y1="0%" x2="-31.4810172%" y2="1036.80396%" id="linearGradient-2">
            <stop stop-color="#3A3A3A" offset="0%"></stop>
            <stop stop-color="#171717" offset="100%"></stop>
        </linearGradient>
        <linearGradient x1="172.481923%" y1="-293.194832%" x2="3.72215855%" y2="100%" id="linearGradient-3">
            <stop stop-color="#3A3A3A" offset="0%"></stop>
            <stop stop-color="#393939" offset="0%"></stop>
            <stop stop-color="#171717" offset="100%"></stop>
        </linearGradient>
        <filter x="-173.7%" y="-275.0%" width="447.4%" height="650.0%" filterUnits="objectBoundingBox" id="filter-4">
            <feOffset dx="0" dy="10" in="SourceAlpha" result="shadowOffsetOuter1"></feOffset>
            <feGaussianBlur stdDeviation="12" in="shadowOffsetOuter1" result="shadowBlurOuter1"></feGaussianBlur>
            <feColorMatrix values="0 0 0 0 0.11372549   0 0 0 0 0.164705882   0 0 0 0 0.266666667  0 0 0 0.12 0" type="matrix" in="shadowBlurOuter1" result="shadowMatrixOuter1"></feColorMatrix>
            <feMerge>
                <feMergeNode in="shadowMatrixOuter1"></feMergeNode>
                <feMergeNode in="SourceGraphic"></feMergeNode>
            </feMerge>
        </filter>
        <filter x="-173.7%" y="-275.0%" width="447.4%" height="650.0%" filterUnits="objectBoundingBox" id="filter-5">
            <feOffset dx="0" dy="10" in="SourceAlpha" result="shadowOffsetOuter1"></feOffset>
            <feGaussianBlur stdDeviation="12" in="shadowOffsetOuter1" result="shadowBlurOuter1"></feGaussianBlur>
            <feColorMatrix values="0 0 0 0 0.11372549   0 0 0 0 0.164705882   0 0 0 0 0.266666667  0 0 0 0.12 0" type="matrix" in="shadowBlurOuter1" result="shadowMatrixOuter1"></feColorMatrix>
            <feMerge>
                <feMergeNode in="shadowMatrixOuter1"></feMergeNode>
                <feMergeNode in="SourceGraphic"></feMergeNode>
            </feMerge>
        </filter>
    </defs>
    <g id="Desktop-Design" stroke="none" stroke-width="1" fill="none" fill-rule="evenodd">
        <g id="ARSData_Solutions_v2@2x" transform="translate(-745.000000, -5017.000000)">
            <g id="Visualisations-and-Dashboards" transform="translate(745.000000, 5017.000000)">
                <path d="M0.5,0.5 L0.5,311.5 L39.5,311.5 L39.5,29.5 L496.5,29.5 L496.5,0.5 L0.5,0.5 Z" id="Combined-Shape" stroke="#0052FF"></path>
                <rect id="Rectangle-Copy-68" stroke="#0052FF" x="496.5" y="0.5" width="1" height="311"></rect>
                <rect id="Rectangle-Copy-70" stroke="#0052FF" x="268.5" y="170.5" width="1" height="140"></rect>
                <rect id="Rectangle-Copy-67" stroke="#0052FF" transform="translate(268.000000, 311.500000) scale(1, -1) translate(-268.000000, -311.500000) " x="39.5" y="311.5" width="457" height="1"></rect>
                <rect id="Rectangle" fill="#DEDEDE" x="72" y="278.688439" width="164" height="1"></rect>
                <path d="M73,278.262251 C82.5037868,249.444002 90.2283702,235.034877 96.1737502,235.034877 C105.09182,235.034877 110.108235,251.754899 119.583684,251.754899 C132.480505,251.754899 136.305065,241.559764 143.550997,241.559764 C147.856545,241.559764 159.15762,232.588045 166.403552,232.588045 C175.113654,232.588045 181.526454,251.754899 189.813485,251.754899 C198.762818,251.754899 200.403694,222.392909 212.108661,222.392909 C223.813627,222.392909 236.474944,203.226055 237,203.226055" id="Shape" stroke="#0052FF" stroke-linecap="round"></path>
                <path d="M73,278.442847 C80.2742693,268.26325 87.9988527,263.173451 96.1737502,263.173451 C108.436097,263.173451 106.781729,241.189113 119.31388,241.189113 C131.84603,241.189113 132.805133,259.180626 143.003842,259.180626 C156.370723,259.180626 154.442621,221.577299 166.960931,221.577299 C177.051556,221.577299 182.010174,239.656969 189.654957,239.656969 C197.29974,239.656969 202.890811,246.861234 213.223419,246.861234 C220.469351,246.861234 231.47897,223.931227 237,223.521179" id="Shape" stroke="#E63A0F" stroke-linecap="round"></path>
                <rect id="Rectangle" fill="#DEDEDE" x="72" y="203.290617" width="1" height="75.3978218"></rect>
                <rect id="Rectangle-Copy-69" stroke="#0052FF" transform="translate(268.000000, 170.500000) scale(1, -1) translate(-268.000000, -170.500000) " x="39.5" y="170.5" width="457" height="1"></rect>
                <path d="M426.489891,278.218074 C405.784796,278.218074 389,261.379934 389,240.609037 C389,219.838139 405.784796,203 426.489891,203 C447.194986,203 463.979782,219.838139 463.979782,240.609037 C463.979782,261.379934 447.194986,278.218074 426.489891,278.218074 Z M426.489891,274.239859 C445.004839,274.239859 460.01417,259.182827 460.01417,240.609037 C460.01417,222.035247 445.004839,206.978215 426.489891,206.978215 C407.974943,206.978215 392.965612,222.035247 392.965612,240.609037 C392.965612,259.182827 407.974943,274.239859 426.489891,274.239859 Z" id="Shape" fill="url(#linearGradient-1)"></path>
                <path d="M425.640754,266.444486 C411.479757,266.444486 400,254.928245 400,240.722243 C400,226.51624 411.479757,215 425.640754,215 C439.801752,215 451.281509,226.51624 451.281509,240.722243 C451.281509,254.928245 439.801752,266.444486 425.640754,266.444486 Z M425.640754,262.468355 C437.612753,262.468355 447.317975,252.732289 447.317975,240.722243 C447.317975,228.712196 437.612753,218.97613 425.640754,218.97613 C413.668756,218.97613 403.963534,228.712196 403.963534,240.722243 C403.963534,252.732289 413.668756,262.468355 425.640754,262.468355 Z" id="Shape" fill="url(#linearGradient-1)"></path>
                <path d="M391.500172,227.092944 C391.892611,226.067356 393.039515,225.555098 394.061854,225.948784 C395.084193,226.342471 395.594828,227.49302 395.202389,228.518608 C388.567225,245.858735 397.200779,265.311643 414.485973,271.967894 C431.771166,278.624146 451.162447,269.963153 457.797611,252.623026 C464.432775,235.282899 455.799221,215.829991 438.514027,209.17374 C435.183332,207.891143 431.725762,207.157878 428.23766,206.975569 C427.14407,206.918412 426.303729,205.982729 426.360705,204.885663 C426.417681,203.788598 427.3504,202.945586 428.44399,203.002743 C432.346807,203.206727 436.214411,204.02695 439.935175,205.459757 C459.265047,212.903381 468.919871,234.657387 461.499828,254.048691 C454.079786,273.439994 432.394696,283.125502 413.064825,275.681878 C393.734953,268.238254 384.080129,246.484247 391.500172,227.092944 Z" id="Shape" fill="#0052FF"></path>
                <path d="M447.735716,254.199693 C447.156545,255.129507 445.938859,255.414273 445.015939,254.835736 C444.093019,254.257198 443.814356,253.034438 444.393527,252.104624 C450.728697,241.934013 447.680587,228.559058 437.585383,222.230827 C434.326537,220.188002 430.66105,219.084452 426.902869,218.964758 C425.813959,218.930077 424.962583,218.014649 425.001268,216.920091 C425.039952,215.825533 425.954048,214.966333 427.042958,215.001014 C431.490519,215.142665 435.83176,216.44966 439.682749,218.863673 C451.623793,226.348979 455.229229,242.169454 447.735716,254.199693 Z" id="Shape" fill="#E63A0F"></path>
                <path d="M421.808,237.888 L419.672,243 L418.904,243 L421.072,237.96 L418.112,237.96 L418.112,237.328 L421.808,237.328 L421.808,237.888 Z M422.616,238.688 C422.616,238.410665 422.690666,238.157334 422.84,237.928 C422.989334,237.698666 423.210665,237.517334 423.504,237.384 C423.797335,237.250666 424.146665,237.184 424.552,237.184 C424.957335,237.184 425.305332,237.250666 425.596,237.384 C425.886668,237.517334 426.106666,237.698666 426.256,237.928 C426.405334,238.157334 426.48,238.410665 426.48,238.688 C426.48,239.002668 426.394668,239.274666 426.224,239.504 C426.053332,239.733334 425.794668,239.896 425.448,239.992 C425.821335,240.093334 426.111999,240.269332 426.32,240.52 C426.528001,240.770668 426.632,241.079998 426.632,241.448 C426.632,241.981336 426.442669,242.399998 426.064,242.704 C425.685331,243.008002 425.181336,243.16 424.552,243.16 C423.922664,243.16 423.418669,243.008002 423.04,242.704 C422.661331,242.399998 422.472,241.981336 422.472,241.448 C422.472,241.079998 422.574666,240.770668 422.78,240.52 C422.985334,240.269332 423.274665,240.093334 423.648,239.992 C423.301332,239.896 423.042668,239.733334 422.872,239.504 C422.701332,239.274666 422.616,239.002668 422.616,238.688 Z M423.336,238.792 C423.336,239.112002 423.445332,239.358666 423.664,239.532 C423.882668,239.705334 424.178665,239.792 424.552,239.792 C424.925335,239.792 425.219999,239.705334 425.436,239.532 C425.652001,239.358666 425.76,239.112002 425.76,238.792 C425.76,238.471998 425.650668,238.225334 425.432,238.052 C425.213332,237.878666 424.920002,237.792 424.552,237.792 C424.183998,237.792 423.889334,237.878666 423.668,238.052 C423.446666,238.225334 423.336,238.471998 423.336,238.792 Z M423.184,241.408 C423.184,241.770668 423.306665,242.051999 423.552,242.252 C423.797335,242.452001 424.130665,242.552 424.552,242.552 C424.968002,242.552 425.298665,242.450668 425.544,242.248 C425.789335,242.045332 425.912,241.765335 425.912,241.408 C425.912,241.045332 425.784001,240.770668 425.528,240.584 C425.271999,240.397332 424.946669,240.304 424.552,240.304 C424.151998,240.304 423.824001,240.397332 423.568,240.584 C423.311999,240.770668 423.184,241.045332 423.184,241.408 Z M428.48,237.28 C428.816002,237.28 429.094666,237.387999 429.316,237.604 C429.537334,237.820001 429.648,238.106665 429.648,238.464 C429.648,238.821335 429.538668,239.106666 429.32,239.32 C429.101332,239.533334 428.821335,239.64 428.48,239.64 C428.138665,239.64 427.858668,239.533334 427.64,239.32 C427.421332,239.106666 427.312,238.821335 427.312,238.464 C427.312,238.106665 427.421332,237.820001 427.64,237.604 C427.858668,237.387999 428.138665,237.28 428.48,237.28 Z M431.664,237.352 L428.424,243 L427.704,243 L430.944,237.352 L431.664,237.352 Z M427.824,238.464 C427.824,238.677334 427.883999,238.850666 428.004,238.984 C428.124001,239.117334 428.279999,239.184 428.472,239.184 C428.669334,239.184 428.829333,239.117334 428.952,238.984 C429.074667,238.850666 429.136,238.677334 429.136,238.464 C429.136,238.250666 429.074667,238.077334 428.952,237.944 C428.829333,237.810666 428.669334,237.744 428.472,237.744 C428.279999,237.744 428.124001,237.810666 428.004,237.944 C427.883999,238.077334 427.824,238.250666 427.824,238.464 Z M430.896,240.712 C431.237335,240.712 431.515999,240.818666 431.732,241.032 C431.948001,241.245334 432.056,241.530665 432.056,241.888 C432.056,242.245335 431.948001,242.531999 431.732,242.748 C431.515999,242.964001 431.237335,243.072 430.896,243.072 C430.559998,243.072 430.281334,242.964001 430.06,242.748 C429.838666,242.531999 429.728,242.245335 429.728,241.888 C429.728,241.530665 429.837332,241.245334 430.056,241.032 C430.274668,240.818666 430.554665,240.712 430.896,240.712 Z M430.24,241.888 C430.24,242.101334 430.299999,242.274666 430.42,242.408 C430.540001,242.541334 430.698666,242.608 430.896,242.608 C431.088001,242.608 431.243999,242.541334 431.364,242.408 C431.484001,242.274666 431.544,242.101334 431.544,241.888 C431.544,241.674666 431.484001,241.501334 431.364,241.368 C431.243999,241.234666 431.088001,241.168 430.896,241.168 C430.698666,241.168 430.540001,241.234666 430.42,241.368 C430.299999,241.501334 430.24,241.674666 430.24,241.888 Z" id="78%" fill="#8B8B8B"></path>
                <path d="M72,130 L98.5,130 C99.3284271,130 100,130.671573 100,131.5 L100,131.5 C100,132.328427 99.3284271,133 98.5,133 L72,133 L72,130 Z" id="Rectangle-" fill="#0052FF"></path>
                <path d="M72,135 L113.5,135 C114.328427,135 115,135.671573 115,136.5 L115,136.5 C115,137.328427 114.328427,138 113.5,138 L72,138 L72,135 Z" id="Rectangle-" fill="url(#linearGradient-2)"></path>
                <path d="M72,119 L226.5,119 C227.328427,119 228,119.671573 228,120.5 L228,120.5 C228,121.328427 227.328427,122 226.5,122 L72,122 L72,119 Z" id="Rectangle-" fill="url(#linearGradient-2)"></path>
                <g id="Group-3" transform="translate(301.000000, 209.000000)">
                    <path d="M11,1 L55.5,1 C55.7761424,1 56,1.22385763 56,1.5 L56,1.5 C56,1.77614237 55.7761424,2 55.5,2 L11,2 L11,1 Z" id="Rectangle--Copy" fill="url(#linearGradient-2)"></path>
                    <path d="M11,16 L55.5,16 C55.7761424,16 56,16.2238576 56,16.5 L56,16.5 C56,16.7761424 55.7761424,17 55.5,17 L11,17 L11,16 Z" id="Rectangle--Copy-2" fill="url(#linearGradient-2)"></path>
                    <path d="M11,31 L55.5,31 C55.7761424,31 56,31.2238576 56,31.5 L56,31.5 C56,31.7761424 55.7761424,32 55.5,32 L11,32 L11,31 Z" id="Rectangle--Copy-3" fill="url(#linearGradient-2)"></path>
                    <path d="M11,46 L55.5,46 C55.7761424,46 56,46.2238576 56,46.5 L56,46.5 C56,46.7761424 55.7761424,47 55.5,47 L11,47 L11,46 Z" id="Rectangle--Copy-4" fill="url(#linearGradient-2)"></path>
                    <circle id="Oval" fill="#0052FF" cx="1.5" cy="1.5" r="1.5"></circle>
                    <circle id="Oval-Copy-13" fill="#0052FF" cx="1.5" cy="16.5" r="1.5"></circle>
                    <circle id="Oval-Copy-14" fill="#0052FF" cx="1.5" cy="31.5" r="1.5"></circle>
                    <circle id="Oval-Copy-15" fill="#0052FF" cx="1.5" cy="46.5" r="1.5"></circle>
                    <path d="M11,61 L55.5,61 C55.7761424,61 56,61.2238576 56,61.5 L56,61.5 C56,61.7761424 55.7761424,62 55.5,62 L11,62 L11,61 Z" id="Rectangle--Copy-4" fill="url(#linearGradient-2)"></path>
                    <circle id="Oval-Copy-15" fill="#0052FF" cx="1.5" cy="61.5" r="1.5"></circle>
                </g>
                <polygon id="Shape" fill="url(#linearGradient-3)" points="266.152675 129.564151 294.565235 127.896231 322.515774 120.794123 351.509243 122.300631 379.668368 117.341709 406.975645 125.038686 435.143521 115.679562 463.311398 111 463.311398 137.150494 266.152675 137.150494"></polygon>
                <path d="M267,123.711765 C267,123.711765 275.717903,122.88596 293.153708,121.23435 L321.989848,101.246378 L350.15538,106.717566 L377.867697,105.152474 L406.486444,93.5336603 L434.413308,103.262428 L462.817508,86" id="Shape" stroke="#0052FF" stroke-linecap="round"></path>
                <path d="M267,112.711765 C267,112.711765 280.343887,109.39868 307.031662,102.77251 L329.13963,87.6970778 L364.908754,93.8558824 L376.635318,82.5336603 L416.543363,72.9203111 L451.78018,87.6970778 L462.817508,75" id="Shape-Copy" stroke="#E63A0F" stroke-linecap="round"></path>
                <g id="Pointer" transform="translate(387.000000, 63.000000)">
                    <g id="Bubble" transform="translate(0.742955, 0.000000)">
                        <g filter="url(#filter-4)">
                            <path d="M22.1214839,21 L20.5025322,22.8428251 C19.773517,23.6726508 18.5098268,23.7543738 17.6800012,23.0253585 C17.6152895,22.9685083 17.554318,22.9075368 17.4974678,22.8428251 L15.8785161,21 L4,21 C1.790861,21 2.23265109e-15,19.209139 0,17 L0,4 C-2.705415e-16,1.790861 1.790861,1.29399067e-15 4,8.8817842e-16 L34,0 C36.209139,-4.05812251e-16 38,1.790861 38,4 L38,17 C38,19.209139 36.209139,21 34,21 L22.1214839,21 Z" id="BG" fill="url(#linearGradient-3)"></path>
                            <path d="M13.344,10.408 L11.656,10.408 L11.656,12.112 L10.944,12.112 L10.944,10.408 L9.264,10.408 L9.264,9.744 L10.944,9.744 L10.944,8.032 L11.656,8.032 L11.656,9.744 L13.344,9.744 L13.344,10.408 Z M13.944,12.44 C14.8506712,11.831997 15.5759973,11.228003 16.12,10.628 C16.6640027,10.027997 16.936,9.46933592 16.936,8.952 C16.936,8.6319984 16.8546675,8.37466764 16.692,8.18 C16.5293325,7.98533236 16.2666685,7.888 15.904,7.888 C15.5306648,7.888 15.248001,8.00666548 15.056,8.244 C14.863999,8.48133452 14.7573334,8.80799792 14.736,9.224 L14.016,9.224 C14.0533335,8.59466352 14.2479982,8.11066836 14.6,7.772 C14.9520018,7.43333164 15.4053306,7.264 15.96,7.264 C16.4880026,7.264 16.9066651,7.40533192 17.216,7.688 C17.5253349,7.97066808 17.68,8.37066408 17.68,8.888 C17.68,9.3146688 17.542668,9.7479978 17.268,10.188 C16.993332,10.6280022 16.6493354,11.0359981 16.236,11.412 C15.8226646,11.7880019 15.3973355,12.1066654 14.96,12.368 L17.824,12.368 L17.824,12.968 L13.944,12.968 L13.944,12.44 Z M18.392,11.704 L18.392,11.096 L21.288,7.32 L22.072,7.32 L22.072,11.072 L22.904,11.072 L22.904,11.704 L22.072,11.704 L22.072,13 L21.336,13 L21.336,11.704 L18.392,11.704 Z M21.384,8.208 L19.16,11.072 L21.384,11.072 L21.384,8.208 Z M24.536,7.28 C24.8720017,7.28 25.1506656,7.38799892 25.372,7.604 C25.5933344,7.82000108 25.704,8.10666488 25.704,8.464 C25.704,8.82133512 25.5946678,9.1066656 25.376,9.32 C25.1573322,9.5333344 24.877335,9.64 24.536,9.64 C24.194665,9.64 23.9146678,9.5333344 23.696,9.32 C23.4773322,9.1066656 23.368,8.82133512 23.368,8.464 C23.368,8.10666488 23.4773322,7.82000108 23.696,7.604 C23.9146678,7.38799892 24.194665,7.28 24.536,7.28 Z M27.72,7.352 L24.48,13 L23.76,13 L27,7.352 L27.72,7.352 Z M23.88,8.464 C23.88,8.6773344 23.9399994,8.850666 24.06,8.984 C24.1800006,9.117334 24.335999,9.184 24.528,9.184 C24.7253343,9.184 24.8853327,9.117334 25.008,8.984 C25.1306673,8.850666 25.192,8.6773344 25.192,8.464 C25.192,8.2506656 25.1306673,8.077334 25.008,7.944 C24.8853327,7.810666 24.7253343,7.744 24.528,7.744 C24.335999,7.744 24.1800006,7.810666 24.06,7.944 C23.9399994,8.077334 23.88,8.2506656 23.88,8.464 Z M26.952,10.712 C27.293335,10.712 27.5719989,10.8186656 27.788,11.032 C28.0040011,11.2453344 28.112,11.5306649 28.112,11.888 C28.112,12.2453351 28.0040011,12.5319989 27.788,12.748 C27.5719989,12.9640011 27.293335,13.072 26.952,13.072 C26.6159983,13.072 26.3373344,12.9640011 26.116,12.748 C25.8946656,12.5319989 25.784,12.2453351 25.784,11.888 C25.784,11.5306649 25.8933322,11.2453344 26.112,11.032 C26.3306678,10.8186656 26.610665,10.712 26.952,10.712 Z M26.296,11.888 C26.296,12.1013344 26.3559994,12.274666 26.476,12.408 C26.5960006,12.541334 26.7546657,12.608 26.952,12.608 C27.144001,12.608 27.2999994,12.541334 27.42,12.408 C27.5400006,12.274666 27.6,12.1013344 27.6,11.888 C27.6,11.6746656 27.5400006,11.501334 27.42,11.368 C27.2999994,11.234666 27.144001,11.168 26.952,11.168 C26.7546657,11.168 26.5960006,11.234666 26.476,11.368 C26.3559994,11.501334 26.296,11.6746656 26.296,11.888 Z" id="+24%" fill="#8B8B8B"></path>
                        </g>
                    </g>
                </g>
                <path d="M72,114 L172.5,114 C173.328427,114 174,114.671573 174,115.5 L174,115.5 C174,116.328427 173.328427,117 172.5,117 L72,117 L72,114 Z" id="Rectangle-" fill="#0052FF"></path>
                <path d="M72,97 L162.5,97 C163.328427,97 164,97.6715729 164,98.5 L164,98.5 C164,99.3284271 163.328427,100 162.5,100 L72,100 L72,97 Z" id="Rectangle-" fill="#0052FF"></path>
                <path d="M72,102 L211.5,102 C212.328427,102 213,102.671573 213,103.5 L213,103.5 C213,104.328427 212.328427,105 211.5,105 L72,105 L72,102 Z" id="Rectangle-" fill="url(#linearGradient-2)"></path>
                <path d="M72,79 L145.5,79 C146.328427,79 147,79.6715729 147,80.5 L147,80.5 C147,81.3284271 146.328427,82 145.5,82 L72,82 L72,79 Z" id="Rectangle-" fill="#0052FF"></path>
                <path d="M72,84 L185.5,84 C186.328427,84 187,84.6715729 187,85.5 L187,85.5 C187,86.3284271 186.328427,87 185.5,87 L72,87 L72,84 Z" id="Rectangle-" fill="url(#linearGradient-2)"></path>
                <path d="M72,62 L117.5,62 C118.328427,62 119,62.6715729 119,63.5 L119,63.5 C119,64.3284271 118.328427,65 117.5,65 L72,65 L72,62 Z" id="Rectangle-" fill="#0052FF"></path>
                <path d="M72,67 L142.5,67 C143.328427,67 144,67.6715729 144,68.5 L144,68.5 C144,69.3284271 143.328427,70 142.5,70 L72,70 L72,67 Z" id="Rectangle-" fill="url(#linearGradient-2)"></path>
                <g id="Pointer-Copy-2" transform="translate(99.000000, 211.000000)">
                    <g id="Bubble" transform="translate(0.742955, 0.000000)">
                        <g filter="url(#filter-5)">
                            <path d="M22.1214839,21 L20.5025322,22.8428251 C19.773517,23.6726508 18.5098268,23.7543738 17.6800012,23.0253585 C17.6152895,22.9685083 17.554318,22.9075368 17.4974678,22.8428251 L15.8785161,21 L4,21 C1.790861,21 2.705415e-16,19.209139 0,17 L0,4 C-2.705415e-16,1.790861 1.790861,4.05812251e-16 4,0 L34,0 C36.209139,3.51840692e-15 38,1.790861 38,4 L38,17 C38,19.209139 36.209139,21 34,21 L22.1214839,21 Z" id="BG" fill="url(#linearGradient-3)"></path>
                            <path d="M15.08,9.76 L15.08,10.376 L11.88,10.376 L11.88,9.76 L15.08,9.76 Z M20.184,7.936 L17.288,7.936 L17.288,9.824 C17.421334,9.64266576 17.6133321,9.4986672 17.864,9.392 C18.1146679,9.2853328 18.3893318,9.232 18.688,9.232 C19.088002,9.232 19.4199987,9.31599916 19.684,9.484 C19.9480013,9.65200084 20.142666,9.87333196 20.268,10.148 C20.393334,10.422668 20.456,10.7279983 20.456,11.064 C20.456,11.6453362 20.293335,12.1199982 19.968,12.488 C19.642665,12.8560018 19.1653365,13.04 18.536,13.04 C17.9706638,13.04 17.5093351,12.8866682 17.152,12.58 C16.7946649,12.2733318 16.5946669,11.8613359 16.552,11.344 L17.272,11.344 C17.330667,11.6746683 17.4679989,11.9319991 17.684,12.116 C17.9000011,12.3000009 18.1733317,12.392 18.504,12.392 C18.9146687,12.392 19.223999,12.2693346 19.432,12.024 C19.640001,11.7786654 19.744,11.456002 19.744,11.056 C19.744,10.6666647 19.6373344,10.3626678 19.424,10.144 C19.2106656,9.92533224 18.9093353,9.816 18.52,9.816 C18.2426653,9.816 18.000001,9.8759994 17.792,9.996 C17.583999,10.1160006 17.4266672,10.2773323 17.32,10.48 L16.616,10.48 L16.616,7.288 L20.184,7.288 L20.184,7.936 Z M22.288,7.28 C22.6240017,7.28 22.9026656,7.38799892 23.124,7.604 C23.3453344,7.82000108 23.456,8.10666488 23.456,8.464 C23.456,8.82133512 23.3466678,9.1066656 23.128,9.32 C22.9093322,9.5333344 22.629335,9.64 22.288,9.64 C21.946665,9.64 21.6666678,9.5333344 21.448,9.32 C21.2293322,9.1066656 21.12,8.82133512 21.12,8.464 C21.12,8.10666488 21.2293322,7.82000108 21.448,7.604 C21.6666678,7.38799892 21.946665,7.28 22.288,7.28 Z M25.472,7.352 L22.232,13 L21.512,13 L24.752,7.352 L25.472,7.352 Z M21.632,8.464 C21.632,8.6773344 21.6919994,8.850666 21.812,8.984 C21.9320006,9.117334 22.087999,9.184 22.28,9.184 C22.4773343,9.184 22.6373327,9.117334 22.76,8.984 C22.8826673,8.850666 22.944,8.6773344 22.944,8.464 C22.944,8.2506656 22.8826673,8.077334 22.76,7.944 C22.6373327,7.810666 22.4773343,7.744 22.28,7.744 C22.087999,7.744 21.9320006,7.810666 21.812,7.944 C21.6919994,8.077334 21.632,8.2506656 21.632,8.464 Z M24.704,10.712 C25.045335,10.712 25.3239989,10.8186656 25.54,11.032 C25.7560011,11.2453344 25.864,11.5306649 25.864,11.888 C25.864,12.2453351 25.7560011,12.5319989 25.54,12.748 C25.3239989,12.9640011 25.045335,13.072 24.704,13.072 C24.3679983,13.072 24.0893344,12.9640011 23.868,12.748 C23.6466656,12.5319989 23.536,12.2453351 23.536,11.888 C23.536,11.5306649 23.6453322,11.2453344 23.864,11.032 C24.0826678,10.8186656 24.362665,10.712 24.704,10.712 Z M24.048,11.888 C24.048,12.1013344 24.1079994,12.274666 24.228,12.408 C24.3480006,12.541334 24.5066657,12.608 24.704,12.608 C24.896001,12.608 25.0519994,12.541334 25.172,12.408 C25.2920006,12.274666 25.352,12.1013344 25.352,11.888 C25.352,11.6746656 25.2920006,11.501334 25.172,11.368 C25.0519994,11.234666 24.896001,11.168 24.704,11.168 C24.5066657,11.168 24.3480006,11.234666 24.228,11.368 C24.1079994,11.501334 24.048,11.6746656 24.048,11.888 Z" id="-5%" fill="#8B8B8B"></path>
                        </g>
                    </g>
                </g>
                <rect id="Rectangle" fill="#0052FF" x="0" y="29" width="39" height="1"></rect>
                <rect id="Rectangle" fill="#0052FF" x="0" y="59" width="39" height="1"></rect>
                <rect id="Rectangle" fill="#0052FF" x="0" y="89" width="39" height="1"></rect>
            </g>
        </g>
    </g>
</svg>